<svg width="30" height="34" viewBox="0 0 30 34" fill="none" xmlns="http://www.w3.org/2000/svg">
<path fill-rule="evenodd" clip-rule="evenodd" d="M16.0366 6.00784C15.5218 4.43157 14.1328 3.30225 12.5 3.30225C10.8672 3.30225 9.47818 4.43157 8.96338 6.00784H1.29129C1.11111 6.00784 0.940942 6.03893 0.780781 6.10113C0.62062 6.16333 0.480481 6.25663 0.36036 6.38102C0.24024 6.50542 0.15015 6.65055 0.0900901 6.81641C0.0300297 6.98227 0 7.1585 0 7.34509C0 7.55242 0.0300297 7.73383 0.0900901 7.88933C0.15015 8.04482 0.24024 8.19513 0.36036 8.34026C0.480481 8.46466 0.62062 8.55796 0.780781 8.62015C0.940942 8.68235 1.11111 8.71345 1.29129 8.71345H8.96336C9.47815 10.2897 10.8672 11.4191 12.5 11.4191C14.1328 11.4191 15.5218 10.2897 16.0366 8.71345H28.7087C28.8889 8.71345 29.0591 8.68235 29.2192 8.62015C29.3794 8.55796 29.5195 8.46466 29.6396 8.34026C29.7598 8.19513 29.8498 8.04482 29.9099 7.88933C29.97 7.73383 30 7.55242 30 7.34509C30 7.1585 29.97 6.98227 29.9099 6.81641C29.8498 6.65055 29.7598 6.50542 29.6396 6.38102C29.5195 6.25663 29.3794 6.16333 29.2192 6.10113C29.0591 6.03893 28.8889 6.00784 28.7087 6.00784H16.0366ZM10.3345 6.00784C10.7667 5.19915 11.5746 4.65508 12.5 4.65508C13.4253 4.65508 14.2332 5.19915 14.6655 6.00784H10.3345ZM10.3344 8.71345C10.7667 9.52219 11.5746 10.0663 12.5 10.0663C13.4253 10.0663 14.2333 9.52219 14.6655 8.71345H10.3344ZM0.36036 17.8099C0.24024 17.6648 0.15015 17.5145 0.0900901 17.359C0.0300297 17.2035 0 17.0221 0 16.8148C0 16.6282 0.0300297 16.4519 0.0900901 16.2861C0.15015 16.1202 0.24024 15.9751 0.36036 15.8507C0.480481 15.7263 0.62062 15.633 0.780781 15.5708C0.940942 15.5086 1.11111 15.4775 1.29129 15.4775H18.9634C19.4782 13.9012 20.8672 12.7719 22.5 12.7719C24.1328 12.7719 25.5218 13.9012 26.0366 15.4775H28.7087C28.8889 15.4775 29.0591 15.5086 29.2192 15.5708C29.3794 15.633 29.5195 15.7263 29.6396 15.8507C29.7598 15.9751 29.8498 16.1202 29.9099 16.2861C29.97 16.4519 30 16.6282 30 16.8148C30 17.0221 29.97 17.2035 29.9099 17.359C29.8498 17.5145 29.7598 17.6648 29.6396 17.8099C29.5195 17.9343 29.3794 18.0276 29.2192 18.0898C29.0591 18.152 28.8889 18.1831 28.7087 18.1831H26.0366C25.5218 19.7594 24.1328 20.8888 22.5 20.8888C20.8672 20.8888 19.4782 19.7594 18.9634 18.1831H1.29129C1.11111 18.1831 0.940942 18.152 0.780781 18.0898C0.62062 18.0276 0.480481 17.9343 0.36036 17.8099ZM22.5 19.536C21.5746 19.536 20.7667 18.9919 20.3344 18.1831H24.6656C24.2333 18.9919 23.4254 19.536 22.5 19.536ZM24.6655 15.4775H20.3345C20.7667 14.6688 21.5747 14.1248 22.5 14.1248C23.4253 14.1248 24.2332 14.6688 24.6655 15.4775ZM0.0900901 26.8286C0.15015 26.9841 0.24024 27.1344 0.36036 27.2795C0.480481 27.4039 0.62062 27.4972 0.780781 27.5594C0.940942 27.6216 1.11111 27.6527 1.29129 27.6527H3.96337C4.47816 29.229 5.86722 30.3584 7.5 30.3584C9.13278 30.3584 10.5218 29.229 11.0366 27.6527H28.7087C28.8889 27.6527 29.0591 27.6216 29.2192 27.5594C29.3794 27.4972 29.5195 27.4039 29.6396 27.2795C29.7598 27.1344 29.8498 26.9841 29.9099 26.8286C29.97 26.6731 30 26.4917 30 26.2844C30 26.0978 29.97 25.9215 29.9099 25.7557C29.8498 25.5898 29.7598 25.4447 29.6396 25.3203C29.5195 25.1959 29.3794 25.1026 29.2192 25.0404C29.0591 24.9782 28.8889 24.9471 28.7087 24.9471H11.0366C10.5218 23.3708 9.13276 22.2415 7.5 22.2415C5.86724 22.2415 4.47819 23.3708 3.96339 24.9471H1.29129C1.11111 24.9471 0.940942 24.9782 0.780781 25.0404C0.62062 25.1026 0.480481 25.1959 0.36036 25.3203C0.24024 25.4447 0.15015 25.5898 0.0900901 25.7557C0.0300297 25.9215 0 26.0978 0 26.2844C0 26.4917 0.0300297 26.6731 0.0900901 26.8286ZM9.66556 27.6527H5.33441C5.76667 28.4615 6.57461 29.0056 7.49999 29.0056C8.42536 29.0056 9.23331 28.4615 9.66556 27.6527ZM5.33447 24.9471H9.66551C9.23324 24.1384 8.42532 23.5944 7.49999 23.5944C6.57465 23.5944 5.76674 24.1384 5.33447 24.9471Z" fill="#141850"/>
</svg>
