<svg width="280" height="243" viewBox="0 0 280 243" fill="none" xmlns="http://www.w3.org/2000/svg">
<g clip-path="url(#clip0)">
<path d="M163.89 43.3286L219.43 51.8352L180.402 56.6088L163.89 43.3286Z" fill="#68E1FD"/>
<path d="M180.402 56.609L183.36 76.6822L188.09 60.0157L219.43 51.8354L180.402 56.609Z" fill="#68E1FD"/>
<path d="M180.402 56.609L183.36 76.6822L188.09 60.0157L219.43 51.8354L180.402 56.609Z" fill="url(#paint0_linear)"/>
<path d="M199.907 78.3957L188.091 60.0157L219.431 51.8354L199.907 78.3957Z" fill="#68E1FD"/>
<path d="M183.361 76.6821L194.717 70.297L188.091 60.0156L183.361 76.6821Z" fill="white"/>
<path opacity="0.59" d="M183.361 76.6821L194.717 70.297L188.091 60.0156L183.361 76.6821Z" fill="#68E1FD"/>
<path d="M173.988 78.6202L173.474 75.9479C174.073 75.8119 174.665 75.6348 175.246 75.4175L176.061 77.9674C175.383 78.2366 174.69 78.4547 173.988 78.6202Z" fill="#68E1FD"/>
<path d="M102.025 202.997C100.732 202.507 99.4742 202.017 98.2518 201.487L99.0667 198.937C100.254 199.447 101.494 199.937 102.752 200.406L102.025 202.997ZM90.8641 197.917C89.624 197.223 88.4193 196.509 87.3209 195.877L88.437 193.409C89.5177 194.102 90.6693 194.796 91.874 195.449L90.8641 197.917ZM186.531 196.244H182.545V193.511L186.46 193.633L186.531 196.244ZM194.503 196.081L194.379 193.368C195.708 193.368 197.019 193.184 198.277 193.042L198.472 195.755C197.232 195.897 195.903 195.999 194.539 196.081H194.503ZM174.626 195.449L170.675 194.979L170.941 192.266C172.252 192.45 173.545 192.593 174.839 192.736L174.626 195.449ZM206.515 194.469L206.108 191.797C207.401 191.532 208.694 191.226 209.917 190.9L210.448 193.551C209.119 193.98 207.791 194.286 206.444 194.551L206.515 194.469ZM218.155 190.879L217.322 188.35C218.562 187.799 219.749 187.228 220.865 186.616L221.893 189.064C220.635 189.798 219.377 190.41 218.084 190.961L218.155 190.879ZM80.6597 190.512C79.5989 189.525 78.593 188.462 77.6479 187.33L79.4195 185.453C80.2983 186.505 81.2331 187.493 82.2187 188.411L80.6597 190.512ZM228.837 184.188L227.385 182.026C228.005 181.475 228.607 180.883 229.156 180.271L230.166 179.129L231.814 181.067L230.715 182.271C230.166 183.005 229.44 183.658 228.766 184.27L228.837 184.188ZM72.9354 179.537C72.3324 178.1 71.8576 176.596 71.5181 175.049L73.8212 174.457C74.0847 175.864 74.4828 177.232 75.0082 178.537L72.9354 179.537ZM117.049 178.884L113.24 177.089L114.196 174.6C115.383 175.192 116.588 175.783 117.74 176.355L117.049 178.884ZM237.199 174.009L235.268 172.438C235.994 171.252 236.651 170.011 237.235 168.725L239.325 169.97C238.669 171.4 237.93 172.776 237.111 174.09L237.199 174.009ZM106.1 173.234C104.895 172.56 103.708 171.867 102.557 171.194L103.62 168.929C104.771 169.623 105.941 170.316 107.163 170.969L106.1 173.234ZM95.5235 166.889C94.3719 166.114 93.2204 165.318 92.122 164.502L93.3798 162.197C94.4605 162.993 95.5944 163.788 96.7282 164.564L95.5235 166.889ZM73.7327 166.094L71.4118 165.584C71.6851 164.029 72.0642 162.501 72.5457 161.014L74.7602 161.953C74.341 163.268 74.0093 164.618 73.7681 165.992L73.7327 166.094ZM241.682 161.035L239.325 160.749C239.393 160.072 239.428 159.391 239.432 158.709C239.429 158.027 239.394 157.346 239.325 156.669L241.682 156.383C241.752 157.176 241.788 157.973 241.788 158.77C241.793 159.492 241.769 160.213 241.717 160.933L241.682 161.035ZM85.5139 159.362C84.4332 158.444 83.3525 157.526 82.325 156.587L83.7777 154.445C84.7875 155.363 85.8328 156.261 86.8957 157.159L85.5139 159.362ZM78.3388 154.119L76.3724 152.61C77.1164 151.365 77.9314 150.121 78.7995 148.876L80.5711 150.59C79.8093 151.753 79.0298 152.956 78.3388 154.119ZM76.2838 150.57C75.2917 149.509 74.335 148.407 73.4315 147.326L75.2031 145.429C76.0889 146.49 76.9747 147.469 77.9668 148.591L76.2838 150.57ZM237.128 148.387C236.536 147.111 235.867 145.884 235.127 144.715L237.04 143.103C237.844 144.406 238.572 145.769 239.219 147.183L237.128 148.387ZM85.9391 144.103L84.3269 142.063C85.2836 141.043 86.2934 140.023 87.3386 139.003L88.8445 141.043C87.8347 142.104 86.8603 143.103 85.9391 144.103ZM68.2229 140.186C67.408 138.921 66.6285 137.636 65.9376 136.351L67.9395 134.903C68.595 136.127 69.3391 137.351 70.1186 138.554L68.2229 140.186ZM229.971 138.146C229.068 137.187 228.076 136.229 227.03 135.29L228.483 133.25C229.581 134.229 230.609 135.29 231.566 136.249L229.971 138.146ZM95.0452 135.698L93.7519 133.454C94.8326 132.598 95.9664 131.741 97.0825 130.904L98.3581 133.209C97.2951 134.005 96.1081 134.841 95.0452 135.698ZM220.635 130.17C219.554 129.395 218.42 128.64 217.269 127.906L218.42 125.519C219.607 126.274 220.777 127.069 221.875 127.844L220.635 130.17ZM105.037 128.66L103.921 126.274C105.072 125.539 106.277 124.825 107.464 124.234L108.527 126.682C107.358 127.212 106.153 127.926 105.037 128.64V128.66ZM62.2349 128.13C61.7388 126.661 61.2959 125.152 60.9416 123.683L63.227 122.969C63.5636 124.336 63.9711 125.743 64.4317 127.049L62.2349 128.13ZM210.306 123.866L206.763 122.051L207.684 119.542C208.907 120.154 210.147 120.766 211.334 121.398L210.306 123.866ZM115.614 122.826L114.692 120.317C115.897 119.725 117.155 119.134 118.377 118.583L119.245 121.113C118.041 121.582 116.783 122.173 115.614 122.765V122.826ZM199.429 118.746C198.206 118.257 196.966 117.767 195.708 117.298L196.435 114.707C197.71 115.176 198.986 115.686 200.208 116.176L199.429 118.746ZM126.615 117.93L125.871 115.339C127.147 114.87 128.422 114.401 129.698 113.973L130.371 116.584C129.184 117.073 127.855 117.522 126.615 117.93ZM188.179 114.687C186.921 114.319 185.628 113.952 184.37 113.626L184.901 110.974C186.177 111.3 187.488 111.668 188.781 112.055L188.179 114.687ZM59.7546 114.299C59.7546 113.565 59.7546 112.851 59.7546 112.137C59.7546 111.423 59.7546 110.464 59.7546 109.648L62.1109 109.77C62.1109 110.546 62.1109 111.321 62.1109 112.137C62.1109 112.953 62.1109 113.503 62.1109 114.177L59.7546 114.299ZM137.936 114.299L137.404 111.81C138.698 111.464 140.009 111.137 141.302 110.831L141.763 113.503C140.487 113.687 139.194 114.013 137.936 114.34V114.299ZM176.699 111.933L175.246 111.81L172.872 111.484L173.12 108.771L175.583 109.118L177.089 109.383L176.699 111.933ZM149.487 111.933L149.168 109.24C150.497 109.036 151.825 108.873 153.136 108.73L153.367 111.423C152.073 111.545 150.78 111.81 149.487 111.912V111.933ZM161.162 110.872V108.159C162.49 108.159 163.819 108.159 165.148 108.159V110.892C163.766 110.811 162.455 110.831 161.162 110.852V110.872ZM63.103 101.06L60.7999 100.468C61.0833 98.9382 61.4554 97.4286 61.8629 95.9598L64.1128 96.8166C63.7097 98.2089 63.3726 99.6254 63.103 101.06ZM67.2131 88.82L65.1758 87.4532C65.8619 86.105 66.6069 84.7978 67.408 83.5365L69.3213 85.148C68.5482 86.3182 67.8325 87.5373 67.1777 88.7996L67.2131 88.82ZM165.821 79.375C164.461 79.2958 163.107 79.1255 161.764 78.865L162.154 76.1722C163.409 76.4159 164.674 76.5793 165.945 76.6618L165.821 79.375ZM74.4413 78.5998L72.8469 76.5598C73.839 75.5398 74.8842 74.5199 75.9826 73.5815L77.3999 75.7642C76.3724 76.6822 75.3625 77.6206 74.4413 78.5998ZM153.987 76.213C152.732 75.612 151.508 74.931 150.319 74.1731L151.453 71.7863C152.571 72.4843 153.718 73.1175 154.89 73.6835L153.987 76.213ZM83.9194 71.0111L82.8033 68.604C83.9726 67.9104 85.195 67.2168 86.3465 66.564L87.3032 69.0528C86.2048 69.7056 85.0178 70.3583 83.9194 71.0111ZM143.587 68.9712C142.577 68.1759 141.503 67.4929 140.381 66.9312L141.373 64.4629C142.615 65.1312 143.801 65.9302 144.916 66.8496L143.587 68.9712ZM94.6731 65.9928L93.9822 63.3817C95.24 62.9533 96.551 62.5453 97.862 62.1577L98.4112 64.8096C97.1534 65.1564 95.8955 65.5644 94.6731 65.9928ZM133.117 64.0957C131.912 63.7693 130.637 63.4837 129.326 63.2389L129.698 60.5665C131.062 60.8113 132.391 61.1173 133.666 61.4641L133.117 64.0957ZM106.153 63.1165L105.817 60.4237C107.128 60.2197 108.474 60.0361 109.803 59.8933L110.015 62.6065C108.633 62.8513 107.34 62.8513 106.153 63.1165ZM121.69 62.3209C120.415 62.3209 119.104 62.1985 117.793 62.1985V59.4854C119.139 59.4854 120.486 59.4854 121.797 59.6078L121.69 62.3209Z" fill="#68E1FD"/>
<path d="M111.68 206.159L109.696 205.649L110.281 202.997C110.918 203.201 111.539 203.384 112.176 203.547L111.68 206.159Z" fill="#68E1FD"/>
<path d="M136.483 97.041C136.429 97.9604 136.243 98.8632 135.934 99.7133C135.664 100.186 135.307 100.583 134.887 100.876C134.467 101.169 133.995 101.35 133.507 101.406C132.532 101.59 131.54 101.508 130.566 101.61C129.592 101.712 128.529 102.365 128.635 103.406C128.685 103.725 128.8 104.025 128.971 104.283L130.158 106.588C130.312 106.814 130.388 107.097 130.371 107.384C130.371 107.771 129.928 107.975 129.609 108.138C128.806 108.61 128.097 109.269 127.526 110.073C126.956 110.877 126.537 111.809 126.296 112.81C125.813 114.812 125.813 116.928 126.296 118.93C126.311 119.07 126.35 119.205 126.411 119.328C126.472 119.45 126.553 119.558 126.651 119.644C126.813 119.746 126.997 119.795 127.182 119.787C127.738 119.895 128.27 120.132 128.744 120.483C129.219 120.833 129.628 121.29 129.946 121.826C130.561 122.939 131.111 124.098 131.593 125.294C132.921 128.161 134.859 130.592 137.227 132.358C139.595 134.125 142.314 135.169 145.129 135.392C145.589 135.445 146.055 135.382 146.493 135.209C147.017 134.903 147.44 134.409 147.697 133.801C148.92 131.231 148.565 128.15 148.654 125.335C148.649 123.938 148.877 122.553 149.327 121.255C149.611 120.521 149.876 120.48 150.284 120.052C150.478 119.905 150.638 119.705 150.749 119.47C150.86 119.235 150.919 118.973 150.922 118.705C150.828 118.011 150.679 117.329 150.479 116.665C150.332 115.383 150.583 114.083 151.187 112.993C151.788 111.927 152.338 110.824 152.835 109.689C153.181 108.634 153.395 107.528 153.473 106.404C153.979 103.536 153.556 100.555 152.286 98.0202C151.789 97.2104 151.148 96.5316 150.406 96.0287C149.664 95.5258 148.837 95.2102 147.981 95.103C147.278 95.0796 146.578 94.984 145.89 94.8174C144.845 94.4298 144.491 93.1855 143.392 92.7775C142.442 92.3954 141.417 92.3248 140.434 92.5735C139.475 92.8106 138.595 93.3564 137.896 94.1473C137.196 94.9383 136.706 95.9418 136.483 97.041Z" fill="#473F47"/>
<path d="M141.816 219.643C142.464 220.294 143.02 221.058 143.464 221.907C143.551 222.064 143.588 222.252 143.57 222.437C143.57 222.723 143.233 222.886 142.968 222.968C141.869 223.294 140.708 223.188 139.668 222.667C138.628 222.146 137.769 221.239 137.228 220.091C136.407 218.738 135.963 217.131 135.952 215.481L136.253 212.829C136.29 212.417 136.373 212.012 136.501 211.626C136.672 211.248 136.893 210.904 137.157 210.606C137.594 210.037 138.124 209.573 138.716 209.239C138.785 209.211 138.86 209.211 138.928 209.239C139.07 209.239 139.141 209.443 139.176 209.586C139.275 210.266 139.239 210.963 139.07 211.626C138.864 213.569 139.259 215.533 140.186 217.174C140.634 218.075 141.182 218.905 141.816 219.643Z" fill="#F89659"/>
<path d="M147.751 204.628C147.784 204.835 147.857 205.03 147.963 205.2C148.056 205.34 148.178 205.452 148.318 205.526C148.922 205.815 149.582 205.914 150.231 205.812C151.028 205.812 151.808 205.628 152.587 205.485C152.809 205.488 153.028 205.426 153.223 205.304C153.418 205.183 153.583 205.007 153.703 204.792C153.761 204.55 153.744 204.292 153.657 204.062C153.57 203.832 153.418 203.644 153.225 203.527C152.839 203.299 152.417 203.161 151.985 203.119C151.549 203.054 151.144 202.825 150.833 202.466C150.39 201.834 150.585 200.834 150.125 200.222C149.842 199.978 149.513 199.816 149.164 199.749C148.816 199.681 148.459 199.711 148.123 199.835C146.688 200.345 147.449 203.466 147.751 204.628Z" fill="#F89659"/>
<path d="M153.987 180.333C153.898 180.761 153.827 181.189 153.756 181.618C152.959 186.922 151.985 192.205 151.081 197.489C150.969 198.652 150.562 199.751 149.912 200.651C149.734 200.904 149.506 201.105 149.247 201.236C148.988 201.368 148.706 201.426 148.424 201.405H148.264C147.52 201.12 147.095 199.916 147.095 198.713L147.485 177.089C147.546 176.835 147.546 176.568 147.485 176.314C147.338 176.084 147.143 175.902 146.918 175.784C146.386 175.457 145.873 175.11 145.359 174.764C143.782 173.723 142.241 172.601 140.735 171.438C138.715 169.868 136.749 168.215 134.853 166.44C133.476 165.474 132.383 164.052 131.717 162.361C131.087 160.28 130.365 158.237 129.556 156.241C128.619 153.719 127.506 151.291 126.225 148.978C126.066 148.713 125.464 147.367 125.127 147.306L138.007 148.938C139.149 148.88 140.266 149.333 141.125 150.202C142.528 152.089 143.807 154.094 144.951 156.2C147.626 160.28 150.266 164.503 152.994 168.644C154.114 170.029 154.827 171.784 155.032 173.662C154.88 175.92 154.53 178.155 153.987 180.333Z" fill="#473F47"/>
<path d="M139.354 210.952C139.18 211.231 138.971 211.479 138.734 211.687C138.369 212.053 137.964 212.361 137.529 212.605H137.405C136.911 212.839 136.357 212.839 135.864 212.605C134.57 211.972 134.96 208.321 134.889 206.893C134.765 204.649 134.659 202.425 134.535 200.181C134.322 195.816 134.092 191.45 133.88 187.064C133.773 185.024 133.649 182.984 133.561 180.945L132.905 179.619L132.604 179.027L132.25 178.313L131.878 177.517C131.665 177.109 131.452 176.661 131.222 176.191C130.85 175.396 130.496 174.559 130.124 173.743C129.892 173.196 129.632 172.664 129.344 172.152C129.249 171.98 129.143 171.816 129.025 171.663C128.316 170.778 127.552 169.953 126.74 169.194C124.29 166.566 122.658 163.082 122.098 159.28C121.952 158.242 121.892 157.19 121.921 156.139C121.94 154.505 122.167 152.883 122.594 151.324C122.929 150.212 123.357 149.14 123.87 148.122C124.273 147.217 124.813 146.401 125.464 145.714C125.769 145.39 126.116 145.121 126.492 144.919C128.937 143.634 131.417 146.836 133.118 148.53C134.818 150.223 137.759 152.609 138.681 155.159C139.602 157.709 141.338 179.129 141.338 179.129C141.338 184.392 141.338 189.655 141.072 194.898C140.966 198.019 140.842 201.14 140.576 204.241C140.564 206.55 140.148 208.832 139.354 210.952Z" fill="#473F47"/>
<path d="M137.529 212.605H137.405C136.912 212.839 136.357 212.839 135.864 212.605C134.571 211.972 134.96 208.321 134.889 206.893C134.765 204.649 134.659 202.425 134.535 200.181C134.322 195.816 134.092 191.45 133.88 187.064C133.773 185.024 133.649 182.984 133.561 180.944L132.905 179.618L132.604 179.027L132.25 178.313L131.878 177.517C131.665 177.109 131.452 176.661 131.222 176.191L129.964 173.601L129.025 171.561C128.316 170.676 127.552 169.851 126.74 169.092C124.306 166.491 122.677 163.045 122.098 159.28C121.952 158.242 121.892 157.19 121.921 156.139C121.94 154.505 122.167 152.883 122.594 151.324C122.929 150.212 123.357 149.14 123.87 148.122C124.273 147.217 124.813 146.401 125.464 145.714C125.607 145.865 125.732 146.037 125.836 146.224C127.183 148.448 127.112 151.365 127.254 154.078C127.343 157.463 127.942 160.804 129.025 163.952L129.504 165.074C129.568 165.234 129.639 165.391 129.716 165.543C131.563 168.916 133.203 172.433 134.624 176.069C137.405 184.229 136.395 193.164 136.75 201.813C136.859 204.206 137.084 206.589 137.423 208.953C137.632 210.155 137.668 211.389 137.529 212.605Z" fill="url(#paint1_linear)"/>
<path d="M177.213 145.776C176.486 145.776 175.76 145.776 175.051 145.776C174.307 145.708 173.577 145.501 172.89 145.164C172.235 144.817 171.685 144.287 171.012 143.96C169.63 143.267 168.124 142.94 166.778 142.145C164.741 140.961 162.774 139.615 160.825 138.289L156.113 135.066C154.521 134.017 152.977 132.873 151.489 131.639L150.621 130.864C150.196 130.456 149.664 130.007 149.133 130.19C148.917 130.308 148.724 130.474 148.566 130.68C147.949 131.652 147.559 132.79 147.432 133.985C147.199 135.026 146.847 136.027 146.387 136.963C145.519 138.799 144.704 140.676 143.765 142.451C143.083 144.187 142.121 145.758 140.93 147.081C140.148 147.558 139.255 147.736 138.379 147.591C136.506 147.302 134.614 147.22 132.728 147.346C131.865 147.581 130.989 147.744 130.106 147.836C128.741 147.803 127.421 147.274 126.332 146.326C125.375 145.47 125.801 144.287 126.19 143.165C127.678 138.697 129.149 136.086 127.413 131.496C127.749 132.394 120.539 135.576 119.635 135.576C115.862 135.576 113.612 132.394 110.777 129.925C109.092 128.501 107.315 127.226 105.462 126.11C104.899 125.733 104.306 125.419 103.691 125.172C103.106 124.948 102.344 124.968 101.919 124.499C101.742 124.313 101.587 124.1 101.459 123.867C101.224 123.445 101.033 122.993 100.892 122.52C100.773 121.956 100.522 121.441 100.165 121.031C99.6309 120.671 98.9965 120.561 98.3937 120.725C98.0699 120.766 97.7432 120.766 97.4193 120.725C97.3578 120.723 97.2974 120.705 97.2424 120.674C97.1873 120.642 97.1389 120.597 97.1005 120.541C97.0559 120.474 97.0318 120.392 97.0318 120.307C97.0318 120.222 97.0559 120.14 97.1005 120.072C97.2239 119.975 97.3622 119.906 97.5079 119.868L99.935 119.277C99.2441 118.583 98.1634 118.767 97.3131 118.44C97.1985 118.405 97.0944 118.334 97.0119 118.236C96.9703 118.123 96.9693 117.995 97.0091 117.88C97.0489 117.765 97.1263 117.674 97.2245 117.624C97.4324 117.552 97.6543 117.552 97.8622 117.624L100.484 117.971C99.7047 116.869 98.0394 117.196 97.2422 116.115C97.5521 115.876 97.909 115.73 98.2804 115.691C98.6517 115.652 99.0257 115.72 99.3681 115.89C100.389 116.058 101.377 116.424 102.291 116.971C102.847 117.344 103.359 117.796 103.815 118.318C105.566 120.507 107.449 122.552 109.449 124.438C110.847 125.487 112.36 126.317 113.948 126.906C114.639 127.192 115.366 127.375 116.057 127.64C116.748 127.906 117.616 128.395 118.378 128.762C118.661 128.936 118.977 129.027 119.299 129.028C119.556 128.971 119.802 128.86 120.025 128.701C121.625 127.573 123.04 126.13 124.206 124.438C125.464 122.724 126.934 121.215 128.263 119.583C128.778 118.882 129.419 118.319 130.141 117.93C131.487 117.4 132.922 118.175 134.357 118.236C134.956 118.27 135.554 118.159 136.112 117.909C136.671 117.66 137.178 117.278 137.6 116.788C138.432 115.666 138.397 113.993 139.371 112.871C139.918 112.274 140.599 111.864 141.338 111.688C142.148 111.386 142.935 111.011 143.694 110.566C144.296 110.24 145.058 109.934 145.589 110.403C145.672 110.465 145.74 110.549 145.786 110.649C145.832 110.749 145.856 110.861 145.855 110.974C145.852 111.172 145.796 111.364 145.696 111.525C145.319 112.374 144.982 113.245 144.686 114.136C144.304 115.034 144.157 116.04 144.261 117.033C144.509 118.44 146.032 119.236 147.06 119.746C148.548 120.48 150.196 120.603 151.684 121.296C153.168 122.085 154.499 123.209 155.599 124.601C157.371 126.641 158.841 128.681 160.453 130.721C161.268 131.741 162.101 132.761 163.004 133.72C164.205 134.695 165.473 135.555 166.796 136.29C168.258 137.396 169.792 138.371 171.384 139.207C172.521 139.793 173.709 140.238 174.927 140.533C175.423 140.698 175.926 140.834 176.433 140.941C176.965 140.941 177.248 140.737 177.691 140.431C178.367 140.025 179.148 139.916 179.888 140.125C181.486 140.534 182.983 141.357 184.264 142.532C184.636 142.818 185.043 143.246 184.972 143.756C184.991 143.822 184.991 143.894 184.972 143.96C184.831 144.103 184.618 143.96 184.459 143.817C183.91 143.361 183.236 143.151 182.563 143.226C183.059 143.675 183.591 144.225 183.537 144.939C183.555 144.992 183.555 145.05 183.537 145.102C183.513 145.117 183.485 145.124 183.458 145.124C183.43 145.124 183.403 145.117 183.378 145.102C182.829 145.102 182.421 144.511 181.908 144.225C181.409 143.963 180.86 143.851 180.313 143.899C180.065 143.899 179.268 143.899 179.268 144.266C179.253 144.326 179.253 144.39 179.268 144.45C179.416 144.672 179.589 144.87 179.782 145.041C179.878 145.125 179.951 145.239 179.992 145.369C180.033 145.499 180.04 145.641 180.012 145.776C179.888 146.061 179.551 146.102 179.268 146.082C178.524 146.041 177.886 145.857 177.213 145.776Z" fill="#F89659"/>
<path d="M174.98 145.49C174.786 145.629 174.568 145.719 174.342 145.755C173.609 145.696 172.915 145.351 172.375 144.776C170.553 143.732 168.67 142.833 166.742 142.083C164.704 140.9 162.738 139.554 160.789 138.228L156.112 135.066C154.52 134.017 152.976 132.873 151.488 131.639C151.896 131.985 153.579 129.048 153.862 128.783C155.51 127.232 154.925 130.557 154.89 131.679C154.854 131.902 154.854 132.13 154.89 132.353C155.017 132.643 155.222 132.879 155.474 133.026C158.45 135.27 161.515 137.35 164.669 139.268C166.263 140.227 167.911 141.104 169.523 142.042C170.852 142.818 172.287 143.266 173.669 143.899C174.253 144.164 174.909 144.572 174.926 145.286C174.953 145.35 174.971 145.419 174.98 145.49Z" fill="#D57439"/>
<path d="M138.486 114.034C138.528 114.748 138.38 115.46 138.06 116.074C137.6 116.788 140.682 117.726 141.604 116.706C142.565 115.463 143.452 114.148 144.261 112.769L138.486 114.034Z" fill="#D57439"/>
<path d="M142.135 114.278C141.147 114.721 140.068 114.813 139.034 114.544C138.523 114.398 138.046 114.123 137.638 113.738C137.231 113.354 136.903 112.869 136.678 112.32C136.455 111.573 136.365 110.782 136.412 109.995C136.525 106.175 137.664 102.49 139.672 99.448C139.968 98.944 140.355 98.5195 140.806 98.2036C141.418 97.8628 142.117 97.7903 142.773 97.9996C144.034 98.3832 145.153 99.2279 145.961 100.407C146.762 101.568 147.44 102.835 147.981 104.181C148.371 105.017 149.097 106.343 148.761 107.322C148.27 108.227 147.674 109.051 146.989 109.77C145.76 111.756 144.081 113.316 142.135 114.278Z" fill="#F89659"/>
<path d="M143.11 147.387C142.695 148.147 142.108 148.761 141.411 149.164C140.715 149.567 139.936 149.743 139.159 149.672C136.094 149.958 133.011 149.04 129.964 149.672C129.025 149.856 128.193 150.182 127.165 150.264H126.899C126.384 150.319 125.864 150.236 125.381 150.02C124.898 149.804 124.466 149.461 124.118 149.019C123.161 147.571 123.764 145.49 124.384 143.797C125.535 140.757 127.697 137.269 126.457 133.883C126.297 133.515 126.084 133.189 125.943 132.822C125.797 132.423 125.696 132.005 125.642 131.577L125.181 128.966C124.862 127.232 124.561 125.498 124.242 123.744C124.171 123.395 124.171 123.032 124.242 122.683C124.398 122.227 124.678 121.841 125.039 121.582L128.246 118.644C128.87 117.97 129.622 117.474 130.443 117.196C131.313 117.108 132.19 117.163 133.047 117.359C134.188 117.311 135.318 117.099 136.413 116.727C136.555 116.727 136.714 116.727 136.82 116.727C136.931 116.85 136.994 117.019 136.998 117.196C137.121 117.769 137.35 118.305 137.671 118.767C137.9 119.092 138.149 119.399 138.415 119.684L138.752 120.052L140.683 122.092C141.088 122.585 141.561 122.998 142.082 123.316C143.854 124.234 145.112 121.786 145.023 119.97C144.921 118.951 144.657 117.962 144.244 117.053C145.058 117.42 145.873 117.828 146.688 118.257C147.427 118.763 148.196 119.206 148.991 119.582C150.232 119.97 151.419 119.582 152.535 120.48C154.009 121.584 155.365 122.885 156.574 124.356L155.759 126.518C154.678 129.13 153.42 131.945 151.117 133.087C150.515 133.373 149.895 133.556 149.346 133.883C148.354 134.454 148.247 135.351 147.804 136.371C147.043 138.146 146.281 139.921 145.59 141.716C144.898 143.681 144.068 145.577 143.11 147.387Z" fill="white"/>
<path d="M146.316 121.867C146.46 121.666 146.642 121.505 146.848 121.398C147.016 121.347 147.193 121.347 147.362 121.398C149.594 121.602 151.826 121.887 154.041 122.234C151.295 119.419 146.954 119.542 144.013 117.155C143.606 118.032 144.013 119.052 144.226 120.011C144.35 120.875 144.35 121.757 144.226 122.622C144.601 122.722 144.993 122.705 145.36 122.572C145.728 122.439 146.058 122.196 146.316 121.867Z" fill="url(#paint2_linear)"/>
<path d="M103 124.05C102.51 124.197 101.991 124.147 101.529 123.907C101.291 123.488 101.101 123.036 100.962 122.561C100.843 121.997 100.592 121.482 100.236 121.072C99.7009 120.713 99.0672 120.604 98.4644 120.766C98.7989 120.522 99.1848 120.388 99.5805 120.378C99.7932 120.37 100.001 120.303 100.186 120.182C100.372 120.062 100.528 119.891 100.643 119.684C100.643 119.521 100.643 119.317 100.821 119.174C100.998 119.032 101.281 118.991 101.529 119.032C102.03 119.171 102.517 119.369 102.982 119.623C103.316 119.765 103.623 119.979 103.885 120.256C104.012 120.365 104.118 120.502 104.198 120.66C104.277 120.818 104.327 120.993 104.346 121.174C104.187 121.174 103.956 120.97 103.797 120.868C103.594 120.746 103.38 120.65 103.159 120.582C102.709 120.444 102.242 120.395 101.777 120.439C101.777 120.439 101.636 120.439 101.618 120.439C101.6 120.439 101.618 120.623 101.724 120.684C102.38 121.276 103.212 121.561 103.85 122.194C103.954 122.264 104.035 122.371 104.08 122.5C104.141 122.669 104.141 122.86 104.08 123.03C103.994 123.294 103.848 123.527 103.658 123.706C103.469 123.885 103.242 124.004 103 124.05Z" fill="#D57439"/>
<path d="M154.908 203.731C154.64 203.558 154.343 203.454 154.038 203.426C153.732 203.398 153.424 203.446 153.136 203.568C152.871 203.774 152.616 203.999 152.374 204.241C151.612 204.588 150.763 204.588 150.001 204.241C149.163 203.94 148.303 203.728 147.432 203.608C147.432 203.608 147.432 205.648 147.751 205.832C148.167 205.999 148.603 206.096 149.044 206.118C150.808 206.379 152.594 206.379 154.359 206.118C154.855 205.995 156.52 205.689 156.75 205.057C156.981 204.424 155.369 203.914 154.908 203.731Z" fill="#68E1FD"/>
<path d="M144.651 222.294C144.971 222.704 145.174 223.217 145.235 223.763C145.243 223.954 145.193 224.141 145.094 224.293C144.975 224.396 144.834 224.46 144.686 224.477C143.522 224.772 142.32 224.814 141.143 224.599C139.982 224.39 138.918 223.728 138.131 222.723C137.617 222.009 137.281 221.152 136.802 220.418C136.324 219.683 135.881 219.214 135.509 218.541C135.137 217.868 135.509 216.664 135.793 215.93C136.112 215.93 136.005 216.644 136.147 216.97C136.629 218.169 137.316 219.245 138.167 220.132C138.53 220.612 138.976 221.001 139.476 221.275C139.976 221.549 140.519 221.701 141.072 221.723C141.273 221.723 141.472 221.668 141.651 221.561C141.829 221.455 141.983 221.3 142.1 221.111C142.277 220.785 142.1 220.03 142.401 219.908C142.702 219.785 144.367 221.968 144.651 222.294Z" fill="#68E1FD"/>
<path d="M148.494 201.405H148.335C147.591 201.12 147.165 199.916 147.165 198.712L147.484 177.089C147.546 176.835 147.546 176.567 147.484 176.314C147.338 176.084 147.143 175.902 146.917 175.783C146.386 175.457 145.872 175.11 145.358 174.763C143.782 173.723 142.24 172.601 140.735 171.438L139.813 162.809C139.813 162.809 149.15 169.929 150.124 173.274C151.098 176.62 148.494 201.405 148.494 201.405Z" fill="url(#paint3_linear)"/>
<path d="M144.048 105.079C144.752 105.378 145.474 105.617 146.209 105.793C146.935 106.078 147.662 106.71 147.68 107.567C148.3 107.567 148.636 106.751 148.813 106.078C149.172 104.953 149.41 103.781 149.522 102.59C149.622 101.395 149.373 100.196 148.813 99.183C147.804 97.5307 144.065 94.4299 142.878 97.3267C141.975 99.5706 141.869 103.773 144.048 105.079Z" fill="#473F47"/>
<path d="M162.845 193.817C161.534 193.572 160.223 193.327 158.912 193.041L159.337 190.369C160.631 190.634 161.924 190.9 163.217 191.124L162.845 193.817Z" fill="#68E1FD"/>
<path d="M151.063 191.246C149.77 190.92 148.494 190.573 147.201 190.206L147.75 187.574L151.577 188.594L151.063 191.246Z" fill="#68E1FD"/>
<path d="M139.496 187.901L135.669 186.616L136.36 184.004C137.618 184.453 138.876 184.861 140.133 185.269L139.496 187.901Z" fill="#68E1FD"/>
<path d="M128.103 183.8C126.863 183.311 125.605 182.801 124.365 182.27L125.18 179.72L128.883 181.23L128.103 183.8Z" fill="#68E1FD"/>
<path d="M186.141 147.428L204.371 102.998L236.934 111.933L218.385 156.852L186.141 147.428Z" fill="#68E1FD"/>
<path d="M49.7449 51.8351L105.728 31.252L119.724 97.877L72.8644 125.498L49.7449 51.8351Z" fill="white"/>
<path d="M46.5039 183.8L73.1312 202.996L82.0779 168.827L52.7046 145.755L46.5039 183.8Z" fill="#68E1FD"/>
<path d="M186.585 220.336L191.651 182.128L230.166 179.21L221.893 216.175L186.585 220.336Z" fill="white"/>
<path d="M199.199 141.063L195.833 140.186L198.472 134.168L201.856 135.045L199.199 141.063Z" fill="white"/>
<path d="M203.362 142.124L199.978 141.267L205.381 129.007L208.765 129.864L203.362 142.124Z" fill="#68E1FD"/>
<path d="M207.524 143.205L204.141 142.328L207.436 134.862L210.802 135.739L207.524 143.205Z" fill="white"/>
<path d="M211.671 144.286L208.304 143.409L215.426 127.273L218.792 128.15L211.671 144.286Z" fill="#68E1FD"/>
<path d="M203.362 142.124L199.978 141.267L205.381 129.007L208.765 129.864L203.362 142.124Z" fill="url(#paint4_linear)"/>
<path d="M211.671 144.286L208.304 143.409L215.426 127.273L218.792 128.15L211.671 144.286Z" fill="url(#paint5_linear)"/>
<path d="M215.834 145.367L212.468 144.49L221.574 123.846L224.94 124.723L215.834 145.367Z" fill="white"/>
<path d="M78.1086 73.6019C78.1007 71.8266 78.4334 70.0713 79.083 68.4612L72.4926 64.2793C71.2387 67.1744 70.5895 70.3668 70.5969 73.6019C70.6101 78.2881 71.9769 82.8361 74.4819 86.5294C76.9869 90.2227 80.4879 92.8515 84.4332 94.0015L85.7796 85.3725C83.5758 84.6133 81.6415 83.0603 80.2608 80.9417C78.8801 78.8232 78.1257 76.2506 78.1086 73.6019Z" fill="#473F47"/>
<path opacity="0.18" d="M104.595 84.4544C102.957 87.5745 100.646 90.1534 97.886 91.9407C95.1262 93.728 92.0118 94.6628 88.8455 94.6542C87.3277 94.6547 85.8159 94.4354 84.3456 94.0014L85.6921 85.3724C86.7151 85.7254 87.7775 85.9041 88.8455 85.9028C90.6528 85.9068 92.4317 85.3854 94.0173 84.3869C95.6029 83.3884 96.944 81.9451 97.9162 80.1909L104.595 84.4544Z" fill="#68E1FD"/>
<path d="M107.199 73.6016C107.203 77.4244 106.303 81.1764 104.594 84.4542L97.9154 80.2723C98.7212 78.841 99.2615 77.2334 99.5024 75.5504C99.7433 73.8673 99.6796 72.1452 99.3154 70.4918C98.9511 68.8384 98.2941 67.2895 97.3856 65.9423C96.4771 64.595 95.3366 63.4784 94.0357 62.6625C92.7348 61.8466 91.3015 61.349 89.8258 61.2008C88.35 61.0527 86.8636 61.2573 85.4597 61.8017C84.0558 62.3461 82.7648 63.2186 81.6675 64.3645C80.5702 65.5104 79.6904 66.9051 79.0831 68.4609L72.4927 64.279C74.3191 59.9972 77.3509 56.5537 81.0942 54.5096C84.8374 52.4656 89.0715 51.9414 93.1066 53.0225C97.1417 54.1037 100.74 56.7264 103.315 60.4633C105.89 64.2003 107.29 68.8312 107.287 73.6016H107.199Z" fill="#68E1FD"/>
<path d="M198.277 208.545C198.272 208.429 198.289 208.312 198.325 208.203C198.362 208.094 198.418 207.995 198.49 207.913C198.819 207.526 199.057 207.049 199.181 206.526C199.256 206.197 199.24 205.849 199.135 205.53C199.031 205.212 198.842 204.94 198.596 204.751C198.294 204.489 197.951 204.295 197.586 204.18C197.405 204.123 197.248 203.992 197.144 203.812C197.04 203.632 196.996 203.415 197.019 203.201C197.019 202.935 197.019 202.65 197.019 202.385C197.026 202.261 197.054 202.141 197.101 202.03C197.149 201.919 197.214 201.82 197.295 201.738C197.376 201.657 197.47 201.595 197.571 201.555C197.673 201.515 197.78 201.499 197.887 201.507C198.236 201.502 198.581 201.411 198.897 201.242C199.238 201.09 199.517 200.796 199.678 200.418C199.839 200.04 199.87 199.606 199.765 199.202C199.68 198.845 199.567 198.497 199.429 198.162C199.347 197.968 199.327 197.748 199.373 197.539C199.418 197.33 199.526 197.146 199.677 197.02C199.862 196.868 200.039 196.704 200.208 196.53C200.366 196.391 200.559 196.316 200.757 196.316C200.956 196.316 201.149 196.391 201.307 196.53C201.566 196.831 201.873 197.074 202.21 197.244C202.518 197.395 202.861 197.421 203.183 197.317C203.505 197.213 203.787 196.986 203.982 196.673C204.216 196.304 204.39 195.889 204.495 195.449C204.556 195.244 204.679 195.071 204.842 194.962C205.005 194.853 205.196 194.816 205.381 194.857H206.09C206.279 194.878 206.455 194.979 206.583 195.141C206.711 195.304 206.782 195.515 206.781 195.734C206.8 196.262 206.921 196.777 207.135 197.244C207.292 197.546 207.526 197.786 207.804 197.932C208.083 198.078 208.393 198.122 208.694 198.06C209.039 197.976 209.373 197.839 209.686 197.652C209.868 197.53 210.084 197.493 210.289 197.55C210.494 197.607 210.671 197.753 210.785 197.958C210.909 198.203 211.104 198.407 211.245 198.651C211.341 198.823 211.384 199.027 211.368 199.23C211.352 199.433 211.278 199.624 211.157 199.773C210.888 200.089 210.677 200.464 210.537 200.875C210.38 201.276 210.366 201.732 210.499 202.144C210.631 202.556 210.899 202.892 211.245 203.078C211.503 203.254 211.776 203.397 212.06 203.507C212.228 203.561 212.376 203.68 212.479 203.842C212.581 204.005 212.634 204.203 212.627 204.404C212.627 204.731 212.627 205.057 212.521 205.404C212.495 205.618 212.401 205.814 212.257 205.953C212.113 206.093 211.929 206.166 211.741 206.159C211.324 206.179 210.914 206.297 210.537 206.505C210.25 206.661 210.017 206.922 209.873 207.247C209.729 207.571 209.682 207.942 209.739 208.3C209.797 208.719 209.91 209.125 210.076 209.504C210.134 209.605 210.174 209.719 210.193 209.838C210.212 209.957 210.21 210.079 210.187 210.197C210.163 210.316 210.12 210.427 210.058 210.525C209.996 210.624 209.918 210.706 209.828 210.769L209.332 211.197C209.186 211.364 208.989 211.458 208.783 211.458C208.577 211.458 208.38 211.364 208.234 211.197C207.944 210.88 207.6 210.637 207.224 210.483C206.908 210.34 206.56 210.327 206.237 210.446C205.914 210.565 205.637 210.809 205.452 211.136C205.233 211.487 205.071 211.881 204.974 212.299C204.921 212.498 204.808 212.669 204.655 212.781C204.503 212.893 204.32 212.939 204.141 212.911L203.308 212.788C203.139 212.753 202.984 212.653 202.869 212.506C202.753 212.358 202.684 212.171 202.671 211.972C202.665 211.479 202.568 210.992 202.387 210.544C202.242 210.167 201.981 209.864 201.654 209.694C201.327 209.525 200.957 209.501 200.616 209.626C200.282 209.732 199.956 209.868 199.641 210.034C199.482 210.128 199.3 210.159 199.124 210.122C198.948 210.086 198.787 209.983 198.667 209.83C198.49 209.565 198.313 209.32 198.153 209.035C198.073 208.876 198.013 208.704 197.976 208.525L198.277 208.545ZM204.903 200.895C204.391 200.891 203.889 201.063 203.461 201.387C203.033 201.712 202.699 202.176 202.501 202.72C202.302 203.264 202.248 203.863 202.346 204.442C202.444 205.021 202.689 205.554 203.05 205.972C203.411 206.391 203.872 206.677 204.374 206.793C204.876 206.91 205.397 206.852 205.871 206.627C206.345 206.402 206.75 206.021 207.035 205.531C207.32 205.04 207.472 204.464 207.472 203.874C207.472 203.479 207.404 203.089 207.272 202.725C207.139 202.36 206.946 202.03 206.702 201.753C206.458 201.476 206.168 201.258 205.851 201.11C205.533 200.963 205.192 200.89 204.85 200.895H204.903Z" fill="#68E1FD"/>
<path d="M217.871 199.896C217.879 200.011 217.879 200.127 217.871 200.243C217.865 200.384 217.818 200.519 217.738 200.627C217.658 200.734 217.549 200.807 217.428 200.834L216.896 200.997C216.758 201.041 216.61 201.026 216.48 200.955C216.35 200.884 216.246 200.761 216.188 200.61C216.064 200.365 215.94 200.12 215.798 199.896C215.705 199.753 215.587 199.633 215.452 199.545C215.317 199.457 215.167 199.401 215.013 199.382C214.858 199.363 214.702 199.38 214.554 199.434C214.405 199.487 214.268 199.575 214.15 199.692C213.973 199.845 213.807 200.016 213.654 200.202C213.562 200.325 213.435 200.406 213.296 200.432C213.157 200.458 213.014 200.427 212.893 200.345L212.467 200.059C212.319 199.975 212.205 199.828 212.149 199.65C212.093 199.471 212.099 199.274 212.166 199.1C212.253 198.817 212.307 198.522 212.326 198.223C212.346 197.897 212.255 197.575 212.074 197.324C211.892 197.073 211.633 196.913 211.351 196.877C211.074 196.856 210.796 196.856 210.519 196.877C210.38 196.872 210.248 196.81 210.147 196.701C210.045 196.592 209.982 196.444 209.969 196.285C209.944 196.112 209.909 195.942 209.863 195.775C209.82 195.61 209.83 195.431 209.892 195.274C209.954 195.116 210.063 194.99 210.2 194.918C210.465 194.771 210.71 194.579 210.926 194.347C211.119 194.147 211.242 193.873 211.271 193.576C211.3 193.279 211.234 192.98 211.086 192.736C210.942 192.516 210.788 192.305 210.625 192.103C210.551 192.049 210.487 191.976 210.439 191.891C210.391 191.806 210.359 191.71 210.345 191.61C210.332 191.509 210.337 191.407 210.361 191.309C210.385 191.211 210.426 191.12 210.483 191.042L210.696 190.594C210.773 190.445 210.895 190.334 211.039 190.282C211.182 190.229 211.337 190.239 211.475 190.308C211.777 190.454 212.106 190.51 212.432 190.471C212.655 190.464 212.87 190.373 213.043 190.21C213.216 190.048 213.338 189.824 213.389 189.574C213.454 189.239 213.484 188.897 213.477 188.554C213.465 188.397 213.499 188.239 213.572 188.107C213.646 187.974 213.756 187.873 213.885 187.819L214.505 187.656C214.646 187.611 214.796 187.631 214.925 187.71C215.054 187.79 215.151 187.924 215.196 188.084C215.333 188.451 215.546 188.773 215.816 189.023C216.014 189.216 216.265 189.321 216.524 189.321C216.784 189.321 217.035 189.216 217.233 189.023C217.393 188.882 217.541 188.725 217.676 188.554C217.769 188.426 217.896 188.338 218.038 188.305C218.179 188.271 218.327 188.294 218.455 188.37L218.969 188.717C219.088 188.802 219.177 188.932 219.219 189.086C219.261 189.239 219.254 189.405 219.199 189.553C219.087 189.884 219.033 190.238 219.04 190.594C219.042 190.901 219.139 191.198 219.315 191.43C219.49 191.663 219.732 191.814 219.997 191.858H220.741C220.891 191.841 221.04 191.89 221.159 191.997C221.278 192.103 221.357 192.258 221.379 192.43C221.379 192.634 221.467 192.838 221.503 193.042C221.542 193.193 221.529 193.356 221.466 193.497C221.404 193.638 221.296 193.745 221.166 193.796C220.878 193.938 220.619 194.146 220.404 194.408C220.237 194.595 220.128 194.841 220.096 195.108C220.064 195.374 220.11 195.645 220.227 195.877C220.38 196.162 220.565 196.422 220.776 196.652C220.902 196.765 220.986 196.929 221.013 197.11C221.039 197.291 221.005 197.477 220.918 197.631L220.67 198.101C220.636 198.182 220.588 198.255 220.529 198.315C220.471 198.374 220.402 198.42 220.328 198.448C220.253 198.477 220.175 198.488 220.097 198.481C220.018 198.474 219.942 198.448 219.873 198.407C219.493 198.265 219.083 198.265 218.703 198.407C218.511 198.474 218.338 198.601 218.203 198.773C218.069 198.946 217.979 199.158 217.942 199.386C217.923 199.617 217.923 199.849 217.942 200.079L217.871 199.896ZM215.674 192.062C215.419 192.06 215.166 192.115 214.93 192.226C214.693 192.336 214.478 192.5 214.297 192.706C214.116 192.913 213.972 193.159 213.874 193.43C213.776 193.701 213.725 193.992 213.725 194.286C213.722 194.731 213.833 195.166 214.045 195.538C214.257 195.91 214.56 196.201 214.916 196.374C215.272 196.547 215.664 196.594 216.043 196.51C216.422 196.425 216.771 196.213 217.046 195.9C217.32 195.587 217.507 195.188 217.584 194.752C217.661 194.316 217.623 193.864 217.476 193.452C217.329 193.041 217.079 192.689 216.759 192.442C216.438 192.195 216.06 192.062 215.674 192.062Z" fill="#68E1FD"/>
<path d="M61.827 183.882C66.455 183.882 70.2067 179.562 70.2067 174.233C70.2067 168.904 66.455 164.584 61.827 164.584C57.199 164.584 53.4473 168.904 53.4473 174.233C53.4473 179.562 57.199 183.882 61.827 183.882Z" fill="#473F47"/>
<path d="M61.8628 162.809V174.6L70.8803 167.114C70.8803 167.114 66.717 161.891 61.8628 162.809Z" fill="white"/>
<path d="M120.291 207.036L109.183 210.626L113.028 219.173L120.911 216.623L120.291 207.036Z" fill="#68E1FD"/>
<path d="M120.291 207.036L109.183 210.626L113.028 219.173L120.911 216.623L120.291 207.036Z" fill="url(#paint6_linear)"/>
<path d="M102.256 189.166C102.156 189.899 102.217 190.649 102.433 191.348C103.067 194.635 104.194 197.769 105.764 200.61C108.227 204.69 112.071 207.24 115.791 209.708C115.473 209.402 115.526 207.138 115.473 206.628L115.207 203.608C114.98 202.014 114.441 200.5 113.63 199.182C112.007 196.106 109.772 193.519 107.111 191.634C105.602 190.551 103.968 189.72 102.256 189.166Z" fill="#68E1FD"/>
<path d="M102.256 189.166C102.156 189.899 102.217 190.649 102.433 191.348C103.067 194.635 104.194 197.769 105.764 200.61C108.227 204.69 112.071 207.24 115.791 209.708C115.473 209.402 115.526 207.138 115.473 206.628L115.207 203.608C114.98 202.014 114.441 200.5 113.63 199.182C112.007 196.106 109.772 193.519 107.111 191.634C105.602 190.551 103.968 189.72 102.256 189.166Z" fill="url(#paint7_linear)"/>
<path d="M117.563 195.448C117.941 192.75 118.007 190.006 117.758 187.288C117.477 184.523 116.253 181.999 114.356 180.271L111.575 191.532C110.941 193.668 110.6 195.904 110.565 198.161C110.712 200.384 111.261 202.546 112.176 204.51C113.091 206.474 114.353 208.195 115.88 209.565C116.766 207.953 116.571 205.057 116.766 203.159L117.563 195.448Z" fill="#68E1FD"/>
<path d="M117.563 195.448C117.941 192.75 118.007 190.006 117.758 187.288C117.477 184.523 116.253 181.999 114.356 180.271L111.575 191.532C110.941 193.668 110.6 195.904 110.565 198.161C110.712 200.384 111.261 202.546 112.176 204.51C113.091 206.474 114.353 208.195 115.88 209.565C116.766 207.953 116.571 205.057 116.766 203.159L117.563 195.448Z" fill="url(#paint8_linear)"/>
<path d="M119.949 203.771L108.029 207.636C107.031 207.96 106.449 209.15 106.729 210.294C107.008 211.438 108.045 212.103 109.043 211.78L120.963 207.914C121.961 207.59 122.543 206.4 122.264 205.256C121.984 204.112 120.948 203.447 119.949 203.771Z" fill="#68E1FD"/>
</g>
<defs>
<linearGradient id="paint0_linear" x1="180.402" y1="64.2588" x2="219.43" y2="64.2588" gradientUnits="userSpaceOnUse">
<stop offset="0.01"/>
<stop offset="0.08" stop-opacity="0.69"/>
<stop offset="0.21" stop-opacity="0.32"/>
<stop offset="1" stop-opacity="0"/>
</linearGradient>
<linearGradient id="paint1_linear" x1="-4228.81" y1="5871.72" x2="187.831" y2="7119.43" gradientUnits="userSpaceOnUse">
<stop offset="0.01"/>
<stop offset="0.08" stop-opacity="0.69"/>
<stop offset="0.21" stop-opacity="0.32"/>
<stop offset="1" stop-opacity="0"/>
</linearGradient>
<linearGradient id="paint2_linear" x1="-1822.55" y1="56.2248" x2="-1280.9" y2="1073.55" gradientUnits="userSpaceOnUse">
<stop offset="0.01"/>
<stop offset="0.08" stop-opacity="0.69"/>
<stop offset="0.21" stop-opacity="0.32"/>
<stop offset="1" stop-opacity="0"/>
</linearGradient>
<linearGradient id="paint3_linear" x1="-2167.87" y1="4726.07" x2="-1746.64" y2="4752.25" gradientUnits="userSpaceOnUse">
<stop offset="0.01"/>
<stop offset="0.08" stop-opacity="0.69"/>
<stop offset="0.21" stop-opacity="0.32"/>
<stop offset="1" stop-opacity="0"/>
</linearGradient>
<linearGradient id="paint4_linear" x1="-3915.78" y1="502.694" x2="-3705.16" y2="981.368" gradientUnits="userSpaceOnUse">
<stop offset="0.01"/>
<stop offset="0.08" stop-opacity="0.69"/>
<stop offset="0.21" stop-opacity="0.32"/>
<stop offset="1" stop-opacity="0"/>
</linearGradient>
<linearGradient id="paint5_linear" x1="-4931.79" y1="662.199" x2="-4648.55" y2="1248.97" gradientUnits="userSpaceOnUse">
<stop offset="0.01"/>
<stop offset="0.08" stop-opacity="0.69"/>
<stop offset="0.21" stop-opacity="0.32"/>
<stop offset="1" stop-opacity="0"/>
</linearGradient>
<linearGradient id="paint6_linear" x1="5670.87" y1="13.7706" x2="5837.65" y2="204.833" gradientUnits="userSpaceOnUse">
<stop offset="0.01"/>
<stop offset="0.08" stop-opacity="0.69"/>
<stop offset="0.21" stop-opacity="0.32"/>
<stop offset="1" stop-opacity="0"/>
</linearGradient>
<linearGradient id="paint7_linear" x1="119.418" y1="193.54" x2="87.509" y2="206.85" gradientUnits="userSpaceOnUse">
<stop offset="0.01"/>
<stop offset="0.13" stop-opacity="0.69"/>
<stop offset="0.25" stop-opacity="0.32"/>
<stop offset="1" stop-opacity="0"/>
</linearGradient>
<linearGradient id="paint8_linear" x1="-5440.9" y1="26018.6" x2="-5153.61" y2="26017.9" gradientUnits="userSpaceOnUse">
<stop offset="0.01"/>
<stop offset="0.13" stop-opacity="0.69"/>
<stop offset="0.25" stop-opacity="0.32"/>
<stop offset="1" stop-opacity="0"/>
</linearGradient>
<clipPath id="clip0">
<rect width="280" height="243" fill="white"/>
</clipPath>
</defs>
</svg>
