<svg width="280" height="243" viewBox="0 0 280 243" fill="none" xmlns="http://www.w3.org/2000/svg">
<path d="M181.3 85.3817C181.489 84.5193 181.671 83.6487 181.867 82.7863C181.965 82.3349 182.084 81.8916 182.21 81.4563C182.271 81.1797 182.413 80.9357 182.612 80.7654C182.811 80.5951 183.054 80.5089 183.302 80.5213C183.904 80.5213 184.499 80.6261 185.094 80.6745C185.412 80.7226 185.733 80.7388 186.053 80.7229C186.289 80.7063 186.514 80.5984 186.69 80.4166C187.313 79.6105 187.908 78.8045 188.489 77.9179C188.585 77.7603 188.646 77.578 188.667 77.3868C188.688 77.1957 188.668 77.0016 188.608 76.8217C188.398 76.0156 188.16 75.2096 187.957 74.4036C187.861 74.0926 187.809 73.7661 187.803 73.4363C187.804 73.1925 187.887 72.9585 188.034 72.7835C189.064 71.859 190.208 71.1173 191.429 70.583C191.608 70.4958 191.806 70.4794 191.994 70.5363C192.181 70.5932 192.347 70.7202 192.465 70.8974C192.969 71.5664 193.494 72.2192 193.984 72.9044C194.144 73.1643 194.366 73.3656 194.623 73.4842C194.88 73.6028 195.161 73.6338 195.433 73.5734C196.21 73.4283 196.994 73.3396 197.771 73.2187C197.92 73.2014 198.062 73.1405 198.185 73.0417C198.307 72.9429 198.406 72.8096 198.471 72.6545C198.716 72.1548 198.94 71.6389 199.171 71.1311C199.402 70.6233 199.577 70.2606 199.794 69.8334C199.888 69.6184 200.045 69.4478 200.236 69.3507C200.428 69.2537 200.643 69.2363 200.844 69.3014C201.957 69.6238 203.077 69.9543 204.183 70.3251C204.397 70.3919 204.585 70.5429 204.712 70.7519C204.84 70.9609 204.901 71.2148 204.883 71.4696C204.883 72.1709 204.792 72.8641 204.75 73.5653C204.75 73.8877 204.708 74.2182 204.708 74.5487C204.702 74.7603 204.739 74.9707 204.817 75.1625C204.895 75.3544 205.011 75.5224 205.156 75.6529C205.772 76.2171 206.395 76.7733 206.997 77.3617C207.17 77.5431 207.383 77.6661 207.613 77.7172C207.842 77.7684 208.08 77.7458 208.299 77.6519C209.055 77.3778 209.811 77.0877 210.567 76.8458C210.813 76.7194 211.093 76.7094 211.346 76.818C211.598 76.9265 211.804 77.1449 211.918 77.4262C212.443 78.4418 212.947 79.4735 213.437 80.5133C213.526 80.6518 213.59 80.8097 213.625 80.9774C213.66 81.1451 213.665 81.3192 213.641 81.4893C213.616 81.6594 213.561 81.8219 213.481 81.9672C213.4 82.1125 213.295 82.2376 213.171 82.3349C212.8 82.7379 212.394 83.0926 212.009 83.4795C211.738 83.7643 211.472 84.0544 211.211 84.35C211.104 84.4748 211.022 84.6258 210.972 84.7918C210.923 84.9579 210.906 85.1347 210.924 85.3092C211.008 86.2442 211.092 87.1792 211.197 88.1061C211.224 88.3586 211.306 88.5991 211.436 88.805C211.566 89.0109 211.739 89.1753 211.939 89.2829C212.408 89.5408 212.877 89.7907 213.339 90.0889C213.63 90.2496 213.913 90.4299 214.186 90.629C214.381 90.7513 214.533 90.9471 214.617 91.1834C214.701 91.4197 214.712 91.6822 214.648 91.9267C214.375 93.0873 214.088 94.248 213.801 95.4007C213.749 95.5778 213.681 95.748 213.598 95.9085C213.523 96.0961 213.399 96.2524 213.243 96.3562C213.088 96.46 212.909 96.5063 212.73 96.4888L210.588 96.2873H210.427C210.127 96.2244 209.817 96.2678 209.538 96.4116C209.259 96.5555 209.025 96.7932 208.866 97.0933C208.509 97.6737 208.096 98.2056 207.711 98.7618C207.529 99.0055 207.409 99.3019 207.363 99.6188C207.318 99.9357 207.348 100.261 207.452 100.559C207.683 101.365 207.907 102.099 208.11 102.873C208.172 103.019 208.207 103.178 208.213 103.34C208.219 103.503 208.195 103.665 208.144 103.816C208.092 103.968 208.014 104.105 207.915 104.22C207.815 104.335 207.695 104.425 207.564 104.485C206.654 105.105 205.723 105.702 204.764 106.274C204.557 106.43 204.306 106.491 204.062 106.443C203.818 106.395 203.598 106.243 203.448 106.016C203.035 105.508 202.643 104.968 202.251 104.404C201.404 103.259 201.208 103.171 199.913 103.372L198.401 103.622C198.159 103.649 197.927 103.747 197.728 103.909C197.529 104.07 197.37 104.288 197.267 104.541C197.001 105.162 196.749 105.79 196.469 106.403C196.319 106.717 196.143 107.014 195.944 107.29C195.861 107.433 195.739 107.542 195.598 107.6C195.457 107.658 195.303 107.662 195.16 107.612L191.989 106.596C191.845 106.538 191.707 106.462 191.576 106.371C191.41 106.287 191.272 106.145 191.18 105.966C191.089 105.787 191.048 105.579 191.065 105.371C191.121 104.565 191.177 103.759 191.226 102.953C191.226 102.711 191.226 102.461 191.226 102.212C191.232 102.01 191.195 101.809 191.12 101.627C191.044 101.445 190.932 101.286 190.792 101.164C190.19 100.632 189.595 100.092 189 99.5517C188.83 99.389 188.626 99.2821 188.408 99.2424C188.189 99.2027 187.966 99.2316 187.761 99.326C187.096 99.592 186.424 99.8258 185.752 100.076H185.675C184.793 100.35 184.492 100.245 184.03 99.3341C183.568 98.4233 183.043 97.2868 182.588 96.2389C182.515 96.1211 182.464 95.9875 182.438 95.8462C182.411 95.7049 182.41 95.5589 182.435 95.4171C182.459 95.2753 182.508 95.1407 182.579 95.0215C182.65 94.9022 182.741 94.8009 182.847 94.7236C183.351 94.1916 183.876 93.6757 184.422 93.1921C184.692 92.9842 184.903 92.6887 185.028 92.343C185.152 91.9973 185.185 91.6168 185.122 91.2496C185.01 90.4436 184.933 89.5731 184.828 88.7348C184.81 88.5645 184.756 88.402 184.67 88.2614C184.585 88.1209 184.471 88.0067 184.338 87.9288C183.694 87.5419 183.05 87.163 182.413 86.7681C181.967 86.5713 181.597 86.1966 181.37 85.7122L181.3 85.3817ZM204.869 87.7998C204.793 86.7457 204.535 85.7196 204.112 84.7807C203.689 83.8418 203.109 83.0087 202.405 82.3296C201.7 81.6506 200.886 81.139 200.009 80.8245C199.132 80.5099 198.21 80.3987 197.295 80.4972C195.486 80.7389 193.829 81.7764 192.669 83.3928C191.509 85.0091 190.937 87.0792 191.072 89.17C191.236 91.2669 192.111 93.2046 193.508 94.5628C194.905 95.9209 196.711 96.5898 198.534 96.4243C199.445 96.3445 200.333 96.0561 201.147 95.5759C201.96 95.0957 202.682 94.4335 203.27 93.628C203.858 92.8225 204.3 91.89 204.571 90.885C204.842 89.8801 204.936 88.823 204.848 87.7756L204.869 87.7998Z" fill="white"/>
<path d="M195.3 108.031C195.198 108.031 195.097 108.015 194.999 107.983L194.257 107.749L191.821 106.943C191.676 106.883 191.536 106.811 191.401 106.725C191.161 106.608 190.96 106.408 190.824 106.152C190.688 105.896 190.626 105.598 190.645 105.299L190.722 104.227L190.806 102.873C190.816 102.639 190.816 102.405 190.806 102.171C190.813 102.029 190.79 101.888 190.739 101.758C190.688 101.629 190.61 101.516 190.512 101.43C189.931 100.922 189.364 100.398 188.79 99.8822L188.713 99.8096C188.589 99.6889 188.438 99.6099 188.278 99.5815C188.117 99.553 187.953 99.5762 187.803 99.6484C187.341 99.8338 186.872 100.003 186.403 100.18L185.78 100.406H185.689C184.639 100.737 184.184 100.527 183.652 99.4792C183.12 98.4313 182.574 97.2303 182.196 96.3679C182.013 96.0506 181.945 95.6632 182.008 95.2892C182.071 94.9152 182.259 94.5846 182.532 94.3689C183.127 93.7483 183.638 93.2566 184.128 92.8133C184.345 92.646 184.514 92.4077 184.612 92.129C184.711 91.8503 184.735 91.544 184.681 91.2496C184.611 90.7337 184.548 90.2018 184.492 89.6375L184.387 88.6945C184.379 88.5831 184.346 88.4758 184.293 88.3828C184.239 88.2897 184.165 88.2139 184.079 88.1625L183.309 87.7031C182.924 87.4693 182.532 87.2436 182.147 87.0018C181.63 86.7661 181.204 86.3222 180.95 85.7525C180.943 85.7099 180.943 85.6661 180.95 85.6235V85.3172C180.943 85.2746 180.943 85.2309 180.95 85.1883L181.09 84.5193L181.51 82.5848C181.615 82.1334 181.734 81.682 181.86 81.2307C181.939 80.876 182.121 80.563 182.376 80.3432C182.63 80.1235 182.942 80.01 183.26 80.0216C183.666 80.0216 184.065 80.07 184.464 80.1183L185.066 80.1748H185.318C185.534 80.1984 185.752 80.1984 185.969 80.1748C186.118 80.163 186.26 80.1044 186.382 80.0055C187.04 79.143 187.656 78.2645 188.16 77.5229C188.224 77.4169 188.263 77.294 188.274 77.1656C188.285 77.0372 188.268 76.9078 188.223 76.7894C188.132 76.4348 188.034 76.0801 187.929 75.7174C187.824 75.3547 187.684 74.8227 187.572 74.3713C187.466 74.0239 187.41 73.6593 187.404 73.2913C187.403 73.1089 187.435 72.9283 187.499 72.7615C187.563 72.5947 187.657 72.4456 187.775 72.324C188.831 71.3626 190.012 70.5983 191.275 70.0591C191.518 69.9493 191.785 69.9323 192.037 70.0107C192.289 70.089 192.513 70.2586 192.675 70.4943L193.207 71.1875C193.543 71.6228 193.907 72.05 194.201 72.5014C194.321 72.7074 194.492 72.8679 194.691 72.9626C194.89 73.0573 195.11 73.0819 195.321 73.0333C195.832 72.9366 196.336 72.8641 196.847 72.7915L197.673 72.6706C197.762 72.6566 197.847 72.6167 197.919 72.5547C197.992 72.4927 198.049 72.4105 198.086 72.316L198.506 71.3971L198.898 70.5911C199.066 70.2284 199.234 69.8576 199.423 69.511C199.553 69.2274 199.761 69.002 200.014 68.8705C200.268 68.739 200.553 68.7091 200.823 68.7856C202.174 69.1805 203.203 69.4949 204.169 69.8173C204.453 69.9137 204.7 70.1188 204.869 70.3986C205.039 70.6785 205.12 71.0165 205.1 71.3568C205.1 71.8324 205.058 72.3079 205.016 72.7674C205.016 73.0011 204.981 73.2348 204.96 73.4686C204.939 73.7023 204.925 74.1054 204.925 74.4278C204.916 74.5815 204.94 74.7354 204.995 74.8759C205.05 75.0164 205.134 75.1393 205.24 75.2338L205.674 75.6288C206.15 76.064 206.626 76.4993 207.074 76.9506C207.203 77.0866 207.363 77.1782 207.535 77.2152C207.706 77.2523 207.884 77.2332 208.047 77.1602L209.153 76.7572L210.315 76.33C210.642 76.1871 211.004 76.1905 211.33 76.3397C211.655 76.4889 211.92 76.773 212.072 77.136C212.604 78.1677 213.115 79.2075 213.598 80.2312C213.815 80.5895 213.902 81.0318 213.839 81.4629C213.776 81.894 213.569 82.2795 213.262 82.5364C213.038 82.7782 212.807 83.0039 212.562 83.2296L212.086 83.6971C211.82 83.9631 211.561 84.2533 211.309 84.5031C211.236 84.5846 211.18 84.6845 211.146 84.795C211.112 84.9055 211.101 85.0235 211.113 85.1399L211.162 85.6558C211.232 86.4134 211.309 87.1711 211.393 87.9207C211.41 88.108 211.47 88.2869 211.565 88.4396C211.661 88.5923 211.79 88.7135 211.939 88.7912L212.541 89.1217L213.346 89.565C213.619 89.7262 213.927 89.9116 214.221 90.1292C214.48 90.2952 214.682 90.5586 214.793 90.8756C214.904 91.1925 214.917 91.5436 214.83 91.8702C214.559 93.0309 214.279 94.1916 213.99 95.3523C213.935 95.5407 213.862 95.7217 213.773 95.8923C213.663 96.1535 213.488 96.3703 213.269 96.5142C213.05 96.6581 212.799 96.7223 212.548 96.6984L210.406 96.4969C210.345 96.5033 210.285 96.5033 210.224 96.4969C209.987 96.4481 209.743 96.4837 209.524 96.5989C209.305 96.7141 209.122 96.9035 208.999 97.1417C208.74 97.5608 208.46 97.9477 208.18 98.3346L207.83 98.8263C207.686 99.0166 207.591 99.2493 207.555 99.4984C207.519 99.7475 207.544 100.003 207.627 100.237C207.886 101.099 208.103 101.849 208.292 102.574C208.368 102.764 208.411 102.97 208.417 103.179C208.423 103.389 208.392 103.597 208.327 103.793C208.262 103.988 208.163 104.167 208.037 104.317C207.911 104.468 207.759 104.588 207.592 104.67C206.745 105.242 205.835 105.831 204.792 106.467C204.519 106.669 204.19 106.746 203.871 106.684C203.551 106.621 203.263 106.423 203.063 106.129C202.72 105.71 202.398 105.275 202.076 104.831L201.852 104.533C201.082 103.485 200.998 103.453 199.829 103.638L198.31 103.888C198.124 103.907 197.947 103.981 197.794 104.104C197.642 104.228 197.52 104.395 197.442 104.589L197.19 105.194C197.017 105.618 196.835 106.038 196.644 106.451C196.488 106.793 196.3 107.115 196.084 107.411C196.004 107.577 195.891 107.719 195.755 107.827C195.619 107.934 195.463 108.004 195.3 108.031ZM188.181 98.794C188.536 98.7978 188.879 98.9399 189.154 99.1971L189.231 99.2696C189.798 99.7855 190.372 100.309 190.946 100.817C191.126 100.976 191.272 101.181 191.37 101.416C191.469 101.651 191.518 101.91 191.513 102.171C191.513 102.429 191.513 102.695 191.513 102.977C191.513 103.429 191.457 103.888 191.422 104.34L191.352 105.412C191.342 105.541 191.369 105.67 191.429 105.78C191.488 105.891 191.576 105.976 191.681 106.024H191.744C191.833 106.085 191.927 106.136 192.024 106.177L194.453 106.983L195.188 107.217C195.266 107.243 195.349 107.239 195.425 107.206C195.501 107.173 195.565 107.111 195.608 107.032C195.793 106.781 195.957 106.511 196.098 106.226C196.28 105.823 196.455 105.42 196.63 105L196.889 104.38C197.018 104.068 197.215 103.8 197.46 103.601C197.705 103.402 197.991 103.279 198.289 103.243L199.801 102.993C201.201 102.768 201.53 102.913 202.454 104.162L202.678 104.468C202.993 104.896 203.308 105.323 203.644 105.726C203.69 105.807 203.751 105.877 203.821 105.931C203.892 105.984 203.971 106.021 204.054 106.038C204.137 106.056 204.222 106.053 204.305 106.032C204.387 106.01 204.465 105.969 204.533 105.911C205.562 105.283 206.472 104.694 207.333 104.13C207.823 103.799 207.886 103.606 207.718 102.953C207.55 102.3 207.319 101.51 207.067 100.656C206.943 100.293 206.906 99.8983 206.962 99.5136C207.017 99.1288 207.163 98.7687 207.382 98.4716L207.739 97.9719C208.012 97.6011 208.285 97.2223 208.523 96.8273C208.72 96.4669 209.005 96.1818 209.343 96.0082C209.681 95.8346 210.055 95.7803 210.42 95.852H210.567L212.667 96.0455C212.781 96.0625 212.896 96.0342 212.994 95.9653C213.092 95.8964 213.167 95.7911 213.206 95.6666C213.279 95.5384 213.337 95.4003 213.381 95.2556C213.668 94.0949 213.948 92.9423 214.221 91.7816C214.27 91.6205 214.266 91.4442 214.209 91.2866C214.152 91.1289 214.047 91.001 213.913 90.9272C213.651 90.7372 213.38 90.5649 213.101 90.4113L212.31 89.968L211.708 89.6375C211.453 89.5039 211.232 89.2962 211.068 89.0348C210.903 88.7734 210.801 88.4672 210.77 88.1464C210.679 87.3887 210.609 86.623 210.539 85.8573L210.49 85.3495C210.465 85.1143 210.487 84.8755 210.555 84.6518C210.623 84.4281 210.735 84.2255 210.882 84.0598C211.141 83.7535 211.414 83.4553 211.694 83.1732L212.184 82.6896C212.408 82.48 212.632 82.2624 212.842 82.0286C213.283 81.5531 213.325 81.2951 213.045 80.6987C212.562 79.6831 212.058 78.6514 211.533 77.6196C211.495 77.5204 211.441 77.431 211.372 77.3566C211.304 77.2823 211.223 77.2246 211.135 77.187C211.047 77.1494 210.953 77.1326 210.859 77.1377C210.765 77.1428 210.673 77.1696 210.588 77.2166L209.433 77.6438L208.313 78.0549C208.037 78.1663 207.74 78.1907 207.454 78.1255C207.167 78.0603 206.9 77.9079 206.682 77.6841C206.227 77.2408 205.758 76.8136 205.282 76.3864L204.848 75.9834C204.661 75.8162 204.511 75.6006 204.41 75.3541C204.309 75.1076 204.26 74.8372 204.267 74.5648C204.267 74.2263 204.267 73.8877 204.309 73.5492C204.351 73.2107 204.344 73.0656 204.365 72.8318C204.365 72.3643 204.435 71.9291 204.442 71.4777C204.457 71.3163 204.424 71.1538 204.347 71.0174C204.271 70.8809 204.156 70.7788 204.022 70.7281C203.063 70.4057 202.034 70.0913 200.697 69.7044C200.568 69.6617 200.429 69.674 200.307 69.7391C200.185 69.8042 200.087 69.9178 200.032 70.0591C199.857 70.3976 199.689 70.7523 199.528 71.1069L199.143 71.913C199.003 72.2273 198.856 72.5336 198.709 72.848C198.619 73.0521 198.488 73.2279 198.325 73.36C198.163 73.492 197.975 73.5764 197.778 73.6056L196.945 73.7265C196.448 73.7991 195.944 73.8716 195.447 73.9603C195.115 74.0337 194.771 73.997 194.456 73.8543C194.142 73.7116 193.869 73.4688 193.669 73.1542C193.361 72.719 193.032 72.2918 192.703 71.8727C192.521 71.6389 192.339 71.4052 192.164 71.1634C192.091 71.0477 191.986 70.9645 191.866 70.9278C191.746 70.8911 191.619 70.9031 191.506 70.9618C190.323 71.4935 189.216 72.2272 188.223 73.1381C188.165 73.2384 188.133 73.356 188.132 73.4767C188.143 73.7651 188.19 74.0503 188.272 74.323C188.384 74.7636 188.503 75.2069 188.629 75.6529L188.923 76.733C188.997 76.9765 189.019 77.2367 188.987 77.492C188.955 77.7473 188.871 77.9901 188.741 78.2C188.223 78.9496 187.607 79.812 186.935 80.7148C186.699 80.9745 186.392 81.1313 186.067 81.1581C185.804 81.1864 185.539 81.1864 185.276 81.1581H185.045L184.429 81.0936C184.044 81.0936 183.659 81.013 183.274 81.005C183.102 80.9987 182.934 81.06 182.796 81.1786C182.659 81.2973 182.561 81.4663 182.518 81.6579C182.399 82.0931 182.28 82.5284 182.182 82.9636C182.035 83.6084 181.902 84.2452 181.762 84.882L181.636 85.4946V85.6638C181.84 86.0293 182.139 86.3114 182.49 86.4699L183.652 87.1711L184.422 87.6305C184.612 87.7377 184.775 87.8978 184.897 88.0963C185.02 88.2948 185.097 88.5254 185.122 88.767L185.227 89.7262C185.29 90.2421 185.346 90.7579 185.416 91.2738C185.488 91.7104 185.448 92.1615 185.303 92.5732C185.158 92.9849 184.913 93.3397 184.597 93.5951C184.121 94.0223 183.624 94.506 183.043 95.1185C182.686 95.4893 182.651 95.6747 182.861 96.1503C183.239 96.9563 183.743 98.117 184.303 99.2212C184.667 99.9547 184.8 100.027 185.549 99.7774L186.249 99.5195L187.649 99.0036C187.822 98.8998 188.009 98.829 188.202 98.794H188.181ZM197.904 96.8435C196.087 96.8352 194.339 96.0451 193.002 94.6282C191.665 93.2114 190.837 91.2703 190.68 89.1862C190.597 88.0887 190.704 86.9831 190.996 85.934C191.288 84.885 191.759 83.9135 192.381 83.0765C193.297 81.7928 194.526 80.8542 195.91 80.3814C197.293 79.9086 198.768 79.9232 200.144 80.4234C201.52 80.9235 202.735 81.8864 203.632 83.188C204.528 84.4896 205.067 86.0705 205.177 87.7273C205.281 88.7841 205.2 89.8542 204.939 90.8744C204.679 91.8947 204.243 92.8445 203.658 93.6677C203.036 94.5714 202.259 95.3171 201.374 95.8581C200.49 96.3991 199.518 96.7236 198.52 96.8112C198.322 96.833 198.124 96.8438 197.925 96.8435H197.904ZM197.855 80.8518H197.281C195.573 81.0729 194.007 82.0498 192.913 83.5762C192.073 84.7157 191.546 86.1164 191.398 87.6011C191.25 89.0858 191.488 90.5876 192.081 91.9166C192.675 93.2455 193.598 94.3419 194.733 95.0668C195.867 95.7917 197.164 96.1127 198.457 95.9891C199.361 95.9084 200.241 95.6141 201.042 95.1245C201.843 94.635 202.547 93.9607 203.112 93.1438C203.642 92.4067 204.039 91.5549 204.28 90.6386C204.52 89.7223 204.599 88.7598 204.512 87.8079C204.381 85.8945 203.621 84.1106 202.389 82.8186C201.156 81.5265 199.543 80.8233 197.876 80.8518H197.855Z" fill="#D1D3D4"/>
<path d="M98.042 40.3974C98.042 40.3974 80.724 39.406 77.224 52.5604V78.8933C77.224 78.8933 90.685 66.6901 98.042 70.7605V40.3974Z" fill="#D1D3D4"/>
<path d="M77.224 79.2962C77.1731 79.3073 77.1209 79.3073 77.07 79.2962C77.0111 79.2629 76.9615 79.2113 76.9268 79.1472C76.8922 79.083 76.8739 79.009 76.874 78.9334V52.5602C76.8706 52.5226 76.8706 52.4848 76.874 52.4473C80.416 39.1478 97.874 39.978 98.049 39.9942C98.1394 39.9983 98.2248 40.0426 98.2875 40.1178C98.3501 40.1929 98.3851 40.293 98.385 40.3972V70.7603C98.3853 70.8299 98.37 70.8983 98.3406 70.9591C98.3112 71.0198 98.2686 71.0707 98.217 71.1069C98.1659 71.1409 98.108 71.1587 98.049 71.1587C97.99 71.1587 97.9321 71.1409 97.881 71.1069C90.804 67.1735 77.581 79.0705 77.427 79.1672C77.376 79.2383 77.3034 79.2845 77.224 79.2962ZM77.574 52.6246V78.0791C80.192 75.8302 90.958 67.1251 97.699 70.1477V40.7841C95.305 40.7277 80.724 40.9695 77.574 52.6246Z" fill="#231F20"/>
<path d="M115.927 180.034C113.554 180.936 111.146 181.734 108.829 182.782C104.965 184.531 101.829 183.322 99.729 179.453C96.439 173.464 91.868 169.289 86.779 165.461C79.31 159.818 74.179 151.855 72.149 141.796C68.019 121.54 78.267 104.364 96.376 99.5596C123.095 92.4908 139.398 120.516 132.076 147.115C130.095 154.313 128.24 161.293 128.73 168.943C129.003 173.198 126.987 175.931 123.382 177.156C120.876 178.035 118.412 179.074 115.927 180.034Z" fill="white"/>
<path d="M105.553 183.975C103.082 183.975 101.003 182.524 99.442 179.671C95.942 173.344 91 169.112 86.59 165.799C79.137 160.364 73.8317 151.781 71.813 141.893C69.86 132.293 71.015 123.177 75.152 115.527C79.527 107.467 87.052 101.623 96.306 99.173C108.024 96.0698 118.51 99.3906 125.832 108.531C133.749 118.405 136.269 133.252 132.419 147.269C130.536 154.12 128.59 161.205 129.087 168.943C129.36 173.255 127.428 176.197 123.487 177.575C121.772 178.156 120.043 178.841 118.37 179.502L116.032 180.413L113.862 181.219C112.238 181.815 110.558 182.436 108.962 183.161C107.88 183.675 106.723 183.951 105.553 183.975ZM104.636 98.8425C101.883 98.858 99.1403 99.2311 96.46 99.9548C87.36 102.373 80.024 108.015 75.747 115.955C71.708 123.418 70.581 132.325 72.492 141.707C74.494 151.525 79.366 159.44 86.975 165.122C91.448 168.483 96.495 172.788 100.03 179.244C102.095 183.008 105.007 184.08 108.696 182.412C110.327 181.678 112.014 181.058 113.652 180.453L115.815 179.647L118.146 178.736C119.819 178.075 121.555 177.382 123.291 176.802C126.875 175.585 128.632 172.892 128.387 169.007C127.876 161.108 129.85 153.951 131.747 147.027C135.527 133.324 133.063 118.743 125.321 109.079C122.7 105.783 119.5 103.166 115.934 101.401C112.368 99.6364 108.517 98.7643 104.636 98.8425Z" fill="#231F20"/>
<path d="M125.444 176.421L106.302 183.779C104.589 184.438 103.664 186.57 104.236 188.542L104.568 189.688C105.14 191.66 106.992 192.725 108.704 192.067L127.847 184.709C129.559 184.051 130.484 181.919 129.913 179.947L129.58 178.8C129.009 176.828 127.157 175.763 125.444 176.421Z" fill="white"/>
<path d="M107.681 192.656C106.922 192.659 106.181 192.386 105.565 191.874C104.949 191.363 104.489 190.641 104.251 189.811L103.915 188.658C103.613 187.609 103.685 186.466 104.114 185.478C104.543 184.49 105.294 183.738 106.204 183.387L125.342 176.028C126.254 175.68 127.248 175.762 128.107 176.256C128.966 176.75 129.62 177.615 129.927 178.663L130.256 179.808C130.56 180.857 130.489 182.003 130.06 182.993C129.631 183.983 128.878 184.736 127.967 185.087L108.829 192.43C108.459 192.576 108.072 192.653 107.681 192.656ZM126.49 176.624C126.176 176.624 125.864 176.681 125.566 176.793L106.4 184.152C105.672 184.442 105.073 185.051 104.732 185.846C104.392 186.641 104.337 187.559 104.58 188.4L104.916 189.545C105.035 189.964 105.226 190.352 105.477 190.686C105.728 191.02 106.035 191.292 106.379 191.487C106.722 191.686 107.096 191.805 107.479 191.837C107.863 191.869 108.248 191.813 108.612 191.673L127.75 184.313C128.114 184.173 128.45 183.952 128.739 183.662C129.028 183.373 129.265 183.02 129.436 182.625C129.607 182.23 129.709 181.799 129.735 181.359C129.762 180.918 129.713 180.476 129.591 180.058L129.262 178.913C129.066 178.246 128.693 177.666 128.196 177.255C127.698 176.845 127.102 176.624 126.49 176.624Z" fill="#231F20"/>
<path d="M127.853 184.716L108.711 192.074C106.998 192.732 106.073 194.865 106.645 196.837L106.977 197.983C107.549 199.955 109.401 201.02 111.113 200.362L130.256 193.004C131.968 192.346 132.893 190.213 132.322 188.242L131.989 187.095C131.417 185.123 129.566 184.058 127.853 184.716Z" fill="white"/>
<path d="M110.082 200.95C109.323 200.946 108.585 200.668 107.97 200.156C107.355 199.645 106.894 198.925 106.652 198.097L106.323 196.952C106.166 196.427 106.102 195.871 106.135 195.317C106.169 194.763 106.3 194.223 106.519 193.728C106.727 193.234 107.021 192.794 107.382 192.435C107.743 192.076 108.164 191.805 108.619 191.641L127.757 184.282C128.667 183.944 129.656 184.035 130.507 184.535C131.359 185.035 132.003 185.903 132.3 186.949L132.629 188.102C132.781 188.621 132.843 189.169 132.811 189.715C132.779 190.261 132.653 190.795 132.441 191.285C132.229 191.775 131.934 192.211 131.575 192.57C131.216 192.928 130.798 193.202 130.347 193.374L111.209 200.733C110.846 200.873 110.465 200.946 110.082 200.95ZM128.898 184.91C128.581 184.909 128.267 184.969 127.967 185.088L108.829 192.43C108.095 192.716 107.488 193.324 107.142 194.123C106.969 194.517 106.866 194.946 106.839 195.387C106.813 195.827 106.863 196.269 106.988 196.686L107.317 197.831C107.437 198.251 107.628 198.639 107.88 198.974C108.131 199.309 108.437 199.583 108.78 199.781C109.124 199.978 109.498 200.096 109.881 200.126C110.264 200.157 110.649 200.1 111.013 199.959L130.151 192.6C130.515 192.461 130.852 192.24 131.142 191.95C131.431 191.661 131.669 191.308 131.84 190.913C132.011 190.517 132.112 190.087 132.139 189.646C132.165 189.205 132.115 188.762 131.992 188.344L131.663 187.199C131.542 186.78 131.351 186.393 131.1 186.06C130.849 185.726 130.543 185.453 130.2 185.257C129.795 185.028 129.349 184.909 128.898 184.91Z" fill="#231F20"/>
<path d="M130.522 192.89C131.425 196.017 127.722 200.241 122.332 202.328C116.942 204.416 111.769 203.57 110.866 200.45L130.522 192.89Z" fill="#231F20"/>
<path d="M116.613 203.876C116.025 203.88 115.438 203.834 114.856 203.739C112.553 203.36 111.013 202.24 110.53 200.579C110.503 200.477 110.511 200.366 110.553 200.27C110.594 200.174 110.666 200.1 110.754 200.063L130.41 192.511C130.497 192.477 130.592 192.485 130.675 192.532C130.758 192.578 130.821 192.661 130.851 192.761C131.334 194.429 130.697 196.388 129.052 198.282C127.168 200.313 124.909 201.826 122.444 202.707C120.567 203.452 118.598 203.847 116.613 203.876ZM111.335 200.692C111.846 201.853 113.113 202.643 114.954 202.941C117.41 203.179 119.883 202.839 122.221 201.941C124.56 201.043 126.715 199.606 128.555 197.718C129.864 196.202 130.466 194.695 130.27 193.414L111.335 200.692Z" fill="#231F20"/>
<path d="M110.278 177.97C110.2 177.968 110.124 177.938 110.063 177.883C110.001 177.827 109.956 177.751 109.935 177.664L109.76 176.858C108.36 170.063 106.862 163.083 104.258 156.707C100.488 157.535 96.5984 157.258 92.946 155.901C90.8102 155.213 88.8754 153.874 87.346 152.024C86.5728 151.077 86.0234 149.917 85.7501 148.656C85.4769 147.394 85.4889 146.073 85.785 144.818C86.1046 143.906 86.5833 143.079 87.1915 142.389C87.7998 141.698 88.5245 141.159 89.3211 140.804C90.1176 140.449 90.9689 140.286 91.8224 140.325C92.6759 140.363 93.5133 140.604 94.283 141.03C96.803 142.707 99.498 146.092 102.305 151.089C103.161 152.616 103.935 154.201 104.622 155.837C107.717 155.112 110.651 153.67 113.246 151.597C113.19 151.307 113.134 151.025 113.085 150.735L112.959 150.025C111.951 144.528 110.705 137.685 112.77 132.293C113.099 131.422 114.338 128.561 116.319 128.085C116.792 127.983 117.28 128.02 117.737 128.192C118.195 128.364 118.607 128.665 118.937 129.069C120.025 130.3 120.843 131.813 121.324 133.48C121.805 135.148 121.934 136.924 121.702 138.66C121.215 142.092 119.879 145.288 117.852 147.865C116.719 149.376 115.436 150.728 114.03 151.895C115.556 159.282 117.872 166.421 120.925 173.15C120.947 173.198 120.96 173.25 120.964 173.303C120.968 173.357 120.962 173.411 120.948 173.462C120.934 173.513 120.911 173.56 120.88 173.601C120.85 173.641 120.813 173.675 120.771 173.698C120.688 173.744 120.593 173.751 120.506 173.718C120.418 173.685 120.345 173.615 120.302 173.521C117.266 166.829 114.953 159.734 113.414 152.395C110.866 154.384 108.009 155.79 105 156.538C107.583 162.914 109.053 169.862 110.474 176.632L110.656 177.438C110.677 177.542 110.662 177.651 110.613 177.742C110.565 177.832 110.487 177.897 110.397 177.922L110.278 177.97ZM91.7 141.038C90.9809 141.044 90.269 141.202 89.6 141.506C88.8853 141.79 88.2338 142.253 87.6919 142.86C87.1499 143.468 86.7307 144.205 86.464 145.02C86.2069 146.144 86.2005 147.324 86.4452 148.451C86.69 149.578 87.178 150.616 87.864 151.468C89.3014 153.203 91.117 154.461 93.121 155.111C96.5982 156.415 100.301 156.708 103.901 155.966C103.246 154.43 102.515 152.939 101.71 151.5C98.966 146.616 96.348 143.319 93.926 141.699C93.2461 141.261 92.4791 141.033 91.7 141.038ZM116.9 128.811C116.771 128.812 116.642 128.826 116.515 128.851C115.206 129.173 114.079 130.995 113.463 132.599C111.496 137.733 112.714 144.431 113.694 149.824L113.827 150.525C113.827 150.702 113.89 150.872 113.918 151.049C115.187 149.959 116.347 148.71 117.376 147.325C119.315 144.867 120.596 141.816 121.065 138.539C121.279 136.936 121.16 135.296 120.719 133.755C120.277 132.214 119.525 130.815 118.524 129.673C118.097 129.159 117.517 128.851 116.9 128.811Z" fill="#D1D3D4"/>
<path d="M177.338 60.6364C177.128 60.6364 167.538 91.9103 167.538 91.9103H193.55L198.996 59.2178L177.338 60.6364Z" fill="white"/>
<path d="M193.55 92.3137H167.566C167.511 92.3135 167.457 92.2979 167.408 92.2685C167.359 92.239 167.317 92.1965 167.286 92.1445C167.252 92.0919 167.23 92.0306 167.222 91.966C167.213 91.9014 167.218 91.8354 167.237 91.7737C176.764 60.6045 176.988 60.2418 177.324 60.2418L198.982 58.8232C199.035 58.8203 199.087 58.8311 199.136 58.8549C199.184 58.8786 199.227 58.9146 199.262 58.9602C199.296 59.0068 199.321 59.061 199.335 59.1193C199.35 59.1776 199.353 59.2387 199.346 59.2988L193.9 91.9833C193.886 92.0779 193.843 92.1636 193.779 92.2244C193.715 92.2852 193.633 92.317 193.55 92.3137ZM168.063 91.5077H193.263L198.569 59.6534L177.569 61.0237C176.834 62.9743 171.626 79.8606 168.063 91.5077Z" fill="#231F20"/>
<path d="M172.746 81.9398C172.692 81.9408 172.639 81.9274 172.59 81.9009C172.542 81.8743 172.499 81.8352 172.466 81.7867C172.431 81.7332 172.408 81.671 172.398 81.6051C172.388 81.5392 172.392 81.4715 172.41 81.4078L175.574 70.4781C175.593 70.4049 175.63 70.3398 175.681 70.291C175.733 70.2422 175.795 70.212 175.861 70.204L179.893 69.6398C179.95 69.6302 180.009 69.6377 180.063 69.6617C180.117 69.6857 180.164 69.7254 180.201 69.7768C180.239 69.8281 180.266 69.8897 180.278 69.9559C180.29 70.0221 180.288 70.0908 180.271 70.1557L177.338 81.3353C177.318 81.4143 177.276 81.4839 177.22 81.5345C177.163 81.5851 177.094 81.6141 177.023 81.6174L172.767 81.9398H172.746ZM176.169 70.9697L173.236 81.0935L176.736 80.8355L179.445 70.5184L176.169 70.9697Z" fill="#D1D3D4"/>
<path d="M190.897 88.8474H177.338C177.283 88.8487 177.229 88.8347 177.181 88.8066C177.132 88.7785 177.09 88.7372 177.058 88.6862C177.024 88.6371 177.001 88.5789 176.991 88.517C176.981 88.4551 176.985 88.3913 177.002 88.3315L183.631 62.7643C183.653 62.6865 183.695 62.6181 183.751 62.5678C183.807 62.5175 183.875 62.4877 183.946 62.4822L196.546 61.4343C196.6 61.4305 196.655 61.4417 196.705 61.4669C196.755 61.4921 196.799 61.5307 196.833 61.5794C196.87 61.6266 196.897 61.6837 196.91 61.7456C196.924 61.8075 196.924 61.8722 196.91 61.9341L191.254 88.533C191.235 88.6246 191.189 88.7058 191.124 88.763C191.059 88.8202 190.979 88.85 190.897 88.8474ZM177.807 88.0414H190.624L196.098 62.2484L184.233 63.2318L177.807 88.0414Z" fill="#D1D3D4"/>
<path d="M158.088 78.7803C158.088 78.7803 161.098 75.8706 162.491 74.5487C163.884 73.2268 165.228 69.5997 166.488 69.6158C167.748 69.6319 165.494 73.9442 165.494 73.9442C165.494 73.9442 170.177 69.8092 171.633 69.6883C173.089 69.5674 173.908 72.3966 173.544 73.2752C173.18 74.1537 169.211 76.2978 167.741 77.9904C166.271 79.6831 161.441 83.4714 161.441 83.4714" fill="white"/>
<path d="M161.469 83.8343C161.393 83.8358 161.318 83.8088 161.257 83.7572C161.195 83.7057 161.15 83.6325 161.128 83.5487C161.106 83.4648 161.108 83.375 161.134 83.2927C161.16 83.2104 161.209 83.1402 161.273 83.0927C161.322 83.0927 166.068 79.3124 167.496 77.6601C168.555 76.61 169.705 75.6864 170.926 74.9035C171.758 74.4054 172.529 73.7849 173.222 73.0576C173.275 72.6665 173.261 72.2669 173.179 71.8823C173.097 71.4976 172.95 71.1355 172.746 70.8169C172.647 70.5807 172.493 70.3805 172.302 70.2383C172.11 70.0961 171.889 70.0174 171.661 70.0109C170.667 70.0915 167.559 72.5498 165.711 74.178C165.648 74.2383 165.569 74.2714 165.487 74.2714C165.405 74.2714 165.326 74.2383 165.263 74.178C165.202 74.1159 165.162 74.0306 165.15 73.9375C165.139 73.8444 165.156 73.7497 165.2 73.6702C166.047 72.0582 166.67 70.2768 166.502 69.9544C165.914 69.9544 165.102 71.2521 164.402 72.3725C163.918 73.2558 163.342 74.0679 162.687 74.7906C161.287 76.1125 158.291 79.0223 158.291 79.0223L157.836 78.4097C157.836 78.4097 160.853 75.4919 162.239 74.17C162.844 73.4956 163.378 72.7407 163.828 71.9211C164.696 70.4945 165.522 69.1484 166.453 69.1484C166.58 69.1435 166.706 69.1784 166.817 69.2494C166.927 69.3204 167.02 69.4248 167.083 69.5514C167.363 70.1479 166.985 71.365 166.53 72.4531C168.063 71.1877 170.506 69.3016 171.577 69.229C171.924 69.2212 172.266 69.3212 172.568 69.5183C172.87 69.7154 173.12 70.0025 173.292 70.3494C173.568 70.7802 173.759 71.2756 173.851 71.8007C173.943 72.3258 173.934 72.8676 173.824 73.3881C173.607 73.904 172.753 74.5246 171.262 75.5725C170.101 76.3334 169.009 77.2243 168 78.2324C166.523 79.9331 161.875 83.6086 161.7 83.7617C161.634 83.8185 161.551 83.8443 161.469 83.8343Z" fill="#231F20"/>
<path d="M160.013 55.6068C161.484 54.4176 163.067 53.4226 164.731 52.6406C166.642 51.9152 169.064 51.4235 168.518 50.4886C167.972 49.5536 163.436 50.9077 163.436 50.9077C163.436 50.9077 166.082 46.2408 167.566 45.3138C169.05 44.3869 171.178 44.4595 170.128 43.5728C169.078 42.6862 165.928 42.5492 164.801 43.202C163.674 43.8549 157.332 51.883 157.01 52.3102C156.688 52.7374 160.013 55.6068 160.013 55.6068Z" fill="white"/>
<path d="M160.013 56.01C159.937 56.0106 159.863 55.9822 159.803 55.9294C158.403 54.7203 156.702 53.1244 156.639 52.4473C156.631 52.3754 156.636 52.3024 156.654 52.2329C156.672 52.1635 156.703 52.0992 156.744 52.0443C156.807 51.9637 163.415 43.5649 164.64 42.8475C165.865 42.1302 169.141 42.243 170.338 43.2505C170.471 43.3634 170.821 43.6616 170.751 44.0566C170.681 44.4515 170.177 44.7014 169.421 44.9351C168.834 45.0918 168.266 45.3272 167.727 45.6364C166.782 46.2248 165.179 48.6751 164.227 50.2308C165.858 49.8116 168.287 49.3522 168.798 50.2308C168.866 50.3369 168.911 50.4607 168.928 50.5915C168.945 50.7222 168.934 50.8557 168.896 50.9804C168.686 51.6574 167.741 52.004 166.096 52.5924C165.676 52.7294 165.242 52.8745 164.829 53.0277C163.201 53.8038 161.652 54.7822 160.209 55.9455C160.15 55.988 160.082 56.0104 160.013 56.01ZM157.381 52.4393C158.182 53.4325 159.068 54.3292 160.027 55.1153C161.458 53.9629 162.998 53.0028 164.619 52.2539C165.039 52.1007 165.48 51.9476 165.914 51.8106C166.747 51.5285 168.147 51.061 168.245 50.7385C167.972 50.3517 165.774 50.6257 163.527 51.2947C163.459 51.315 163.387 51.3113 163.321 51.284C163.255 51.2567 163.197 51.207 163.156 51.1416C163.116 51.0737 163.095 50.9937 163.095 50.9118C163.095 50.83 163.116 50.75 163.156 50.6821C163.268 50.4887 165.865 45.9185 167.412 44.9593C167.997 44.6111 168.615 44.3407 169.253 44.1533C169.491 44.0807 169.799 43.984 169.953 43.9034L169.918 43.8631C168.952 43.0571 165.928 42.9523 164.955 43.5246C163.982 44.0969 158.34 51.198 157.381 52.4393Z" fill="#231F20"/>
<path d="M127.547 62.281C127.547 62.281 144.116 64.9973 146.622 64.2719L156.422 51.6172L162.169 55.9294C162.169 55.9294 159.145 66.3272 155.001 72.3321C150.857 78.3371 123.746 79.6348 123.746 79.6348L127.547 62.281Z" fill="#68E1FD"/>
<path d="M163.457 172.498C163.457 172.498 161.546 177.253 161.98 179.147C162.414 181.041 169.813 193.616 170.884 192.197C171.955 190.778 170.338 178.494 170.338 178.494L163.457 172.498Z" fill="#231F20"/>
<path d="M170.66 192.713H170.464C168.413 192.156 161.994 180.808 161.644 179.276C161.196 177.293 162.939 172.828 163.142 172.352C163.164 172.299 163.196 172.251 163.236 172.214C163.276 172.176 163.323 172.149 163.373 172.135C163.423 172.119 163.476 172.117 163.526 172.128C163.577 172.139 163.625 172.164 163.667 172.199L170.548 178.164C170.584 178.194 170.615 178.233 170.638 178.277C170.66 178.321 170.675 178.371 170.681 178.422C170.954 180.509 172.263 191.004 171.143 192.487C171.082 192.563 171.007 192.623 170.923 192.661C170.84 192.7 170.75 192.718 170.66 192.713ZM163.597 173.086C163.016 174.633 162.022 177.72 162.316 179.018C162.806 181.154 169.477 191.874 170.646 191.874C171.262 191.068 170.646 183.685 170.002 178.647L163.597 173.086Z" fill="#231F20"/>
<path d="M167.356 162.624L163.457 172.497L170.338 178.462L175.497 166.912L167.356 162.624Z" fill="white"/>
<path d="M170.338 178.865C170.263 178.863 170.189 178.835 170.128 178.784L163.247 172.82C163.183 172.764 163.137 172.685 163.117 172.596C163.097 172.507 163.103 172.413 163.135 172.328L167.034 162.454C167.076 162.357 167.149 162.282 167.237 162.245C167.322 162.204 167.418 162.204 167.503 162.245L175.644 166.533C175.687 166.555 175.727 166.587 175.759 166.628C175.791 166.668 175.817 166.715 175.833 166.766C175.868 166.867 175.868 166.98 175.833 167.081L170.674 178.631C170.652 178.685 170.618 178.733 170.577 178.769C170.536 178.805 170.487 178.83 170.436 178.841L170.338 178.865ZM163.891 172.368L170.191 177.849L175 167.097L167.51 163.155L163.891 172.368Z" fill="#231F20"/>
<path d="M146.93 106.854C146.93 106.854 175.707 115.261 181.356 120.557C187.005 125.853 182.665 163.937 175.819 170.95L165.053 164.429C165.053 164.429 170.793 135.251 168.686 132.849C166.579 130.447 142.835 126.925 142.835 126.925L127.309 106.927L146.93 106.854Z" fill="#231F20"/>
<path d="M175.819 171.353C175.763 171.353 175.707 171.336 175.658 171.304L164.892 164.784C164.824 164.743 164.769 164.678 164.736 164.597C164.703 164.517 164.694 164.427 164.71 164.34C166.915 153.144 169.876 134.767 168.441 133.131C166.775 131.237 149.359 128.295 142.793 127.319C142.709 127.31 142.631 127.264 142.576 127.19L127.05 107.193C127.004 107.136 126.974 107.066 126.963 106.99C126.952 106.914 126.96 106.836 126.987 106.766C127.015 106.694 127.06 106.633 127.117 106.59C127.174 106.548 127.241 106.524 127.309 106.524L146.909 106.451H147C148.176 106.798 175.917 114.947 181.566 120.234C183.666 122.193 184.198 127.867 184.282 132.284C184.541 145.842 180.922 166.234 176.036 171.24C175.979 171.308 175.901 171.348 175.819 171.353ZM165.452 164.219L175.763 170.474C180.425 165.291 183.848 145.536 183.596 132.325C183.484 126.32 182.609 122.249 181.139 120.871C175.714 115.785 148.148 107.636 146.888 107.257L128.086 107.338L143.01 126.554C145.992 126.997 166.81 130.181 168.91 132.575C169.526 133.276 170.107 135.799 167.979 149.614C166.978 156.264 165.732 162.76 165.452 164.219Z" fill="#231F20"/>
<path d="M144.151 188.731L143.248 197.831L150.878 202.038L152.614 189.481L144.151 188.731Z" fill="white"/>
<path d="M150.878 202.441C150.827 202.452 150.775 202.452 150.724 202.441L143.094 198.234C143.029 198.196 142.975 198.137 142.94 198.064C142.905 197.99 142.89 197.906 142.898 197.823L143.801 188.723C143.804 188.67 143.817 188.619 143.838 188.573C143.859 188.526 143.888 188.485 143.924 188.452C143.959 188.419 144 188.394 144.044 188.38C144.088 188.365 144.134 188.361 144.179 188.368L152.642 189.118C152.69 189.121 152.737 189.137 152.779 189.163C152.821 189.19 152.858 189.226 152.887 189.271C152.919 189.314 152.941 189.364 152.953 189.419C152.966 189.473 152.967 189.53 152.957 189.585L151.2 202.103C151.192 202.164 151.172 202.223 151.14 202.273C151.108 202.324 151.066 202.365 151.018 202.393C150.975 202.421 150.927 202.438 150.878 202.441ZM143.619 197.605L150.619 201.458L152.222 189.859L144.473 189.174L143.619 197.605Z" fill="#231F20"/>
<path d="M118.776 115.374C118.776 115.374 144.907 137.395 145.257 147.688C145.607 157.981 142.156 190.504 142.156 190.504L155.288 194.123C155.288 194.123 164.773 150.904 161.588 139.885C158.403 128.867 140 105.879 140 105.879L118.776 115.374Z" fill="#231F20"/>
<path d="M155.288 194.526H155.204L142.1 190.891C142.017 190.87 141.943 190.813 141.894 190.733C141.845 190.652 141.823 190.553 141.834 190.456C141.834 190.133 145.278 157.836 144.928 147.696C144.592 137.717 118.846 115.914 118.587 115.696C118.538 115.652 118.499 115.594 118.475 115.528C118.45 115.462 118.441 115.389 118.447 115.318C118.457 115.246 118.483 115.179 118.522 115.122C118.561 115.066 118.613 115.022 118.671 114.995L139.888 105.508C139.953 105.477 140.025 105.469 140.094 105.487C140.163 105.504 140.225 105.545 140.273 105.605C141.022 106.548 158.718 128.786 161.91 139.756C165.102 150.727 156.037 192.455 155.61 194.22C155.592 194.304 155.551 194.379 155.493 194.434C155.435 194.49 155.363 194.522 155.288 194.526ZM142.541 190.198L155.029 193.64C155.96 189.327 164.213 150.251 161.231 140.014C158.249 129.778 141.715 108.644 139.895 106.355L119.49 115.479C123.256 118.703 145.278 137.983 145.607 147.672C145.936 157.36 142.912 186.619 142.541 190.198Z" fill="#231F20"/>
<path d="M118.552 51.9396C117.526 51.7907 116.547 51.3534 115.703 50.666C114.114 49.328 113.295 47.1114 112.588 45.0238C112.032 43.607 111.718 42.0799 111.664 40.5262C111.713 37.7857 113.295 35.424 114.919 33.4251C116.137 31.9259 117.523 30.0156 116.942 28.073C116.767 27.6705 116.643 27.2418 116.571 26.7995C116.529 25.6952 117.817 25.0504 118.713 25.4696C119.567 26.0086 120.242 26.8592 120.631 27.8876C120.941 27.5139 121.167 27.0585 121.289 26.5611C121.411 26.0637 121.425 25.5396 121.331 25.0343C121.254 24.6232 121.107 24.1799 121.289 23.8253C121.448 23.5829 121.68 23.4187 121.94 23.3658C123.164 23.0535 124.446 23.2985 125.518 24.0497C126.589 24.8008 127.366 25.9999 127.687 27.396C127.92 26.9404 128.065 26.4329 128.113 25.9074C128.161 25.382 128.112 24.8507 127.967 24.3492C130.083 25.192 131.874 26.8653 133.025 29.0759C134.177 31.2865 134.617 33.8933 134.267 36.4396C134.047 38.3155 133.621 40.1518 133 41.9045C132.696 42.4952 132.286 43.0037 131.796 43.3956C128.534 46.5311 127.064 50.4887 122.654 51.6413C121.313 52.0196 119.924 52.1206 118.552 51.9396Z" fill="white"/>
<path d="M119.819 52.4392C119.379 52.4404 118.939 52.4081 118.503 52.3425C117.42 52.1863 116.387 51.7208 115.5 50.9884C113.855 49.602 113.001 47.3371 112.266 45.1366C111.681 43.6747 111.353 42.0942 111.3 40.4858C111.356 37.568 113.022 35.1257 114.653 33.1187C115.948 31.5067 117.089 29.8059 116.599 28.1778C116.557 28.0488 116.515 27.9279 116.466 27.807C116.325 27.4874 116.237 27.1402 116.207 26.7833C116.201 26.4993 116.258 26.2183 116.373 25.9671C116.489 25.7159 116.658 25.503 116.865 25.3486C117.147 25.1226 117.473 24.9782 117.814 24.9277C118.155 24.8772 118.502 24.922 118.825 25.0584C119.612 25.5005 120.253 26.2246 120.652 27.1219C120.975 26.5086 121.083 25.7762 120.953 25.0745L120.911 24.8972C120.839 24.6842 120.805 24.4566 120.811 24.2281C120.817 23.9996 120.863 23.7749 120.946 23.5673C121.151 23.2315 121.463 23.0026 121.814 22.9305C122.463 22.7498 123.137 22.7209 123.796 22.8455C124.455 22.9701 125.085 23.2457 125.65 23.6559C126.524 24.2552 127.226 25.1384 127.666 26.1949C127.787 25.6079 127.763 24.9936 127.596 24.4217C127.575 24.3501 127.572 24.2733 127.588 24.2C127.603 24.1267 127.636 24.0598 127.682 24.0069C127.729 23.954 127.788 23.9172 127.852 23.9008C127.916 23.8843 127.982 23.8889 128.044 23.9139C129.378 24.4613 130.595 25.3286 131.616 26.4582C132.637 27.5879 133.438 28.9542 133.966 30.4669C134.619 32.3598 134.817 34.42 134.54 36.4315C134.345 38.3652 133.933 40.2617 133.315 42.0737C133.011 42.6827 132.598 43.2102 132.104 43.6213L132.02 43.7019C131.055 44.6699 130.147 45.712 129.304 46.8212C127.519 49.0781 125.804 51.2141 122.731 52.0282C121.776 52.2864 120.8 52.4242 119.819 52.4392ZM118.118 25.7113C117.822 25.711 117.532 25.812 117.285 26.0015C117.174 26.0801 117.082 26.1903 117.018 26.3216C116.954 26.4528 116.921 26.6007 116.921 26.7511C116.95 27.0077 117.018 27.2562 117.124 27.4846C117.173 27.6297 117.229 27.7667 117.271 27.9118C117.971 30.2251 116.151 32.4658 115.171 33.6668C113.631 35.561 112.056 37.8582 112.007 40.5019C112.059 42.004 112.366 43.4798 112.91 44.8464C113.61 47.0227 114.415 49.0862 115.906 50.3436C116.702 50.994 117.625 51.4066 118.594 51.5446C119.926 51.7206 121.276 51.6195 122.577 51.2463C125.468 50.4887 127.085 48.4494 128.793 46.2812C129.661 45.1342 130.597 44.0569 131.593 43.0571L131.677 42.9765C132.091 42.636 132.441 42.2028 132.706 41.7029C133.279 39.9574 133.666 38.1388 133.861 36.2864C134.116 34.4164 133.933 32.5017 133.329 30.7409C132.417 28.1393 130.659 26.0509 128.429 24.9214C128.531 25.8262 128.363 26.7441 127.953 27.5249C127.916 27.5922 127.863 27.6455 127.8 27.6781C127.737 27.7108 127.668 27.7213 127.6 27.7084C127.531 27.6955 127.468 27.6597 127.418 27.6055C127.367 27.5514 127.332 27.4812 127.316 27.404C127.015 26.1167 126.295 25.0123 125.306 24.3204C124.317 23.6284 123.134 23.402 122.003 23.6882C121.833 23.7116 121.676 23.8063 121.562 23.9542C121.478 24.1154 121.562 24.3814 121.604 24.6715L121.646 24.865C121.758 25.4332 121.747 26.0245 121.614 26.5867C121.481 27.1489 121.23 27.6649 120.883 28.0891C120.847 28.1369 120.801 28.1732 120.75 28.1944C120.698 28.2156 120.643 28.221 120.589 28.21C120.534 28.2045 120.482 28.1841 120.436 28.1505C120.389 28.1168 120.351 28.0709 120.323 28.0166C119.974 27.0699 119.36 26.2843 118.58 25.7839C118.431 25.7268 118.275 25.7022 118.118 25.7113Z" fill="#231F20"/>
<path d="M133.581 43.8872C133.581 43.8872 136.024 49.07 135.366 50.0292C134.708 50.9883 132.825 50.1178 132.825 50.1178" fill="white"/>
<path d="M134.33 50.8837C133.769 50.861 133.215 50.7302 132.692 50.4968C132.607 50.4558 132.539 50.3778 132.504 50.2796C132.468 50.1815 132.468 50.0713 132.503 49.9729C132.519 49.924 132.544 49.8792 132.575 49.8413C132.607 49.8034 132.644 49.773 132.686 49.752C132.728 49.731 132.773 49.7198 132.818 49.7189C132.864 49.7181 132.909 49.7277 132.951 49.7472C133.378 49.9407 134.687 50.3679 135.093 49.7472C135.366 49.3442 134.519 46.6843 133.273 44.0486C133.25 44.0023 133.235 43.9511 133.23 43.8981C133.224 43.8451 133.228 43.7913 133.241 43.7401C133.254 43.6888 133.276 43.6412 133.306 43.6C133.335 43.5588 133.372 43.525 133.413 43.5005C133.495 43.4511 133.591 43.4402 133.679 43.4703C133.768 43.5004 133.843 43.569 133.889 43.6617C134.652 45.2738 136.367 49.1911 135.639 50.247C135.478 50.4623 135.277 50.6319 135.049 50.7423C134.822 50.8528 134.576 50.9012 134.33 50.8837Z" fill="#231F20"/>
<path d="M133.462 37.3504C135.128 39.2123 134.344 42.7186 134.162 45.0319C133.896 48.2882 133.565 51.5338 133.168 54.7687C132.916 56.8241 128.268 56.3807 127.498 55.7117L127.4 62.5791C127.4 62.5791 126 66.2385 122.43 63.8768C118.86 61.5152 118.181 58.6296 118.181 58.6296L119.196 49.2474C119.196 49.2474 122.255 49.5779 124.383 45.5477C126.511 41.5176 126.924 35.0693 126.924 35.0693C126.924 35.0693 131.838 35.5288 133.462 37.3504Z" fill="white"/>
<path d="M124.691 65.0779C123.833 65.0391 122.999 64.7448 122.269 64.2235C118.594 61.8054 117.873 58.8876 117.845 58.7667C117.835 58.7164 117.835 58.6639 117.845 58.6136L118.86 49.2233C118.874 49.1215 118.92 49.0294 118.99 48.9652C119.06 48.901 119.149 48.8694 119.238 48.8767C119.357 48.8767 122.122 49.1185 124.138 45.3705C126.196 41.4774 126.616 35.1178 126.623 35.0533C126.627 35.0003 126.639 34.9487 126.66 34.9013C126.681 34.854 126.71 34.8118 126.745 34.7774C126.78 34.7429 126.821 34.7168 126.865 34.7005C126.909 34.6842 126.955 34.6781 127.001 34.6825C127.204 34.6825 132.055 35.1581 133.756 37.1006C135.268 38.7852 134.939 41.5983 134.68 43.8632C134.631 44.2985 134.582 44.7257 134.547 45.1126C134.288 48.3367 133.952 51.6414 133.56 54.8655C133.502 55.2084 133.363 55.5262 133.158 55.7837C132.953 56.0411 132.69 56.2283 132.398 56.3244C130.929 56.8435 129.36 56.8603 127.883 56.3728L127.813 62.6276C127.82 62.6784 127.82 62.73 127.813 62.7807C127.405 63.7745 126.677 64.5463 125.783 64.9328C125.429 65.0509 125.059 65.0999 124.691 65.0779ZM118.538 58.6297C118.671 59.0649 119.511 61.4911 122.619 63.5303C123.031 63.8577 123.498 64.0809 123.991 64.1851C124.483 64.2893 124.989 64.2722 125.475 64.1349C126.158 63.8401 126.724 63.2664 127.064 62.5228L127.141 55.7441C127.144 55.6693 127.164 55.5967 127.2 55.5342C127.235 55.4717 127.285 55.4217 127.344 55.3894C127.399 55.3501 127.462 55.3293 127.526 55.3293C127.59 55.3293 127.653 55.3501 127.708 55.3894C128.128 55.7763 130.69 56.1955 132.09 55.5345C132.531 55.333 132.79 55.0509 132.79 54.7285C133.182 51.5044 133.49 48.2803 133.777 45.0078C133.777 44.6128 133.861 44.2017 133.91 43.7342C134.148 41.6466 134.449 39.0593 133.21 37.6487C131.971 36.2382 128.359 35.682 127.232 35.5369C127.106 37.0442 126.532 42.2834 124.677 45.8057C122.822 49.3281 120.393 49.6666 119.497 49.6989L118.538 58.6297Z" fill="#231F20"/>
<path d="M133.273 52.3346C133.273 52.3346 130.97 53.6726 129.997 50.9482L133.273 52.3346Z" fill="white"/>
<path d="M132.02 53.0679C131.721 53.0698 131.425 53.0097 131.145 52.8906C130.804 52.7279 130.496 52.4846 130.242 52.1764C129.987 51.8681 129.792 51.5018 129.668 51.1012C129.633 51.0007 129.634 50.8884 129.671 50.7889C129.708 50.6893 129.777 50.6103 129.864 50.5692C129.907 50.5496 129.952 50.5398 129.998 50.5406C130.044 50.5413 130.09 50.5524 130.132 50.5734C130.174 50.5944 130.213 50.6247 130.245 50.6627C130.277 50.7007 130.302 50.7456 130.319 50.7949C130.406 51.0918 130.547 51.3642 130.731 51.5947C130.916 51.8252 131.14 52.0085 131.39 52.1329C131.964 52.3253 132.579 52.2679 133.119 51.9717C133.16 51.9483 133.205 51.9346 133.251 51.9312C133.297 51.9279 133.343 51.935 133.387 51.9523C133.43 51.9695 133.471 51.9964 133.505 52.0316C133.54 52.0667 133.568 52.1094 133.588 52.1571C133.628 52.2526 133.634 52.3621 133.605 52.4627C133.576 52.5633 133.515 52.6473 133.434 52.6971C132.99 52.933 132.509 53.0593 132.02 53.0679Z" fill="#231F20"/>
<path d="M128.002 45.4346C127.982 44.6112 127.764 43.8102 127.372 43.1213C127.14 42.5349 126.833 41.9916 126.462 41.5093C126.273 41.2771 126.042 41.0955 125.786 40.9771C125.53 40.8587 125.254 40.8065 124.978 40.8241C124.735 40.8681 124.503 40.9714 124.298 41.1271C124.093 41.2828 123.919 41.4873 123.788 41.7269C123.524 42.2144 123.363 42.7667 123.319 43.339C123.182 44.5548 123.326 45.7906 123.735 46.9224C124.144 48.0543 124.804 49.0423 125.65 49.7872L125.51 49.5776" fill="white"/>
<path d="M125.65 50.2147C125.576 50.216 125.504 50.1875 125.447 50.1341C124.55 49.3407 123.85 48.2907 123.415 47.0887C122.98 45.8867 122.827 44.5745 122.969 43.2828C123.031 42.6614 123.213 42.0637 123.501 41.5337C123.657 41.2521 123.862 41.0108 124.103 40.8249C124.344 40.639 124.616 40.5126 124.901 40.4537C125.23 40.4235 125.561 40.4805 125.868 40.6202C126.175 40.7599 126.45 40.9786 126.672 41.2597C127.071 41.7563 127.399 42.3221 127.645 42.9362C128.07 43.6905 128.301 44.5681 128.31 45.4672C128.3 45.5711 128.256 45.6669 128.187 45.7355C128.118 45.8041 128.03 45.8406 127.939 45.8379C127.893 45.8349 127.849 45.8213 127.808 45.7981C127.766 45.7748 127.73 45.7423 127.7 45.7025C127.67 45.6627 127.647 45.6164 127.633 45.5663C127.619 45.5161 127.613 45.4633 127.617 45.4107C127.594 44.6629 127.39 43.9372 127.029 43.3151C126.811 42.7741 126.523 42.2741 126.175 41.832C126.027 41.6392 125.843 41.4875 125.637 41.3884C125.431 41.2892 125.208 41.2452 124.985 41.2597C124.793 41.2989 124.611 41.3837 124.45 41.5086C124.288 41.6335 124.151 41.7958 124.047 41.9851C123.816 42.4128 123.673 42.895 123.627 43.3957C123.506 44.5183 123.635 45.6581 124.002 46.7074C124.37 47.7566 124.963 48.6807 125.727 49.3925H125.762L125.909 49.6021C125.95 49.6619 125.976 49.7339 125.982 49.8097C125.989 49.8855 125.978 49.9621 125.948 50.0305C125.919 50.0988 125.873 50.1562 125.817 50.1959C125.76 50.2357 125.695 50.2562 125.629 50.255L125.65 50.2147Z" fill="#231F20"/>
<path d="M127.491 55.7119C127.491 55.7119 125.153 54.6076 124.173 52.6006C124.173 52.6006 123.963 57.5738 127.547 59.3712L127.491 55.7119Z" fill="#231F20"/>
<path d="M127.547 59.7741C127.499 59.7856 127.448 59.7856 127.4 59.7741C123.641 57.888 123.823 52.6649 123.823 52.6085C123.827 52.5209 123.856 52.4373 123.905 52.3704C123.955 52.3035 124.022 52.2569 124.096 52.2377C124.17 52.219 124.247 52.2276 124.316 52.2623C124.385 52.2971 124.443 52.3562 124.481 52.4312C125.384 54.2931 127.603 55.357 127.624 55.3651C127.688 55.3953 127.743 55.4467 127.781 55.5127C127.82 55.5787 127.841 55.6563 127.841 55.7359L127.897 59.4033C127.897 59.4707 127.882 59.5371 127.854 59.5962C127.826 59.6554 127.785 59.7054 127.736 59.7418C127.677 59.7749 127.611 59.7861 127.547 59.7741ZM124.6 53.9143C124.682 54.8946 124.958 55.8402 125.407 56.6785C125.856 57.5169 126.466 58.2256 127.19 58.7504L127.155 56.0099C126.201 55.4929 125.336 54.7831 124.6 53.9143Z" fill="#231F20"/>
<path d="M132.485 41.2542C132.625 40.6281 132.565 40.0691 132.352 40.0057C132.138 39.9423 131.851 40.3984 131.711 41.0245C131.571 41.6506 131.63 42.2096 131.844 42.2731C132.058 42.3365 132.345 41.8804 132.485 41.2542Z" fill="#231F20"/>
<path d="M115.122 56.2114C115.122 56.2114 125.475 56.7676 129.633 63.1755C133.791 69.5835 137.137 94.0948 139.174 95.7069C141.211 97.3189 147 106.395 146.93 106.854C146.86 107.314 117.285 118.139 117.285 118.139C117.285 118.139 115.549 110.28 112.287 100.1C109.025 89.9196 106.498 56.9046 115.122 56.2114Z" fill="#68E1FD"/>
<path d="M141.96 99.3501C141.908 99.3487 141.856 99.3343 141.809 99.3078C141.762 99.2814 141.72 99.2436 141.687 99.1969C138.321 94.0382 136.018 88.0653 134.953 81.7303C133.427 71.8322 130.571 65.8192 130.543 65.7628C130.498 65.6698 130.486 65.5599 130.511 65.4571C130.536 65.3544 130.595 65.2672 130.676 65.2147C130.716 65.1892 130.761 65.1731 130.807 65.1674C130.852 65.1617 130.899 65.1664 130.943 65.1814C130.987 65.1964 131.029 65.2213 131.064 65.2547C131.1 65.288 131.13 65.3293 131.152 65.3759C131.152 65.4323 134.092 71.5501 135.639 81.5852C136.684 87.7878 138.939 93.6362 142.233 98.6891C142.291 98.7716 142.318 98.8772 142.309 98.9828C142.3 99.0885 142.255 99.1857 142.184 99.2533C142.121 99.3143 142.042 99.3484 141.96 99.3501Z" fill="#231F20"/>
<path d="M123.564 66.1822C123.802 66.5208 135.506 88.0176 135.506 88.0176L158.781 75.1211L164.465 82.6655C164.465 82.6655 144.851 99.7373 137.2 102.631C129.549 105.525 112 74.0571 112.196 70.5993C112.392 67.1414 120.204 61.3864 123.564 66.1822Z" fill="#68E1FD"/>
<path d="M135.506 88.4524C135.446 88.4529 135.388 88.4362 135.335 88.4038C135.282 88.3715 135.238 88.3244 135.205 88.267C135.205 88.267 124.761 69.1077 124.6 68.8337C124.556 68.744 124.543 68.6382 124.564 68.538C124.585 68.4377 124.639 68.3508 124.715 68.295C124.79 68.2392 124.881 68.2188 124.969 68.238C125.057 68.2573 125.136 68.3147 125.188 68.3984C125.321 68.6322 134.253 85.0026 135.604 87.4852L147.938 80.0617C148.02 80.0132 148.115 80.0039 148.203 80.0355C148.29 80.0672 148.364 80.1374 148.407 80.2309C148.429 80.278 148.442 80.3295 148.447 80.3826C148.451 80.4358 148.447 80.4894 148.433 80.5404C148.419 80.5913 148.397 80.6387 148.367 80.6797C148.338 80.7206 148.301 80.7544 148.26 80.779L135.66 88.3718C135.615 88.4131 135.562 88.4408 135.506 88.4524Z" fill="#231F20"/>
<path d="M136.682 102.647C131.782 102.647 126.518 97.8834 120.96 88.4448C120.934 88.4016 120.915 88.3528 120.905 88.3012C120.896 88.2497 120.895 88.1964 120.904 88.1446C120.912 88.0927 120.929 88.0434 120.955 87.9994C120.98 87.9554 121.013 87.9178 121.051 87.8886C121.128 87.829 121.223 87.8067 121.315 87.8262C121.406 87.8458 121.487 87.9058 121.541 87.9934C127.603 98.2944 133.252 102.889 138.341 101.648C143.43 100.406 153.601 91.1691 153.699 91.1047C153.735 91.071 153.776 91.0459 153.82 91.0309C153.864 91.0159 153.91 91.0112 153.956 91.0173C154.002 91.0233 154.046 91.0398 154.086 91.0659C154.126 91.092 154.161 91.1271 154.189 91.1691C154.218 91.2101 154.24 91.2573 154.253 91.3081C154.266 91.359 154.27 91.4123 154.265 91.4649C154.26 91.5176 154.245 91.5685 154.223 91.6146C154.2 91.6607 154.17 91.7011 154.133 91.7334C153.713 92.1203 143.773 101.14 138.481 102.429C137.89 102.576 137.287 102.649 136.682 102.647Z" fill="#231F20"/>
<path d="M127.757 61.5474L127.204 63.4657L128.569 65.513C128.569 65.513 125.853 81.4724 105.21 68.7371L98.574 71.526L102.515 77.7082C102.515 77.7082 127.351 88.7105 129.283 65.7307L129.633 63.1675L127.757 61.5474Z" fill="#231F20"/>
<path d="M114.716 80.7149C113.139 80.7055 111.564 80.5627 110.005 80.2877C107.41 79.8285 104.86 79.0836 102.389 78.063C102.325 78.0394 102.271 77.9909 102.235 77.926L98.294 71.7438C98.2611 71.694 98.239 71.6361 98.2294 71.5746C98.2197 71.5131 98.2229 71.4499 98.2386 71.3901C98.2543 71.3303 98.2821 71.2757 98.3197 71.2307C98.3574 71.1856 98.4037 71.1516 98.455 71.1312L105.098 68.3826C105.142 68.3589 105.19 68.3466 105.238 68.3466C105.286 68.3466 105.334 68.3589 105.378 68.3826C113.169 73.2188 119.266 74.4439 123.487 72.1468C124.63 71.4969 125.64 70.5754 126.451 69.443C127.262 68.3107 127.855 66.9932 128.191 65.5776L126.931 63.6754C126.896 63.6235 126.873 63.5626 126.863 63.498C126.853 63.4334 126.857 63.367 126.875 63.3046L127.428 61.3943C127.446 61.3344 127.475 61.2799 127.514 61.2352C127.553 61.1905 127.6 61.1567 127.652 61.1364C127.705 61.1169 127.762 61.1125 127.816 61.1238C127.871 61.135 127.923 61.1615 127.967 61.2009L129.836 62.813C129.887 62.8552 129.928 62.9129 129.952 62.9797C129.977 63.0465 129.985 63.1199 129.976 63.1918L129.626 65.755C129.143 71.5503 127.148 75.7417 123.718 78.192C121.03 80.1184 117.761 80.7149 114.716 80.7149ZM102.732 77.3537C103.922 77.8535 116.032 82.738 123.347 77.523C126.588 75.2177 128.471 71.2279 128.947 65.6744L129.269 63.3288L127.953 62.2004L127.61 63.3852L128.856 65.2633C128.887 65.3083 128.908 65.3606 128.919 65.4163C128.93 65.4721 128.93 65.5299 128.919 65.5857C128.591 67.163 127.962 68.6366 127.078 69.8996C126.194 71.1626 125.078 72.1835 123.809 72.8883C119.399 75.3064 113.141 74.049 105.196 69.1967L99.141 71.7035L102.732 77.3537Z" fill="#231F20"/>
<path d="M143.248 197.831C143.248 197.831 141.386 205.891 141.638 206.593C141.89 207.294 153.37 224.019 154.448 218.844C155.526 213.67 150.878 202.039 150.878 202.039L143.248 197.831Z" fill="#231F20"/>
<path d="M153.517 220.238C150.206 220.238 141.575 207.455 141.316 206.745C141.057 206.036 142.205 200.781 142.912 197.726C142.924 197.669 142.947 197.616 142.98 197.571C143.012 197.526 143.054 197.491 143.101 197.468C143.147 197.444 143.197 197.432 143.248 197.432C143.299 197.432 143.349 197.444 143.395 197.468L151.025 201.676C151.1 201.714 151.16 201.783 151.193 201.869C151.389 202.345 155.876 213.685 154.784 218.933C154.754 219.27 154.622 219.585 154.411 219.822C154.2 220.059 153.923 220.204 153.629 220.23L153.517 220.238ZM143.5 198.403C142.674 202.038 141.904 205.939 141.995 206.463C142.506 207.584 151.095 219.787 153.629 219.432C153.804 219.432 154.021 219.303 154.133 218.747C155.113 214.056 151.144 203.626 150.633 202.337L143.5 198.403Z" fill="#231F20"/>
<path d="M155.596 128.262C155.543 128.263 155.49 128.249 155.442 128.221C155.395 128.193 155.354 128.152 155.323 128.101L145.383 113.552C145.352 113.511 145.328 113.463 145.313 113.41C145.298 113.358 145.293 113.303 145.298 113.248C145.303 113.193 145.317 113.14 145.34 113.092C145.363 113.044 145.395 113.001 145.432 112.968C145.47 112.934 145.514 112.91 145.56 112.896C145.606 112.883 145.654 112.88 145.702 112.889C145.749 112.898 145.794 112.917 145.834 112.947C145.875 112.976 145.909 113.015 145.936 113.061L155.869 127.609C155.926 127.693 155.952 127.799 155.942 127.905C155.931 128.011 155.885 128.107 155.813 128.174C155.751 128.23 155.675 128.261 155.596 128.262Z" fill="white"/>
<path d="M193.55 91.9104L193.83 72.6141L199.556 41.7432L198.996 59.2179L193.55 91.9104Z" fill="white"/>
<path d="M193.55 92.3135H193.515C193.428 92.3016 193.347 92.2531 193.289 92.1772C193.231 92.1014 193.199 92.0035 193.2 91.9024L193.48 72.606L199.213 41.6545C199.233 41.5572 199.283 41.4715 199.354 41.4136C199.425 41.3558 199.512 41.3296 199.598 41.3402C199.686 41.3523 199.766 41.4022 199.824 41.48C199.881 41.5578 199.91 41.6576 199.906 41.7593L199.346 59.234L193.9 91.983C193.886 92.0776 193.843 92.1633 193.779 92.2241C193.715 92.2849 193.633 92.3167 193.55 92.3135ZM199.059 46.3698L194.159 72.7269L193.956 87.3L198.639 59.1695L199.059 46.3698Z" fill="#231F20"/>
<path d="M62.916 97.9636C63.028 97.5847 63.14 97.1575 63.259 96.8109C63.322 96.6175 63.385 96.416 63.462 96.2225C63.4984 96.1 63.5707 95.996 63.6665 95.9283C63.7623 95.8606 63.8757 95.8336 63.987 95.8518C64.26 95.8518 64.526 95.9485 64.792 96.0049C64.9352 96.0378 65.0802 96.0593 65.226 96.0694C65.3339 96.0678 65.4389 96.0285 65.527 95.9565C65.842 95.618 66.136 95.2634 66.43 94.9007C66.4776 94.8327 66.5107 94.7527 66.5265 94.6673C66.5423 94.5819 66.5404 94.4934 66.521 94.409C66.451 94.0382 66.374 93.6594 66.304 93.2886C66.283 93.1391 66.283 92.9867 66.304 92.8372C66.3073 92.7828 66.3202 92.7298 66.3419 92.6813C66.3635 92.6328 66.3935 92.5899 66.43 92.5551C66.9311 92.1952 67.4761 91.9235 68.047 91.7491C68.1318 91.7187 68.2229 91.7212 68.3063 91.7561C68.3898 91.7911 68.461 91.8565 68.509 91.9425C68.712 92.2649 68.929 92.5793 69.125 92.9178C69.1925 93.0397 69.2873 93.1385 69.3994 93.2037C69.5114 93.269 69.6367 93.2983 69.762 93.2886C70.119 93.2886 70.462 93.2886 70.833 93.2322C70.8987 93.228 70.9624 93.2052 71.0186 93.1659C71.0748 93.1265 71.1216 93.0717 71.155 93.0065C71.288 92.7889 71.407 92.5632 71.533 92.3455C71.659 92.1279 71.743 91.9667 71.855 91.7894C71.9035 91.6932 71.9802 91.6201 72.0712 91.5832C72.1623 91.5462 72.2619 91.5479 72.352 91.5879L73.829 92.2005C73.9224 92.2433 74 92.3222 74.0486 92.4236C74.0971 92.5251 74.1135 92.6428 74.095 92.7566C74.095 93.071 74.011 93.3853 73.962 93.6997C73.962 93.8448 73.962 93.9898 73.913 94.143C73.9029 94.2394 73.9129 94.3372 73.9421 94.4283C73.9713 94.5194 74.0189 94.6012 74.081 94.6669C74.34 94.949 74.606 95.2311 74.858 95.5213C74.9299 95.6097 75.0211 95.6743 75.122 95.7083C75.223 95.7424 75.33 95.7446 75.432 95.7147L76.496 95.4326C76.6121 95.3886 76.7385 95.3986 76.8483 95.4603C76.9581 95.522 77.0427 95.6307 77.084 95.7631C77.287 96.2467 77.483 96.7384 77.672 97.2301C77.7061 97.2967 77.7284 97.3705 77.7377 97.4471C77.747 97.5237 77.743 97.6017 77.7261 97.6765C77.7092 97.7514 77.6797 97.8217 77.6392 97.8834C77.5986 97.9451 77.5479 97.997 77.49 98.0361C77.308 98.1973 77.112 98.3424 76.923 98.5036C76.734 98.6648 76.657 98.7373 76.531 98.8663C76.4766 98.9159 76.4335 98.9799 76.4055 99.053C76.3774 99.126 76.3653 99.2058 76.37 99.2854C76.37 99.7126 76.37 100.14 76.37 100.567C76.374 100.683 76.4038 100.796 76.4565 100.894C76.5092 100.993 76.5831 101.075 76.671 101.131C76.867 101.268 77.077 101.405 77.273 101.55C77.4007 101.634 77.5246 101.726 77.644 101.824C77.7278 101.89 77.7895 101.986 77.8189 102.098C77.8482 102.209 77.8433 102.329 77.805 102.437C77.644 102.953 77.476 103.469 77.308 103.977C77.2791 104.054 77.2414 104.128 77.196 104.194C77.1563 104.277 77.0951 104.343 77.021 104.384C76.9469 104.424 76.8637 104.437 76.783 104.42L75.817 104.234H75.747C75.6184 104.202 75.4846 104.212 75.3607 104.264C75.2369 104.315 75.1282 104.405 75.047 104.525C74.865 104.775 74.655 105 74.466 105.234C74.3748 105.336 74.3097 105.466 74.2776 105.608C74.2455 105.75 74.2477 105.899 74.284 106.04C74.361 106.403 74.438 106.757 74.501 107.12C74.564 107.483 74.501 107.668 74.2 107.837C73.766 108.079 73.325 108.305 72.877 108.531C72.7783 108.589 72.6642 108.604 72.5568 108.571C72.4495 108.538 72.3565 108.461 72.296 108.353C72.121 108.103 71.967 107.837 71.806 107.547C71.456 106.991 71.372 106.935 70.777 106.975H70.077C69.9659 106.977 69.8573 107.013 69.7616 107.078C69.666 107.143 69.5865 107.235 69.531 107.346C69.391 107.612 69.251 107.886 69.104 108.152C69.0253 108.287 68.9362 108.414 68.838 108.531C68.7947 108.59 68.7365 108.633 68.6714 108.653C68.6063 108.673 68.5374 108.67 68.474 108.643L67.074 108.039C67.011 108.039 66.955 107.958 66.892 107.918C66.8202 107.872 66.7627 107.802 66.7276 107.717C66.6924 107.631 66.6814 107.535 66.696 107.442C66.745 107.072 66.801 106.709 66.85 106.346C66.8569 106.234 66.8569 106.12 66.85 106.008C66.8617 105.917 66.8531 105.824 66.8249 105.738C66.7968 105.652 66.75 105.575 66.689 105.516L65.933 104.71C65.8618 104.629 65.7729 104.571 65.6757 104.542C65.5784 104.514 65.4763 104.516 65.38 104.549L64.4 104.815H64.365C63.952 104.895 63.819 104.815 63.665 104.404C63.511 103.993 63.287 103.428 63.112 102.937C63.0827 102.88 63.0638 102.817 63.0564 102.752C63.049 102.686 63.0533 102.62 63.069 102.556C63.0847 102.493 63.1116 102.434 63.1479 102.383C63.1841 102.332 63.2291 102.29 63.28 102.26C63.532 102.042 63.784 101.824 64.05 101.631C64.1781 101.549 64.2819 101.424 64.3481 101.273C64.4142 101.122 64.4396 100.952 64.421 100.785C64.421 100.398 64.421 99.9786 64.379 99.632C64.3769 99.5517 64.358 99.4731 64.3239 99.4029C64.2897 99.3327 64.2414 99.2731 64.183 99.229C63.903 99.0195 63.623 98.826 63.35 98.6164C63.1543 98.5066 62.9983 98.3212 62.909 98.0925L62.916 97.9636ZM73.5 100.108C73.5 99.6261 73.4173 99.1493 73.2566 98.7047C73.096 98.2601 72.8605 97.8565 72.5638 97.5171C72.2671 97.1778 71.9151 96.9093 71.5279 96.7273C71.1408 96.5452 70.7262 96.4531 70.308 96.4563C69.4802 96.4874 68.6948 96.8854 68.1157 97.5672C67.5366 98.249 67.2086 99.162 67.2 100.116C67.1712 100.612 67.2313 101.11 67.3766 101.579C67.5219 102.048 67.7492 102.478 68.0446 102.841C68.3399 103.205 68.6969 103.494 69.0935 103.692C69.49 103.891 69.9177 103.993 70.35 103.993C70.7823 103.993 71.21 103.891 71.6065 103.692C72.0031 103.494 72.3601 103.205 72.6554 102.841C72.9507 102.478 73.1781 102.048 73.3234 101.579C73.4686 101.11 73.5288 100.612 73.5 100.116V100.108Z" fill="white"/>
<path d="M68.558 109.095C68.4738 109.096 68.3904 109.077 68.313 109.039L66.913 108.434C66.834 108.398 66.7588 108.353 66.689 108.297C66.5561 108.208 66.4496 108.075 66.3834 107.916C66.3172 107.756 66.2944 107.577 66.318 107.402L66.472 106.306C66.4792 106.207 66.4792 106.107 66.472 106.008C66.472 105.903 66.472 105.863 66.43 105.839L65.779 105.146L65.667 105.017C65.6378 104.982 65.6002 104.957 65.559 104.947C65.5178 104.937 65.475 104.942 65.436 104.96L64.736 105.146L64.477 105.21C63.854 105.339 63.567 105.21 63.329 104.589C63.091 103.969 62.944 103.598 62.769 103.098C62.6809 102.902 62.6608 102.675 62.7128 102.462C62.7648 102.25 62.885 102.068 63.049 101.954C63.308 101.728 63.567 101.51 63.84 101.309C63.9148 101.263 63.9757 101.193 64.0145 101.106C64.0533 101.02 64.0682 100.922 64.057 100.825C64.057 100.583 64.057 100.334 64.057 100.092V99.6645C64.0616 99.6518 64.064 99.6381 64.064 99.6242C64.064 99.6104 64.0616 99.5967 64.057 99.5839L63.217 98.9714C62.9539 98.8125 62.7499 98.5489 62.643 98.2298C62.6364 98.1899 62.6364 98.1488 62.643 98.1089V97.9638C62.6363 97.9212 62.6363 97.8775 62.643 97.8348L62.727 97.5447C62.811 97.2545 62.895 96.9643 62.986 96.6822C63.077 96.4001 63.119 96.2712 63.196 96.0696C63.2611 95.8655 63.3845 95.6928 63.5461 95.58C63.7076 95.4673 63.8977 95.4211 64.085 95.449C64.267 95.449 64.449 95.5135 64.638 95.5538L65.016 95.6263H65.275C65.305 95.6337 65.336 95.6337 65.366 95.6263C65.646 95.312 65.94 94.9654 66.227 94.6107C66.227 94.6107 66.227 94.5301 66.227 94.4737L66.129 93.9901C66.087 93.7725 66.052 93.5629 66.01 93.3533C65.9746 93.1682 65.9605 92.9785 65.968 92.7891C65.9769 92.6723 66.0078 92.5592 66.0586 92.4575C66.1093 92.3559 66.1788 92.2683 66.262 92.2007C66.7678 91.8172 67.3196 91.5212 67.9 91.3221C68.0521 91.2696 68.2147 91.2741 68.3644 91.3349C68.5142 91.3958 68.6432 91.5099 68.733 91.6607L68.95 91.9911C69.09 92.2088 69.23 92.4264 69.356 92.6521C69.3865 92.7179 69.4336 92.7716 69.491 92.8061C69.5485 92.8406 69.6136 92.8543 69.678 92.8455C69.916 92.8455 70.154 92.8455 70.378 92.8455H70.756C70.8512 92.7059 70.94 92.5606 71.022 92.4103L71.239 92.0234C71.33 91.8702 71.414 91.7171 71.512 91.5639C71.6047 91.3996 71.7433 91.2765 71.9049 91.215C72.0665 91.1535 72.2415 91.1571 72.401 91.2254C72.898 91.4269 73.402 91.6284 73.892 91.8461C74.0557 91.9187 74.1933 92.0531 74.2823 92.2272C74.3712 92.4014 74.4064 92.6051 74.382 92.8052C74.382 93.0309 74.326 93.2485 74.291 93.4662L74.249 93.7805C74.2258 93.9163 74.2094 94.0536 74.2 94.1916C74.1928 94.2267 74.1942 94.2633 74.2041 94.2975C74.214 94.3317 74.2319 94.362 74.256 94.385L74.452 94.6027C74.648 94.8122 74.851 95.0299 75.04 95.2556C75.0717 95.2965 75.1131 95.326 75.1591 95.3403C75.2051 95.3546 75.2537 95.3532 75.299 95.3362L75.81 95.1991L76.356 95.0541C76.5503 94.9925 76.7573 95.0141 76.9388 95.1149C77.1203 95.2157 77.2639 95.3888 77.343 95.6022C77.546 96.0938 77.742 96.5855 77.924 97.0852C78.0293 97.3007 78.059 97.5544 78.0069 97.7942C77.9548 98.0341 77.825 98.2418 77.644 98.3749C77.532 98.4797 77.413 98.5683 77.294 98.6651L77.07 98.8504L76.699 99.189C76.6826 99.2003 76.6697 99.2173 76.6621 99.2376C76.6546 99.2578 76.6528 99.2803 76.657 99.3018V99.5759C76.657 99.9063 76.657 100.237 76.657 100.567C76.657 100.617 76.6687 100.666 76.6909 100.708C76.7131 100.751 76.7449 100.786 76.783 100.809L77.049 100.986L77.399 101.228C77.532 101.325 77.665 101.422 77.791 101.535C77.9356 101.651 78.0419 101.82 78.0927 102.015C78.1435 102.209 78.1359 102.418 78.071 102.607C77.91 103.114 77.742 103.63 77.567 104.146C77.5331 104.244 77.4884 104.336 77.434 104.42C77.3589 104.575 77.2435 104.699 77.1041 104.774C76.9647 104.849 76.8083 104.872 76.657 104.839L75.698 104.662H75.6C75.5285 104.64 75.4527 104.644 75.3836 104.674C75.3144 104.705 75.2554 104.76 75.215 104.831C75.082 105.009 74.935 105.178 74.788 105.347L74.62 105.549C74.5707 105.602 74.5355 105.671 74.5181 105.746C74.5008 105.822 74.5022 105.901 74.522 105.976C74.606 106.338 74.683 106.709 74.746 107.072C74.8153 107.302 74.8027 107.554 74.7108 107.773C74.619 107.992 74.4554 108.16 74.256 108.241C73.815 108.482 73.367 108.708 72.919 108.926C72.7496 109.023 72.5554 109.048 72.3717 108.995C72.188 108.941 72.027 108.814 71.918 108.636C71.778 108.418 71.638 108.2 71.505 107.975L71.421 107.846C71.155 107.41 71.155 107.41 70.721 107.443H70.021C69.9675 107.44 69.9144 107.455 69.8683 107.487C69.8223 107.518 69.7853 107.564 69.762 107.62L69.615 107.886C69.524 108.071 69.426 108.257 69.328 108.434C69.2384 108.593 69.1352 108.742 69.02 108.877C68.8944 109.013 68.73 109.09 68.558 109.095ZM65.534 104.138C65.7668 104.136 65.9907 104.241 66.157 104.428L66.276 104.557L66.913 105.242C67.0111 105.342 67.087 105.467 67.1345 105.607C67.182 105.747 67.1997 105.899 67.186 106.048C67.186 106.169 67.186 106.298 67.186 106.419L67.032 107.523C67.032 107.523 67.032 107.523 67.074 107.596L67.186 107.676L68.586 108.281C68.663 108.168 68.74 108.063 68.803 107.951C68.866 107.838 68.992 107.604 69.076 107.427L69.223 107.153C69.3081 106.986 69.4284 106.847 69.5729 106.748C69.7173 106.649 69.8811 106.594 70.049 106.588H70.749C71.0109 106.518 71.2858 106.554 71.5278 106.689C71.7698 106.823 71.9643 107.05 72.079 107.33L72.163 107.467C72.296 107.676 72.422 107.886 72.562 108.079C72.702 108.273 72.646 108.184 72.737 108.136C73.178 107.926 73.612 107.701 74.046 107.459C74.0913 107.436 74.1337 107.406 74.172 107.37C74.1807 107.309 74.1807 107.246 74.172 107.185C74.109 106.83 74.039 106.475 73.962 106.129C73.9093 105.922 73.9062 105.703 73.953 105.494C73.9998 105.286 74.0949 105.095 74.228 104.944L74.403 104.734C74.5385 104.584 74.667 104.425 74.788 104.259C74.9122 104.073 75.0815 103.933 75.2745 103.857C75.4675 103.781 75.6757 103.772 75.873 103.832L76.888 104.025C76.888 104.025 76.888 104.025 76.958 103.969C76.9857 103.926 77.0092 103.88 77.028 103.832C77.196 103.324 77.364 102.816 77.525 102.3C77.525 102.252 77.525 102.22 77.476 102.147C77.3695 102.052 77.2572 101.966 77.14 101.889L76.804 101.663L76.538 101.478C76.4005 101.387 76.2853 101.257 76.2033 101.1C76.1212 100.944 76.075 100.766 76.069 100.583C76.069 100.245 76.069 99.9063 76.069 99.5759V99.2938C76.0643 99.1543 76.0878 99.0154 76.1376 98.8882C76.1874 98.7609 76.2622 98.6487 76.356 98.5603C76.485 98.4253 76.6206 98.2988 76.762 98.1814L77.007 97.9799L77.322 97.722C77.469 97.5769 77.469 97.5608 77.399 97.3835C77.21 96.8918 77.021 96.4082 76.818 95.9246C76.769 95.8117 76.748 95.7875 76.615 95.8198L76.076 95.9649L75.558 96.0938C75.398 96.1408 75.2301 96.1379 75.0714 96.0855C74.9128 96.0331 74.769 95.933 74.655 95.7956C74.466 95.578 74.277 95.3684 74.081 95.1669L73.885 94.9493C73.7908 94.8463 73.7174 94.7207 73.6702 94.5814C73.623 94.4421 73.6032 94.2924 73.612 94.1432C73.612 93.982 73.612 93.8208 73.668 93.6677L73.717 93.3372C73.7524 93.1429 73.7781 92.9465 73.794 92.7488C73.794 92.636 73.794 92.6198 73.752 92.6118C73.269 92.3942 72.779 92.2007 72.289 91.9992C72.254 91.9992 72.233 91.9992 72.191 92.0556C72.149 92.112 72.023 92.3377 71.939 92.4828L71.722 92.8617L71.498 93.2647C71.4325 93.3801 71.3447 93.4765 71.2415 93.5464C71.1383 93.6163 71.0224 93.6578 70.903 93.6677H70.518C70.287 93.6677 70.063 93.6677 69.818 93.6677C69.6306 93.6887 69.4419 93.6484 69.2735 93.5514C69.1051 93.4544 68.9639 93.3048 68.866 93.1196C68.74 92.91 68.607 92.7004 68.467 92.4909L68.25 92.1523C68.25 92.104 68.208 92.0959 68.159 92.1523C67.6229 92.3327 67.1133 92.6044 66.647 92.9584C66.6752 93.0611 66.6962 93.1662 66.71 93.2727C66.745 93.4742 66.787 93.6838 66.829 93.8934L66.927 94.3931C66.9528 94.5345 66.9498 94.6809 66.9182 94.8207C66.8867 94.9606 66.8274 95.0901 66.745 95.1991C66.451 95.5699 66.15 95.9246 65.835 96.2712C65.6824 96.414 65.4926 96.4935 65.296 96.4968C65.162 96.4885 65.0287 96.4697 64.897 96.4404L64.519 96.3679C64.351 96.3679 64.183 96.2953 64.015 96.2792C63.847 96.2631 63.896 96.2792 63.847 96.4082C63.798 96.5371 63.707 96.779 63.651 96.9724L63.399 97.8268L63.329 98.0525C63.4018 98.1612 63.4951 98.2495 63.602 98.3104L64.4 98.931C64.5048 99.0086 64.5914 99.1146 64.6524 99.2396C64.7134 99.3647 64.7469 99.505 64.75 99.6484V100.084C64.75 100.317 64.75 100.559 64.75 100.793C64.7731 101.033 64.7352 101.276 64.6408 101.492C64.5463 101.708 64.3995 101.888 64.218 102.01C63.959 102.204 63.714 102.405 63.469 102.623C63.4381 102.648 63.4099 102.678 63.385 102.711V102.824C63.56 103.308 63.735 103.791 63.931 104.267C64.001 104.444 64.036 104.477 64.043 104.477C64.1193 104.493 64.1976 104.493 64.274 104.477L64.554 104.404L65.254 104.227C65.3433 104.182 65.4375 104.152 65.534 104.138ZM70.364 104.138C69.6735 104.135 68.9993 103.896 68.4262 103.453C67.8531 103.009 67.4068 102.38 67.1433 101.645C66.8799 100.91 66.8112 100.102 66.9459 99.3221C67.0805 98.5422 67.4125 97.8257 67.9 97.2626C68.5423 96.516 69.4097 96.083 70.322 96.0535C70.7851 96.0471 71.2448 96.1466 71.6743 96.3463C72.1038 96.546 72.4946 96.8418 72.8241 97.2167C73.1535 97.5916 73.4151 98.038 73.5936 98.5302C73.7721 99.0223 73.864 99.5503 73.864 100.084C73.8747 100.596 73.7967 101.106 73.6344 101.584C73.4722 102.061 73.229 102.496 72.919 102.864C72.592 103.268 72.1966 103.59 71.757 103.811C71.3175 104.031 70.8434 104.145 70.364 104.146V104.138ZM70.322 96.8837C69.5956 96.9134 68.9067 97.2625 68.397 97.859C68.1358 98.158 67.9284 98.5134 67.7866 98.9048C67.6449 99.2962 67.5716 99.716 67.571 100.14C67.571 100.995 67.866 101.815 68.3911 102.42C68.9162 103.025 69.6284 103.364 70.371 103.364C70.7557 103.368 71.1371 103.281 71.4911 103.107C71.8452 102.934 72.1645 102.678 72.429 102.357C72.9222 101.766 73.1938 100.976 73.185 100.156C73.185 99.7287 73.1112 99.3055 72.9679 98.9111C72.8246 98.5168 72.6146 98.1592 72.3501 97.8591C72.0856 97.5591 71.772 97.3226 71.4274 97.1635C71.0828 97.0043 70.7142 96.9257 70.343 96.9321L70.322 96.8837Z" fill="#D1D3D4"/>
<path d="M179.956 184.596C180.11 183.895 180.257 183.185 180.418 182.484C180.495 182.113 180.593 181.759 180.691 181.396C180.742 181.17 180.859 180.972 181.022 180.834C181.185 180.696 181.385 180.627 181.587 180.638C182.077 180.638 182.56 180.719 183.05 180.759C183.311 180.787 183.573 180.787 183.834 180.759C184.026 180.744 184.208 180.656 184.352 180.509C184.863 179.848 185.339 179.163 185.815 178.47C185.896 178.342 185.947 178.194 185.964 178.037C185.981 177.881 185.964 177.722 185.913 177.575C185.738 176.914 185.549 176.261 185.381 175.609C185.306 175.348 185.266 175.077 185.262 174.803C185.26 174.704 185.275 174.607 185.307 174.516C185.338 174.424 185.385 174.341 185.444 174.271C186.293 173.512 187.237 172.906 188.244 172.473C188.39 172.399 188.553 172.384 188.707 172.431C188.861 172.478 188.996 172.584 189.091 172.731C189.504 173.279 189.931 173.803 190.33 174.343C190.46 174.556 190.641 174.72 190.852 174.816C191.062 174.912 191.292 174.935 191.513 174.883C192.143 174.77 192.787 174.698 193.417 174.593C193.535 174.578 193.647 174.528 193.744 174.45C193.841 174.371 193.919 174.265 193.97 174.142C194.166 173.731 194.348 173.336 194.544 172.892C194.74 172.449 194.873 172.183 195.055 171.836C195.126 171.656 195.252 171.511 195.41 171.431C195.567 171.35 195.745 171.34 195.909 171.401C196.819 171.667 197.729 171.941 198.625 172.207C198.797 172.264 198.947 172.389 199.048 172.56C199.149 172.731 199.195 172.937 199.178 173.142C199.178 173.706 199.101 174.279 199.066 174.843C199.066 175.109 199.066 175.383 199.066 175.649C199.061 175.822 199.091 175.994 199.154 176.151C199.217 176.307 199.312 176.445 199.43 176.552C199.934 177.011 200.445 177.462 200.928 177.946C201.07 178.093 201.244 178.192 201.432 178.233C201.619 178.274 201.813 178.256 201.992 178.18C202.608 177.962 203.224 177.72 203.847 177.503C204.048 177.401 204.275 177.394 204.481 177.483C204.686 177.572 204.853 177.749 204.946 177.978C205.375 178.806 205.788 179.644 206.185 180.493C206.258 180.606 206.311 180.734 206.339 180.871C206.368 181.008 206.372 181.15 206.352 181.288C206.332 181.427 206.287 181.559 206.221 181.677C206.155 181.796 206.069 181.897 205.968 181.976C205.66 182.307 205.331 182.597 205.023 182.919C204.715 183.242 204.582 183.379 204.372 183.629C204.279 183.731 204.209 183.858 204.168 183.998C204.126 184.139 204.115 184.288 204.134 184.435C204.204 185.192 204.274 185.958 204.358 186.716C204.379 186.921 204.446 187.117 204.553 187.284C204.66 187.451 204.803 187.583 204.967 187.667L206.108 188.304C206.349 188.435 206.583 188.583 206.808 188.747C206.968 188.845 207.093 189.004 207.162 189.196C207.231 189.389 207.24 189.604 207.186 189.803C206.962 190.754 206.731 191.697 206.486 192.64C206.443 192.784 206.387 192.921 206.318 193.051C206.259 193.204 206.16 193.333 206.034 193.418C205.909 193.503 205.763 193.541 205.618 193.527L203.875 193.365H203.742C203.497 193.316 203.244 193.353 203.017 193.471C202.79 193.589 202.599 193.782 202.468 194.026C202.181 194.502 201.845 194.937 201.53 195.389C201.38 195.586 201.281 195.828 201.242 196.087C201.204 196.346 201.228 196.612 201.313 196.856C201.502 197.476 201.691 198.105 201.852 198.742C201.906 198.862 201.938 198.993 201.944 199.128C201.951 199.263 201.933 199.398 201.892 199.524C201.85 199.651 201.786 199.765 201.703 199.861C201.62 199.957 201.521 200.031 201.411 200.08C200.662 200.587 199.906 201.071 199.136 201.539C198.968 201.666 198.764 201.715 198.566 201.675C198.368 201.634 198.191 201.507 198.072 201.321C197.729 200.91 197.414 200.467 197.092 200.031C196.392 199.096 196.238 199.024 195.181 199.225L193.949 199.427C193.752 199.448 193.562 199.528 193.4 199.66C193.238 199.791 193.109 199.969 193.025 200.176C192.808 200.684 192.605 201.192 192.374 201.692C192.253 201.949 192.11 202.192 191.947 202.417C191.878 202.532 191.779 202.619 191.665 202.665C191.55 202.712 191.426 202.715 191.31 202.675L188.72 201.869C188.602 201.825 188.49 201.765 188.384 201.692C188.251 201.624 188.14 201.509 188.066 201.365C187.991 201.22 187.958 201.053 187.971 200.886L188.097 198.903C188.107 198.702 188.107 198.5 188.097 198.298C188.101 198.134 188.072 197.971 188.011 197.823C187.95 197.674 187.86 197.544 187.747 197.444C187.25 197.009 186.767 196.565 186.277 196.122C186.14 195.991 185.975 195.904 185.799 195.871C185.622 195.839 185.442 195.861 185.276 195.937C184.73 196.154 184.177 196.348 183.631 196.549C183.61 196.553 183.589 196.553 183.568 196.549C182.868 196.775 182.602 196.694 182.231 195.953C181.86 195.211 181.426 194.276 181.048 193.422C180.989 193.326 180.948 193.217 180.927 193.102C180.906 192.987 180.905 192.869 180.925 192.754C180.944 192.638 180.984 192.529 181.041 192.432C181.098 192.335 181.172 192.252 181.258 192.189C181.678 191.753 182.105 191.334 182.546 190.939C182.767 190.764 182.937 190.517 183.036 190.23C183.134 189.943 183.156 189.629 183.099 189.327C183.008 188.65 182.945 187.965 182.861 187.28C182.85 187.136 182.807 186.999 182.737 186.879C182.668 186.759 182.573 186.661 182.462 186.595L180.887 185.652C180.525 185.492 180.225 185.189 180.04 184.797L179.956 184.596ZM199.178 186.546C199.116 185.687 198.906 184.85 198.56 184.084C198.215 183.318 197.741 182.639 197.166 182.086C196.591 181.533 195.927 181.116 195.211 180.861C194.495 180.605 193.743 180.516 192.997 180.598C191.522 180.797 190.171 181.644 189.225 182.963C188.28 184.281 187.813 185.969 187.922 187.675C188.057 189.386 188.772 190.966 189.912 192.075C191.052 193.184 192.524 193.731 194.012 193.599C194.757 193.537 195.483 193.303 196.148 192.913C196.813 192.522 197.403 191.983 197.885 191.325C198.366 190.668 198.728 189.907 198.951 189.086C199.173 188.266 199.25 187.402 199.178 186.546Z" fill="white"/>
<path d="M191.401 203.151C191.314 203.149 191.227 203.135 191.142 203.11L190.442 202.885L188.559 202.28C188.431 202.234 188.309 202.169 188.195 202.087C187.991 201.985 187.82 201.812 187.705 201.592C187.591 201.372 187.54 201.117 187.558 200.861L187.614 199.999C187.614 199.628 187.663 199.249 187.684 198.879C187.695 198.691 187.695 198.502 187.684 198.314C187.69 198.21 187.673 198.105 187.635 198.009C187.597 197.913 187.54 197.83 187.467 197.766C187 197.369 186.552 196.966 186.123 196.557L185.997 196.444C185.903 196.349 185.786 196.288 185.662 196.268C185.537 196.247 185.411 196.27 185.297 196.332L184.128 196.767L183.645 196.944H183.575C183.416 197.033 183.242 197.083 183.065 197.09C182.889 197.098 182.712 197.062 182.548 196.986C182.384 196.91 182.235 196.796 182.112 196.65C181.989 196.503 181.893 196.329 181.832 196.138C181.37 195.219 180.957 194.3 180.642 193.591C180.49 193.316 180.435 192.985 180.49 192.665C180.545 192.345 180.704 192.062 180.936 191.874C181.426 191.366 181.839 190.955 182.238 190.601C182.406 190.473 182.536 190.29 182.612 190.076C182.688 189.862 182.707 189.626 182.665 189.4C182.609 188.973 182.56 188.553 182.511 188.126L182.427 187.32C182.422 187.24 182.398 187.163 182.359 187.096C182.32 187.03 182.266 186.976 182.203 186.941L181.573 186.554L180.635 185.998C180.198 185.796 179.84 185.418 179.627 184.934C179.621 184.894 179.621 184.853 179.627 184.813V184.564C179.624 184.518 179.624 184.472 179.627 184.427L179.767 183.782C179.872 183.29 179.977 182.798 180.089 182.307C180.201 181.815 180.271 181.565 180.376 181.202C180.452 180.896 180.614 180.628 180.837 180.44C181.06 180.251 181.332 180.154 181.608 180.163C181.937 180.163 182.266 180.163 182.588 180.235L183.085 180.284H183.288C183.463 180.303 183.638 180.303 183.813 180.284C183.918 180.275 184.019 180.236 184.107 180.171C184.639 179.469 185.136 178.752 185.556 178.148C185.599 178.069 185.625 177.979 185.632 177.887C185.638 177.794 185.624 177.701 185.591 177.616C185.521 177.333 185.437 177.043 185.36 176.761C185.283 176.479 185.157 176.02 185.059 175.649C184.976 175.354 184.931 175.048 184.926 174.738C184.925 174.579 184.953 174.421 185.008 174.275C185.064 174.129 185.146 173.999 185.248 173.892C186.116 173.112 187.081 172.487 188.111 172.038C188.324 171.938 188.558 171.921 188.78 171.988C189.003 172.054 189.2 172.202 189.343 172.409C189.483 172.602 189.637 172.796 189.784 172.981C190.057 173.336 190.323 173.69 190.582 174.053C190.673 174.213 190.804 174.337 190.958 174.409C191.112 174.481 191.281 174.497 191.443 174.456C191.854 174.381 192.267 174.316 192.682 174.262L193.382 174.166C193.444 174.154 193.502 174.124 193.552 174.081C193.602 174.038 193.642 173.981 193.669 173.916L194.005 173.19L194.341 172.465C194.474 172.175 194.614 171.885 194.761 171.603C194.874 171.351 195.059 171.152 195.285 171.039C195.51 170.926 195.763 170.906 196 170.982C197.078 171.288 197.946 171.554 198.73 171.788C198.975 171.869 199.189 172.044 199.336 172.285C199.483 172.525 199.553 172.817 199.535 173.11C199.529 173.498 199.506 173.885 199.465 174.271L199.423 174.843C199.423 175.101 199.423 175.359 199.423 175.649C199.418 175.761 199.437 175.873 199.477 175.975C199.517 176.077 199.578 176.167 199.654 176.237L199.983 176.535C200.382 176.898 200.781 177.261 201.166 177.64C201.26 177.735 201.375 177.8 201.498 177.827C201.621 177.853 201.748 177.842 201.866 177.793L202.769 177.462L203.721 177.116C203.998 176.992 204.304 176.99 204.582 177.11C204.86 177.231 205.089 177.465 205.226 177.769C205.655 178.607 206.068 179.453 206.465 180.308C206.649 180.613 206.722 180.989 206.67 181.356C206.618 181.723 206.444 182.052 206.185 182.274C206.003 182.468 205.814 182.653 205.618 182.839L205.233 183.217C205.016 183.443 204.806 183.669 204.603 183.911C204.55 183.967 204.509 184.038 204.485 184.116C204.46 184.195 204.453 184.279 204.463 184.362L204.505 184.854C204.561 185.442 204.617 186.039 204.687 186.635C204.7 186.776 204.745 186.911 204.817 187.025C204.89 187.14 204.987 187.231 205.1 187.288L205.569 187.546L206.269 187.917C206.51 188.057 206.743 188.214 206.969 188.384C207.191 188.529 207.364 188.756 207.459 189.028C207.554 189.3 207.567 189.602 207.494 189.883C207.27 190.834 207.039 191.777 206.794 192.729C206.749 192.887 206.688 193.038 206.612 193.18C206.521 193.412 206.37 193.606 206.179 193.734C205.989 193.863 205.768 193.92 205.548 193.897L203.805 193.744H203.651C203.47 193.703 203.281 193.728 203.113 193.816C202.945 193.904 202.805 194.051 202.713 194.236C202.503 194.582 202.272 194.897 202.013 195.219L201.733 195.614C201.62 195.758 201.546 195.937 201.519 196.128C201.492 196.32 201.512 196.516 201.579 196.694C201.768 197.331 201.95 197.96 202.118 198.605C202.184 198.768 202.221 198.944 202.226 199.124C202.231 199.304 202.205 199.483 202.149 199.651C202.092 199.818 202.007 199.971 201.899 200.1C201.79 200.23 201.66 200.332 201.516 200.402C200.816 200.878 200.074 201.353 199.234 201.869C198.997 202.037 198.715 202.1 198.441 202.047C198.167 201.993 197.919 201.827 197.743 201.579C197.463 201.232 197.197 200.878 196.938 200.515L196.756 200.273C196.14 199.467 196.098 199.419 195.16 199.564L193.928 199.773C193.788 199.786 193.653 199.841 193.538 199.933C193.422 200.025 193.33 200.151 193.27 200.297L193.053 200.797C192.913 201.144 192.766 201.49 192.612 201.821C192.483 202.107 192.328 202.377 192.15 202.627C192.07 202.776 191.961 202.902 191.83 202.993C191.7 203.084 191.553 203.138 191.401 203.151ZM185.598 195.461C185.903 195.464 186.198 195.589 186.431 195.816L186.557 195.929L187.894 197.13C188.048 197.266 188.173 197.442 188.258 197.643C188.343 197.845 188.386 198.066 188.384 198.29C188.395 198.505 188.395 198.72 188.384 198.935C188.384 199.314 188.335 199.685 188.314 200.063L188.251 200.918C188.243 201.011 188.262 201.104 188.305 201.182C188.348 201.261 188.413 201.321 188.489 201.353C188.572 201.414 188.661 201.463 188.755 201.498C189.378 201.708 190.001 201.901 190.631 202.103L191.331 202.328C191.408 202.328 191.492 202.369 191.604 202.208C191.754 202.001 191.886 201.776 191.996 201.539C192.143 201.216 192.283 200.878 192.423 200.547L192.64 200.039C192.749 199.774 192.916 199.545 193.125 199.376C193.333 199.207 193.576 199.102 193.83 199.072L195.062 198.862C196.245 198.677 196.518 198.798 197.288 199.846L197.47 200.088C197.729 200.442 197.981 200.789 198.254 201.119C198.288 201.18 198.332 201.231 198.383 201.27C198.435 201.31 198.494 201.337 198.555 201.349C198.616 201.361 198.679 201.358 198.739 201.341C198.799 201.324 198.856 201.292 198.905 201.248C199.731 200.749 200.473 200.273 201.159 199.806C201.537 199.548 201.572 199.435 201.446 198.927C201.285 198.298 201.103 197.678 200.914 197.057C200.81 196.748 200.781 196.413 200.829 196.087C200.877 195.761 201.001 195.455 201.187 195.203L201.474 194.8C201.698 194.494 201.915 194.196 202.118 193.865C202.287 193.563 202.53 193.325 202.817 193.181C203.104 193.038 203.421 192.995 203.728 193.059H203.833L205.576 193.22C205.656 193.23 205.736 193.209 205.804 193.161C205.873 193.113 205.925 193.04 205.954 192.954C206.008 192.848 206.055 192.738 206.094 192.624C206.325 191.681 206.556 190.738 206.794 189.795C206.83 189.679 206.827 189.552 206.786 189.438C206.744 189.325 206.667 189.233 206.57 189.182C206.358 189.027 206.139 188.887 205.912 188.763L205.261 188.392L204.778 188.126C204.563 188.011 204.376 187.834 204.237 187.612C204.097 187.391 204.009 187.132 203.98 186.861C203.91 186.264 203.854 185.66 203.798 185.055L203.749 184.572C203.728 184.37 203.747 184.166 203.805 183.974C203.863 183.783 203.959 183.609 204.085 183.467C204.302 183.209 204.526 182.968 204.785 182.734L205.184 182.339C205.366 182.17 205.548 181.992 205.716 181.807C206.052 181.444 206.08 181.267 205.87 180.807C205.471 180.001 205.058 179.131 204.638 178.301C204.61 178.227 204.57 178.161 204.519 178.106C204.468 178.051 204.408 178.009 204.342 177.982C204.277 177.954 204.207 177.943 204.138 177.948C204.068 177.953 204 177.974 203.938 178.011C203.623 178.115 203.315 178.236 203 178.349L202.09 178.688C201.854 178.784 201.599 178.806 201.353 178.751C201.106 178.696 200.877 178.565 200.69 178.373C200.312 178.002 199.92 177.648 199.528 177.293L199.199 176.987C199.04 176.843 198.912 176.657 198.825 176.446C198.739 176.235 198.697 176.003 198.702 175.77C198.702 175.496 198.702 175.214 198.702 174.964C198.702 174.714 198.702 174.569 198.751 174.367C198.751 174.005 198.814 173.642 198.814 173.279C198.827 173.164 198.805 173.047 198.751 172.948C198.698 172.85 198.616 172.776 198.52 172.739C197.743 172.481 196.882 172.215 195.811 171.933C195.72 171.898 195.621 171.905 195.534 171.951C195.447 171.998 195.378 172.081 195.342 172.183C195.195 172.457 195.069 172.731 194.936 172.989L194.6 173.714C194.488 173.956 194.376 174.206 194.257 174.448C194.179 174.624 194.065 174.777 193.925 174.892C193.785 175.007 193.622 175.081 193.452 175.109L192.752 175.206C192.346 175.27 191.94 175.326 191.541 175.399C191.258 175.461 190.965 175.429 190.697 175.307C190.429 175.184 190.197 174.975 190.029 174.706C189.777 174.351 189.511 174.013 189.245 173.666L188.797 173.086C188.748 173.001 188.675 172.94 188.59 172.913C188.505 172.887 188.414 172.896 188.335 172.941C187.369 173.36 186.465 173.947 185.654 174.682C185.63 174.748 185.616 174.819 185.612 174.891C185.616 175.119 185.651 175.345 185.717 175.56L186.011 176.664C186.095 176.947 186.172 177.237 186.249 177.527C186.315 177.737 186.335 177.962 186.307 178.183C186.279 178.404 186.204 178.613 186.088 178.792C185.668 179.405 185.164 180.13 184.618 180.848C184.413 181.07 184.149 181.206 183.869 181.235C183.65 181.259 183.43 181.259 183.211 181.235H183.022L182.511 181.186C182.203 181.186 181.888 181.122 181.58 181.114C181.454 181.108 181.331 181.151 181.23 181.238C181.129 181.325 181.057 181.449 181.027 181.589C180.929 181.944 180.831 182.299 180.754 182.653C180.642 183.145 180.537 183.629 180.432 184.12L180.306 184.701V184.813C180.466 185.088 180.696 185.299 180.964 185.418L181.909 185.99L182.546 186.369C182.706 186.465 182.844 186.605 182.946 186.776C183.049 186.948 183.113 187.146 183.134 187.352C183.134 187.618 183.19 187.876 183.225 188.158C183.267 188.578 183.316 188.964 183.372 189.408C183.431 189.778 183.397 190.161 183.273 190.509C183.148 190.858 182.94 191.158 182.672 191.374C182.287 191.721 181.881 192.116 181.405 192.608C181.132 192.89 181.111 193.011 181.272 193.365C181.573 194.059 181.972 194.977 182.441 195.872C182.728 196.436 182.798 196.469 183.386 196.283L183.911 196.09C184.296 195.945 184.688 195.808 185.066 195.654C185.233 195.556 185.412 195.491 185.598 195.461ZM193.536 194.042C192.367 194.044 191.223 193.653 190.243 192.918C189.264 192.183 188.491 191.136 188.02 189.904C187.549 188.672 187.4 187.308 187.59 185.98C187.781 184.652 188.303 183.416 189.094 182.424C189.884 181.432 190.908 180.727 192.041 180.394C193.174 180.061 194.367 180.115 195.473 180.55C196.58 180.984 197.552 181.781 198.272 182.841C198.992 183.902 199.429 185.181 199.528 186.522C199.615 187.394 199.549 188.277 199.333 189.119C199.118 189.961 198.758 190.744 198.275 191.423C197.764 192.172 197.124 192.792 196.395 193.242C195.667 193.693 194.865 193.966 194.04 194.042C193.872 194.042 193.704 194.042 193.536 194.042ZM193.494 180.993H193.025C192.152 181.095 191.314 181.445 190.587 182.01C189.86 182.576 189.265 183.34 188.857 184.234C188.448 185.129 188.238 186.125 188.245 187.136C188.252 188.146 188.476 189.139 188.897 190.026C189.318 190.913 189.923 191.666 190.658 192.218C191.393 192.77 192.235 193.104 193.109 193.19C193.984 193.277 194.863 193.113 195.669 192.713C196.475 192.313 197.183 191.69 197.729 190.899C198.152 190.304 198.468 189.617 198.658 188.879C198.848 188.142 198.908 187.368 198.835 186.603C198.732 185.059 198.123 183.619 197.131 182.574C196.139 181.529 194.838 180.958 193.494 180.977V180.993Z" fill="#D1D3D4"/>
<path d="M217.084 103.179C213.024 108.329 202.643 118.195 181.335 118.55L180.747 162.261C180.747 162.261 201.117 165.864 217.084 149.55V103.179Z" fill="white"/>
<path d="M185.633 162.978C183.981 162.996 182.33 162.888 180.691 162.656C180.608 162.642 180.531 162.593 180.477 162.519C180.423 162.444 180.394 162.35 180.397 162.253L180.985 118.542C180.987 118.438 181.023 118.338 181.087 118.265C181.151 118.191 181.238 118.149 181.328 118.147C202.013 117.8 212.45 108.474 216.825 102.913C216.872 102.851 216.933 102.808 217.002 102.787C217.071 102.767 217.143 102.772 217.21 102.8C217.276 102.83 217.332 102.883 217.372 102.95C217.412 103.018 217.434 103.097 217.434 103.179V149.55C217.434 149.606 217.424 149.662 217.403 149.714C217.383 149.766 217.353 149.811 217.315 149.848C206.157 161.253 192.724 162.978 185.633 162.978ZM181.097 161.906C183.673 162.253 202.146 164.163 216.734 149.364V104.227C211.988 109.869 201.509 118.542 181.678 118.969L181.097 161.906Z" fill="#231F20"/>
<path d="M186.004 157.118C185.914 157.118 185.827 157.078 185.761 157.006C185.696 156.934 185.658 156.836 185.654 156.731C185.652 156.625 185.686 156.522 185.749 156.444C185.811 156.366 185.898 156.319 185.99 156.312C192.917 156.162 199.725 154.22 205.912 150.63C208.231 149.286 210.381 147.586 212.303 145.576V115.664C212.303 115.557 212.34 115.455 212.405 115.379C212.471 115.304 212.56 115.261 212.653 115.261C212.746 115.261 212.835 115.304 212.9 115.379C212.966 115.455 213.003 115.557 213.003 115.664V145.745C213.003 145.796 212.994 145.846 212.978 145.894C212.961 145.941 212.936 145.983 212.905 146.019C212.814 146.124 204.036 156.417 186.018 157.118H186.004Z" fill="#D1D3D4"/>
<path d="M188.237 129.076C188.144 129.076 188.055 129.034 187.99 128.958C187.924 128.883 187.887 128.78 187.887 128.673C187.887 128.566 187.924 128.464 187.99 128.388C188.055 128.313 188.144 128.27 188.237 128.27C188.286 128.27 193.55 127.851 196.378 125.61C196.416 125.58 196.458 125.559 196.503 125.548C196.547 125.536 196.594 125.536 196.639 125.545C196.684 125.555 196.727 125.575 196.765 125.604C196.803 125.634 196.836 125.671 196.861 125.715C196.913 125.802 196.933 125.909 196.918 126.013C196.902 126.117 196.851 126.21 196.777 126.271C193.788 128.641 188.503 129.06 188.279 129.076H188.237Z" fill="#D1D3D4"/>
<path d="M188.237 125.313C188.146 125.311 188.059 125.269 187.994 125.195C187.929 125.122 187.891 125.022 187.887 124.918C187.885 124.864 187.893 124.811 187.909 124.761C187.925 124.712 187.95 124.666 187.982 124.628C188.014 124.589 188.053 124.559 188.095 124.538C188.138 124.517 188.184 124.506 188.23 124.507C188.279 124.507 193.207 124.313 196.357 121.839C196.395 121.809 196.438 121.788 196.483 121.778C196.528 121.767 196.575 121.767 196.62 121.777C196.665 121.787 196.708 121.807 196.746 121.837C196.785 121.866 196.818 121.903 196.844 121.947C196.869 121.991 196.887 122.041 196.896 122.093C196.906 122.144 196.906 122.198 196.897 122.25C196.888 122.302 196.871 122.352 196.845 122.396C196.82 122.44 196.787 122.478 196.749 122.508C193.431 125.119 188.454 125.304 188.244 125.313H188.237Z" fill="#D1D3D4"/>
<path d="M186.942 151.871C186.855 151.87 186.772 151.83 186.711 151.758C186.678 151.722 186.651 151.679 186.633 151.63C186.614 151.581 186.605 151.529 186.605 151.476C186.605 151.423 186.614 151.371 186.633 151.323C186.651 151.274 186.678 151.23 186.711 151.194C186.774 151.106 193.473 142.723 196.28 137.492C196.307 137.439 196.345 137.394 196.39 137.36C196.435 137.327 196.486 137.306 196.539 137.298C196.592 137.294 196.644 137.302 196.694 137.323C196.743 137.344 196.788 137.377 196.826 137.419L202.258 143.867C203.28 141.546 207.543 131.696 208.411 125.885L205.898 127.626C205.858 127.653 205.815 127.672 205.769 127.68C205.723 127.688 205.677 127.685 205.632 127.673C205.587 127.66 205.545 127.637 205.508 127.606C205.47 127.574 205.439 127.534 205.415 127.489C205.391 127.443 205.375 127.393 205.368 127.34C205.361 127.288 205.363 127.234 205.374 127.182C205.386 127.131 205.405 127.082 205.433 127.039C205.46 126.996 205.494 126.96 205.534 126.933L208.677 124.756C208.733 124.719 208.797 124.699 208.862 124.699C208.928 124.699 208.992 124.719 209.048 124.756C209.103 124.798 209.146 124.856 209.175 124.924C209.203 124.992 209.215 125.068 209.209 125.143C208.579 131.656 202.909 144.198 202.65 144.73C202.625 144.787 202.588 144.835 202.543 144.872C202.498 144.909 202.446 144.932 202.391 144.939C202.337 144.948 202.281 144.942 202.229 144.923C202.177 144.903 202.13 144.87 202.09 144.827L196.637 138.314C193.669 143.626 187.292 151.613 187.222 151.702C187.189 151.753 187.147 151.794 187.099 151.823C187.05 151.853 186.997 151.869 186.942 151.871Z" fill="#D1D3D4"/>
<path d="M209.888 129.077C209.814 129.078 209.742 129.052 209.681 129.003C209.621 128.953 209.576 128.883 209.552 128.803L208.509 125.264C208.488 125.213 208.476 125.157 208.475 125.1C208.474 125.043 208.483 124.986 208.502 124.934C208.521 124.881 208.55 124.834 208.586 124.795C208.622 124.756 208.665 124.727 208.712 124.709C208.759 124.69 208.808 124.683 208.858 124.689C208.907 124.694 208.955 124.711 208.998 124.74C209.041 124.768 209.078 124.806 209.107 124.852C209.136 124.898 209.157 124.951 209.167 125.006L210.217 128.545C210.246 128.646 210.24 128.757 210.199 128.853C210.159 128.95 210.087 129.024 210 129.061L209.888 129.077Z" fill="#D1D3D4"/>
<path d="M77.224 52.5601C77.224 52.5601 78.414 63.3044 84.224 65.6097V88.9845C84.224 88.9845 79.849 86.7196 77.224 78.9172V52.5601Z" fill="white"/>
<path d="M84.224 89.3636C84.1755 89.3752 84.1255 89.3752 84.077 89.3636C83.895 89.2669 79.541 86.9456 76.902 79.0707C76.8922 79.023 76.8922 78.9733 76.902 78.9256V52.5603C76.9019 52.4583 76.9361 52.3602 76.9975 52.2866C77.0588 52.213 77.1425 52.1696 77.231 52.1654C77.2752 52.1598 77.3199 52.1644 77.3625 52.1788C77.4051 52.1933 77.4448 52.2173 77.4793 52.2495C77.5138 52.2818 77.5424 52.3216 77.5635 52.3666C77.5846 52.4117 77.5976 52.4611 77.602 52.512C77.602 52.6168 78.827 63.0387 84.364 65.2311C84.4324 65.259 84.4918 65.3101 84.5343 65.3778C84.5768 65.4455 84.6004 65.5265 84.602 65.61V88.9848C84.6019 89.0522 84.5871 89.1186 84.559 89.1777C84.5308 89.2369 84.4903 89.2869 84.441 89.3233C84.3752 89.3663 84.2982 89.3806 84.224 89.3636ZM77.574 78.8208C79.597 84.7773 82.677 87.4372 83.874 88.2755V65.884C80.248 64.272 78.435 59.597 77.574 56.2117V78.8208Z" fill="#231F20"/>
</svg>
