<svg xmlns="http://www.w3.org/2000/svg" data-name="Layer 1" width="726.42275" height="705.12037" style=""><rect id="backgroundrect" width="100%" height="100%" x="0" y="0" fill="none" stroke="none"/><g class="currentLayer" style=""><title>Layer 1</title><path d="M509.79286296875,702.7403668701172 c-0.7602500000000001,0.8 -1.55029,1.59 -2.3501,2.38 H416.22255296875005 c-0.7500000000000001,-0.77 -1.48975,-1.56 -2.23,-2.38 c-0.029790000000000004,-0.030000000000000006 -0.06006000000000001,-0.07 -0.08984000000000002,-0.1 c-9.91016,-10.98 -16.14991,-26.93994 -20.04,-43.77 c-0.25,-1.02 -0.46973,-2.05 -0.6899400000000002,-3.09 c-1.02,-4.73 -1.8501,-9.51 -2.52979,-14.25 c-0.12012000000000002,-0.8200000000000001 -0.24023000000000003,-1.6400000000000001 -0.3403300000000001,-2.46 c-0.9199200000000001,-6.8100000000000005 -1.54,-13.51 -1.93994,-19.80005 c-0.049810000000000014,-0.81 -0.10010000000000001,-1.6 -0.14991000000000004,-2.39 a324.8295,324.8295 0 0 1 -0.020000000000000004,-37.6 s0.12012000000000002,0 0.3501,0.010000000000000002 c0.6699200000000002,0.030000000000000006 2.27979,0.1 4.649900000000001,0.24000000000000002 c6.52979,0.4 18.8501,1.4 33.33985,3.7600000000000002 c0.79,0.13 1.59033,0.27 2.39014,0.41000000000000003 a252.14865,252.14865 0 0 1 36.16992,8.76 c0.74023,0.25 1.47021,0.5 2.21,0.7500000000000001 l0.010250000000000002,0.05000000000000001 l9.06983,45.51 l3.76025,-40.51 c2.98975,1.35 5.899900000000001,2.79 8.68994,4.33 c0.7797900000000001,0.43000000000000005 1.54,0.8600500000000001 2.29,1.3 a72.11071,72.11071 0 0 1 17.16992,13.54 C538.04286296875,650.4003368701171 531.67275296875,679.8703668701172 509.79286296875,702.7403668701172 z" fill="#f2f2f2" id="svg_1"/><path d="M471.67222296875,645.0324168701172 l1.5815000000000001,1.75191 c18.27934,20.45824 29.18828,39.44763 32.54919,56.71924 c0.053370000000000015,0.2509 0.09022000000000004,0.501 0.14354000000000003,0.7519100000000001 l-1.16948,0.22151000000000004 l-1.127,0.19878000000000004 c-3.43017,-18.83043 -16.201,-38.29556 -32.14012,-56.144 c-0.50808,-0.5802900000000001 -1.024,-1.1692 -1.55719,-1.7424400000000002 c-6.81415,-7.496 -14.14013,-14.68731 -21.548000000000002,-21.411270000000002 c-0.5688000000000001,-0.52547 -1.15407,-1.0517400000000001 -1.73934,-1.578 c-9.82363,-8.82461 -19.70679,-16.80843 -28.52071,-23.53807 c-0.6208400000000002,-0.47850000000000004 -1.25031,-0.94911 -1.872,-1.41109 c-14.96533,-11.32935 -26.57692,-18.839 -29.1649,-20.48522 c-0.31200000000000006,-0.20626000000000003 -0.48855000000000004,-0.31450000000000006 -0.5285299999999999,-0.3413400000000001 l0.6125400000000001,-0.978 l0.0008400000000000003,-0.016520000000000003 l0.6212200000000001,-0.98582 c0.04000000000000001,0.026890000000000004 0.6337400000000002,0.38817000000000007 1.70647,1.08831 c4.02842,2.59673 14.85613,9.743640000000001 28.3259,19.90458 c0.60516,0.46114 1.23468,0.9318000000000001 1.85547,1.41025 c7.1584,5.45372 14.98763,11.702820000000001 22.89414,18.54316 q2.9832,2.57238 5.8179,5.1370000000000005 c0.5939000000000001,0.5184799999999999 1.17917,1.04475 1.7480000000000002,1.57022 Q462.17496296875004,634.5988468701172 471.67222296875,645.0324168701172 z" fill="#fff" id="svg_2"/><path d="M427.39296296875,581.3503468701172 c-0.27,0.6500000000000001 -0.56006,1.3 -0.8603500000000001,1.94 a62.38191,62.38191 0 0 1 -8.68994,13.75 c-0.5097700000000001,0.6000000000000001 -1.02979,1.21 -1.56983,1.81 q-2.18994,2.415 -4.66015,4.67 a62.59536,62.59536 0 0 1 -23.39991,13.36 c-0.28027,0.09000000000000002 -0.5498000000000001,0.18000000000000002 -0.8300700000000001,0.26 c0.04980000000000001,0.79 0.10009000000000001,1.57 0.14990000000000003,2.38 c0.28027,-0.08000000000000002 0.5502900000000001,-0.16000000000000003 0.83008,-0.25 a64.84908,64.84908 0 0 0 24.81006,-14.02 a66.93793,66.93793 0 0 0 4.97021,-4.99 c0.53955,-0.5900000000000001 1.06006,-1.2 1.56006,-1.81 a64.419,64.419 0 0 0 9.21973,-14.75 c0.28027,-0.6400000000000001 0.56,-1.28 0.8300700000000001,-1.93005 C428.95302296875,581.6303768701172 428.16298296875004,581.4903668701172 427.39296296875,581.3503468701172 z" fill="#fff" id="svg_3"/><path d="M465.50282296875,590.6903768701172 c-0.12011000000000001,0.5900000000000001 -0.26025,1.18 -0.41015,1.77 a62.56419,62.56419 0 0 1 -16.67969,29.67 c-0.57031,0.5700000000000001 -1.15039,1.13 -1.75,1.6700000000000002 c-0.17041000000000003,0.17 -0.36035000000000006,0.35000000000000003 -0.54,0.51 a63.02385,63.02385 0 0 1 -55.82031,14.76 c-0.23,-0.04000000000000001 -0.46973,-0.1 -0.6997100000000002,-0.15000000000000002 c0.11963000000000003,0.8200000000000001 0.23,1.6500000000000001 0.35986000000000007,2.47 c0.23,0.05005000000000001 0.4502,0.1 0.6801800000000001,0.14 a65.35912,65.35912 0 0 0 57.03955,-15.49 c0.24024000000000004,-0.22000000000000003 0.49024,-0.43000000000000005 0.7202200000000001,-0.6600000000000001 c0.6000900000000001,-0.56 1.18017,-1.12 1.76025,-1.6800000000000002 a65.0285,65.0285 0 0 0 17.1499,-30.44 q0.22485000000000002,-0.90006 0.41992000000000007,-1.8 C466.99257296875,591.2003868701172 466.25282296875,590.9403768701172 465.50282296875,590.6903768701172 z" fill="#fff" id="svg_4"/><path d="M488.83290296875,600.9003368701171 c0.009770000000000004,0.56 0.009770000000000004,1.13 0,1.6900000000000002 a62.703,62.703 0 0 1 -17.16015,42.44 c-0.56006,0.6000000000000001 -1.14014,1.18 -1.7197300000000002,1.7600000000000002 c-0.6303700000000001,0.6100000000000001 -1.26026,1.22 -1.9101599999999999,1.8 a63.16193,63.16193 0 0 1 -74.87011,7.19 a6.71349,6.71349 0 0 1 -0.58008,-0.3400000000000001 c0.24023000000000003,1.06 0.48000000000000004,2.1 0.74023,3.13995 c0.17969000000000002,0.1 0.3496100000000001,0.2 0.5297900000000001,0.29000000000000004 a65.50483,65.50483 0 0 0 75.74023,-8.54 c0.6499000000000001,-0.5900000000000001 1.2998100000000001,-1.18 1.9096700000000002,-1.8 c0.6001000000000001,-0.5700000000000001 1.16992,-1.15 1.74023,-1.75 a65.25122,65.25122 0 0 0 17.87012,-42.89 q0.030000000000000006,-0.81 0.029790000000000004,-1.62 C490.39296296875,601.8003668701172 489.61269296875,601.3503468701172 488.83290296875,600.9003368701171 z" fill="#fff" id="svg_5"/><path d="M286.66748296875005,165.57816687011717 H110.88183296875002 a5.52372,5.52372 0 0 1 -5.51758,-5.51757 V26.585496870117183 a5.52415,5.52415 0 0 1 5.51758,-5.51807 H326.64990296875 a5.52415,5.52415 0 0 1 5.51758,5.51807 v93.49267 A45.55143,45.55143 0 0 1 286.66748296875005,165.57816687011717 z" fill="#fff" id="svg_6"/><path d="M286.66748296875005,166.07816687011717 H110.88183296875002 a6.02469,6.02469 0 0 1 -6.01758,-6.01757 V26.585496870117183 a6.0248,6.0248 0 0 1 6.01758,-6.01807 H326.64990296875 a6.02449,6.02449 0 0 1 6.01758,6.01807 v93.49267 A46.05239,46.05239 0 0 1 286.66748296875005,166.07816687011717 zM110.88183296875002,22.56742687011719 a4.02251,4.02251 0 0 0 -4.01758,4.01807 v133.4751 a4.02208,4.02208 0 0 0 4.01758,4.01757 H286.66748296875005 a44.04978,44.04978 0 0 0 44,-44 V26.585496870117183 a4.02251,4.02251 0 0 0 -4.01758,-4.01807 z" fill="#ccc" id="svg_7"/><path d="M283.99805296875,66.14445687011718 H153.53368296874999 a4.51607,4.51607 0 0 1 0,-9.03215 H283.99805296875 a4.51608,4.51608 0 0 1 0,9.03215 z" fill="#ccc" id="svg_8"/><path d="M283.99805296875,97.2551868701172 H153.53368296874999 a4.51607,4.51607 0 0 1 0,-9.03214 H283.99805296875 a4.51607,4.51607 0 1 1 0,9.03214 z" fill="#ccc" id="svg_9"/><path d="M283.99805296875,129.2551868701172 H153.53368296874999 a4.51607,4.51607 0 0 1 0,-9.03214 H283.99805296875 a4.51607,4.51607 0 1 1 0,9.03214 z" fill="#ccc" id="svg_10"/><circle cx="325.0299377441406" cy="26.9685001373291" r="26.968509674072266" fill="#6c63ff" id="svg_11"/><path d="M321.35088296875006,41.00435687011719 a2.999,2.999 0 0 1 -2.39966,-1.2002 l-7.35742,-9.81005 a2.9998,2.9998 0 1 1 4.7998,-3.59961 l4.81348,6.41748 l12.36279,-18.54395 a2.99993,2.99993 0 1 1 4.99219,3.32813 L323.84721296875,39.6684168701172 a3.00113,3.00113 0 0 1 -2.41284,1.335 C321.40654296875005,41.003916870117195 321.37871296875005,41.00435687011719 321.35088296875006,41.00435687011719 z" fill="#fff" id="svg_12"/><path d="M221.78564296874998,281.5073668701172 H46.00000296874998 a45.55142,45.55142 0 0 1 -45.5,-45.5 V142.5142068701172 a5.52456,5.52456 0 0 1 5.51806,-5.51807 H221.78564296874998 a5.52457,5.52457 0 0 1 5.51807,5.51807 v133.4751 A5.52456,5.52456 0 0 1 221.78564296874998,281.5073668701172 z" fill="#fff" id="svg_13"/><path d="M221.78564296874998,282.0073668701172 H46.00000296874998 a46.05239,46.05239 0 0 1 -46,-46 V142.5142068701172 a6.0249,6.0249 0 0 1 6.01806,-6.01807 H221.78564296874998 a6.02491,6.02491 0 0 1 6.01807,6.01807 v133.4751 A6.0249,6.0249 0 0 1 221.78564296874998,282.0073668701172 zM6.018062968750002,138.4961368701172 a4.02292,4.02292 0 0 0 -4.01806,4.01807 v93.49316 a44.04978,44.04978 0 0 0 44,44 H221.78564296874998 a4.02261,4.02261 0 0 0 4.01807,-4.01806 V142.5142068701172 a4.02293,4.02293 0 0 0 -4.01807,-4.01807 z" fill="#ccc" id="svg_14"/><path d="M179.13403296874998,182.0732468701172 H48.66967296874998 a4.51607,4.51607 0 1 1 0,-9.03214 H179.13403296874998 a4.51607,4.51607 0 1 1 0,9.03214 z" fill="#ccc" id="svg_15"/><path d="M179.13403296874998,213.18398687011717 H48.66967296874998 a4.51607,4.51607 0 0 1 0,-9.03215 H179.13403296874998 a4.51607,4.51607 0 1 1 0,9.03215 z" fill="#ccc" id="svg_16"/><path d="M179.13403296874998,245.18398687011717 H48.66967296874998 a4.51607,4.51607 0 0 1 0,-9.03215 H179.13403296874998 a4.51607,4.51607 0 1 1 0,9.03215 z" fill="#ccc" id="svg_17"/><circle cx="222.02993774414062" cy="143.968505859375" r="26.968509674072266" fill="#6c63ff" id="svg_18"/><path d="M218.35088296875,158.0043568701172 a2.999,2.999 0 0 1 -2.39966,-1.2002 l-7.35742,-9.81005 a2.9998,2.9998 0 1 1 4.7998,-3.59961 l4.81348,6.41748 l12.36279,-18.54395 a2.99993,2.99993 0 0 1 4.99219,3.32813 L220.84721296875,156.6684168701172 a3.00113,3.00113 0 0 1 -2.41284,1.335 C218.40654296875,158.0039168701172 218.37871296875,158.0043568701172 218.35088296875,158.0043568701172 z" fill="#fff" id="svg_19"/><path d="M440.81006296875,405.92045687011716 H194.84619296875002 a45.55142,45.55142 0 0 1 -45.5,-45.5 V222.90678687011717 a7.121,7.121 0 0 1 7.11279,-7.1128 H440.81006296875 a7.1206,7.1206 0 0 1 7.1123,7.1128 V398.8071768701172 A7.121,7.121 0 0 1 440.81006296875,405.92045687011716 z" fill="#fff" id="svg_20"/><path d="M440.81006296875,406.42045687011716 H194.84619296875002 a46.05239,46.05239 0 0 1 -46,-46 V222.90678687011717 a7.62136,7.62136 0 0 1 7.61279,-7.6128 H440.81006296875 a7.62125,7.62125 0 0 1 7.6123,7.6128 V398.8071768701172 A7.62136,7.62136 0 0 1 440.81006296875,406.42045687011716 zM156.45898296874998,217.29398687011718 a5.61938,5.61938 0 0 0 -5.61279,5.6128 V360.42045687011716 a44.04978,44.04978 0 0 0 44,44 H440.81006296875 a5.61938,5.61938 0 0 0 5.6123,-5.61328 V222.90678687011717 a5.619,5.619 0 0 0 -5.6123,-5.6128 z" fill="#ccc" id="svg_21"/><path d="M384.60099296875,275.0397568701172 H212.66778296874998 a5.95154,5.95154 0 1 1 0,-11.90307 H384.60099296875 a5.95154,5.95154 0 1 1 0,11.90307 z" fill="#ccc" id="svg_22"/><path d="M384.60099296875,316.0392168701172 H212.66778296874998 a5.95154,5.95154 0 1 1 0,-11.90307 H384.60099296875 a5.95153,5.95153 0 1 1 0,11.90307 z" fill="#ccc" id="svg_23"/><path d="M384.60099296875,358.2105968701172 H212.66778296874998 a5.95153,5.95153 0 1 1 0,-11.90307 H384.60099296875 a5.95154,5.95154 0 1 1 0,11.90307 z" fill="#ccc" id="svg_24"/><circle cx="441.70330810546875" cy="226.5592041015625" r="34.13883972167969" fill="#6c63ff" id="svg_25"/><path d="M437.04607296874997,244.3269168701172 a3.79638,3.79638 0 0 1 -3.03767,-1.5192999999999999 l-9.3136,-12.41834 a3.79739,3.79739 0 1 1 6.076,-4.55667 l6.09327,8.12375 L452.51383296874997,210.48191687011717 a3.79755,3.79755 0 0 1 6.3195,4.213 l-18.6272,27.94079 a3.79906,3.79906 0 0 1 -3.05436,1.6899000000000002 C437.11654296874997,244.32625687011716 437.08129296874995,244.3269168701172 437.04607296874997,244.3269168701172 z" fill="#fff" id="svg_26"/><polygon points="530.145 677.866 516.256 682.511 491.729 631.148 512.229 624.292 530.145 677.866" fill="#ffb6b6" id="svg_27"/><path d="M538.19037296875,690.1444868701171 l-44.78536,11.9776 l-0.18946000000000005,-0.56645 c-1.5570599999999999,-4.6562 -1.208,-6.64056 0.98371,-11.03388 a18.26066,18.26066 0 0 1 10.61753,-9.22769 l0.0011000000000000003,-0.0003700000000000001 l6.10474,-8.94234 l17.33917,1.10206 l3.90949,-1.3074400000000002 z" fill="#2f2e41" id="svg_28"/><polygon points="564.461 690.925 549.816 690.925 542.848 634.435 564.464 634.436 564.461 690.925" fill="#ffb6b6" id="svg_29"/><path d="M568.19607296875,702.1220868701172 l-47.22348,-0.0017500000000000007 v-0.5973 c0.0002900000000000001,-4.9096400000000004 1.91235,-6.52589 5.38445,-9.99711 a18.26064,18.26064 0 0 1 12.99624,-5.38329 h0.0011700000000000002 l8.626,-6.54413 l16.09418,6.54513 l4.12232,0.00017000000000000007 z" fill="#2f2e41" id="svg_30"/><path d="M452.99929296874996,238.31600687011718 a10.6963,10.6963 0 0 0 14.36963,7.9072 l16.90763,17.65192 l13.233,-7.6584200000000004 l-24.22695,-24.59257 a10.754290000000001,10.754290000000001 0 0 0 -20.28331,6.69187 z" fill="#ffb6b6" id="svg_31"/><polygon points="562.421 327.072 570.043 319.186 525.965 278.363 481.602 238.751 469.315 256.113 515.804 299.507 562.421 327.072" fill="#e4e4e4" id="svg_32"/><path d="M535.33784296875,594.9737068701172 c0,-9.91059 0.19620000000000004,-16.97938 0.35372000000000003,-22.65975 c0.46114,-16.62345 0.5850000000000001,-21.09175 -5.77636,-49.71884 l-1.63393,-7.35177 l-9.63462,28.90366 a90.54051,90.54051 0 0 0 -4.6570800000000006,28.59583 l14.85545,89.1319 H498.48259296875005 L476.24551296874995,565.5145168701172 l-0.01042,-29.47522 a10.87342,10.87342 0 0 1 0,-15.11238 l7.38785,-44.15872 l7.47782,-59.51319 h81.90719 s14.45524,29.96182 0.09000000000000002,59.68234 l-0.0016000000000000003,118.07323 l-7.4219100000000005,81.63984 H542.76136296875 z" fill="#455a64" id="svg_33" class="selected" fill-opacity="1"/><path d="M568.00015296875,424.45847687011724 l-76.613,-6.3842 l-0.3978100000000001,-0.03286000000000001 l6.11405,-110.05371 a34.61141,34.61141 0 0 1 23.45877,-30.98589 v-7.70169 a7.198,7.198 0 0 1 7.19,-7.18984 h11.194 a7.15113,7.15113 0 0 1 6.4309,3.9745 l5.47374,10.94749 l20.69855,16.55892 c10.223,8.17865 1.99506,90.17642 1.5527600000000001,94.50283 l5.006,25.031 a9.50513,9.50513 0 0 1 -9.29653,11.368 Q568.40819296875,424.49174687011714 568.00015296875,424.45847687011724 z" fill="#e4e4e4" id="svg_34"/><path d="M486.86759296875005,453.5167968701172 a10.69629,10.69629 0 0 0 0.20244000000000004,-16.40029 l7.60124,-23.231 l-12.99078,-8.06246 l-10.27365,32.95742 a10.7543,10.7543 0 0 0 15.46075,14.73632 z" fill="#ffb6b6" id="svg_35"/><polygon points="513.585 295.588 503.038 292.072 487.804 360.04 473.773 427.634 494.876 430.739 511.241 358.868 513.585 295.588" fill="#e4e4e4" id="svg_36"/><circle cx="525.10302734375" cy="229.91360473632812" r="25.162139892578125" fill="#ffb6b6" id="svg_37"/><path d="M491.24729296875,217.5911868701172 a18.89379,18.89379 0 0 1 2.0137,-6.83272 c1.1764000000000001,2.55786 4.84547,3.00167 7.35658,1.7286200000000003 c2.51152,-1.27309 4.19414,-3.6910000000000003 5.9886,-5.86028 c4.73564,-5.72421 11.2481,-10.36746 18.62873,-11.21318 c7.381,-0.8456800000000001 15.5164,2.88 18.30528,9.76583 c1.25134,-1.7376900000000002 3.92158,-1.9308800000000002 5.81023,-0.92112 a10.45018,10.45018 0 0 1 4.0759,4.82878 a30.766000000000002,30.766000000000002 0 0 1 1.02328,24.61653 c-3.10793,7.8647100000000005 -10.78276,18.46094 -18.70128,21.42923 c-4.80739,1.80212 -9.66288,-0.50442 -14.77569,0 c0.26775,-5.57981 1.34955,-12.46448 1.6172900000000001,-18.04429 c0.14670000000000002,-3.05577 0.16800000000000004,-6.4745800000000004 -1.9191,-8.71139 a6.02518,6.02518 0 0 0 -9.19152,1.07294 a13.84224,13.84224 0 0 0 -1.72632,-4.921 a4.708,4.708 0 0 0 -4.4198,-2.26421 c-2.13474,0.3498700000000001 -3.45343,2.54128 -5.41262,3.459 a5.8822,5.8822 0 0 1 -6.53731,-1.49925 A8.8943,8.8943 0 0 1 491.24729296875,217.5911868701172 z" fill="#2f2e41" id="svg_38"/><polygon points="528.36 358.563 498.809 417.665 520.973 417.665 528.36 358.563" opacity="0.1" id="svg_39"/><path d="M726.42275296875,703.9303668701172 a1.18633,1.18633 0 0 1 -1.19,1.19 h-564.29 a1.19,1.19 0 0 1 0,-2.38 h564.29 A1.18629,1.18629 0 0 1 726.42275296875,703.9303668701172 z" fill="#cacaca" id="svg_40"/></g></svg>