<svg width="135" height="95" viewBox="0 0 135 95" fill="none" xmlns="http://www.w3.org/2000/svg">
<g id="LOGO" filter="url(#filter0_d_375:1241)">
<path id="Exclude" fill-rule="evenodd" clip-rule="evenodd" d="M40 45H134.5V94.5H40V45ZM64.3867 81.5039C65.3242 82.4648 66.3906 83.2031 67.5859 83.7188C68.9453 84.3047 70.1523 84.3984 71.207 84C72.2852 83.625 73.1992 82.9336 73.9492 81.9258C74.6992 80.8945 75.2969 79.6406 75.7422 78.1641C76.2109 76.6641 76.5156 75.1172 76.6562 73.5234C76.8203 71.9062 76.832 70.3125 76.6914 68.7422C76.5508 67.1719 76.2578 65.8008 75.8125 64.6289C75.3672 63.4336 74.7812 62.5195 74.0547 61.8867C73.3281 61.2305 72.4609 61.0312 71.4531 61.2891V64.0664C71.4766 64.207 71.5469 64.3359 71.6641 64.4531C71.8047 64.5703 71.9453 64.6641 72.0859 64.7344C72.25 64.8047 72.3906 64.8633 72.5078 64.9102C72.6484 64.9336 72.7188 64.9219 72.7188 64.875V63.5039C72.7188 63.457 72.7656 63.4336 72.8594 63.4336C72.9766 63.4336 73.0586 63.457 73.1055 63.5039C73.7148 63.7617 74.1953 64.3359 74.5469 65.2266C74.8984 66.0938 75.1211 67.1367 75.2148 68.3555C75.3086 69.5508 75.2852 70.8516 75.1445 72.2578C75.0039 73.6406 74.7344 74.9766 74.3359 76.2656C73.9609 77.5312 73.4688 78.668 72.8594 79.6758C72.25 80.6836 71.5352 81.3984 70.7148 81.8203C69.8945 82.2422 68.9688 82.3125 67.9375 82.0312C66.9062 81.7266 65.7695 80.9062 64.5273 79.5703C63.707 78.7031 63.0859 77.7891 62.6641 76.8281C62.2422 75.8672 61.8906 74.9062 61.6094 73.9453C61.3281 72.9609 61.0469 71.9883 60.7656 71.0273C60.5078 70.0664 60.1094 69.1289 59.5703 68.2148C59.3125 67.8164 58.9844 67.5703 58.5859 67.4766C58.2109 67.3594 57.8945 67.5117 57.6367 67.9336C57.0508 69.0586 56.5 70.2305 55.9844 71.4492C55.4688 72.6445 54.918 73.8281 54.332 75C53.7695 76.1719 53.125 77.2969 52.3984 78.375C51.6953 79.4297 50.8516 80.3789 49.8672 81.2227C49.8672 81.2695 49.8203 81.293 49.7266 81.293C49.6562 81.293 49.6094 81.2695 49.5859 81.2227C49.5391 81.1758 49.4805 81.0469 49.4102 80.8359C49.3398 80.625 49.3047 80.4844 49.3047 80.4141C49.2812 80.1797 49.2461 79.7578 49.1992 79.1484C49.1523 78.5391 49.0938 77.8945 49.0234 77.2148C48.9766 76.5352 48.9297 75.9023 48.8828 75.3164C48.8359 74.707 48.8008 74.2734 48.7773 74.0156C48.7305 73.5703 48.7305 73.0078 48.7773 72.3281C48.8477 71.625 48.8945 70.9102 48.918 70.1836C48.9648 69.4336 48.9883 68.707 48.9883 68.0039C48.9883 67.3008 48.918 66.7266 48.7773 66.2812C48.6133 65.8125 48.3672 65.4961 48.0391 65.332C47.7344 65.168 47.3359 65.2148 46.8438 65.4727C46.5625 65.7773 46.457 66.1406 46.5273 66.5625C46.6211 66.9609 46.7266 67.3242 46.8438 67.6523L47.8984 82.3477C47.8984 82.3711 47.9336 82.4531 48.0039 82.5938C48.0742 82.7344 48.1328 82.8281 48.1797 82.875C48.625 83.4375 49.1055 83.707 49.6211 83.6836C50.1367 83.6367 50.6641 83.3906 51.2031 82.9453C51.7422 82.5 52.2812 81.8906 52.8203 81.1172C53.3594 80.3438 53.875 79.5234 54.3672 78.6562C54.8828 77.7656 55.3633 76.8633 55.8086 75.9492C56.2773 75.0117 56.6875 74.168 57.0391 73.418C57.3906 72.668 57.6836 72.0469 57.918 71.5547C58.1758 71.0391 58.3516 70.7578 58.4453 70.7109L58.6914 70.957C59.0898 72.1055 59.5469 73.3242 60.0625 74.6133C60.6016 75.8789 61.2227 77.0977 61.9258 78.2695C62.6523 79.4414 63.4727 80.5195 64.3867 81.5039ZM79.1172 82.0312C79.4453 82.6406 79.9492 83.2031 80.6289 83.7188C81.3555 84.3047 82.0938 84.5391 82.8438 84.4219C83.6172 84.3047 84.3438 83.9531 85.0234 83.3672C85.7266 82.7578 86.3711 81.9727 86.957 81.0117C87.543 80.0508 88.0234 79.0312 88.3984 77.9531C88.7969 76.8516 89.0547 75.7383 89.1719 74.6133C89.3125 73.4883 89.2891 72.4688 89.1016 71.5547C88.9141 70.6406 88.5391 69.8789 87.9766 69.2695C87.4141 68.6367 86.6172 68.2852 85.5859 68.2148C85.3516 68.1914 85.0469 68.168 84.6719 68.1445C84.2969 68.1211 83.9102 68.1211 83.5117 68.1445C83.1133 68.1445 82.7266 68.2031 82.3516 68.3203C81.9766 68.4141 81.6719 68.5664 81.4375 68.7773C81.0625 69.1055 80.7461 69.5625 80.4883 70.1484C80.2305 70.7109 80.0078 71.332 79.8203 72.0117C79.6328 72.668 79.4688 73.3242 79.3281 73.9805C79.2109 74.6367 79.082 75.1992 78.9414 75.668C78.7305 76.418 78.5664 77.168 78.4492 77.918C78.3555 78.6445 78.3555 79.3594 78.4492 80.0625C78.5664 80.7422 78.7891 81.3984 79.1172 82.0312ZM83.0547 82.1016C82.375 82.3594 81.7422 82.2539 81.1562 81.7852C80.6172 81.3633 80.2539 80.707 80.0664 79.8164C79.9023 78.9258 79.8789 77.9648 79.9961 76.9336C80.1133 75.9023 80.3594 74.8711 80.7344 73.8398C81.1328 72.8086 81.625 71.9531 82.2109 71.2734C82.7969 70.5703 83.4766 70.1133 84.25 69.9023C85.0234 69.668 85.8438 69.8438 86.7109 70.4297C87.3203 70.8516 87.6953 71.4961 87.8359 72.3633C87.9766 73.207 87.9414 74.1328 87.7305 75.1406C87.5195 76.125 87.168 77.1211 86.6758 78.1289C86.1836 79.1133 85.6211 79.957 84.9883 80.6602C84.3789 81.3633 83.7344 81.8438 83.0547 82.1016ZM99.8594 81.4336C100.398 81.9727 101.137 82.5117 102.074 83.0508C102.824 83.4961 103.574 83.707 104.324 83.6836C105.074 83.6602 105.73 83.4844 106.293 83.1562C106.879 82.8281 107.324 82.3711 107.629 81.7852C107.957 81.1758 108.074 80.5195 107.98 79.8164H107.418C106.879 80.8008 106.305 81.4453 105.695 81.75C105.109 82.0547 104.5 82.1484 103.867 82.0312C103.234 81.8906 102.59 81.5859 101.934 81.1172C101.301 80.6484 100.668 80.1328 100.035 79.5703C99.4258 78.9844 98.8398 78.4219 98.2773 77.8828C97.7148 77.3203 97.1992 76.875 96.7305 76.5469C96.6367 76.5234 96.4844 76.4766 96.2734 76.4062C96.0625 76.3359 95.8516 76.2539 95.6406 76.1602C95.4531 76.043 95.2891 75.9258 95.1484 75.8086C95.0312 75.668 95.0078 75.5273 95.0781 75.3867C96.1328 74.6133 97.0938 73.8164 97.9609 72.9961C98.8281 72.1523 99.543 71.2617 100.105 70.3242C100.691 69.3633 101.113 68.3555 101.371 67.3008C101.629 66.2461 101.664 65.1094 101.477 63.8906C101.289 63.0469 100.984 62.4375 100.562 62.0625C100.164 61.6875 99.6953 61.4883 99.1562 61.4648C98.6172 61.418 98.0312 61.5117 97.3984 61.7461C96.7891 61.9805 96.1914 62.2852 95.6055 62.6602C95.043 63.0117 94.5156 63.4102 94.0234 63.8555C93.5312 64.2773 93.1328 64.6641 92.8281 65.0156C92.5938 64.9219 92.3711 64.9336 92.1602 65.0508C91.9727 65.168 91.8203 65.3203 91.7031 65.5078C91.7969 67.1016 91.9141 68.625 92.0547 70.0781C92.1953 71.5312 92.2656 72.9375 92.2656 74.2969C92.2891 75.6562 92.1953 76.9805 91.9844 78.2695C91.7969 79.5586 91.4336 80.8359 90.8945 82.1016C90.918 82.2891 91 82.5586 91.1406 82.9102C91.3047 83.2383 91.4922 83.5312 91.7031 83.7891C91.9375 84.0234 92.1953 84.1641 92.4766 84.2109C92.7578 84.2578 93.0508 84.0938 93.3555 83.7188C93.4023 83.4141 93.4375 82.9805 93.4609 82.418C93.5078 81.832 93.5547 81.2227 93.6016 80.5898C93.6719 79.9336 93.7539 79.2891 93.8477 78.6562C93.9414 78.0234 94.0703 77.4727 94.2344 77.0039C95.3125 77.3789 96.1562 77.8125 96.7656 78.3047C97.375 78.7734 97.9141 79.2773 98.3828 79.8164C98.8516 80.332 99.3438 80.8711 99.8594 81.4336ZM94.0234 72.0117C94 71.7539 93.9766 71.5781 93.9531 71.4844C93.8828 70.6406 93.8125 69.8789 93.7422 69.1992C93.6719 68.4961 93.6953 67.8398 93.8125 67.2305C93.9531 66.5977 94.2109 66 94.5859 65.4375C94.9844 64.8516 95.6055 64.2539 96.4492 63.6445C97.3398 63.0117 98.043 62.7773 98.5586 62.9414C99.0977 63.082 99.4492 63.4688 99.6133 64.1016C99.7773 64.7344 99.7773 65.543 99.6133 66.5273C99.4727 67.4883 99.168 68.4609 98.6992 69.4453C98.2305 70.4062 97.6211 71.3086 96.8711 72.1523C96.1211 72.9961 95.2422 73.6172 94.2344 74.0156C94.2344 73.9219 94.2227 73.7578 94.1992 73.5234C94.1758 73.2891 94.1406 73.043 94.0938 72.7852C94.0703 72.5039 94.0469 72.2461 94.0234 72.0117ZM108.543 72.1875C108.777 75.8203 108.637 79.5 108.121 83.2266C108.074 83.4375 108.098 83.5898 108.191 83.6836C108.309 83.7773 108.438 83.8359 108.578 83.8594C108.742 83.8594 108.895 83.8477 109.035 83.8242C109.176 83.8008 109.258 83.7773 109.281 83.7539C109.586 82.4414 109.738 81.0703 109.738 79.6406C109.762 78.1875 109.844 76.7695 109.984 75.3867H110.23C110.277 75.4102 110.418 75.457 110.652 75.5273C110.91 75.5742 111.074 75.6211 111.145 75.668C112.082 76.2539 113.113 76.9219 114.238 77.6719C115.387 78.4219 116.57 79.1367 117.789 79.8164C119.008 80.4727 120.238 81.0469 121.48 81.5391C122.723 82.0312 123.918 82.3242 125.066 82.418C125.887 82.4883 126.566 82.3828 127.105 82.1016C127.668 81.8203 128.113 81.457 128.441 81.0117C128.77 80.543 129.004 80.0391 129.145 79.5C129.285 78.9375 129.355 78.4219 129.355 77.9531C129.379 77.4609 129.355 77.0508 129.285 76.7227C129.215 76.3945 129.121 76.2305 129.004 76.2305H128.301C128.277 77.4258 128.102 78.3633 127.773 79.043C127.445 79.7227 127.012 80.2031 126.473 80.4844C125.957 80.7656 125.348 80.8828 124.645 80.8359C123.965 80.7891 123.238 80.6367 122.465 80.3789C121.691 80.1211 120.906 79.793 120.109 79.3945C119.336 78.9961 118.574 78.5859 117.824 78.1641C117.098 77.7188 116.406 77.2969 115.75 76.8984C115.117 76.5 114.578 76.1836 114.133 75.9492C113.992 75.8555 113.805 75.7383 113.57 75.5977L112.867 75.1758C112.656 75.0352 112.469 74.918 112.305 74.8242C112.141 74.707 112.059 74.6367 112.059 74.6133V74.332L112.34 74.1914L112.762 73.9102C112.902 73.8164 113.031 73.7344 113.148 73.6641C113.289 73.5938 113.383 73.5352 113.43 73.4883C113.781 73.2539 114.25 72.7852 114.836 72.082C115.445 71.3789 116.066 70.582 116.699 69.6914C117.355 68.7773 117.977 67.8516 118.562 66.9141C119.148 65.9531 119.617 65.1211 119.969 64.418C120.32 63.7148 120.496 63.2109 120.496 62.9062C120.496 62.5781 120.238 62.6016 119.723 62.9766C119.441 63.1641 119.078 63.6094 118.633 64.3125C118.211 65.0156 117.719 65.8125 117.156 66.7031C116.617 67.5938 116.031 68.5195 115.398 69.4805C114.789 70.418 114.156 71.2266 113.5 71.9062C112.844 72.5859 112.188 73.0547 111.531 73.3125C110.898 73.5703 110.289 73.4648 109.703 72.9961C109.422 71.0273 109.164 69.082 108.93 67.1602C108.719 65.2148 108.449 63.2812 108.121 61.3594C108.004 60.9141 107.84 60.6094 107.629 60.4453C107.418 60.2578 107.207 60.1875 106.996 60.2344C106.785 60.2578 106.621 60.375 106.504 60.5859C106.387 60.7969 106.387 61.0547 106.504 61.3594C107.652 64.9453 108.332 68.5547 108.543 72.1875Z" fill="#6C63FF"/>
<path id="Let&#226;&#128;&#153;s" d="M1.37109 35.7188C0.925781 35.5547 0.644531 35.3672 0.527344 35.1562C0.410156 34.9453 0.410156 34.582 0.527344 34.0664C0.878906 32.3789 1.25391 30.7266 1.65234 29.1094C2.05078 27.4688 2.40234 25.8398 2.70703 24.2227C3.03516 22.6055 3.28125 20.9648 3.44531 19.3008C3.63281 17.6367 3.67969 15.9023 3.58594 14.0977C3.79688 13.6992 4.00781 13.5586 4.21875 13.6758C4.42969 13.793 4.60547 14.0273 4.74609 14.3789C4.91016 14.707 5.03906 15.082 5.13281 15.5039C5.22656 15.9023 5.27344 16.1836 5.27344 16.3477C5.13281 17.7305 4.99219 19.0898 4.85156 20.4258C4.71094 21.7383 4.54688 23.0508 4.35938 24.3633C4.19531 25.6758 4.00781 27 3.79688 28.3359C3.58594 29.6484 3.32812 31.0078 3.02344 32.4141C2.88281 33.1172 3.09375 33.6211 3.65625 33.9258C4.21875 34.207 4.89844 34.3828 5.69531 34.4531C6.51562 34.5234 7.33594 34.5352 8.15625 34.4883C8.97656 34.418 9.58594 34.3711 9.98438 34.3477C10.1953 34.3242 10.582 34.2891 11.1445 34.2422C11.7305 34.1953 12.3398 34.1484 12.9727 34.1016C13.6289 34.0312 14.25 33.9727 14.8359 33.9258C15.4219 33.8789 15.832 33.832 16.0664 33.7852C16.2773 33.5508 16.6289 33.375 17.1211 33.2578C17.6367 33.1406 18.1758 33.0352 18.7383 32.9414C19.3242 32.8477 19.8984 32.7422 20.4609 32.625C21.0469 32.5078 21.5156 32.332 21.8672 32.0977C22.0547 31.9805 22.3008 31.8398 22.6055 31.6758C22.9336 31.5117 23.2383 31.4766 23.5195 31.5703V32.4141C23.4258 32.5078 23.2148 32.6953 22.8867 32.9766C22.5586 33.2578 22.1953 33.5859 21.7969 33.9609C21.3984 34.3125 21 34.6758 20.6016 35.0508C20.2031 35.4258 19.8867 35.7422 19.6523 36C19.6523 35.9531 19.6172 35.8945 19.5469 35.8242C19.4766 35.7539 19.418 35.7188 19.3711 35.7188C18.1523 35.5547 16.7695 35.4844 15.2227 35.5078C13.6758 35.5078 12.1172 35.5547 10.5469 35.6484C8.97656 35.7188 7.45312 35.8008 5.97656 35.8945C4.52344 35.9883 3.25781 36.0234 2.17969 36C2.10938 35.9766 1.96875 35.9414 1.75781 35.8945C1.54688 35.8242 1.41797 35.7656 1.37109 35.7188ZM32.0977 35.7188C31.207 35.3438 30.5273 34.8633 30.0586 34.2773C29.6133 33.6914 29.2852 33.0469 29.0742 32.3438C28.8633 31.6406 28.7344 30.8906 28.6875 30.0938C28.6406 29.2969 28.582 28.4883 28.5117 27.668C27.9727 27.7617 27.4453 27.8086 26.9297 27.8086C26.4141 27.7852 25.957 27.7383 25.5586 27.668C25.1836 27.5742 24.9141 27.457 24.75 27.3164C24.5859 27.1523 24.5625 26.9883 24.6797 26.8242C24.8203 26.6367 25.1484 26.4492 25.6641 26.2617C26.1797 26.0742 26.9414 25.8984 27.9492 25.7344C28.0898 25.7344 28.2891 25.6641 28.5469 25.5234C28.8281 25.3828 28.9922 25.2773 29.0391 25.207C29.2031 24.9727 29.3555 24.5742 29.4961 24.0117C29.6367 23.4258 29.7773 22.7812 29.918 22.0781C30.082 21.375 30.2695 20.6719 30.4805 19.9688C30.7148 19.2422 30.9961 18.6211 31.3242 18.1055C31.6758 17.5898 32.0859 17.2266 32.5547 17.0156C33.0469 16.8047 33.6445 16.8516 34.3477 17.1562C34.418 17.2031 34.5117 17.2969 34.6289 17.4375C34.7695 17.5547 34.9102 17.6836 35.0508 17.8242C35.1914 17.9648 35.3203 18.1055 35.4375 18.2461C35.5781 18.3633 35.6719 18.457 35.7188 18.5273C35.8125 19.6758 35.7422 20.6484 35.5078 21.4453C35.2734 22.2422 34.957 22.9219 34.5586 23.4844C34.1602 24.0234 33.7148 24.4805 33.2227 24.8555C32.7305 25.2305 32.2617 25.5938 31.8164 25.9453C31.3711 26.2734 30.9844 26.6133 30.6562 26.9648C30.3516 27.3164 30.1875 27.75 30.1641 28.2656C30.1172 28.875 30.0938 29.4375 30.0938 29.9531C30.0938 30.4453 30.1523 30.9141 30.2695 31.3594C30.3867 31.8047 30.5859 32.2266 30.8672 32.625C31.1484 33.0234 31.5586 33.4102 32.0977 33.7852C32.4961 34.0664 32.9883 34.1367 33.5742 33.9961C34.1602 33.8555 34.7578 33.6094 35.3672 33.2578C35.9766 32.9062 36.5742 32.5078 37.1602 32.0625C37.7461 31.6172 38.25 31.2422 38.6719 30.9375C39.0938 30.6094 39.3984 30.3984 39.5859 30.3047C39.7734 30.2109 39.7734 30.3516 39.5859 30.7266C39.2578 31.5 38.8711 32.2734 38.4258 33.0469C37.9805 33.8203 37.4531 34.4766 36.8438 35.0156C36.2344 35.5547 35.5312 35.9062 34.7344 36.0703C33.9609 36.2578 33.082 36.1406 32.0977 35.7188ZM30.9727 22.957C30.9492 23.0742 30.9023 23.3086 30.832 23.6602C30.7617 24.0117 30.7266 24.2461 30.7266 24.3633C30.75 24.3867 30.7852 24.3984 30.832 24.3984C30.9023 24.3984 30.9492 24.3867 30.9727 24.3633C31.043 24.3164 31.1484 24.2461 31.2891 24.1523C31.4297 24.0352 31.5703 23.9297 31.7109 23.8359C31.8516 23.7188 31.9805 23.6133 32.0977 23.5195C32.2383 23.4023 32.332 23.3203 32.3789 23.2734C33.082 22.5703 33.5742 21.9258 33.8555 21.3398C34.1602 20.7305 34.3125 20.2383 34.3125 19.8633C34.3125 19.4883 34.1836 19.2422 33.9258 19.125C33.6914 18.9844 33.3984 19.0195 33.0469 19.2305C32.7188 19.4414 32.3672 19.8516 31.9922 20.4609C31.6172 21.0469 31.2773 21.8789 30.9727 22.957ZM45.668 35.7188C45.668 35.2734 45.6797 34.6758 45.7031 33.9258C45.75 33.1758 45.7852 32.3555 45.8086 31.4648C45.832 30.5742 45.8438 29.6602 45.8438 28.7227C45.8438 27.7852 45.8203 26.9062 45.7734 26.0859C45.7266 25.2656 45.6445 24.5508 45.5273 23.9414C45.4336 23.332 45.293 22.9219 45.1055 22.7109C43.6289 22.8281 42.5039 22.8164 41.7305 22.6758C40.957 22.5352 40.5586 22.3477 40.5352 22.1133C40.5352 21.8789 40.9336 21.6328 41.7305 21.375C42.5273 21.0938 43.7578 20.8945 45.4219 20.7773C45.4219 20.4961 45.4219 20.0039 45.4219 19.3008C45.4453 18.5742 45.457 17.8125 45.457 17.0156C45.457 16.2188 45.4453 15.4688 45.4219 14.7656C45.4219 14.0625 45.4219 13.5703 45.4219 13.2891C45.3984 13.125 45.3633 12.9023 45.3164 12.6211C45.2695 12.3398 45.2227 12.0469 45.1758 11.7422C45.1289 11.4141 45.0938 11.0977 45.0703 10.793C45.0469 10.4648 45.0586 10.1953 45.1055 9.98438C45.1523 9.70312 45.2695 9.51562 45.457 9.42188C45.668 9.30469 45.8789 9.25781 46.0898 9.28125C46.3008 9.28125 46.4883 9.35156 46.6523 9.49219C46.8398 9.60938 46.9336 9.77344 46.9336 9.98438V20.4961C46.9336 20.7305 47.2266 20.8477 47.8125 20.8477C48.3984 20.8242 49.1133 20.7656 49.957 20.6719C50.8008 20.5781 51.6797 20.4844 52.5938 20.3906C53.5312 20.2734 54.3281 20.2383 54.9844 20.2852C55.6641 20.332 56.1211 20.4961 56.3555 20.7773C56.5898 21.0352 56.4492 21.4922 55.9336 22.1484C55.8867 22.1953 55.793 22.2539 55.6523 22.3242C55.5117 22.3945 55.418 22.4297 55.3711 22.4297C54.1055 22.3828 52.7695 22.3711 51.3633 22.3945C49.957 22.418 48.6211 22.5234 47.3555 22.7109C46.9336 22.7812 46.6992 23.1797 46.6523 23.9062C46.6289 24.6094 46.6875 25.4766 46.8281 26.5078C46.9922 27.5391 47.168 28.6406 47.3555 29.8125C47.5664 30.9609 47.6953 32.0156 47.7422 32.9766C47.7891 33.9375 47.6836 34.7227 47.4258 35.332C47.1914 35.918 46.6992 36.1406 45.9492 36C45.9023 36 45.8438 35.9648 45.7734 35.8945C45.7031 35.8242 45.668 35.7656 45.668 35.7188ZM60.2578 19.9336C60.2109 19.9102 60.1523 19.8281 60.082 19.6875C60.0352 19.5469 60 19.4531 59.9766 19.4062C59.9297 19.0781 59.7891 18.5156 59.5547 17.7188C59.3438 16.8984 59.1328 16.043 58.9219 15.1523C58.7109 14.2617 58.5469 13.4297 58.4297 12.6562C58.3359 11.8828 58.3828 11.3555 58.5703 11.0742C58.7812 10.7695 59.0156 10.6992 59.2734 10.8633C59.5312 11.0273 59.7891 11.3437 60.0469 11.8125C60.3281 12.2578 60.5859 12.8203 60.8203 13.5C61.0547 14.1797 61.2539 14.8828 61.418 15.6094C61.582 16.3125 61.6992 17.0039 61.7695 17.6836C61.8398 18.3398 61.8398 18.9023 61.7695 19.3711C61.6992 19.8164 61.5352 20.1094 61.2773 20.25C61.043 20.3906 60.7031 20.2852 60.2578 19.9336ZM69.0469 36.1758C68.8359 36.0586 68.543 35.918 68.168 35.7539C67.8164 35.5664 67.4414 35.3555 67.043 35.1211C66.6445 34.8867 66.2578 34.6406 65.8828 34.3828C65.5312 34.1016 65.2383 33.8086 65.0039 33.5039C64.7695 33.1758 64.6406 32.8359 64.6172 32.4844C64.5938 32.1328 64.7227 31.7695 65.0039 31.3945C65.0508 31.3477 65.2031 31.4766 65.4609 31.7812C65.7422 32.0625 66.0938 32.4141 66.5156 32.8359C66.9375 33.2344 67.418 33.6562 67.957 34.1016C68.4961 34.5234 69.0469 34.8516 69.6094 35.0859C70.1719 35.2969 70.7344 35.3672 71.2969 35.2969C71.8594 35.2031 72.375 34.8516 72.8438 34.2422C73.0312 33.9844 73.1602 33.6914 73.2305 33.3633C73.3242 33.0117 73.3594 32.6602 73.3359 32.3086C73.3125 31.957 73.2539 31.6172 73.1602 31.2891C73.0898 30.9375 72.9844 30.6211 72.8438 30.3398C72.5391 29.6836 72.0586 29.0156 71.4023 28.3359C70.7695 27.6562 70.0781 26.9648 69.3281 26.2617C68.6016 25.5586 67.8867 24.8438 67.1836 24.1172C66.4805 23.3906 65.9297 22.6523 65.5312 21.9023C65.1328 21.1523 64.9336 20.4023 64.9336 19.6523C64.957 18.8789 65.3086 18.0938 65.9883 17.2969C66.5273 16.6875 67.1953 16.3828 67.9922 16.3828C68.8125 16.3828 69.6094 16.5586 70.3828 16.9102C71.1797 17.2617 71.8711 17.7188 72.457 18.2812C73.0664 18.8203 73.4414 19.3477 73.582 19.8633C73.6523 20.0742 73.6758 20.3086 73.6523 20.5664C73.6289 20.8008 73.5586 21 73.4414 21.1641C73.3242 21.3281 73.1484 21.4453 72.9141 21.5156C72.7031 21.5625 72.4219 21.5156 72.0703 21.375C71.6719 21.2344 71.3555 20.9297 71.1211 20.4609C70.9102 19.9922 70.6758 19.5352 70.418 19.0898C70.1836 18.6211 69.8672 18.2578 69.4688 18C69.0938 17.7188 68.5312 17.6953 67.7812 17.9297C66.9375 18.2109 66.4805 18.6445 66.4102 19.2305C66.3398 19.793 66.5039 20.4492 66.9023 21.1992C67.3242 21.9258 67.8867 22.6992 68.5898 23.5195C69.3164 24.3164 70.043 25.0781 70.7695 25.8047C71.5195 26.5312 72.1875 27.1875 72.7734 27.7734C73.3594 28.3359 73.7227 28.7461 73.8633 29.0039C74.1445 29.543 74.3906 30.2227 74.6016 31.043C74.8359 31.8398 74.918 32.625 74.8477 33.3984C74.7773 34.1719 74.5195 34.8516 74.0742 35.4375C73.6289 36 72.8789 36.3164 71.8242 36.3867C71.6836 36.4102 71.4844 36.4219 71.2266 36.4219C70.9922 36.4453 70.7461 36.457 70.4883 36.457C70.2305 36.457 69.9609 36.4336 69.6797 36.3867C69.4219 36.3398 69.2109 36.2695 69.0469 36.1758Z" fill="#5E6DFF"/>
</g>
<defs>
<filter id="filter0_d_375:1241" x="-3.56055" y="9.27539" width="142.061" height="93.2246" filterUnits="userSpaceOnUse" color-interpolation-filters="sRGB">
<feFlood flood-opacity="0" result="BackgroundImageFix"/>
<feColorMatrix in="SourceAlpha" type="matrix" values="0 0 0 0 0 0 0 0 0 0 0 0 0 0 0 0 0 0 127 0" result="hardAlpha"/>
<feOffset dy="4"/>
<feGaussianBlur stdDeviation="2"/>
<feComposite in2="hardAlpha" operator="out"/>
<feColorMatrix type="matrix" values="0 0 0 0 0 0 0 0 0 0 0 0 0 0 0 0 0 0 0.25 0"/>
<feBlend mode="normal" in2="BackgroundImageFix" result="effect1_dropShadow_375:1241"/>
<feBlend mode="normal" in="SourceGraphic" in2="effect1_dropShadow_375:1241" result="shape"/>
</filter>
</defs>
</svg>
