<svg width="280" height="243" viewBox="0 0 280 243" fill="none" xmlns="http://www.w3.org/2000/svg">
<path d="M243.684 204.134H37.919C37.8649 204.152 37.8078 204.155 37.7524 204.143C37.6971 204.131 37.6448 204.105 37.5998 204.066C37.5549 204.027 37.5184 203.976 37.4933 203.918C37.4681 203.86 37.455 203.796 37.455 203.731C37.455 203.666 37.4681 203.602 37.4933 203.544C37.5184 203.486 37.5549 203.436 37.5998 203.397C37.6448 203.357 37.6971 203.331 37.7524 203.319C37.8078 203.307 37.8649 203.31 37.919 203.328H243.719C243.795 203.353 243.862 203.406 243.91 203.479C243.957 203.551 243.983 203.64 243.983 203.731C243.983 203.822 243.957 203.911 243.91 203.984C243.862 204.056 243.795 204.109 243.719 204.134H243.684Z" fill="#D1D3D4"/>
<path d="M231.693 39.4946H49.91V161.753H231.693V39.4946Z" fill="white"/>
<path d="M231.7 162.172H49.91C49.8622 162.172 49.8149 162.161 49.7707 162.14C49.7266 162.119 49.6864 162.088 49.6526 162.049C49.6188 162.01 49.592 161.964 49.5737 161.913C49.5554 161.862 49.546 161.808 49.546 161.753V39.4943C49.546 39.3832 49.5844 39.2766 49.6526 39.198C49.7209 39.1194 49.8135 39.0752 49.91 39.0752H231.7C231.748 39.0752 231.795 39.0861 231.838 39.1072C231.882 39.1284 231.922 39.1594 231.955 39.1984C231.988 39.2375 232.014 39.2837 232.032 39.3345C232.049 39.3853 232.058 39.4397 232.057 39.4943V161.753C232.057 161.863 232.02 161.968 231.953 162.046C231.886 162.125 231.795 162.17 231.7 162.172ZM50.274 161.366H231.329V39.9135H50.267L50.274 161.366Z" fill="#D1D3D4"/>
<path d="M231.693 33.6909H49.91V39.4943H231.693V33.6909Z" fill="white"/>
<path d="M231.7 39.9137H49.91C49.8135 39.9137 49.7209 39.8695 49.6526 39.7909C49.5844 39.7123 49.546 39.6057 49.546 39.4945V33.6911C49.546 33.5799 49.5844 33.4733 49.6526 33.3947C49.7209 33.3161 49.8135 33.272 49.91 33.272H231.7C231.748 33.272 231.795 33.2829 231.838 33.304C231.882 33.3252 231.922 33.3562 231.955 33.3952C231.988 33.4342 232.014 33.4805 232.032 33.5313C232.049 33.5821 232.058 33.6365 232.057 33.6911V39.4945C232.057 39.6043 232.02 39.7097 231.953 39.7881C231.886 39.8665 231.795 39.9115 231.7 39.9137ZM50.274 39.1076H231.329V34.1022H50.267L50.274 39.1076Z" fill="#D1D3D4"/>
<path d="M146.734 116.309H136.85V152.838H146.734V116.309Z" fill="white"/>
<path d="M146.734 153.25H136.85C136.803 153.251 136.755 153.241 136.711 153.221C136.667 153.2 136.627 153.17 136.593 153.132C136.559 153.094 136.532 153.048 136.514 152.998C136.495 152.947 136.486 152.893 136.486 152.839V116.309C136.486 116.198 136.524 116.092 136.593 116.013C136.661 115.934 136.753 115.89 136.85 115.89H146.734C146.831 115.89 146.923 115.934 146.991 116.013C147.06 116.092 147.098 116.198 147.098 116.309V152.839C147.098 152.893 147.089 152.947 147.07 152.998C147.052 153.048 147.025 153.094 146.991 153.132C146.957 153.17 146.917 153.2 146.873 153.221C146.829 153.241 146.781 153.251 146.734 153.25ZM137.214 152.444H146.377V116.72H137.2L137.214 152.444Z" fill="#D1D3D4"/>
<path d="M99.134 161.753C99.134 161.753 101.297 147.89 109.431 144.085C117.565 140.281 121.982 148.115 121.982 148.115C121.982 148.115 124.082 135.219 137.004 135.219C149.926 135.219 152.908 145.359 152.908 145.359C152.908 145.359 155.561 139.233 161.392 139.652C167.223 140.071 168.112 148.518 168.112 148.518C169.809 147.652 171.645 147.204 173.502 147.204C175.359 147.204 177.195 147.652 178.892 148.518C184.492 151.517 186.851 161.794 186.851 161.794L99.134 161.753Z" fill="white"/>
<path d="M186.851 162.172H99.134C99.0805 162.172 99.0278 162.157 98.9794 162.131C98.9311 162.105 98.8883 162.066 98.854 162.019C98.7905 161.922 98.7629 161.801 98.777 161.681C98.868 161.1 101.073 147.543 109.277 143.698C111.403 142.593 113.788 142.335 116.055 142.964C118.323 143.593 120.344 145.074 121.8 147.172C122.563 144.254 125.895 134.792 136.99 134.792C147.889 134.792 151.914 142.046 152.943 144.464C153.888 142.812 156.639 138.894 161.406 139.249C166.572 139.62 168.049 145.971 168.406 147.898C170.102 147.102 171.922 146.712 173.753 146.751C175.585 146.789 177.39 147.256 179.06 148.123C184.751 151.162 187.11 161.237 187.208 161.665C187.222 161.725 187.224 161.789 187.213 161.85C187.202 161.912 187.179 161.97 187.145 162.019C187.111 162.071 187.066 162.111 187.015 162.138C186.963 162.165 186.907 162.177 186.851 162.172ZM99.575 161.366H186.375C185.808 159.263 183.421 151.388 178.752 148.889C177.097 148.053 175.309 147.621 173.502 147.621C171.695 147.621 169.907 148.053 168.252 148.889C168.202 148.921 168.145 148.937 168.087 148.937C168.03 148.937 167.973 148.921 167.923 148.889C167.872 148.858 167.828 148.813 167.796 148.758C167.763 148.703 167.742 148.641 167.734 148.575C167.734 148.494 166.81 140.514 161.35 140.103C155.89 139.692 153.237 145.52 153.216 145.576C153.183 145.648 153.132 145.708 153.07 145.748C153.008 145.788 152.937 145.807 152.866 145.802C152.796 145.798 152.728 145.77 152.672 145.721C152.616 145.672 152.573 145.605 152.551 145.528C152.516 145.423 149.457 135.662 136.983 135.662C131.761 135.662 127.708 137.766 124.936 141.917C123.69 143.782 122.796 145.926 122.311 148.212C122.298 148.293 122.265 148.368 122.215 148.427C122.165 148.486 122.101 148.526 122.031 148.542C121.96 148.56 121.886 148.552 121.818 148.52C121.751 148.489 121.693 148.435 121.653 148.365C120.347 146.19 118.419 144.611 116.206 143.906C113.993 143.2 111.635 143.412 109.543 144.504C102.571 147.744 100.058 158.86 99.575 161.334V161.366Z" fill="#D1D3D4"/>
<path d="M147.028 122.104H136.297L135.009 116.172H148.316L147.028 122.104Z" fill="white"/>
<path d="M147 122.524H136.297C136.216 122.525 136.138 122.494 136.074 122.437C136.011 122.38 135.966 122.3 135.947 122.209L134.659 116.277C134.645 116.215 134.643 116.15 134.654 116.087C134.665 116.024 134.688 115.965 134.722 115.914C134.757 115.866 134.801 115.827 134.851 115.801C134.9 115.774 134.954 115.761 135.009 115.761H148.309C148.364 115.761 148.418 115.774 148.467 115.801C148.517 115.827 148.561 115.866 148.596 115.914C148.629 115.966 148.651 116.025 148.662 116.088C148.673 116.15 148.672 116.215 148.659 116.277L147.371 122.209C147.351 122.304 147.303 122.387 147.235 122.445C147.168 122.502 147.084 122.53 147 122.524ZM136.549 121.718H146.72L147.826 116.616H135.471L136.549 121.718Z" fill="#D1D3D4"/>
<path d="M129.633 97.6416C129.633 97.6416 124.033 101.672 122.052 108.434C120.071 115.197 124.558 128.222 124.558 128.222L134.785 115.455L129.633 97.6416Z" fill="white"/>
<path d="M124.558 128.641H124.488C124.428 128.629 124.372 128.598 124.325 128.553C124.279 128.508 124.243 128.449 124.222 128.384C124.033 127.843 119.742 115.124 121.716 108.313C123.69 101.502 129.206 97.4642 129.416 97.295C129.464 97.2673 129.517 97.2529 129.57 97.2529C129.623 97.2529 129.676 97.2673 129.724 97.295C129.776 97.3152 129.823 97.349 129.862 97.3938C129.901 97.4385 129.93 97.493 129.948 97.5529L135.1 115.318C135.121 115.389 135.125 115.466 135.112 115.54C135.098 115.613 135.067 115.682 135.023 115.737L124.789 128.504C124.76 128.544 124.725 128.576 124.685 128.6C124.646 128.623 124.603 128.637 124.558 128.641ZM129.458 98.2944C128.17 99.3423 124.005 103.058 122.409 108.571C120.764 114.27 123.858 124.781 124.698 127.449L134.393 115.358L129.458 98.2944Z" fill="#D1D3D4"/>
<path d="M153.951 97.6416C153.951 97.6416 159.551 101.672 161.532 108.434C163.513 115.197 159.026 128.222 159.026 128.222L148.799 115.455L153.951 97.6416Z" fill="white"/>
<path d="M159.033 128.641C158.983 128.642 158.933 128.631 158.887 128.607C158.841 128.583 158.8 128.548 158.767 128.504L148.533 115.737C148.489 115.681 148.458 115.613 148.445 115.539C148.431 115.466 148.435 115.389 148.456 115.318L153.608 97.5124C153.626 97.4524 153.655 97.398 153.694 97.3532C153.733 97.3085 153.78 97.2747 153.832 97.2544C153.88 97.2268 153.933 97.2124 153.986 97.2124C154.04 97.2124 154.092 97.2268 154.14 97.2544C154.378 97.4237 159.901 101.462 161.875 108.273C163.849 115.084 159.551 127.803 159.369 128.343C159.346 128.409 159.309 128.467 159.261 128.512C159.213 128.557 159.157 128.587 159.096 128.601L159.033 128.641ZM149.233 115.35L158.928 127.44C159.768 124.772 162.862 114.254 161.217 108.563C159.621 103.05 155.456 99.334 154.175 98.2862L149.233 115.35Z" fill="#D1D3D4"/>
<path d="M150.857 118.421C153.657 110.715 155.407 99.5435 155.407 87.1226C155.4 68.3018 146.391 58.4763 142.961 55.4054C142.591 55.07 142.134 54.8877 141.663 54.8877C141.192 54.8877 140.734 55.07 140.364 55.4054C136.934 58.4441 127.911 68.2535 127.911 87.0904C127.911 99.5113 129.675 110.683 132.468 118.389C132.468 118.389 135.268 120.001 141.659 120.001C148.05 120.001 150.857 118.421 150.857 118.421Z" fill="white"/>
<path d="M141.659 120.452C135.247 120.452 132.426 118.84 132.307 118.792C132.231 118.748 132.171 118.673 132.139 118.582C129.22 110.522 127.554 99.0843 127.554 87.147C127.554 68.3504 136.36 58.4926 140.154 55.1315C140.59 54.7439 141.126 54.5337 141.677 54.5337C142.227 54.5337 142.763 54.7439 143.199 55.1315C146.979 58.4926 155.799 68.3423 155.799 87.147C155.799 99.1165 154.126 110.578 151.214 118.582C151.18 118.671 151.121 118.745 151.046 118.792C150.899 118.856 148.078 120.452 141.659 120.452ZM132.748 118.107C133.336 118.397 136.15 119.622 141.659 119.622C147.168 119.622 149.989 118.397 150.577 118.107C153.419 110.191 155.05 98.907 155.05 87.1228C155.05 68.6889 146.44 59.0488 142.744 55.7602C142.432 55.4901 142.053 55.3441 141.663 55.3441C141.272 55.3441 140.893 55.4901 140.581 55.7602C136.885 59.0569 128.275 68.6567 128.275 87.1228C128.275 98.9311 129.906 110.216 132.748 118.107Z" fill="#D1D3D4"/>
<path d="M140.364 55.4054C136.16 59.2627 132.871 64.2812 130.802 69.9945H152.502C150.439 64.2839 147.158 59.2657 142.961 55.4054C142.591 55.07 142.133 54.8877 141.662 54.8877C141.191 54.8877 140.734 55.07 140.364 55.4054Z" fill="white"/>
<path d="M152.523 70.4458H130.823C130.763 70.4463 130.705 70.4296 130.652 70.3972C130.599 70.3649 130.555 70.3178 130.522 70.2604C130.489 70.2028 130.468 70.1367 130.462 70.0679C130.456 69.9991 130.465 69.9297 130.487 69.8655C132.569 64.0853 135.89 59.0076 140.14 55.1071C140.576 54.7195 141.112 54.5093 141.663 54.5093C142.213 54.5093 142.749 54.7195 143.185 55.1071C147.442 59.0047 150.771 64.0827 152.859 69.8655C152.881 69.9297 152.89 69.9991 152.884 70.0679C152.878 70.1367 152.857 70.2028 152.824 70.2604C152.791 70.3173 152.746 70.364 152.694 70.3963C152.641 70.4286 152.583 70.4456 152.523 70.4458ZM131.348 69.6398H151.97C149.927 64.2203 146.759 59.4621 142.744 55.7842C142.432 55.5141 142.053 55.368 141.663 55.368C141.272 55.368 140.893 55.5141 140.581 55.7842C136.568 59.4567 133.398 64.2057 131.348 69.6156V69.6398Z" fill="#D1D3D4"/>
<path d="M142.198 93.6841C146.829 93.6841 150.584 89.3608 150.584 84.0278C150.584 78.6948 146.829 74.3716 142.198 74.3716C137.567 74.3716 133.812 78.6948 133.812 84.0278C133.812 89.3608 137.567 93.6841 142.198 93.6841Z" fill="white"/>
<path d="M142.198 94.0951C140.467 94.0951 138.776 93.5042 137.337 92.3971C135.898 91.29 134.776 89.7164 134.114 87.8754C133.452 86.0344 133.279 84.0085 133.616 82.0541C133.954 80.0997 134.787 78.3044 136.011 76.8953C137.235 75.4863 138.794 74.5267 140.491 74.1379C142.188 73.7492 143.948 73.9487 145.546 74.7113C147.145 75.4739 148.512 76.7653 149.473 78.4221C150.435 80.079 150.948 82.027 150.948 84.0197C150.946 86.6912 150.024 89.2527 148.383 91.1417C146.743 93.0307 144.518 94.0929 142.198 94.0951ZM142.198 74.7504C140.61 74.7504 139.057 75.2928 137.737 76.309C136.416 77.3252 135.387 78.7696 134.779 80.4594C134.172 82.1492 134.013 84.0085 134.324 85.8021C134.634 87.5957 135.4 89.2431 136.523 90.5357C137.647 91.8283 139.078 92.7082 140.636 93.064C142.194 93.4198 143.808 93.2356 145.275 92.5346C146.742 91.8336 147.996 90.6474 148.877 89.126C149.759 87.6046 150.228 85.8163 150.227 83.9875C150.216 81.5439 149.365 79.2048 147.861 77.4814C146.356 75.758 144.32 74.7906 142.198 74.7907V74.7504Z" fill="#D1D3D4"/>
<path d="M142.198 89.9844C145.055 89.9844 147.371 87.3176 147.371 84.0278C147.371 80.7381 145.055 78.0713 142.198 78.0713C139.341 78.0713 137.025 80.7381 137.025 84.0278C137.025 87.3176 139.341 89.9844 142.198 89.9844Z" fill="white"/>
<path d="M142.198 90.4032C141.103 90.4032 140.032 90.0293 139.122 89.3287C138.211 88.6282 137.502 87.6324 137.082 86.4674C136.663 85.3024 136.554 84.0205 136.767 82.7837C136.981 81.5469 137.508 80.4109 138.283 79.5193C139.057 78.6276 140.044 78.0204 141.118 77.7744C142.192 77.5284 143.305 77.6546 144.317 78.1372C145.329 78.6197 146.193 79.4369 146.802 80.4854C147.41 81.5339 147.735 82.7666 147.735 84.0275C147.735 85.7185 147.152 87.3402 146.113 88.5358C145.075 89.7315 143.667 90.4032 142.198 90.4032ZM142.198 78.4901C141.245 78.4901 140.314 78.8156 139.522 79.4253C138.73 80.035 138.112 80.9015 137.748 81.9153C137.384 82.9291 137.289 84.0445 137.475 85.1204C137.661 86.1964 138.121 87.1845 138.795 87.9597C139.469 88.7349 140.328 89.2625 141.263 89.4755C142.197 89.6886 143.166 89.5776 144.046 89.1566C144.926 88.7357 145.677 88.0237 146.206 87.1106C146.734 86.1976 147.015 85.1247 147.014 84.0275C147.012 82.5582 146.504 81.1497 145.601 80.1115C144.698 79.0733 143.474 78.4901 142.198 78.4901Z" fill="#D1D3D4"/>
<path d="M146.3 83.8825C146.215 83.8818 146.134 83.8466 146.07 83.7832C146.006 83.7197 145.963 83.6321 145.95 83.536C145.894 82.4568 145.471 81.4465 144.773 80.7238C144.074 80.0012 143.157 79.6244 142.219 79.6751C142.173 79.6788 142.127 79.672 142.083 79.6552C142.039 79.6384 141.999 79.6118 141.964 79.577C141.894 79.5067 141.851 79.4072 141.844 79.3003C141.838 79.1934 141.869 79.0879 141.93 79.007C141.991 78.9262 142.077 78.8765 142.17 78.8691C143.281 78.8189 144.367 79.2644 145.2 80.1127C146.033 80.9611 146.55 82.1469 146.643 83.4231C146.655 83.5277 146.631 83.6335 146.576 83.7179C146.521 83.8023 146.44 83.8585 146.349 83.8745L146.3 83.8825Z" fill="#D1D3D4"/>
<path d="M140.378 80.2474C140.324 80.2484 140.271 80.2351 140.222 80.2085C140.174 80.1819 140.131 80.1429 140.098 80.0943C140.043 80.009 140.019 79.9027 140.031 79.7976C140.043 79.6925 140.089 79.5966 140.161 79.5301C140.462 79.2737 140.813 79.105 141.183 79.0384C141.229 79.0316 141.276 79.0355 141.32 79.0497C141.365 79.064 141.407 79.0883 141.443 79.1213C141.48 79.1543 141.51 79.1953 141.533 79.2419C141.555 79.2886 141.57 79.34 141.575 79.393C141.585 79.4985 141.559 79.6043 141.503 79.6884C141.447 79.7725 141.365 79.8284 141.274 79.8444C141.022 79.8866 140.782 79.9971 140.574 80.1668C140.518 80.2174 140.449 80.2457 140.378 80.2474Z" fill="#D1D3D4"/>
<path d="M149.842 115.971C149.805 115.979 149.767 115.979 149.73 115.971C149.642 115.938 149.569 115.865 149.527 115.77C149.485 115.675 149.477 115.565 149.506 115.463C150.953 110.175 152.122 104.792 153.006 99.3424C153.014 99.2901 153.03 99.2401 153.055 99.1954C153.079 99.1507 153.112 99.1121 153.15 99.082C153.187 99.0519 153.23 99.0309 153.275 99.0203C153.32 99.0096 153.367 99.0095 153.412 99.02C153.503 99.0396 153.583 99.0997 153.636 99.1873C153.688 99.2749 153.708 99.3828 153.692 99.4875C152.81 104.98 151.641 110.406 150.192 115.737C150.162 115.813 150.112 115.876 150.049 115.918C149.987 115.96 149.914 115.978 149.842 115.971Z" fill="white"/>
<path d="M142.989 130.971C142.896 130.971 142.807 130.928 142.742 130.853C142.676 130.777 142.639 130.675 142.639 130.568V122.919C142.639 122.812 142.676 122.709 142.742 122.634C142.807 122.558 142.896 122.516 142.989 122.516C143.082 122.516 143.171 122.558 143.237 122.634C143.302 122.709 143.339 122.812 143.339 122.919V130.568C143.339 130.675 143.302 130.777 143.237 130.853C143.171 130.928 143.082 130.971 142.989 130.971Z" fill="#D1D3D4"/>
<path d="M139.405 134.977C139.313 134.975 139.225 134.932 139.159 134.857C139.094 134.781 139.057 134.68 139.055 134.574V126.57C139.057 126.464 139.094 126.362 139.159 126.287C139.225 126.212 139.313 126.169 139.405 126.167C139.498 126.167 139.587 126.209 139.652 126.285C139.718 126.361 139.755 126.463 139.755 126.57V134.574C139.755 134.681 139.718 134.783 139.652 134.859C139.587 134.934 139.498 134.977 139.405 134.977Z" fill="#D1D3D4"/>
<path d="M118.027 154.692H117.964C117.918 154.683 117.875 154.663 117.836 154.633C117.797 154.604 117.764 154.566 117.737 154.522C117.711 154.478 117.693 154.428 117.684 154.376C117.675 154.323 117.675 154.269 117.684 154.217C117.684 154.056 118.384 150.098 121.429 148.268C123.634 146.938 126.455 147.116 129.829 148.8C129.876 148.817 129.919 148.845 129.956 148.883C129.993 148.921 130.022 148.967 130.043 149.018C130.063 149.07 130.074 149.126 130.074 149.182C130.074 149.239 130.064 149.295 130.044 149.347C130.025 149.399 129.996 149.445 129.959 149.483C129.923 149.521 129.88 149.55 129.833 149.568C129.786 149.585 129.737 149.591 129.688 149.586C129.639 149.58 129.592 149.562 129.549 149.534C126.392 147.922 123.774 147.769 121.765 148.978C119.049 150.59 118.384 154.338 118.377 154.378C118.36 154.47 118.316 154.552 118.252 154.609C118.188 154.667 118.108 154.696 118.027 154.692Z" fill="#D1D3D4"/>
<path d="M157.787 149.896C157.738 149.896 157.689 149.883 157.645 149.86C157.6 149.836 157.56 149.802 157.528 149.759C152.551 143.424 148.785 146.003 148.75 146.027C148.711 146.057 148.668 146.076 148.622 146.086C148.576 146.095 148.53 146.094 148.485 146.082C148.439 146.07 148.397 146.047 148.359 146.016C148.322 145.984 148.291 145.944 148.267 145.898C148.22 145.806 148.206 145.696 148.229 145.592C148.251 145.489 148.307 145.399 148.386 145.342C148.554 145.221 152.684 142.392 158.046 149.219C158.079 149.257 158.105 149.301 158.123 149.35C158.14 149.399 158.15 149.452 158.15 149.505C158.15 149.559 158.14 149.611 158.123 149.66C158.105 149.709 158.079 149.754 158.046 149.792C157.974 149.862 157.882 149.899 157.787 149.896Z" fill="#D1D3D4"/>
<path d="M181.86 68.8583H162.022C161.929 68.8583 161.84 68.8158 161.775 68.7402C161.709 68.6647 161.672 68.5622 161.672 68.4553C161.672 68.3484 161.709 68.2459 161.775 68.1703C161.84 68.0947 161.929 68.0522 162.022 68.0522H181.86C181.953 68.0522 182.042 68.0947 182.107 68.1703C182.173 68.2459 182.21 68.3484 182.21 68.4553C182.21 68.5622 182.173 68.6647 182.107 68.7402C182.042 68.8158 181.953 68.8583 181.86 68.8583Z" fill="#D1D3D4"/>
<path d="M181.86 74.0409H162.022C161.929 74.0409 161.84 73.9984 161.775 73.9229C161.709 73.8473 161.672 73.7448 161.672 73.6379C161.674 73.5316 161.711 73.4303 161.776 73.3552C161.842 73.28 161.93 73.2369 162.022 73.2349H181.86C181.953 73.2349 182.042 73.2773 182.107 73.3529C182.173 73.4285 182.21 73.531 182.21 73.6379C182.21 73.7448 182.173 73.8473 182.107 73.9229C182.042 73.9984 181.953 74.0409 181.86 74.0409Z" fill="#D1D3D4"/>
<path d="M181.86 79.2318H162.022C161.93 79.2298 161.842 79.1866 161.776 79.1115C161.711 79.0364 161.674 78.935 161.672 78.8288C161.672 78.7219 161.709 78.6194 161.775 78.5438C161.84 78.4682 161.929 78.4258 162.022 78.4258H181.86C181.953 78.4258 182.042 78.4682 182.107 78.5438C182.173 78.6194 182.21 78.7219 182.21 78.8288C182.21 78.9357 182.173 79.0382 182.107 79.1138C182.042 79.1894 181.953 79.2318 181.86 79.2318Z" fill="#D1D3D4"/>
<path d="M174.825 84.4227H162.022C161.929 84.4227 161.84 84.3803 161.775 84.3047C161.709 84.2291 161.672 84.1266 161.672 84.0197C161.672 83.9128 161.709 83.8103 161.775 83.7347C161.84 83.6592 161.929 83.6167 162.022 83.6167H174.825C174.918 83.6167 175.007 83.6592 175.072 83.7347C175.138 83.8103 175.175 83.9128 175.175 84.0197C175.175 84.1266 175.138 84.2291 175.072 84.3047C175.007 84.3803 174.918 84.4227 174.825 84.4227Z" fill="#D1D3D4"/>
<path d="M145.033 133.945C144.941 133.943 144.853 133.9 144.787 133.825C144.722 133.75 144.685 133.648 144.683 133.542V130.213C144.683 130.106 144.72 130.004 144.785 129.928C144.851 129.853 144.94 129.81 145.033 129.81C145.126 129.81 145.215 129.853 145.28 129.928C145.346 130.004 145.383 130.106 145.383 130.213V133.542C145.383 133.649 145.346 133.751 145.28 133.827C145.215 133.903 145.126 133.945 145.033 133.945Z" fill="#D1D3D4"/>
<path d="M122.822 76.6362H94.549C94.4562 76.6362 94.3672 76.5938 94.3015 76.5182C94.2359 76.4426 94.199 76.3401 94.199 76.2332V57.1384C94.2008 57.0321 94.2383 56.9308 94.3035 56.8557C94.3688 56.7805 94.4568 56.7374 94.549 56.7354C94.6419 56.7354 94.7309 56.7778 94.7965 56.8534C94.8622 56.929 94.899 57.0315 94.899 57.1384V75.8302H122.822C122.915 75.8302 123.004 75.8726 123.07 75.9482C123.135 76.0238 123.172 76.1263 123.172 76.2332C123.172 76.3401 123.135 76.4426 123.07 76.5182C123.004 76.5938 122.915 76.6362 122.822 76.6362Z" fill="#D1D3D4"/>
<path d="M97.622 73.6945C97.5898 73.7028 97.5563 73.7028 97.524 73.6945C97.4349 73.6645 97.3598 73.5951 97.3152 73.5013C97.2705 73.4076 97.26 73.2973 97.286 73.1947C97.363 72.9126 99.162 66.2709 103.411 64.9813C105.784 64.2558 106.421 65.618 107.037 66.9238C107.653 68.2296 108.15 69.2935 110.075 69.3903H110.201C114.191 69.3903 117.327 59.2101 117.355 59.1053C117.386 59.0038 117.45 58.9204 117.534 58.8735C117.576 58.8503 117.621 58.8368 117.667 58.8337C117.713 58.8306 117.759 58.838 117.803 58.8554C117.847 58.8729 117.887 58.9001 117.921 58.9355C117.956 58.9709 117.984 59.0137 118.004 59.0616C118.024 59.1095 118.036 59.1615 118.039 59.2147C118.042 59.2678 118.035 59.321 118.02 59.3713C117.88 59.8227 114.681 70.1963 110.194 70.1963H110.047C107.723 70.0754 107.002 68.5842 106.421 67.3107C105.84 66.0372 105.427 65.1989 103.621 65.7551C99.743 66.9319 98.021 73.364 97.986 73.4285C97.9598 73.5132 97.9098 73.5854 97.8438 73.6336C97.7779 73.6818 97.6998 73.7033 97.622 73.6945Z" fill="#D1D3D4"/>
<path d="M170.149 135.775C168.936 135.775 167.751 135.361 166.742 134.585C165.734 133.809 164.948 132.706 164.484 131.416C164.02 130.126 163.898 128.706 164.135 127.337C164.371 125.967 164.955 124.709 165.813 123.721C166.671 122.734 167.763 122.061 168.953 121.789C170.142 121.517 171.375 121.656 172.496 122.191C173.616 122.725 174.574 123.63 175.248 124.791C175.921 125.953 176.281 127.318 176.281 128.714C176.279 130.586 175.632 132.381 174.483 133.705C173.333 135.028 171.775 135.773 170.149 135.775ZM170.149 122.459C169.075 122.459 168.024 122.826 167.131 123.513C166.238 124.201 165.542 125.178 165.13 126.321C164.719 127.463 164.612 128.721 164.821 129.934C165.031 131.148 165.548 132.262 166.308 133.137C167.068 134.012 168.036 134.607 169.089 134.849C170.143 135.09 171.235 134.966 172.228 134.493C173.22 134.019 174.069 133.218 174.666 132.189C175.262 131.161 175.581 129.951 175.581 128.714C175.579 127.056 175.006 125.466 173.988 124.294C172.97 123.121 171.589 122.461 170.149 122.459Z" fill="#D1D3D4"/>
<path d="M174.916 132.881C174.846 132.881 174.777 132.855 174.72 132.809L169.953 129.045C169.905 129.009 169.866 128.96 169.839 128.902C169.812 128.844 169.798 128.78 169.799 128.714V122.056C169.801 121.95 169.838 121.849 169.903 121.774C169.969 121.699 170.057 121.655 170.149 121.653C170.242 121.653 170.331 121.696 170.396 121.771C170.462 121.847 170.499 121.949 170.499 122.056V128.505L175.119 132.148C175.18 132.197 175.226 132.268 175.25 132.349C175.274 132.431 175.275 132.519 175.252 132.601C175.229 132.683 175.185 132.754 175.124 132.805C175.064 132.855 174.991 132.882 174.916 132.881Z" fill="#D1D3D4"/>
<path d="M164.731 130.535C164.651 130.536 164.574 130.505 164.511 130.448C164.449 130.39 164.406 130.31 164.388 130.221C164.378 130.17 164.377 130.116 164.384 130.064C164.392 130.012 164.409 129.963 164.434 129.919C164.459 129.874 164.491 129.836 164.529 129.806C164.567 129.777 164.609 129.756 164.654 129.745L170.072 128.319C170.118 128.307 170.165 128.306 170.212 128.315C170.258 128.325 170.302 128.345 170.342 128.374C170.382 128.403 170.416 128.441 170.443 128.486C170.47 128.53 170.489 128.58 170.499 128.633C170.509 128.686 170.51 128.741 170.502 128.794C170.494 128.847 170.476 128.898 170.451 128.944C170.426 128.99 170.393 129.029 170.354 129.06C170.315 129.091 170.272 129.113 170.226 129.125L164.808 130.543L164.731 130.535Z" fill="#D1D3D4"/>
<path d="M115.29 129.826H107.016C106.923 129.826 106.834 129.784 106.769 129.708C106.703 129.632 106.666 129.53 106.666 129.423C106.666 129.316 106.703 129.214 106.769 129.138C106.834 129.062 106.923 129.02 107.016 129.02H115.29C115.383 129.02 115.472 129.062 115.537 129.138C115.603 129.214 115.64 129.316 115.64 129.423C115.64 129.53 115.603 129.632 115.537 129.708C115.472 129.784 115.383 129.826 115.29 129.826Z" fill="#D1D3D4"/>
<path d="M112.273 133.945H107.016C106.923 133.945 106.834 133.903 106.769 133.827C106.703 133.752 106.666 133.649 106.666 133.542C106.666 133.435 106.703 133.333 106.769 133.257C106.834 133.182 106.923 133.139 107.016 133.139H112.273C112.366 133.139 112.455 133.182 112.52 133.257C112.586 133.333 112.623 133.435 112.623 133.542C112.621 133.648 112.584 133.75 112.519 133.825C112.453 133.9 112.365 133.943 112.273 133.945Z" fill="#D1D3D4"/>
<path d="M196.196 76.2818C195.763 75.9154 195.421 75.4251 195.204 74.8596C194.987 74.294 194.901 73.6728 194.957 73.0577C194.411 73.1952 193.84 73.1212 193.334 72.8472C192.827 72.5733 192.414 72.1146 192.157 71.5423C191.67 70.3658 191.534 69.0365 191.772 67.7621C190.92 67.2868 190.208 66.5337 189.724 65.5962C189.241 64.6588 189.007 63.5784 189.053 62.4894C189.098 61.4004 189.421 60.3508 189.98 59.4711C190.54 58.5914 191.311 57.9205 192.199 57.5416C192.048 57.463 191.916 57.3436 191.813 57.1934C191.711 57.0432 191.641 56.8668 191.611 56.6792C190.981 54.2611 192.227 51.5528 194.145 50.3518C195.128 49.7988 196.202 49.4934 197.296 49.4559C198.389 49.4184 199.477 49.6496 200.487 50.1342C200.43 49.8136 200.454 49.4809 200.555 49.1753C200.657 48.8697 200.833 48.6039 201.061 48.4093C201.523 48.0291 202.055 47.7755 202.615 47.6677C205.429 46.9659 208.359 47.2093 211.057 48.369C212.338 48.9252 213.745 50.0455 213.64 51.5931C214.477 51.4287 215.338 51.5603 216.108 51.9705C216.879 52.3806 217.524 53.0501 217.957 53.8907C218.391 54.7312 218.593 55.7034 218.537 56.6789C218.481 57.6544 218.17 58.5875 217.644 59.3552C218.276 60.0518 218.732 60.9315 218.966 61.9018C219.2 62.8721 219.203 63.897 218.973 64.8688C218.744 65.8406 218.292 66.7232 217.663 67.4238C217.035 68.1245 216.255 68.6172 215.404 68.8502C215.495 68.4875 215.978 68.8099 216.104 69.1565C216.937 71.5746 215.404 74.4037 213.451 75.7579C211.498 77.112 208.656 77.3699 207.025 75.4838C207.034 76.1088 206.858 76.7188 206.528 77.2148C206.198 77.7108 205.731 78.0637 205.205 78.2163C204.143 78.4915 203.039 78.4554 201.992 78.1115C200.942 77.8616 200.004 77.2087 198.989 76.9427C197.974 76.6767 197.113 77.0395 196.196 76.2818Z" fill="white"/>
<path d="M203.959 78.7804C203.263 78.7594 202.572 78.6568 201.894 78.4741C201.338 78.3208 200.795 78.1132 200.27 77.8535C199.816 77.6295 199.348 77.4462 198.87 77.3054C198.559 77.2355 198.242 77.1977 197.925 77.1925C197.246 77.235 196.572 77.0291 196 76.6041C195.579 76.2474 195.233 75.7846 194.991 75.251C194.748 74.7174 194.615 74.1271 194.6 73.5251C194.039 73.5551 193.483 73.4004 192.995 73.0792C192.508 72.758 192.111 72.2836 191.849 71.7115C191.343 70.5542 191.178 69.2383 191.38 67.9635C190.553 67.4417 189.865 66.6699 189.391 65.7312C188.917 64.7925 188.675 63.7227 188.69 62.637C188.705 61.5513 188.977 60.4909 189.477 59.5702C189.977 58.6496 190.686 57.9035 191.527 57.4126C191.412 57.2145 191.325 56.9969 191.268 56.7677C190.624 54.3497 191.807 51.3351 193.97 49.9729C194.913 49.4285 195.941 49.1086 196.993 49.0325C198.046 48.9563 199.101 49.1254 200.095 49.5296C200.18 48.9575 200.441 48.4396 200.83 48.0707C201.333 47.6499 201.916 47.3736 202.531 47.2647C205.41 46.5448 208.408 46.791 211.169 47.974C212.828 48.6913 213.843 49.8601 213.969 51.1578C214.821 51.0881 215.673 51.2953 216.428 51.7556C217.183 52.2159 217.811 52.911 218.239 53.7617C218.668 54.6124 218.881 55.5846 218.854 56.5677C218.827 57.5508 218.56 58.5054 218.085 59.3228C218.651 60.0244 219.063 60.8719 219.286 61.7943C219.509 62.7167 219.537 63.6873 219.368 64.6248C219.199 65.5623 218.837 66.4395 218.313 67.1831C217.789 67.9266 217.118 68.5148 216.356 68.8985C216.375 68.9371 216.392 68.9776 216.405 69.0194C217.329 71.7357 215.656 74.7019 213.605 76.1044C211.757 77.3779 209.118 77.7809 207.305 76.3059C207.162 76.8542 206.902 77.3524 206.549 77.7551C206.195 78.1578 205.76 78.4521 205.282 78.6111C204.851 78.7435 204.405 78.8005 203.959 78.7804ZM194.957 72.5982C195.037 72.5951 195.114 72.6268 195.174 72.6868C195.219 72.7292 195.254 72.7839 195.276 72.8458C195.298 72.9077 195.306 72.975 195.3 73.0415C195.251 73.5897 195.326 74.1433 195.519 74.6478C195.711 75.1523 196.015 75.5904 196.399 75.919C196.865 76.2638 197.414 76.4277 197.967 76.3865C198.329 76.3909 198.691 76.4368 199.045 76.5235C199.552 76.6708 200.049 76.8648 200.529 77.1039C201.015 77.3477 201.519 77.5419 202.034 77.6842C203.023 78.01 204.067 78.0488 205.072 77.797C205.512 77.6749 205.905 77.3892 206.189 76.9841C206.474 76.5791 206.635 76.0772 206.647 75.5563C206.639 75.4729 206.654 75.3889 206.689 75.3154C206.724 75.2419 206.778 75.1825 206.843 75.1452C206.909 75.1093 206.982 75.0978 207.054 75.1123C207.125 75.1267 207.191 75.1664 207.242 75.2258C208.789 77.0071 211.442 76.6767 213.248 75.4354C215.054 74.1941 216.503 71.5503 215.747 69.3257C215.728 69.28 215.702 69.2389 215.67 69.2048L215.467 69.2692C215.407 69.2861 215.345 69.2845 215.286 69.2647C215.227 69.2449 215.174 69.2075 215.131 69.1564C215.089 69.1042 215.059 69.0405 215.045 68.9714C215.03 68.9023 215.031 68.8301 215.047 68.7615C215.077 68.6361 215.14 68.5249 215.228 68.4437C215.316 68.3626 215.424 68.3158 215.537 68.3101C215.6 68.2983 215.663 68.2983 215.726 68.3101C216.417 68.0208 217.038 67.5482 217.541 66.9307C218.043 66.3131 218.412 65.5679 218.617 64.7555C218.818 63.8521 218.809 62.904 218.591 62.0058C218.374 61.1076 217.955 60.2909 217.378 59.6372C217.318 59.5665 217.281 59.4734 217.275 59.3746C217.268 59.2757 217.292 59.1774 217.343 59.0972C217.815 58.3914 218.092 57.5387 218.139 56.6495C218.185 55.7602 217.999 54.8754 217.604 54.1095C217.209 53.3436 216.623 52.732 215.923 52.3537C215.222 51.9755 214.439 51.8481 213.675 51.988C213.623 51.9964 213.57 51.9914 213.52 51.9735C213.47 51.9556 213.424 51.9251 213.385 51.8843C213.346 51.8435 213.316 51.7934 213.296 51.7374C213.276 51.6815 213.266 51.6212 213.269 51.5608C213.353 50.255 212.107 49.2314 210.91 48.7155C208.277 47.585 205.418 47.3473 202.671 48.0304C202.167 48.1258 201.688 48.3518 201.271 48.6913C201.099 48.8388 200.966 49.0379 200.886 49.2667C200.805 49.4956 200.781 49.7455 200.816 49.989C200.834 50.06 200.835 50.1355 200.817 50.2067C200.8 50.278 200.766 50.3422 200.718 50.392C200.671 50.4425 200.613 50.4773 200.55 50.4929C200.487 50.5085 200.422 50.5043 200.361 50.4807C199.398 50.0145 198.36 49.7898 197.316 49.8218C196.272 49.8538 195.246 50.1416 194.306 50.6661C192.423 51.851 191.387 54.4303 191.94 56.5259C191.989 56.7194 192.108 57.0579 192.29 57.1224C192.361 57.146 192.423 57.1945 192.468 57.261C192.513 57.3275 192.539 57.4087 192.542 57.4932C192.543 57.5782 192.521 57.6615 192.48 57.7321C192.439 57.8026 192.38 57.857 192.311 57.8881C191.488 58.2402 190.773 58.8629 190.255 59.679C189.736 60.4952 189.438 61.4686 189.396 62.4785C189.354 63.4883 189.571 64.4901 190.02 65.3592C190.468 66.2283 191.129 66.9265 191.919 67.367C191.988 67.4034 192.044 67.4653 192.078 67.5428C192.112 67.6204 192.123 67.7089 192.108 67.7942C191.878 68.9803 192.002 70.2209 192.458 71.3166C192.677 71.8098 193.03 72.2065 193.464 72.4454C193.898 72.6843 194.388 72.7521 194.859 72.6385C194.891 72.6293 194.924 72.6266 194.957 72.6304V72.5982Z" fill="#231F20"/>
<path d="M191.947 85.7607C191.947 85.7607 179.991 110.457 178.388 114.778C176.785 119.098 183.883 129.133 186.627 126.699C189.371 124.265 191.947 85.7607 191.947 85.7607Z" fill="#68E1FD"/>
<path d="M214.858 214.564C214.858 214.564 215.327 218.191 214.62 219.586C213.659 221.567 213.094 223.77 212.968 226.034C213.526 226.776 214.213 227.375 214.985 227.792C215.756 228.209 216.596 228.434 217.448 228.452C220.283 228.452 223.111 225.937 223.426 224.728C223.741 223.519 221.144 210.679 221.144 210.679L214.858 214.564Z" fill="white"/>
<path d="M217.448 228.798C216.546 228.783 215.658 228.546 214.842 228.104C214.026 227.662 213.302 227.025 212.716 226.235C212.69 226.198 212.671 226.156 212.661 226.11C212.65 226.064 212.647 226.016 212.653 225.969C212.78 223.66 213.359 221.414 214.347 219.4C214.879 218.352 214.669 215.588 214.543 214.62C214.531 214.546 214.54 214.469 214.569 214.4C214.598 214.332 214.646 214.277 214.704 214.242L221.004 210.332C221.049 210.307 221.098 210.293 221.148 210.293C221.197 210.293 221.246 210.307 221.291 210.332C221.335 210.357 221.374 210.392 221.405 210.435C221.436 210.478 221.46 210.528 221.473 210.582C221.907 212.75 224.07 223.583 223.748 224.825C223.426 226.066 220.43 228.798 217.448 228.798ZM213.304 225.889C213.831 226.555 214.47 227.091 215.182 227.464C215.895 227.837 216.666 228.039 217.448 228.057C220.157 228.057 222.859 225.639 223.118 224.599C223.3 223.89 222.145 217.264 220.927 211.203L215.201 214.765C215.299 215.644 215.544 218.489 214.893 219.771C213.978 221.65 213.436 223.74 213.304 225.889Z" fill="#231F20"/>
<path d="M195.37 126.538L208.999 131.003L212.156 84.3662C212.156 84.3662 200.872 81.1985 198.156 82.6896C195.44 84.1808 195.37 126.538 195.37 126.538Z" fill="#231F20"/>
<path d="M208.999 131.406H208.901L195.3 126.924C195.226 126.902 195.161 126.851 195.114 126.781C195.067 126.711 195.041 126.626 195.041 126.538C195.041 119.42 195.237 83.818 198.016 82.3269C200.795 80.8357 211.792 83.8422 212.261 83.9389C212.342 83.9632 212.412 84.0191 212.461 84.0972C212.51 84.1752 212.533 84.2704 212.527 84.3661L209.37 131.003C209.366 131.062 209.35 131.119 209.325 131.171C209.299 131.222 209.265 131.267 209.223 131.301C209.161 131.365 209.082 131.401 208.999 131.406ZM195.699 126.231L208.663 130.479L211.764 84.6724C208.446 83.7697 200.354 81.9158 198.275 83.0603C196.7 83.947 195.755 105.903 195.72 126.231H195.699Z" fill="#231F20"/>
<path d="M199.913 206.173V217.087L195.51 218.578L195.615 216.346L193.627 218.707C193.627 218.707 181.797 221.222 181.86 219.352C181.923 217.482 183.12 216.466 184.611 215.54C186.214 214.54 190.428 211.727 190.428 211.727L191.058 203.723" fill="white"/>
<path d="M184.051 220.4C183.269 220.499 182.479 220.337 181.776 219.932C181.699 219.862 181.638 219.772 181.597 219.67C181.555 219.568 181.535 219.456 181.538 219.344C181.608 217.272 182.987 216.12 184.457 215.217C185.927 214.314 189.357 211.993 190.127 211.501L190.736 203.683C190.746 203.586 190.789 203.498 190.854 203.437C190.919 203.375 191.002 203.345 191.086 203.352C191.128 203.356 191.169 203.37 191.206 203.392C191.244 203.415 191.277 203.446 191.304 203.484C191.33 203.521 191.35 203.565 191.362 203.611C191.374 203.658 191.378 203.707 191.373 203.755L190.75 211.775C190.744 211.833 190.726 211.889 190.698 211.938C190.67 211.987 190.633 212.028 190.589 212.057C190.547 212.057 186.389 214.886 184.765 215.878C183.141 216.869 182.231 217.78 182.182 219.384C182.518 220.061 187.677 219.602 193.466 218.376L195.384 216.103C195.431 216.05 195.491 216.014 195.555 216C195.62 215.986 195.687 215.994 195.748 216.023C195.807 216.053 195.856 216.104 195.89 216.167C195.923 216.23 195.94 216.303 195.937 216.377L195.853 218.094L199.598 216.829V206.189C199.597 206.141 199.604 206.093 199.62 206.048C199.635 206.003 199.658 205.962 199.688 205.928C199.717 205.893 199.752 205.866 199.791 205.847C199.829 205.828 199.871 205.818 199.913 205.819C199.998 205.819 200.08 205.858 200.141 205.927C200.201 205.997 200.235 206.091 200.235 206.189V217.103C200.236 217.183 200.214 217.261 200.172 217.326C200.13 217.39 200.071 217.436 200.004 217.458L195.601 218.949C195.552 218.964 195.501 218.966 195.451 218.955C195.401 218.944 195.354 218.92 195.314 218.884C195.274 218.848 195.242 218.802 195.221 218.748C195.2 218.695 195.191 218.636 195.195 218.578L195.251 217.321L193.851 218.973C193.804 219.029 193.743 219.066 193.676 219.078C190.5 219.787 187.283 220.229 184.051 220.4Z" fill="#231F20"/>
<path d="M221.053 130.938L224.7 213.814C224.7 213.814 224.35 216.845 218.792 217.224C213.234 217.603 213.794 216.055 213.794 216.055L205.1 155.264L201.537 209.268L189.567 210.163L191.947 125.046L221.053 130.938Z" fill="#231F20"/>
<path d="M217.161 217.683C215.159 217.683 213.976 217.353 213.57 216.692C213.449 216.505 213.396 216.27 213.423 216.039L205.247 158.65L201.908 209.293C201.901 209.39 201.864 209.481 201.804 209.549C201.743 209.617 201.664 209.658 201.579 209.663L189.588 210.542C189.539 210.546 189.49 210.538 189.444 210.519C189.399 210.499 189.357 210.469 189.322 210.429C189.287 210.391 189.259 210.345 189.241 210.293C189.223 210.242 189.215 210.186 189.217 210.131L191.597 125.014C191.598 124.956 191.61 124.899 191.633 124.846C191.655 124.794 191.687 124.748 191.726 124.711C191.765 124.674 191.811 124.648 191.86 124.633C191.909 124.619 191.96 124.617 192.01 124.627L221.116 130.543C221.195 130.558 221.266 130.604 221.319 130.674C221.371 130.743 221.401 130.831 221.403 130.922L225.029 213.798C225.029 214.008 224.574 217.232 218.799 217.619C218.204 217.659 217.658 217.683 217.161 217.683ZM214.116 216.2L214.179 216.273C214.396 216.515 215.278 217.079 218.757 216.821C223.902 216.474 224.357 213.79 224.357 213.758L220.738 131.277L192.283 125.53L189.924 209.736L201.229 208.93L204.771 155.281C204.779 155.183 204.818 155.091 204.879 155.023C204.941 154.955 205.022 154.915 205.107 154.91C205.191 154.904 205.275 154.935 205.34 154.996C205.406 155.057 205.45 155.144 205.464 155.24L214.13 216.031C214.148 216.105 214.148 216.183 214.13 216.257L214.116 216.2Z" fill="#231F20"/>
<path d="M209.699 79.9087C209.699 79.9087 205.03 136.194 207.123 139.418C209.216 142.642 222.131 145.197 223.097 138.942C224.686 128.657 223.797 91.709 221.935 88.235C214.417 80.5374 209.699 79.9087 209.699 79.9087Z" fill="#68E1FD"/>
<path d="M191.947 85.7606C191.947 85.7606 185.269 136.879 186.529 138.362C187.789 139.845 194.635 141.852 196.525 140.361C198.415 138.87 200.998 80.1748 200.998 80.1748C197.591 81.0392 194.459 82.9725 191.947 85.7606Z" fill="#68E1FD"/>
<path d="M201.362 79.1592L200.788 84.616C201.099 85.6955 201.753 86.5996 202.619 87.1468C203.485 87.694 204.499 87.8438 205.457 87.5661C209.069 86.6875 209.111 84.2775 209.111 84.2775C209.111 84.2775 209.601 71.9775 209.601 71.9452C209.514 71.6607 209.397 71.3898 209.251 71.1392C208.712 69.7367 207.942 67.8103 208.173 66.2547C208.367 64.9722 208.923 63.7993 209.755 62.9177C209.327 63.1372 208.86 63.24 208.392 63.218C207.924 63.196 207.466 63.0498 207.055 62.7908C206.644 62.5319 206.29 62.1671 206.022 61.725C205.753 61.2828 205.576 60.7752 205.506 60.2417C205.506 60.7979 205.079 61.2089 204.673 61.5152C204.073 62.0522 203.332 62.3366 202.573 62.3213C201.579 62.1923 200.837 61.217 199.906 60.7979C200.05 61.1655 200.074 61.5806 199.974 61.967C199.873 62.3534 199.656 62.6852 199.36 62.9016C198.753 63.3155 198.029 63.4371 197.344 63.2401C197.799 63.3449 197.414 69.1725 197.407 69.6884C197.343 71.4948 197.38 73.304 197.519 75.1049C197.855 78.3209 201.362 79.1592 201.362 79.1592Z" fill="white"/>
<path d="M204.4 88.0982C201.397 88.0982 200.445 84.7774 200.438 84.7371C200.428 84.6813 200.428 84.6236 200.438 84.5678L200.97 79.4656C200.053 79.1593 197.47 78.047 197.162 75.0647C197.028 73.3848 196.988 71.6967 197.043 70.0109V69.5918C197.043 69.5112 197.043 69.2855 197.043 68.9631C197.246 65.0538 197.183 63.8287 197.085 63.5063C197.033 63.4614 196.994 63.4003 196.971 63.3302C196.949 63.2601 196.945 63.1841 196.959 63.1113C196.966 63.0592 196.983 63.0095 197.008 62.9651C197.033 62.9207 197.065 62.8826 197.103 62.8532C197.141 62.8237 197.184 62.8035 197.229 62.7939C197.274 62.7842 197.32 62.7852 197.365 62.7969C197.96 62.9638 198.587 62.8659 199.122 62.5229C199.349 62.3579 199.518 62.1048 199.598 61.8092C199.677 61.5136 199.662 61.195 199.556 60.9108C199.521 60.8382 199.505 60.7548 199.513 60.6719C199.52 60.5891 199.55 60.5109 199.597 60.4481C199.645 60.3854 199.708 60.3412 199.779 60.3215C199.849 60.3019 199.923 60.3079 199.99 60.3386C200.384 60.5353 200.759 60.7784 201.11 61.064C201.538 61.4581 202.038 61.7339 202.573 61.87C203.248 61.876 203.905 61.6236 204.442 61.1526C204.897 60.8141 205.142 60.5078 205.142 60.2177C205.143 60.1154 205.178 60.0174 205.239 59.9429C205.3 59.8684 205.382 59.8226 205.471 59.8146C205.559 59.8054 205.646 59.8354 205.715 59.8984C205.784 59.9614 205.83 60.0527 205.842 60.1532C205.899 60.6295 206.05 61.0842 206.286 61.4813C206.521 61.8785 206.833 62.2073 207.198 62.4417C207.562 62.6762 207.969 62.8099 208.386 62.8324C208.803 62.8549 209.219 62.7655 209.601 62.5713C209.676 62.5308 209.762 62.5232 209.842 62.5499C209.921 62.5766 209.99 62.6357 210.035 62.7163C210.08 62.7961 210.099 62.8916 210.089 62.9861C210.079 63.0805 210.04 63.1677 209.979 63.2322C209.2 64.0511 208.68 65.146 208.502 66.3435C208.299 67.7218 208.992 69.5676 209.496 70.8411L209.559 70.9943C209.588 71.0664 209.621 71.1364 209.657 71.2038C209.808 71.4406 209.905 71.7181 209.937 72.0099C209.937 72.0099 209.937 72.0099 209.447 84.3663C209.447 84.4711 209.356 87.1068 205.513 88.0257C205.145 88.0943 204.772 88.1186 204.4 88.0982ZM201.124 84.5678C201.408 85.5328 202 86.3379 202.779 86.8209C203.558 87.304 204.468 87.4292 205.324 87.1713C208.586 86.3653 208.698 84.3502 208.705 84.2615C208.712 84.1728 209.188 72.1066 209.195 71.9293C209.195 71.9293 209.076 71.6874 209.02 71.5746C208.964 71.4801 208.915 71.3804 208.873 71.2764L208.817 71.1313C208.278 69.7127 207.536 67.7863 207.774 66.1661C207.908 65.2354 208.227 64.3527 208.705 63.5869C208.054 63.632 207.405 63.4703 206.829 63.1194C206.193 62.7039 205.687 62.0697 205.38 61.3058C205.206 61.5047 205.014 61.6804 204.806 61.8297C204.133 62.3937 203.314 62.6779 202.482 62.6357C201.841 62.4983 201.236 62.1891 200.718 61.733L200.34 61.4509C200.32 61.7877 200.234 62.1148 200.088 62.4079C199.943 62.701 199.742 62.9525 199.5 63.1435C198.997 63.5144 198.401 63.6843 197.806 63.6272C197.898 65.4081 197.873 67.1947 197.729 68.9711C197.729 69.2774 197.729 69.487 197.729 69.5676V69.9787C197.678 71.6323 197.717 73.288 197.848 74.9358C198.149 77.91 201.348 78.716 201.411 78.7241C201.496 78.7471 201.57 78.8048 201.62 78.8864C201.67 78.968 201.693 79.0679 201.684 79.1674L201.124 84.5678Z" fill="#231F20"/>
<path d="M200.704 69.1484C200.704 69.1484 198.604 72.3 199.045 72.9126C199.486 73.5252 200.725 73.2511 200.725 73.2511" fill="white"/>
<path d="M200.109 73.7103C199.868 73.7305 199.626 73.6898 199.399 73.5909C199.173 73.4921 198.969 73.3375 198.8 73.138C198.324 72.4287 199.444 70.4378 200.459 68.8902C200.515 68.8047 200.598 68.7482 200.689 68.7331C200.781 68.7179 200.875 68.7455 200.949 68.8096C200.987 68.8407 201.018 68.8801 201.042 68.9257C201.066 68.9712 201.082 69.0218 201.088 69.0745C201.095 69.1272 201.092 69.1809 201.08 69.2323C201.068 69.2838 201.047 69.3319 201.019 69.3738C200.088 70.8005 199.318 72.3481 199.374 72.6947C199.542 72.9284 200.263 72.9284 200.69 72.8397C200.735 72.8291 200.781 72.8289 200.827 72.8389C200.872 72.849 200.915 72.8692 200.953 72.8984C200.991 72.9276 201.024 72.9652 201.05 73.0091C201.076 73.0529 201.094 73.1022 201.103 73.1541C201.112 73.2065 201.112 73.2605 201.103 73.3129C201.094 73.3654 201.076 73.4152 201.05 73.4594C201.023 73.5037 200.99 73.5415 200.951 73.5707C200.912 73.6 200.869 73.62 200.823 73.6297C200.588 73.6818 200.349 73.7088 200.109 73.7103Z" fill="#231F20"/>
<path d="M201.362 79.1591C201.362 79.1591 204.162 79.1591 205.443 78.2886C205.443 78.2886 204.351 82.0527 201.327 82.9797L201.362 79.1591Z" fill="#231F20"/>
<path d="M201.327 83.3829C201.249 83.3847 201.173 83.3563 201.11 83.3023C201.067 83.2648 201.032 83.216 201.009 83.1598C200.986 83.1037 200.975 83.042 200.977 82.9799L201.012 79.1593C201.012 79.0525 201.049 78.9499 201.115 78.8744C201.18 78.7988 201.269 78.7563 201.362 78.7563C201.509 78.7563 204.085 78.7563 205.261 77.9503C205.32 77.9035 205.389 77.8784 205.461 77.8784C205.532 77.8784 205.601 77.9035 205.66 77.9503C205.714 78.0035 205.754 78.0738 205.774 78.1526C205.794 78.2314 205.793 78.3152 205.772 78.3936C205.723 78.5548 204.582 82.3673 201.411 83.3507L201.327 83.3829ZM201.705 79.5624V82.4318C203.049 81.767 204.144 80.5725 204.792 79.0626C203.786 79.3827 202.749 79.5587 201.705 79.5865V79.5624Z" fill="#231F20"/>
<path d="M224.77 125.401H224.735C224.28 125.337 213.64 123.918 210.259 121.734C210.218 121.709 210.183 121.674 210.154 121.633C210.125 121.591 210.104 121.544 210.091 121.492C210.079 121.441 210.076 121.388 210.081 121.335C210.087 121.282 210.103 121.232 210.126 121.186C210.173 121.095 210.249 121.028 210.337 120.999C210.426 120.971 210.521 120.983 210.602 121.033C213.857 123.136 224.707 124.579 224.812 124.595C224.905 124.602 224.992 124.65 225.053 124.73C225.115 124.811 225.147 124.916 225.141 125.023C225.135 125.129 225.093 125.229 225.024 125.3C224.954 125.371 224.863 125.408 224.77 125.401Z" fill="#231F20"/>
<path d="M221.935 88.2354C221.935 88.2354 243.047 122.895 234.003 131.858C225.715 140.055 207.403 126.441 207.403 126.441L208.509 114.931C208.509 114.931 223.006 124.225 223.244 119.896C223.587 113.529 216.482 104.831 216.482 104.831C215.843 103.421 215.457 101.878 215.347 100.292C215.236 98.7069 215.403 97.112 215.838 95.6025C216.251 93.8928 217.024 92.3265 218.087 91.0417C219.15 89.757 220.472 88.7932 221.935 88.2354Z" fill="#68E1FD"/>
<path d="M189 116.172C188.954 116.164 188.911 116.146 188.871 116.118C188.832 116.091 188.798 116.055 188.77 116.012C188.743 115.97 188.723 115.921 188.712 115.87C188.701 115.818 188.699 115.765 188.706 115.712C189.357 110.683 192.486 91.4751 192.521 91.2817C192.54 91.1781 192.592 91.0868 192.668 91.0268C192.743 90.9667 192.836 90.9426 192.927 90.9593C193.018 90.9807 193.099 91.0425 193.151 91.1314C193.203 91.2202 193.224 91.3292 193.207 91.4348C193.172 91.6283 190.043 110.78 189.399 115.833C189.383 115.938 189.333 116.032 189.259 116.095C189.184 116.158 189.092 116.186 189 116.172Z" fill="#231F20"/>
<path d="M186.053 131.366H207.102C207.494 131.357 207.88 131.249 208.231 131.048C208.582 130.847 208.89 130.558 209.132 130.204C209.375 129.849 209.546 129.436 209.633 128.996C209.72 128.556 209.721 128.099 209.636 127.658L205.163 102.744C205.035 102.029 204.7 101.385 204.213 100.918C203.726 100.451 203.116 100.188 202.482 100.172H181.741C181.325 100.18 180.916 100.294 180.544 100.506C180.171 100.719 179.845 101.024 179.587 101.4C179.33 101.776 179.148 102.213 179.056 102.679C178.964 103.146 178.963 103.631 179.053 104.098L183.519 128.931C183.632 129.612 183.946 130.226 184.408 130.67C184.87 131.114 185.451 131.359 186.053 131.366Z" fill="white"/>
<path d="M207.102 131.729H186.053C185.379 131.718 184.729 131.442 184.21 130.946C183.692 130.45 183.337 129.765 183.204 129.004L178.745 104.17C178.646 103.636 178.653 103.082 178.764 102.551C178.876 102.019 179.089 101.523 179.389 101.099C179.672 100.695 180.031 100.369 180.438 100.144C180.845 99.9199 181.29 99.8028 181.741 99.8018H202.482C203.191 99.8135 203.875 100.105 204.42 100.627C204.966 101.149 205.339 101.871 205.478 102.671L209.951 127.578C210.045 128.085 210.039 128.611 209.933 129.116C209.828 129.621 209.626 130.092 209.342 130.495C209.071 130.879 208.73 131.189 208.343 131.402C207.955 131.615 207.531 131.727 207.102 131.729ZM181.741 100.543C181.385 100.543 181.034 100.635 180.713 100.812C180.391 100.99 180.109 101.247 179.886 101.567C179.651 101.902 179.483 102.292 179.394 102.71C179.304 103.128 179.296 103.563 179.368 103.985L183.834 128.827C183.935 129.422 184.211 129.959 184.615 130.348C185.019 130.737 185.527 130.954 186.053 130.963H207.102C207.437 130.961 207.767 130.873 208.068 130.706C208.37 130.538 208.635 130.296 208.845 129.996C209.07 129.679 209.23 129.308 209.313 128.91C209.397 128.513 209.402 128.099 209.328 127.698L204.848 102.784C204.739 102.151 204.445 101.579 204.014 101.166C203.584 100.752 203.043 100.521 202.482 100.511L181.741 100.543Z" fill="#231F20"/>
<path d="M211.435 118.856C211.557 117.985 211.499 117.094 211.267 116.253C211.038 115.688 210.722 115.175 210.336 114.737C209.679 113.931 208.977 113.175 208.236 112.473C207.536 111.844 206.745 111.231 205.905 111.441C206.164 112.885 206.874 114.17 207.9 115.052C207.564 114.59 207.119 114.251 206.619 114.077C206.283 113.956 205.828 113.972 205.688 114.359C205.656 114.483 205.646 114.614 205.659 114.743C205.672 114.872 205.708 114.996 205.765 115.108C206.157 116.106 206.758 116.976 207.515 117.639L206.703 117.043C206.496 116.867 206.256 116.749 206.003 116.696C205.878 116.673 205.75 116.696 205.638 116.763C205.526 116.83 205.436 116.936 205.38 117.067C205.329 117.285 205.349 117.517 205.436 117.72C205.647 118.3 205.997 118.8 206.444 119.163C206.151 118.874 205.8 118.677 205.422 118.59C205.231 118.557 205.037 118.604 204.874 118.723C204.71 118.841 204.59 119.023 204.533 119.235C204.512 119.478 204.556 119.723 204.659 119.936C205.261 121.315 206.696 121.468 207.396 122.629C207.921 123.491 207.676 124.418 208.74 124.942C211.4 126.207 211.288 120.694 211.435 118.856Z" fill="white"/>
<path d="M209.51 125.53C209.21 125.524 208.915 125.448 208.642 125.304C208.346 125.166 208.084 124.948 207.877 124.667C207.671 124.386 207.528 124.051 207.459 123.692C207.388 123.408 207.282 123.136 207.144 122.886C206.828 122.447 206.434 122.09 205.989 121.838C205.321 121.473 204.763 120.887 204.386 120.154C204.237 119.862 204.18 119.521 204.225 119.187C204.287 118.917 204.422 118.677 204.611 118.503C204.8 118.329 205.033 118.229 205.275 118.219C205.227 118.118 205.185 118.013 205.149 117.905C205.023 117.609 205 117.269 205.086 116.954C205.158 116.761 205.279 116.598 205.432 116.484C205.586 116.371 205.765 116.313 205.947 116.317C205.76 115.996 205.598 115.656 205.464 115.302C205.384 115.14 205.335 114.961 205.32 114.776C205.306 114.591 205.326 114.405 205.38 114.23C205.461 114.037 205.59 113.878 205.752 113.773C205.913 113.668 206.098 113.622 206.283 113.641C205.949 113.005 205.712 112.307 205.583 111.578C205.563 111.525 205.553 111.468 205.553 111.411C205.553 111.353 205.564 111.297 205.584 111.244C205.605 111.192 205.635 111.145 205.672 111.107C205.709 111.068 205.753 111.039 205.8 111.022C206.801 110.78 207.725 111.489 208.418 112.134C209.177 112.845 209.893 113.615 210.56 114.439C210.976 114.902 211.315 115.449 211.561 116.051C211.819 116.947 211.884 117.901 211.75 118.832C211.75 119.066 211.75 119.356 211.701 119.686C211.617 121.54 211.477 124.337 210.301 125.2C210.071 125.395 209.796 125.51 209.51 125.53ZM205.366 118.977C205.271 118.97 205.175 118.997 205.094 119.055C205.012 119.113 204.949 119.198 204.911 119.3C204.904 119.458 204.939 119.615 205.009 119.751C205.329 120.341 205.791 120.812 206.339 121.105C206.884 121.404 207.363 121.842 207.739 122.387C207.919 122.705 208.056 123.052 208.145 123.418C208.178 123.672 208.269 123.911 208.408 124.112C208.547 124.313 208.729 124.468 208.936 124.563C209.091 124.662 209.266 124.715 209.444 124.715C209.621 124.715 209.796 124.662 209.951 124.563C210.847 123.918 210.98 121.169 211.057 119.727C211.057 119.38 211.057 119.074 211.106 118.84C211.222 118.032 211.172 117.204 210.959 116.422C210.749 115.9 210.457 115.427 210.098 115.028C209.441 114.234 208.74 113.49 207.998 112.803C207.538 112.3 206.962 111.958 206.339 111.82C206.563 112.67 206.956 113.448 207.487 114.093C207.75 114.277 207.986 114.508 208.187 114.778C208.245 114.852 208.277 114.948 208.277 115.048C208.277 115.147 208.245 115.244 208.187 115.318C208.129 115.391 208.05 115.437 207.964 115.445C207.879 115.454 207.793 115.426 207.725 115.366C207.492 115.171 207.272 114.955 207.067 114.721C206.902 114.606 206.726 114.514 206.542 114.447C206.318 114.375 206.073 114.399 206.038 114.504C206.018 114.652 206.045 114.804 206.115 114.931C206.477 115.871 207.041 116.689 207.753 117.309C207.79 117.338 207.821 117.376 207.845 117.42C207.869 117.464 207.885 117.513 207.892 117.564C207.899 117.615 207.898 117.667 207.887 117.718C207.876 117.768 207.857 117.815 207.83 117.857C207.779 117.943 207.701 118.003 207.612 118.024C207.523 118.045 207.431 118.025 207.354 117.97L206.542 117.381C206.385 117.241 206.204 117.142 206.01 117.091C205.962 117.079 205.912 117.083 205.866 117.103C205.82 117.123 205.78 117.158 205.751 117.204C205.737 117.326 205.756 117.45 205.807 117.558C205.976 118.033 206.254 118.445 206.612 118.751L206.696 118.824C206.734 118.854 206.766 118.892 206.79 118.936C206.815 118.98 206.832 119.03 206.84 119.082C206.847 119.133 206.846 119.187 206.836 119.238C206.826 119.289 206.807 119.337 206.78 119.38C206.728 119.467 206.648 119.527 206.557 119.547C206.467 119.566 206.373 119.544 206.297 119.485L206.206 119.412C205.983 119.2 205.719 119.054 205.436 118.985L205.366 118.977Z" fill="#231F20"/>
<path d="M179.382 117.123C179.487 115.455 179.921 113.609 181.146 112.771C181.525 112.52 181.952 112.383 182.389 112.374C182.826 112.364 183.258 112.481 183.645 112.714C183.716 112.746 183.78 112.796 183.832 112.86C183.884 112.925 183.923 113.001 183.946 113.085C183.995 113.351 183.785 113.569 183.596 113.706C183.191 113.998 182.75 114.219 182.287 114.359C182.664 114.323 183.041 114.424 183.366 114.646C183.69 114.868 183.947 115.202 184.1 115.6C183.644 116.218 183.006 116.619 182.308 116.728C182.54 116.657 182.785 116.669 183.011 116.761C183.237 116.853 183.434 117.021 183.575 117.244C184.03 118.002 183.666 118.211 183.169 118.663C183.387 118.609 183.615 118.635 183.82 118.735C183.924 118.79 184.012 118.879 184.071 118.991C184.131 119.103 184.161 119.233 184.156 119.364C184.121 119.848 183.61 120.001 183.253 120.243C182.965 120.444 182.747 120.755 182.637 121.121C182.597 121.332 182.538 121.537 182.462 121.734C181.762 123.177 180.208 121.976 179.823 120.928C179.429 119.714 179.278 118.414 179.382 117.123Z" fill="white"/>
<path d="M181.552 122.806H181.468C181.046 122.738 180.645 122.548 180.302 122.255C179.96 121.963 179.687 121.575 179.508 121.129C179.09 119.844 178.927 118.467 179.032 117.099C179.13 115.487 179.543 113.399 180.971 112.424C181.401 112.139 181.886 111.984 182.381 111.972C182.877 111.961 183.367 112.094 183.806 112.36C183.924 112.418 184.028 112.506 184.112 112.618C184.196 112.73 184.256 112.862 184.289 113.004C184.331 113.23 184.289 113.657 183.785 114.044L183.477 114.254C183.898 114.516 184.231 114.933 184.422 115.439C184.447 115.508 184.454 115.583 184.445 115.657C184.435 115.731 184.408 115.8 184.366 115.858C184.139 116.177 183.867 116.45 183.561 116.664C183.678 116.767 183.78 116.893 183.862 117.035C184.24 117.655 184.177 118.074 183.974 118.389C184.141 118.479 184.282 118.624 184.376 118.807C184.471 118.989 184.516 119.2 184.506 119.412C184.464 120.009 184.002 120.275 183.673 120.46L183.435 120.605C183.216 120.754 183.052 120.989 182.973 121.266C182.953 121.327 182.936 121.389 182.924 121.452C182.892 121.623 182.841 121.788 182.77 121.943C182.653 122.2 182.478 122.415 182.264 122.567C182.05 122.719 181.804 122.801 181.552 122.806ZM179.732 117.164C179.633 118.401 179.774 119.648 180.145 120.815C180.275 121.123 180.466 121.391 180.704 121.597C180.941 121.803 181.217 121.941 181.51 122C181.646 122.004 181.779 121.963 181.895 121.881C182.01 121.8 182.103 121.681 182.161 121.54C182.2 121.442 182.23 121.339 182.252 121.234C182.252 121.153 182.287 121.081 182.308 121C182.442 120.54 182.716 120.151 183.078 119.904L183.358 119.727C183.624 119.582 183.799 119.469 183.813 119.332C183.827 119.195 183.75 119.154 183.666 119.106C183.525 119.044 183.372 119.03 183.225 119.066C183.15 119.078 183.073 119.062 183.006 119.02C182.939 118.977 182.886 118.91 182.855 118.83C182.824 118.75 182.817 118.66 182.835 118.575C182.852 118.489 182.893 118.413 182.952 118.357L183.085 118.236C183.512 117.857 183.512 117.857 183.288 117.486C183.064 117.115 182.833 117.067 182.357 117.139C182.311 117.147 182.264 117.144 182.219 117.131C182.174 117.117 182.131 117.093 182.095 117.059C182.058 117.026 182.028 116.985 182.005 116.937C181.983 116.89 181.969 116.838 181.965 116.785C181.953 116.679 181.978 116.572 182.035 116.487C182.091 116.403 182.174 116.347 182.266 116.333C182.797 116.248 183.288 115.965 183.666 115.527C183.533 115.259 183.335 115.04 183.097 114.897C182.859 114.754 182.59 114.693 182.322 114.721C182.234 114.733 182.146 114.707 182.075 114.647C182.003 114.587 181.954 114.499 181.937 114.399C181.92 114.299 181.936 114.195 181.983 114.108C182.03 114.021 182.103 113.958 182.189 113.931C182.617 113.8 183.025 113.597 183.4 113.327C183.54 113.23 183.589 113.15 183.596 113.117L183.47 113.029C183.138 112.826 182.766 112.724 182.39 112.732C182.014 112.741 181.646 112.859 181.321 113.077C180.152 113.883 179.809 115.713 179.725 117.107L179.732 117.164Z" fill="#231F20"/>
<path d="M197.617 70.6316C197.105 70.6316 196.604 70.4567 196.178 70.129C195.752 69.8013 195.42 69.3355 195.224 68.7906C195.028 68.2456 194.977 67.646 195.077 67.0675C195.177 66.489 195.423 65.9576 195.786 65.5405C196.148 65.1234 196.609 64.8394 197.112 64.7243C197.614 64.6092 198.135 64.6683 198.608 64.894C199.081 65.1197 199.486 65.502 199.77 65.9924C200.055 66.4829 200.207 67.0595 200.207 67.6493C200.205 68.4396 199.932 69.1969 199.446 69.7558C198.961 70.3146 198.303 70.6295 197.617 70.6316ZM197.617 65.473C197.243 65.473 196.878 65.6007 196.567 65.8398C196.256 66.0789 196.014 66.4188 195.871 66.8165C195.728 67.2141 195.69 67.6517 195.763 68.0739C195.836 68.496 196.016 68.8838 196.281 69.1882C196.545 69.4925 196.882 69.6998 197.248 69.7838C197.615 69.8677 197.995 69.8246 198.34 69.6599C198.686 69.4952 198.981 69.2163 199.188 68.8584C199.396 68.5005 199.507 68.0797 199.507 67.6493C199.505 67.0728 199.305 66.5205 198.951 66.1128C198.597 65.7051 198.118 65.4751 197.617 65.473Z" fill="#231F20"/>
<path d="M203.385 70.6316C202.873 70.6316 202.372 70.4567 201.946 70.129C201.52 69.8013 201.188 69.3355 200.992 68.7906C200.796 68.2456 200.745 67.646 200.845 67.0675C200.945 66.489 201.191 65.9576 201.554 65.5405C201.916 65.1234 202.377 64.8394 202.88 64.7243C203.382 64.6092 203.903 64.6683 204.376 64.894C204.849 65.1197 205.254 65.502 205.538 65.9924C205.823 66.4829 205.975 67.0595 205.975 67.6493C205.975 68.4403 205.702 69.1988 205.216 69.7581C204.731 70.3174 204.072 70.6316 203.385 70.6316ZM203.385 65.473C203.011 65.473 202.646 65.6007 202.335 65.8398C202.024 66.0789 201.782 66.4188 201.639 66.8165C201.496 67.2141 201.458 67.6517 201.531 68.0739C201.604 68.496 201.784 68.8838 202.049 69.1882C202.313 69.4925 202.65 69.6998 203.016 69.7838C203.383 69.8677 203.763 69.8246 204.108 69.6599C204.454 69.4952 204.749 69.2163 204.956 68.8584C205.164 68.5005 205.275 68.0797 205.275 67.6493C205.275 67.0721 205.076 66.5186 204.721 66.1104C204.367 65.7023 203.886 65.473 203.385 65.473Z" fill="#231F20"/>
<path d="M201.068 75.556C200.172 75.5355 199.291 75.282 198.492 74.8145C198.413 74.7605 198.355 74.6734 198.33 74.5712C198.305 74.4691 198.315 74.3599 198.359 74.2664C198.405 74.1735 198.48 74.1053 198.57 74.0766C198.659 74.0478 198.754 74.061 198.835 74.1133C198.968 74.1939 202.083 76.1606 203.987 72.8397C204.038 72.7499 204.118 72.6872 204.209 72.6653C204.3 72.6434 204.396 72.6641 204.474 72.7229C204.551 72.7816 204.606 72.8737 204.625 72.9787C204.644 73.0838 204.626 73.1933 204.575 73.283C204.213 73.9813 203.7 74.5585 203.084 74.9572C202.469 75.356 201.774 75.5624 201.068 75.556Z" fill="#231F20"/>
<path d="M201.145 68.0521H199.857C199.764 68.0521 199.675 68.0097 199.61 67.9341C199.544 67.8585 199.507 67.756 199.507 67.6491C199.507 67.5422 199.544 67.4397 199.61 67.3641C199.675 67.2886 199.764 67.2461 199.857 67.2461H201.145C201.238 67.2461 201.327 67.2886 201.392 67.3641C201.458 67.4397 201.495 67.5422 201.495 67.6491C201.493 67.7553 201.456 67.8567 201.391 67.9318C201.325 68.0069 201.237 68.0501 201.145 68.0521Z" fill="#231F20"/>
<path d="M210.791 69.6644C210.761 69.6721 210.73 69.6721 210.7 69.6644L205.534 68.0523C205.441 68.0246 205.362 67.9554 205.313 67.8602C205.265 67.765 205.251 67.6514 205.275 67.5445C205.299 67.4377 205.359 67.3462 205.442 67.2903C205.525 67.2343 205.623 67.2185 205.716 67.2463L210.882 68.8584C210.971 68.8867 211.046 68.9542 211.092 69.0462C211.138 69.1383 211.151 69.2475 211.127 69.3501C211.111 69.4389 211.069 69.5187 211.008 69.576C210.946 69.6332 210.87 69.6645 210.791 69.6644Z" fill="#231F20"/>
<path d="M207.9 70.2282C208.039 69.6539 208.333 69.1455 208.74 68.7773C209.051 68.4755 209.414 68.2538 209.805 68.1273C210.196 68.0007 210.606 67.9723 211.008 68.0439C211.408 68.2386 211.74 68.5835 211.948 69.0225C212.156 69.4615 212.23 69.9689 212.156 70.4619C212.098 71.1323 211.884 71.7723 211.537 72.3142C211.19 72.8562 210.721 73.28 210.182 73.541C209.828 73.6868 209.452 73.7491 209.077 73.7242C208.702 73.6993 208.335 73.5876 207.998 73.3959" fill="white"/>
<path d="M209.251 74.1294C208.765 74.1285 208.286 73.9989 207.851 73.7505C207.81 73.7274 207.773 73.695 207.742 73.655C207.712 73.6151 207.689 73.5686 207.674 73.5182C207.66 73.4678 207.655 73.4145 207.659 73.3617C207.662 73.3088 207.676 73.2574 207.697 73.2105C207.717 73.1628 207.745 73.1201 207.78 73.085C207.814 73.0498 207.855 73.0229 207.898 73.0057C207.942 72.9884 207.988 72.9813 208.034 72.9846C208.08 72.988 208.125 73.0017 208.166 73.0251C208.461 73.1923 208.782 73.2905 209.11 73.3141C209.438 73.3376 209.766 73.2859 210.077 73.1621C210.554 72.9231 210.967 72.5428 211.274 72.0599C211.582 71.5771 211.772 71.009 211.827 70.4136C211.888 70.0146 211.833 69.6034 211.67 69.2445C211.506 68.8857 211.244 68.5995 210.924 68.4307C210.575 68.3809 210.221 68.4146 209.883 68.5297C209.546 68.6448 209.233 68.8389 208.964 69.0997C208.623 69.4147 208.378 69.8467 208.264 70.333C208.252 70.3859 208.23 70.4355 208.201 70.4789C208.172 70.5223 208.136 70.5588 208.095 70.5861C208.053 70.6134 208.008 70.6311 207.961 70.6381C207.913 70.6452 207.866 70.6415 207.82 70.6272C207.774 70.6129 207.731 70.5883 207.693 70.5548C207.655 70.5214 207.623 70.4797 207.6 70.4322C207.576 70.3847 207.561 70.3322 207.555 70.2778C207.548 70.2235 207.552 70.1683 207.564 70.1153C207.727 69.4746 208.063 68.9101 208.523 68.5033C208.877 68.1607 209.291 67.9111 209.737 67.7719C210.183 67.6327 210.65 67.6072 211.106 67.6973C211.584 67.9168 211.984 68.3174 212.238 68.8331C212.493 69.3487 212.587 69.9488 212.506 70.5345C212.443 71.2779 212.206 71.9877 211.82 72.5881C211.434 73.1886 210.914 73.6572 210.315 73.944C209.973 74.0773 209.612 74.1401 209.251 74.1294Z" fill="#231F20"/>
<path d="M221.081 121.185C217.854 121.185 213.129 118.179 212.45 117.736C212.41 117.709 212.375 117.674 212.347 117.632C212.319 117.59 212.298 117.542 212.286 117.49C212.274 117.439 212.271 117.386 212.277 117.333C212.283 117.28 212.298 117.23 212.321 117.184C212.343 117.137 212.374 117.097 212.411 117.065C212.447 117.032 212.489 117.008 212.533 116.995C212.578 116.981 212.624 116.977 212.67 116.984C212.716 116.991 212.76 117.008 212.8 117.034C215.061 118.518 221.305 121.871 222.95 119.638C224.595 117.405 219.667 106.355 217.623 102.292C217.587 102.201 217.582 102.098 217.609 102.003C217.635 101.908 217.691 101.828 217.766 101.778C217.841 101.728 217.929 101.711 218.014 101.732C218.099 101.752 218.174 101.808 218.225 101.889C219.002 103.437 225.778 117.051 223.489 120.154C223.178 120.518 222.801 120.8 222.385 120.978C221.969 121.156 221.524 121.227 221.081 121.185Z" fill="#231F20"/>
<path d="M223.545 134.888H223.496C218.323 133.993 211.596 129.246 211.302 129.069C211.263 129.041 211.229 129.004 211.202 128.961C211.175 128.918 211.156 128.869 211.146 128.817C211.135 128.766 211.134 128.712 211.142 128.66C211.149 128.607 211.166 128.557 211.19 128.512C211.214 128.466 211.245 128.427 211.283 128.395C211.32 128.364 211.362 128.341 211.408 128.329C211.453 128.317 211.5 128.316 211.545 128.325C211.591 128.334 211.634 128.354 211.673 128.383C211.736 128.424 218.568 133.22 223.573 134.098C223.619 134.104 223.663 134.121 223.703 134.147C223.743 134.173 223.777 134.208 223.805 134.251C223.832 134.293 223.852 134.341 223.863 134.393C223.874 134.444 223.875 134.497 223.867 134.55C223.855 134.64 223.816 134.722 223.757 134.784C223.699 134.845 223.624 134.882 223.545 134.888Z" fill="#231F20"/>
<path d="M41.0192 145.512L36.3137 168.541L60.6327 175.129L65.3381 152.101L41.0192 145.512Z" fill="white"/>
<path d="M60.641 175.504H60.564L36.246 168.911C36.2048 168.9 36.1658 168.881 36.1313 168.852C36.0968 168.824 36.0676 168.789 36.0454 168.747C36.0232 168.706 36.0085 168.66 36.0021 168.612C35.9956 168.564 35.9976 168.515 36.008 168.467L40.712 145.439C40.732 145.344 40.7836 145.262 40.8556 145.211C40.9277 145.16 41.0144 145.143 41.097 145.165L65.415 151.758C65.4564 151.769 65.4956 151.788 65.5304 151.816C65.5653 151.843 65.595 151.879 65.618 151.92C65.6611 152.005 65.6737 152.106 65.653 152.202L60.949 175.23C60.9288 175.323 60.8788 175.404 60.809 175.456C60.7582 175.49 60.6999 175.507 60.641 175.504ZM36.701 168.25L60.403 174.698L64.96 152.387L41.265 145.939L36.701 168.25Z" fill="#231F20"/>
<path d="M55.804 141.07C55.804 141.07 55.398 152.959 54.327 152.25C52.927 151.307 53.508 148.567 53.508 148.567L48.762 147.414C48.762 147.414 50.778 139.523 50.911 139.257C51.044 138.991 55.804 141.07 55.804 141.07Z" fill="white"/>
<path d="M54.418 152.645C54.3292 152.645 54.2421 152.617 54.166 152.564C52.878 151.71 53.011 149.695 53.13 148.856L48.699 147.776C48.6555 147.764 48.6145 147.743 48.5785 147.712C48.5424 147.682 48.512 147.643 48.489 147.599C48.4577 147.506 48.4577 147.402 48.489 147.309C49.245 144.343 50.54 139.337 50.673 139.071C50.806 138.805 50.939 138.531 55.951 140.732C56.0148 140.756 56.0699 140.804 56.1079 140.868C56.1458 140.932 56.1645 141.009 56.161 141.086C56.049 144.31 55.685 151.944 54.691 152.572C54.6085 152.628 54.5133 152.653 54.418 152.645ZM49.168 147.132L53.571 148.204C53.6571 148.227 53.7321 148.288 53.781 148.373C53.8118 148.464 53.8118 148.564 53.781 148.655C53.781 148.655 53.284 151.009 54.362 151.879C54.824 151.073 55.272 145.947 55.44 141.336C53.641 140.53 51.702 139.781 51.1 139.635C50.869 140.53 49.882 144.351 49.168 147.132Z" fill="#231F20"/>
<path d="M63.133 207.882C63.133 207.882 62.741 215.33 62.762 218.151C62.783 220.972 62.762 223.624 65.639 222.987C67.207 222.657 75.817 220.15 75.026 218.304C74.235 216.458 68.642 215.983 68.642 215.983L69.146 207.471" fill="white"/>
<path d="M64.876 223.471C64.3533 223.499 63.8391 223.31 63.427 222.939C62.475 222.036 62.461 220.206 62.447 218.272V218.159C62.447 215.354 62.811 207.938 62.811 207.858C62.8137 207.81 62.8245 207.764 62.8429 207.721C62.8612 207.678 62.8867 207.64 62.9179 207.608C62.9492 207.577 62.9855 207.553 63.0248 207.537C63.0641 207.522 63.1056 207.516 63.147 207.519C63.1893 207.52 63.2311 207.531 63.2695 207.551C63.308 207.572 63.3425 207.601 63.3707 207.637C63.399 207.674 63.4204 207.716 63.4337 207.762C63.447 207.809 63.4519 207.858 63.448 207.906C63.448 207.979 63.063 215.37 63.084 218.151V218.264C63.084 220.021 63.084 221.689 63.833 222.374C64.0894 222.565 64.3788 222.689 64.681 222.738C64.9832 222.786 65.291 222.759 65.583 222.657C67.613 222.221 74.102 220.142 74.725 218.715C74.7423 218.682 74.7515 218.645 74.7515 218.606C74.7515 218.568 74.7423 218.53 74.725 218.497C74.207 217.296 70.7 216.563 68.607 216.386C68.5228 216.377 68.4448 216.331 68.3898 216.258C68.3348 216.184 68.3072 216.088 68.313 215.991L68.817 207.479C68.8241 207.383 68.8629 207.293 68.9253 207.229C68.9878 207.165 69.0692 207.13 69.153 207.132C69.2378 207.141 69.3165 207.186 69.3726 207.26C69.4288 207.334 69.4579 207.43 69.454 207.527L68.971 215.676C70.266 215.813 74.571 216.402 75.271 218.175C75.3312 218.31 75.3626 218.459 75.3626 218.61C75.3626 218.762 75.3312 218.911 75.271 219.046C74.312 221.238 65.751 223.358 65.667 223.374C65.4064 223.434 65.1417 223.466 64.876 223.471Z" fill="#231F20"/>
<path d="M83.251 208.768C83.251 208.768 82.859 216.216 82.88 219.037C82.901 221.858 82.88 224.51 85.757 223.874C87.325 223.543 96.614 221.834 95.823 219.988C95.032 218.143 88.76 216.869 88.76 216.869L89.264 208.357" fill="white"/>
<path d="M84.994 224.357C84.4713 224.386 83.9571 224.197 83.545 223.825C82.593 222.923 82.579 221.093 82.565 219.158V219.03C82.565 216.225 82.929 208.809 82.929 208.737C82.9344 208.64 82.9727 208.549 83.0355 208.484C83.0983 208.419 83.1807 208.386 83.265 208.39C83.3073 208.391 83.349 208.402 83.3875 208.422C83.426 208.442 83.4604 208.472 83.4887 208.508C83.5169 208.544 83.5384 208.587 83.5517 208.633C83.565 208.679 83.5699 208.728 83.566 208.777C83.566 208.849 83.181 216.249 83.202 219.021V219.134C83.202 220.891 83.202 222.56 83.951 223.245C84.2074 223.436 84.4968 223.56 84.799 223.608C85.1012 223.657 85.409 223.629 85.701 223.527L86.191 223.422C93.422 221.963 95.291 220.924 95.529 220.303C95.529 220.239 95.529 220.206 95.529 220.166C95.004 218.949 91.063 217.748 88.697 217.248C88.619 217.234 88.5486 217.186 88.5004 217.114C88.4522 217.042 88.4299 216.952 88.438 216.861L88.942 208.35C88.9491 208.253 88.9878 208.164 89.0503 208.1C89.1127 208.035 89.1942 208.001 89.278 208.003C89.3628 208.011 89.4415 208.057 89.4976 208.131C89.5538 208.204 89.5829 208.3 89.579 208.398L89.103 216.611C90.447 216.902 95.347 218.078 96.103 219.836C96.1606 219.96 96.1907 220.098 96.1907 220.239C96.1907 220.379 96.1606 220.518 96.103 220.642C95.592 221.81 92.603 222.89 86.303 224.156L85.82 224.261C85.5475 224.319 85.2712 224.351 84.994 224.357Z" fill="#231F20"/>
<path d="M62.3 123.813C62.3 123.813 60.312 203.159 61.362 209.946C61.362 209.946 65.401 215.193 70.637 212.573L77.266 148.22L80.766 212.517C80.766 212.517 84.119 216.354 91.147 209.978V121.008L62.3 123.813Z" fill="#231F20"/>
<path d="M83.811 214.081C82.6104 214.152 81.4314 213.694 80.514 212.799C80.4518 212.731 80.4143 212.639 80.409 212.541L77.168 152.693L71.001 212.622C70.9924 212.691 70.9686 212.757 70.9319 212.814C70.8952 212.87 70.8467 212.915 70.791 212.944C65.38 215.644 61.152 210.268 61.11 210.212C61.067 210.154 61.038 210.085 61.026 210.01C59.99 203.264 61.887 127.037 61.964 123.765C61.9686 123.667 62.0037 123.574 62.0627 123.503C62.1218 123.432 62.201 123.388 62.286 123.378L91.112 120.573C91.1603 120.569 91.2088 120.576 91.2546 120.594C91.3003 120.612 91.3423 120.641 91.3778 120.679C91.4133 120.717 91.4416 120.763 91.461 120.814C91.4803 120.865 91.4902 120.92 91.49 120.976V209.978C91.4903 210.04 91.4785 210.101 91.4555 210.157C91.4325 210.212 91.3988 210.262 91.357 210.3C88.088 213.258 85.582 214.081 83.811 214.081ZM81.102 212.323C81.669 212.855 84.763 215.177 90.79 209.784V121.444L62.657 124.184C62.517 129.971 60.746 202.627 61.705 209.76C62.244 210.421 65.772 214.419 70.329 212.291L76.93 148.172C76.9317 148.121 76.9424 148.071 76.9616 148.025C76.9808 147.979 77.008 147.938 77.0414 147.905C77.0749 147.871 77.114 147.846 77.1563 147.831C77.1985 147.816 77.243 147.811 77.287 147.817C77.374 147.819 77.4573 147.857 77.5207 147.926C77.5841 147.995 77.6231 148.088 77.63 148.188L81.102 212.323Z" fill="#231F20"/>
<path d="M121.023 89.5732C121.023 89.5732 124.859 87.0745 125.139 86.8005C125.419 86.5264 126.756 82.4398 126.973 82.1738C127.19 81.9079 127.729 81.4242 127.911 81.9885C128.093 82.5527 127.701 85.6881 127.701 85.6881C127.701 85.6881 132.419 81.4404 132.748 81.658C133.077 81.8756 133.322 82.3673 132.58 83.5602C131.91 84.4833 131.119 85.2801 130.235 85.9219C130.235 85.9219 131.894 88.0659 131.635 88.7994C131.376 89.5329 125.083 94.3932 125.083 94.3932" fill="white"/>
<path d="M125.111 94.7802C125.058 94.7817 125.006 94.7677 124.96 94.7395C124.913 94.7112 124.874 94.6698 124.845 94.619C124.821 94.5787 124.804 94.5335 124.795 94.4858C124.787 94.4381 124.786 94.3889 124.794 94.341C124.802 94.2931 124.818 94.2474 124.841 94.2066C124.864 94.1657 124.894 94.1306 124.929 94.1031C127.911 91.8059 131.131 89.146 131.369 88.6705C131.446 88.4045 130.795 87.2115 129.969 86.1798C129.938 86.1398 129.915 86.0923 129.901 86.0407C129.888 85.9891 129.885 85.9348 129.892 85.8816C129.898 85.8286 129.914 85.7779 129.94 85.7333C129.965 85.6886 129.999 85.6511 130.039 85.6237C130.887 85.0101 131.647 84.2487 132.293 83.3668C132.713 82.6817 132.741 82.3512 132.713 82.2142C132.702 82.1549 132.675 82.1012 132.636 82.061C130.973 83.2437 129.381 84.5524 127.869 85.9783C127.816 86.0199 127.754 86.0422 127.69 86.0422C127.627 86.0422 127.565 86.0199 127.512 85.9783C127.457 85.9412 127.412 85.8864 127.384 85.8205C127.355 85.7547 127.344 85.6807 127.351 85.6075C127.539 84.4494 127.617 83.2709 127.582 82.0933C127.54 82.0933 127.351 82.19 127.183 82.3995C127.015 82.6091 126.756 83.4796 126.483 84.2453C125.783 86.2282 125.51 86.873 125.321 87.0584C125.132 87.2438 121.821 89.4765 121.121 89.8714C121.047 89.9118 120.963 89.9185 120.885 89.8901C120.807 89.8617 120.742 89.8004 120.702 89.7185C120.662 89.6366 120.65 89.5402 120.67 89.4489C120.689 89.3576 120.738 89.2781 120.806 89.2266C122.276 88.2755 124.677 86.6876 124.88 86.4861C125.246 85.6663 125.573 84.8241 125.86 83.9632C126.075 83.2457 126.352 82.5545 126.686 81.8998C126.812 81.7467 127.26 81.255 127.694 81.3436C127.801 81.3725 127.9 81.433 127.981 81.5192C128.062 81.6054 128.123 81.7143 128.156 81.8353C128.249 82.8293 128.219 83.8336 128.065 84.8176C132.37 80.997 132.657 81.1986 132.86 81.3356C132.974 81.4082 133.073 81.5086 133.151 81.6296C133.228 81.7507 133.282 81.8896 133.308 82.0368C133.328 82.351 133.293 82.6667 133.204 82.9647C133.115 83.2626 132.974 83.5365 132.79 83.7698C132.193 84.6285 131.485 85.3761 130.69 85.9864C131.278 86.7924 132.167 88.1788 131.936 88.9123C131.705 89.6458 127.183 93.2084 125.258 94.6915C125.216 94.7345 125.166 94.7649 125.111 94.7802Z" fill="#231F20"/>
<path d="M87.829 85.0995C87.829 85.0995 81.032 82.5363 63.133 86.4939C60.025 87.179 58.597 120.549 60.942 140.619L92.295 140.321C92.295 140.321 97.468 87.8803 87.829 85.0995Z" fill="#68E1FD"/>
<path d="M61.95 81.666C61.95 81.666 55.167 106.653 54.733 108.87C54.299 111.086 49.7 140.506 49.7 140.506L56.826 143.263C56.826 143.263 67.158 115.761 66.5 108.039C65.842 100.318 61.95 81.666 61.95 81.666Z" fill="#68E1FD"/>
<path d="M87.241 85.1156C92.694 85.7121 104.041 100.874 104.965 100.43C105.889 99.9869 122.703 86.7277 122.703 86.7277L128.023 93.4339C128.023 93.4339 111.734 115.197 108.423 117.502C103.327 121.008 81.69 105.049 81.69 105.049C81.69 105.049 81.788 84.5111 87.241 85.1156Z" fill="#68E1FD"/>
<path d="M53.529 148.687C53.529 148.687 51.324 147.309 52.297 144.972L53.529 148.687Z" fill="white"/>
<path d="M53.529 149.058C53.4749 149.057 53.422 149.04 53.375 149.01C52.521 148.478 51.135 146.914 51.975 144.81C52.0121 144.721 52.0783 144.653 52.1591 144.621C52.2398 144.588 52.3284 144.594 52.4055 144.637C52.4825 144.68 52.5417 144.756 52.5699 144.849C52.5981 144.942 52.5931 145.044 52.556 145.133C51.723 147.132 53.571 148.357 53.648 148.357C53.7094 148.397 53.7577 148.459 53.7854 148.534C53.813 148.609 53.8185 148.692 53.801 148.771C53.7835 148.85 53.7439 148.92 53.6885 148.97C53.633 149.021 53.5646 149.049 53.494 149.05L53.529 149.058Z" fill="#231F20"/>
<path d="M103.796 117.977H103.733C100.31 117.171 93.611 112.609 84.833 105.081L84.434 104.734C84.3642 104.68 84.3156 104.597 84.2986 104.502C84.2816 104.407 84.2975 104.308 84.343 104.227C84.3875 104.148 84.457 104.092 84.5367 104.071C84.6163 104.05 84.7 104.065 84.77 104.114C84.9247 104.231 85.0742 104.358 85.218 104.493C93.898 111.964 100.506 116.51 103.838 117.268C103.921 117.288 103.995 117.344 104.042 117.426C104.089 117.507 104.106 117.607 104.09 117.703C104.071 117.778 104.033 117.845 103.981 117.894C103.928 117.943 103.864 117.972 103.796 117.977Z" fill="#231F20"/>
<path d="M85.526 69.6801C85.0705 69.6801 84.6253 69.5246 84.2465 69.2332C83.8678 68.9418 83.5726 68.5277 83.3983 68.0431C83.224 67.5586 83.1784 67.0254 83.2673 66.511C83.3561 65.9966 83.5755 65.524 83.8976 65.1532C84.2196 64.7823 84.63 64.5297 85.0767 64.4274C85.5235 64.3251 85.9865 64.3776 86.4073 64.5783C86.8282 64.779 87.1878 65.1189 87.4409 65.555C87.694 65.9911 87.829 66.5038 87.829 67.0283C87.829 67.7316 87.5864 68.4061 87.1545 68.9034C86.7226 69.4008 86.1368 69.6801 85.526 69.6801ZM85.526 65.1825C85.209 65.1825 84.8991 65.2908 84.6354 65.4936C84.3718 65.6964 84.1664 65.9847 84.045 66.3219C83.9237 66.6592 83.892 67.0304 83.9538 67.3884C84.0157 67.7465 84.1683 68.0754 84.3925 68.3335C84.6167 68.5916 84.9023 68.7674 85.2133 68.8387C85.5242 68.9099 85.8466 68.8733 86.1395 68.7336C86.4324 68.5939 86.6827 68.3573 86.8589 68.0538C87.035 67.7502 87.129 67.3934 87.129 67.0283C87.129 66.7859 87.0876 66.5459 87.007 66.3219C86.9264 66.098 86.8084 65.8945 86.6595 65.7231C86.5107 65.5517 86.3339 65.4158 86.1395 65.323C85.945 65.2302 85.7365 65.1825 85.526 65.1825Z" fill="#231F20"/>
<path d="M84.588 68.7773C84.588 68.7773 86.863 73.0977 86.338 73.944C85.813 74.7903 84.168 74.1455 84.168 74.1455" fill="white"/>
<path d="M85.351 74.7503C84.9084 74.7376 84.4698 74.6507 84.049 74.4924C83.9562 74.4571 83.8793 74.3808 83.8354 74.2803C83.7914 74.1798 83.7839 74.0633 83.8145 73.9564C83.8452 73.8495 83.9114 73.761 83.9987 73.7104C84.086 73.6597 84.1872 73.6511 84.28 73.6864C84.735 73.8718 85.764 74.0894 86.051 73.638C86.233 73.2511 85.414 71.0426 84.294 68.9147C84.2698 68.8703 84.2534 68.8209 84.2459 68.7692C84.2384 68.7175 84.2399 68.6646 84.2503 68.6136C84.2607 68.5626 84.2799 68.5145 84.3066 68.4721C84.3333 68.4297 84.3671 68.3938 84.406 68.3666C84.4451 68.3384 84.4886 68.3194 84.534 68.3107C84.5794 68.3019 84.6259 68.3036 84.6708 68.3156C84.7156 68.3276 84.758 68.3496 84.7955 68.3805C84.8329 68.4114 84.8647 68.4505 84.889 68.4955C85.589 69.8658 87.22 73.1463 86.618 74.1377C86.4658 74.3504 86.2709 74.5173 86.0502 74.624C85.8294 74.7307 85.5895 74.7741 85.351 74.7503Z" fill="#231F20"/>
<path d="M84.259 63.1999C85.75 64.7072 85.204 67.7459 85.12 69.7287C85.008 72.523 84.84 75.3145 84.616 78.1034C84.476 79.8686 80.493 79.7154 79.807 79.1673L80.647 83.5924L71.946 82.1255L72.485 76.3543C72.485 76.3543 71.925 68.294 73.605 64.7797C74.0928 63.7614 74.8177 62.92 75.6983 62.3504C76.5788 61.7808 77.5799 61.5055 78.589 61.5556C78.589 61.5556 82.803 61.7168 84.259 63.1999Z" fill="white"/>
<path d="M80.647 83.9954H80.598L71.897 82.5284C71.8078 82.5124 71.7274 82.4574 71.6727 82.3748C71.6179 82.2922 71.5929 82.1884 71.603 82.0851L72.135 76.3139C72.135 76.056 71.589 68.1892 73.297 64.5862C73.8124 63.495 74.5856 62.5942 75.527 61.988C76.4685 61.3818 77.5398 61.0949 78.617 61.1606C78.778 61.1606 82.964 61.3379 84.49 62.8935C85.89 64.288 85.68 66.7222 85.54 68.6808C85.54 69.0597 85.484 69.4224 85.47 69.7529C85.358 72.5417 85.19 75.3951 84.966 78.1356C84.9343 78.4431 84.8263 78.7335 84.655 78.9722C84.4837 79.211 84.2563 79.3878 84 79.4816C82.8095 79.9779 81.5228 80.084 80.283 79.7879L80.983 83.5118C80.9945 83.5743 80.9928 83.6391 80.9782 83.7008C80.9636 83.7624 80.9365 83.8192 80.899 83.8664C80.8671 83.9068 80.8282 83.9392 80.7848 83.9614C80.7414 83.9836 80.6945 83.9951 80.647 83.9954ZM72.331 81.7869L80.199 83.1088L79.499 79.2559C79.4833 79.1771 79.489 79.0947 79.5153 79.0198C79.5416 78.9448 79.5872 78.8809 79.646 78.8368C79.7046 78.79 79.7742 78.7649 79.8455 78.7649C79.9168 78.7649 79.9864 78.79 80.045 78.8368C81.2533 79.2656 82.5493 79.2345 83.741 78.7481C84.091 78.5628 84.28 78.329 84.301 78.055C84.525 75.2903 84.693 72.4853 84.805 69.7045C84.805 69.366 84.847 68.9952 84.875 68.6083C85.008 66.827 85.169 64.5781 84.063 63.49C82.719 62.1278 78.652 61.9585 78.617 61.9585C77.6719 61.9027 76.7323 62.1552 75.9063 62.6871C75.0803 63.219 74.4015 64.0086 73.948 64.965C72.338 68.3584 72.863 76.2495 72.87 76.3139L72.331 81.7869Z" fill="#231F20"/>
<path d="M70.238 83.4875L71.057 80.4326L81.739 81.6175L82.348 84.4225C80.3945 85.3048 78.2957 85.6786 76.202 85.5169C74.1083 85.3553 72.0717 84.6622 70.238 83.4875Z" fill="white"/>
<path d="M77.266 85.9623C74.7546 85.9486 72.285 85.2204 70.077 83.8424C70.0054 83.798 69.9494 83.7262 69.9187 83.6395C69.8881 83.5527 69.8846 83.4563 69.909 83.3669L70.7 80.312C70.725 80.2236 70.7753 80.1476 70.8427 80.0964C70.9101 80.0451 70.9906 80.0217 71.071 80.0299L81.774 81.1987C81.8448 81.2063 81.9119 81.2391 81.9658 81.2925C82.0197 81.346 82.0579 81.4174 82.075 81.4969L82.691 84.3019C82.7101 84.3918 82.7018 84.4866 82.6674 84.5702C82.6329 84.6539 82.5746 84.7214 82.502 84.7613C80.848 85.5758 79.0648 85.9849 77.266 85.9623ZM70.7 83.2863C72.4236 84.3211 74.3141 84.9354 76.2533 85.0907C78.1924 85.246 80.1386 84.9391 81.97 84.189L81.494 81.9966L71.344 80.8601L70.7 83.2863Z" fill="#231F20"/>
<path d="M75.467 77.0795C75.467 81.827 79.611 91.4268 76.055 95.1991C72.716 98.7456 66.955 99.6725 62.643 99.1244C56.343 98.3184 53.032 93.2968 55.643 86.228C56.91 82.7781 59.143 79.9329 60.998 76.8538C62.6306 74.1427 64.0014 71.2345 65.086 68.181C66.01 65.5936 66.696 62.5387 67.942 60.1207C70.7 54.7686 75.572 52.6729 80.696 54.3979C82.894 55.1394 87.122 58.1862 86.086 61.4829C85.834 62.2889 84.973 63.506 84.287 63.1675C84.091 64.7311 83.216 65.4808 82.152 66.4802C81.035 67.4287 79.8736 68.306 78.673 69.1079C77.8559 69.6678 77.1423 70.4072 76.573 71.2842C75.9501 72.4803 75.5898 73.8331 75.523 75.2257C75.4731 75.8418 75.4544 76.4608 75.467 77.0795Z" fill="white"/>
<path d="M64.96 99.6727C64.1743 99.6716 63.3893 99.6232 62.608 99.5276C59.206 99.1085 56.623 97.4642 55.314 94.9171C54.005 92.3701 54.068 89.4281 55.314 86.0508C56.3338 83.5562 57.615 81.2148 59.129 79.0786C59.661 78.2726 60.193 77.4666 60.704 76.6041C62.3201 73.9138 63.6789 71.0303 64.757 68.0038C65.058 67.1494 65.331 66.2708 65.618 65.3358C66.1402 63.4638 66.8152 61.6529 67.634 59.9274C68.8909 57.3389 70.8907 55.3346 73.2905 54.2581C75.6903 53.1816 78.3406 53.1 80.787 54.0272C82.425 54.5753 85.19 56.3889 86.198 58.678C86.4126 59.126 86.5423 59.6213 86.5785 60.1312C86.6147 60.6411 86.5566 61.154 86.408 61.6362C86.1538 62.4385 85.6567 63.1082 85.008 63.5223C84.8658 63.5919 84.7142 63.6328 84.56 63.6432C84.266 65.0295 83.447 65.7953 82.509 66.6738L82.362 66.8109C81.6333 67.4688 80.8635 68.0642 80.059 68.5922C79.667 68.8662 79.275 69.1403 78.89 69.3982C78.1066 69.9505 77.4242 70.6733 76.881 71.5261C76.295 72.6689 75.9565 73.9572 75.894 75.2822C75.8359 75.8844 75.8102 76.49 75.817 77.0958C75.9404 79.0291 76.2407 80.9419 76.713 82.8025C77.714 87.4855 78.813 92.7973 76.293 95.5055C73.36 98.6087 68.768 99.6727 64.96 99.6727ZM77.238 54.2449C75.3979 54.2466 73.5915 54.8137 72.0054 55.8877C70.4192 56.9618 69.1107 58.5038 68.215 60.3546C67.4215 62.0382 66.7654 63.8029 66.255 65.626C65.982 66.5288 65.688 67.496 65.38 68.302C64.2884 71.385 62.9057 74.3205 61.257 77.0555C60.746 77.8615 60.207 78.732 59.661 79.5542C58.1866 81.6411 56.9362 83.9253 55.937 86.3571C54.803 89.4684 54.796 92.2814 55.937 94.4819C57.127 96.8113 59.528 98.3105 62.699 98.7055C66.64 99.1971 72.443 98.4878 75.838 94.8768C78.085 92.4587 77.007 87.421 76.055 82.9556C75.5649 81.0329 75.2574 79.0546 75.138 77.0555C75.13 76.4227 75.158 75.7899 75.222 75.1613C75.2845 73.7128 75.6547 72.3041 76.3 71.0586C76.8862 70.1387 77.6264 69.3631 78.477 68.7776C78.869 68.4793 79.268 68.1972 79.667 67.9232C80.4457 67.4095 81.1919 66.8331 81.9 66.1983L82.047 66.0693C83.034 65.1424 83.741 64.4573 83.916 63.1354C83.9245 63.075 83.9448 63.0176 83.9754 62.9676C84.006 62.9175 84.0461 62.8762 84.0927 62.8467C84.1392 62.8172 84.191 62.8002 84.2441 62.7972C84.2971 62.7941 84.3501 62.805 84.399 62.8291C84.4977 62.8757 84.6083 62.8757 84.707 62.8291C85.1793 62.5058 85.5403 62.0047 85.729 61.4105C85.8451 61.0315 85.8895 60.6284 85.8594 60.228C85.8292 59.8277 85.7251 59.4394 85.554 59.0891C84.651 57.0337 82.054 55.3411 80.57 54.8494C79.4899 54.4667 78.3679 54.2632 77.238 54.2449Z" fill="#231F20"/>
<path d="M84.63 76.0159C84.63 76.0159 82.705 77.2652 81.774 74.9761L84.63 76.0159Z" fill="white"/>
<path d="M83.468 76.7571C83.2472 76.7592 83.0275 76.7211 82.817 76.6443C82.5116 76.5212 82.2324 76.3246 81.9983 76.0675C81.7641 75.8103 81.5802 75.4986 81.459 75.1531C81.4392 75.105 81.4279 75.0528 81.4256 74.9996C81.4234 74.9464 81.4303 74.8932 81.4459 74.8431C81.4615 74.7929 81.4855 74.7468 81.5166 74.7073C81.5477 74.6679 81.5852 74.6359 81.627 74.6131C81.6688 74.5903 81.7141 74.5773 81.7603 74.5747C81.8065 74.5721 81.8527 74.58 81.8963 74.598C81.9398 74.6159 81.9799 74.6436 82.0142 74.6794C82.0484 74.7152 82.0762 74.7584 82.096 74.8065C82.176 75.0499 82.2997 75.2711 82.4589 75.4558C82.6181 75.6405 82.8093 75.7846 83.02 75.8786C83.5054 76.0085 84.0153 75.9312 84.455 75.6609C84.4954 75.6354 84.5398 75.6193 84.5857 75.6136C84.6315 75.6079 84.6779 75.6127 84.7221 75.6276C84.7663 75.6426 84.8075 75.6675 84.8434 75.7009C84.8792 75.7343 84.909 75.7755 84.931 75.8221C84.9543 75.8673 84.9693 75.9175 84.9752 75.9696C84.9811 76.0216 84.9777 76.0745 84.9652 76.1251C84.9528 76.1756 84.9316 76.2227 84.9028 76.2634C84.874 76.3042 84.8384 76.3378 84.798 76.3622C84.3884 76.6144 83.9324 76.7498 83.468 76.7571Z" fill="#231F20"/>
<path d="M74.585 70.4301C74.555 70.4378 74.524 70.4378 74.494 70.4301C74.4052 70.4018 74.3296 70.3343 74.2837 70.2423C74.2379 70.1502 74.2254 70.041 74.249 69.9384C74.627 68.4312 74.907 68.407 75.075 68.3909C75.243 68.3747 83.265 67.2382 87.437 66.6498C87.5289 66.6361 87.6217 66.6649 87.6952 66.7298C87.7687 66.7948 87.8168 66.8907 87.829 66.9964C87.8389 67.1031 87.8123 67.2099 87.7547 67.2943C87.6972 67.3786 87.6133 67.4337 87.521 67.4478C86.345 67.6171 76.461 69.0599 75.243 69.1808C75.1086 69.4923 75.003 69.8192 74.928 70.1561C74.903 70.2374 74.8565 70.3077 74.7949 70.3568C74.7333 70.406 74.6599 70.4317 74.585 70.4301Z" fill="#231F20"/>
<path d="M79.877 70.3657C79.8312 69.6627 79.6181 68.9878 79.261 68.4151C79.0382 67.9347 78.7552 67.4947 78.421 67.1093C78.2527 66.9191 78.05 66.7742 77.8273 66.685C77.6046 66.5958 77.3675 66.5645 77.133 66.5935C76.9287 66.6409 76.7353 66.7372 76.5653 66.876C76.3953 67.0148 76.2525 67.1932 76.146 67.3995C75.9458 67.8223 75.8265 68.2895 75.796 68.7697C75.7216 69.8204 75.888 70.8752 76.2786 71.8285C76.6693 72.7819 77.2704 73.6005 78.022 74.2024L77.896 74.025" fill="white"/>
<path d="M78.022 74.6212C77.9519 74.6197 77.8837 74.5944 77.826 74.5486C77.0261 73.9045 76.3864 73.0309 75.9701 72.0143C75.5539 70.9978 75.3756 69.8736 75.453 68.7533C75.4816 68.2091 75.6181 67.6797 75.852 67.2057C75.9797 66.9464 76.1548 66.7221 76.3651 66.5482C76.5753 66.3742 76.8158 66.2548 77.07 66.1982C77.3578 66.1564 77.6501 66.1897 77.9252 66.2958C78.2003 66.4018 78.4511 66.5778 78.659 66.8107C79.0197 67.2231 79.3241 67.696 79.562 68.2132C79.9661 68.8438 80.2086 69.5921 80.262 70.3734C80.2552 70.4783 80.2149 70.5766 80.1491 70.6495C80.0832 70.7223 79.9963 70.7647 79.905 70.7683C79.859 70.7673 79.8137 70.7558 79.7716 70.7346C79.7295 70.7134 79.6914 70.6828 79.6595 70.6446C79.6277 70.6065 79.6027 70.5614 79.5859 70.5121C79.5692 70.4628 79.5611 70.4102 79.562 70.3573C79.514 69.7308 79.3179 69.1315 78.995 68.6243C78.7911 68.1777 78.5317 67.7677 78.225 67.4072C78.0943 67.2583 77.9371 67.1438 77.7644 67.0714C77.5916 66.9991 77.4072 66.9706 77.224 66.9881C77.0685 67.0286 76.9222 67.1063 76.7944 67.2159C76.6666 67.3256 76.5602 67.4649 76.482 67.6248C76.3049 67.9942 76.2021 68.4046 76.181 68.8258C76.1163 69.7389 76.2456 70.6563 76.5578 71.499C76.8701 72.3416 77.3558 73.084 77.973 73.662C78.0164 73.6662 78.0587 73.6805 78.0972 73.704C78.1357 73.7276 78.1697 73.7599 78.197 73.799L78.323 73.9683C78.3791 74.0418 78.41 74.1364 78.41 74.2343C78.41 74.3322 78.3791 74.4267 78.323 74.5003C78.2841 74.5454 78.2367 74.5797 78.1846 74.6007C78.1324 74.6216 78.0768 74.6286 78.022 74.6212Z" fill="#231F20"/>
<path d="M83.9653 67.5736C84.1547 67.5701 84.3021 67.1199 84.2946 66.568C84.287 66.0161 84.1274 65.5714 83.938 65.5749C83.7486 65.5783 83.6011 66.0285 83.6087 66.5804C83.6162 67.1323 83.7758 67.577 83.9653 67.5736Z" fill="#231F20"/>
<path d="M60.445 135.807C60.3645 135.809 60.2864 135.775 60.2275 135.712C60.1687 135.648 60.1336 135.561 60.13 135.468C59.521 126.046 60.739 100.809 60.753 100.559C60.7548 100.511 60.7649 100.464 60.7829 100.42C60.8008 100.376 60.8262 100.337 60.8575 100.304C60.8889 100.272 60.9255 100.247 60.9652 100.232C61.005 100.216 61.0471 100.209 61.089 100.213C61.1738 100.221 61.2525 100.267 61.3086 100.34C61.3648 100.414 61.3939 100.51 61.39 100.608C61.39 100.858 60.158 126.038 60.767 135.412C60.7728 135.509 60.7452 135.605 60.6902 135.679C60.6352 135.753 60.5572 135.799 60.473 135.807H60.445Z" fill="#231F20"/>
<path d="M63.392 136.605C63.3157 136.592 63.2459 136.548 63.1955 136.481C63.1451 136.413 63.1174 136.327 63.1174 136.238C63.1174 136.15 63.1451 136.064 63.1955 135.996C63.2459 135.929 63.3157 135.885 63.392 135.872L91.392 134.26C91.4345 134.256 91.4772 134.263 91.5174 134.279C91.5576 134.296 91.5945 134.321 91.6259 134.354C91.6573 134.387 91.6826 134.427 91.7001 134.472C91.7177 134.517 91.7272 134.565 91.728 134.614C91.73 134.712 91.699 134.807 91.6416 134.879C91.5842 134.951 91.5048 134.995 91.42 135.001L63.42 136.613L63.392 136.605Z" fill="#231F20"/>
</svg>
