<svg width="280" height="243" viewBox="0 0 280 243" fill="none" xmlns="http://www.w3.org/2000/svg">
<path d="M140.812 200.668C172.931 200.668 198.968 170.687 198.968 133.703C198.968 96.7195 172.931 66.7383 140.812 66.7383C108.693 66.7383 82.656 96.7195 82.656 133.703C82.656 170.687 108.693 200.668 140.812 200.668Z" fill="white"/>
<path d="M140.812 66.7381C152.314 66.7381 163.558 70.6656 173.122 78.0238C182.685 85.382 190.139 95.8405 194.541 108.077C198.943 120.313 200.095 133.777 197.851 146.767C195.607 159.757 190.068 171.689 181.935 181.054C173.801 190.42 163.439 196.797 152.158 199.381C140.877 201.965 129.183 200.639 118.557 195.571C107.93 190.502 98.8473 181.919 92.457 170.907C86.0668 159.894 82.656 146.947 82.656 133.703C82.6551 124.909 84.1587 116.2 87.081 108.075C90.0033 99.9504 94.287 92.5678 99.6874 86.3493C105.088 80.1309 111.499 75.1983 118.556 71.8334C125.612 68.4685 133.175 66.7371 140.812 66.7381ZM140.812 65.9966C129.182 65.9966 117.814 69.9675 108.144 77.4072C98.4748 84.8469 90.9383 95.4212 86.4879 107.793C82.0374 120.165 80.873 133.778 83.1418 146.912C85.4106 160.046 91.0108 172.11 99.2341 181.579C107.457 191.048 117.935 197.496 129.341 200.109C140.747 202.721 152.569 201.38 163.314 196.256C174.058 191.131 183.241 182.453 189.702 171.319C196.163 160.184 199.612 147.094 199.612 133.703C199.595 115.752 193.395 98.5418 182.371 85.8486C171.348 73.1553 156.402 66.0158 140.812 65.9966Z" fill="#231F20"/>
<path d="M97.2091 89.3954C97.6351 89.5871 98.1025 89.6209 98.5461 89.4921L97.7691 88.6861C98.8191 87.3562 99.9251 86.0746 101.066 84.8413C101.038 85.3386 100.904 85.82 100.674 86.2422C100.444 86.6644 100.127 87.014 99.7501 87.2594C100.982 87.34 101.941 86.5018 103.019 86.1229C104.3 85.7729 105.597 85.5038 106.904 85.3169L105 86.8403C105.361 87.0022 105.73 87.1368 106.106 87.2433C106.463 86.3486 106.932 87.074 107.352 87.0499C108.297 86.9854 109.34 88.275 110.061 86.9451C110.401 86.9919 110.736 87.0756 111.062 87.1949C111.957 87.512 112.81 87.9704 113.596 88.5571C114.478 89.3632 114.751 89.4599 115.423 88.267L114.534 87.9123V87.5012L116.34 87.0499C116.412 87.5423 116.44 88.042 116.424 88.541C116.343 88.8554 116.218 89.1523 116.053 89.4196C116.585 89.4781 117.113 89.5723 117.635 89.7017C118.135 89.8997 118.624 90.1339 119.098 90.4029L118.657 91.4347L121.072 90.9913L121.163 91.2412L120.239 91.9425C121.639 92.418 122.479 91.5878 122.486 89.9596L123.669 89.2261C123.248 89.1837 122.823 89.2442 122.423 89.4035C121.121 89.7339 119.798 90.1128 118.517 89.3551C117.859 88.9682 117.894 88.4282 118.517 88.0574C119.291 87.5706 120.105 87.1711 120.946 86.8645C122.416 86.3809 123.928 86.0584 125.447 85.6474L125.195 85.2041C125.883 84.9744 126.585 84.802 127.295 84.6882C127.727 84.7573 128.144 84.9157 128.527 85.1557L128.156 84.2368C128.856 84.6157 129.43 85.2121 129.857 85.0993C130.788 84.8575 131.502 85.6877 132.468 85.47C133.014 85.3491 133.749 86.2761 134.169 86.5904C134.612 86.6497 135.048 86.7604 135.471 86.9209C135.867 87.2096 136.239 87.5387 136.584 87.9043L135.107 87.4932C135.772 88.4443 136.507 89.5647 137.298 90.5964C137.851 91.3057 138.446 92.2084 139.167 92.4422C140.155 92.7775 141.061 93.3737 141.813 94.1832C141.958 94.3631 142.069 94.5755 142.139 94.8072C142.209 95.0389 142.236 95.2848 142.219 95.5293C142.119 96.2403 141.948 96.9355 141.708 97.6008C141.577 97.9629 141.331 98.2538 141.02 98.4141C140.709 98.5744 140.357 98.592 140.035 98.4632C139.454 98.1328 138.726 97.3267 138.369 97.5121C137.851 97.7942 137.599 98.7534 137.235 99.4305C137.163 99.5686 137.097 99.7112 137.039 99.8577C136.703 100.664 136.745 102.51 135.464 100.591C134.421 100.849 134.414 99.8657 134.351 99.1967C134.339 98.8577 134.247 98.5288 134.086 98.2449C133.924 97.9611 133.699 97.7329 133.434 97.5847C133.283 97.5258 133.151 97.4168 133.054 97.2714C132.957 97.126 132.9 96.9508 132.889 96.768C132.879 96.5851 132.916 96.4027 132.995 96.244C133.075 96.0852 133.193 95.9571 133.336 95.8759C134.141 95.2149 134.232 94.6104 133.539 93.756C133.175 93.3047 132.622 93.0628 132.216 92.6356C131.81 92.2085 131.593 91.6442 131.194 91.2735C130.732 90.8237 130.2 90.4791 129.626 90.2579C129.297 90.1531 128.856 90.5077 128.38 90.6931C129.325 91.5556 130.039 92.1923 130.746 92.8452C131.138 93.2079 131.6 95.3923 131.243 95.6421C130.583 96.0987 129.84 96.3745 129.073 96.4482C128.38 96.3559 127.695 96.1885 127.029 95.9484C126.686 95.9653 126.348 96.047 126.028 96.1902V96.6739L127.827 96.8673C128.297 96.8961 128.765 96.9607 129.227 97.0607C129.864 97.222 129.927 97.7136 129.5 98.1892C128.912 98.8098 129.101 99.2451 129.584 99.7368C130.795 98.6003 131.061 98.7131 131.348 100.486C131.379 100.894 131.379 101.304 131.348 101.712C131.845 101.953 132.454 102.518 132.748 102.356C134.022 101.655 134.848 102.953 135.989 103.05C136.325 102.034 136.962 102.655 137.55 102.671C137.94 102.636 138.309 102.455 138.6 102.155C138.761 102.002 138.866 101.446 138.768 101.349C138.525 101.054 138.364 100.683 138.305 100.282C138.246 99.8816 138.293 99.4699 138.439 99.1C139.972 100.067 139.958 100.067 139.608 101.873C139.553 102.24 139.53 102.613 139.538 102.985L141.813 104.033C142.513 104.839 143.059 105.468 143.584 106.056C143.773 106.258 144.053 106.395 144.165 106.644C144.251 106.887 144.378 107.106 144.54 107.289C144.702 107.472 144.895 107.616 145.107 107.71C145.318 107.804 145.545 107.848 145.772 107.838C145.998 107.828 146.221 107.765 146.426 107.652C146.391 108.015 146.356 108.361 146.314 108.748L148.33 108.643C147.753 109.502 147.121 110.31 146.44 111.061C145.635 112.125 146.293 113.254 146.44 114.342C148.134 114.495 149.828 113.592 151.466 114.729C150.535 116.913 152.089 119.17 150.969 121.306L149.856 121.153L149.198 122.161C147.504 121.701 145.866 121.427 145.355 119.742C145.355 119.09 145.481 118.614 145.355 118.372C144.963 117.743 144.438 117.244 143.997 116.663C143.703 116.268 143.213 115.817 143.234 115.422C143.29 114.165 142.639 114.229 142.037 114.511C141.782 114.669 141.489 114.723 141.204 114.665C140.92 114.606 140.66 114.439 140.469 114.189C140.093 113.838 139.692 113.523 139.272 113.246C138.985 113.665 138.705 114.116 138.39 114.535C137.894 115.299 137.329 115.999 136.703 116.623C135.604 117.542 134.295 118.235 134.771 120.274L133.994 119.041C134.127 118.525 134.218 118.155 134.365 117.574L133.098 118.195C133.14 117.961 133.098 117.792 133.182 117.743C133.924 117.187 134.372 116.131 135.338 115.922C135.629 115.778 135.874 115.533 136.038 115.221C136.325 114.785 136.507 114.261 136.808 113.842C137.55 112.811 137.417 112.23 136.395 111.94C136.311 112.207 136.196 112.459 136.052 112.69C135.94 112.835 135.59 112.819 135.562 112.94C135.296 114.116 134.428 114.463 133.651 115.003C133.168 115.341 132.524 115.994 132.524 116.51C132.524 118.872 131.054 120.315 130.34 122.152C130.021 121.63 129.744 121.074 129.514 120.492C129.43 120.12 129.465 119.725 129.612 119.38C129.853 118.848 130.127 118.336 130.431 117.848C129.976 117.848 129.542 118.058 129.381 117.897C128.59 117.091 128.611 117.042 127.925 117.502C127.981 118.364 128.03 119.114 128.072 119.734C127.757 120.266 127.533 121.064 127.085 121.306C126.637 121.548 126.07 122.709 125.118 121.741C124.824 121.435 123.823 122.048 123.144 122.233C123.112 122.244 123.078 122.244 123.046 122.233L121.324 121.33C121.681 123.144 121.961 124.554 122.248 126.029C122.43 126.956 122.738 127.642 123.753 127.682C124.145 127.682 124.523 128.182 124.719 128.319L123.137 130.229L123.914 130.922L123.809 131.269L122.29 130.745C122.08 131.172 121.793 131.696 121.548 132.26C121.142 133.211 120.757 134.17 120.386 135.138C120.092 135.944 119.812 136.709 119.553 137.507C119.411 138.103 119.243 138.689 119.049 139.264C118.75 139.89 118.413 140.491 118.041 141.062C117.005 142.803 117.033 144.858 116.732 146.817C116.627 147.51 116.361 147.76 115.815 147.446C114.816 146.916 113.843 146.321 112.903 145.664C111.916 144.923 111.076 143.899 110.061 143.206C109.116 142.66 108.283 141.887 107.618 140.941C107.443 140.651 107.31 140.336 107.156 140.038C107.015 139.72 106.849 139.418 106.659 139.135C105.49 137.652 105.728 136.347 107.289 135.46C107.608 135.24 107.844 134.893 107.954 134.485C108.058 133.956 108.109 133.415 108.108 132.873C108.549 133.409 108.943 133.995 109.284 134.622C109.732 135.645 110.453 135.025 111.041 135.154L111.23 133.88C111.279 133.606 111.335 133.332 111.461 132.711C111.692 133.348 111.797 133.63 111.867 133.832L113.659 129.423C112.7 128.19 112.504 128.222 111.825 129.713C111.733 129.931 111.651 130.154 111.58 130.382C111.457 130.798 111.258 131.178 110.996 131.497C110.734 131.815 110.416 132.065 110.062 132.229C109.708 132.393 109.328 132.467 108.947 132.446C108.567 132.425 108.194 132.309 107.856 132.107C107.359 133.526 107.254 133.719 105.84 133.808C104.426 133.896 102.942 133.808 101.64 133.808L99.2671 136.919L99.9671 137.241L98.3991 138.797L97.5521 137.62C97.1881 139.869 96.8521 142.505 96.3201 145.052C95.8409 147.644 95.1374 150.174 94.2201 152.604C92.8719 150.772 92.1965 148.407 92.3371 146.011C92.425 145.422 92.3592 144.816 92.1481 144.27C91.6441 143.424 90.8251 142.811 90.3491 141.949C89.6001 140.611 88.1371 139.925 87.8501 138.176C87.8501 137.951 87.3951 137.733 87.1501 137.652C86.3871 137.427 85.6171 137.274 84.8191 137.088C84.7173 137.751 84.5285 138.393 84.2591 138.99C83.7864 139.702 83.3936 140.479 83.0901 141.304C82.8403 138.78 82.7141 136.243 82.7121 133.703C82.6793 117.39 87.8365 101.628 97.2091 89.3954Z" fill="#D1D3D4"/>
<path d="M177.8 185.37C177.622 184.946 177.509 184.491 177.464 184.023C177.488 183.54 177.385 183.06 177.169 182.645C176.953 182.229 176.634 181.898 176.253 181.694C175.294 181.194 174.279 180.888 173.292 180.429C173.061 180.364 172.854 180.214 172.704 180.001C172.198 179.077 171.796 178.083 171.507 177.043C171.284 175.593 171.139 174.129 171.073 172.658C171.079 172.497 171.05 172.337 170.989 172.191C170.485 171.441 169.904 170.748 169.456 169.95C169.008 169.152 168.259 168.104 168.217 167.145C168.187 166.864 168.207 166.579 168.277 166.308C168.347 166.037 168.465 165.785 168.624 165.569C168.782 165.352 168.977 165.176 169.198 165.05C169.418 164.925 169.659 164.853 169.904 164.84C170.074 164.781 170.22 164.656 170.317 164.485C171.451 162.72 173.117 163.107 174.685 163.083C174.545 162.325 174.881 162.075 175.567 161.89C177.163 161.471 178.444 160.608 178.906 158.521C179.368 156.433 180.306 155.716 182.322 155.587C182.92 155.445 183.478 155.135 183.946 154.684C184.328 154.325 184.677 153.923 184.989 153.483C185.141 153.255 185.312 153.044 185.5 152.854C186.053 152.419 186.452 151.476 187.187 151.661C187.943 151.956 188.762 151.956 189.518 151.661C190.218 151.299 190.918 150.904 191.765 150.444L192.542 152.862C193.074 151.911 192.542 150.968 192.409 149.969C193.956 151.065 195.734 151.694 196.105 154.128L196.203 154.063C192.804 166.316 186.416 177.183 177.8 185.37Z" fill="#D1D3D4"/>
<path d="M189.483 111.924C187.53 112.432 186.074 111.304 184.513 110.433C184.372 110.347 184.251 110.224 184.159 110.074C184.067 109.924 184.006 109.752 183.981 109.571C184.005 109.354 184.067 109.145 184.163 108.956C184.26 108.768 184.388 108.604 184.541 108.474C184.977 108.268 185.437 108.138 185.906 108.088L185.304 107.636C186.096 107.183 186.849 106.643 187.551 106.024C187.887 105.67 187.775 104.807 188.034 104.283C188.475 103.405 189.056 102.607 189.602 101.728C190.127 102.582 190.267 104.106 191.541 103.735C191.737 103.685 191.923 103.591 192.088 103.458C192.252 103.325 192.392 103.157 192.5 102.961C196.087 110.951 198.231 119.695 198.8 128.666C198.594 128.419 198.358 128.207 198.1 128.037C196.504 126.989 196.413 126.659 196.826 124.547C196.883 123.858 196.883 123.164 196.826 122.475L196.427 124.24C196.049 123.434 195.51 122.846 195.454 122.169C195.356 120.968 194.838 120.694 193.956 120.678C193.606 120.632 193.261 120.542 192.927 120.412L193.221 120.259C193.165 119.662 193.298 118.743 193.018 118.534C191.91 117.768 190.762 117.081 189.581 116.478L190.33 118.332L190.071 118.405L186.417 116.164L186.578 115.842L187.033 116.14L186.781 115.156C186.861 115.158 186.939 115.183 187.007 115.23C187.076 115.277 187.133 115.343 187.173 115.422C187.873 116.551 188.188 116.64 189.168 115.825C189.903 115.221 190.169 114.528 189.392 113.673C189.322 113.601 189.504 112.98 189.602 112.972C190.013 112.922 190.428 112.957 190.827 113.077C191.358 113.292 191.879 113.54 192.388 113.818C191.569 112.9 190.736 111.594 189.483 111.924Z" fill="#D1D3D4"/>
<path d="M139.195 157.449C138.923 157.969 138.824 158.584 138.915 159.182C139.377 160.963 139.384 162.446 138.124 163.937C137.594 164.591 137.188 165.364 136.931 166.207C136.675 167.051 136.573 167.947 136.633 168.838C136.652 169.083 136.597 169.327 136.479 169.531C135.968 170.337 136.276 170.902 136.619 171.708C137.375 173.481 138.089 175.303 137.032 177.39C136.274 178.591 135.804 180 135.667 181.477C135.696 183.032 135.219 184.544 134.33 185.716C133.7 186.43 133.327 187.392 133.287 188.409C133.353 188.848 133.293 189.3 133.115 189.696C132.936 190.092 132.65 190.41 132.3 190.601C131.978 190.437 131.643 190.31 131.299 190.222C130.34 190.197 129.385 190.081 128.443 189.876C126.077 189.069 124.943 186.756 123.711 184.548C123.487 184.145 123.627 183.476 123.592 182.694C123.452 182.605 123.13 182.371 122.787 182.186C122.58 182.11 122.389 181.985 122.227 181.818C122.065 181.652 121.935 181.448 121.845 181.22C121.755 180.992 121.708 180.745 121.706 180.495C121.705 180.245 121.748 179.997 121.835 179.768C121.94 179.349 122.115 178.962 122.199 178.51C122.255 178.269 122.283 177.89 122.199 177.769C121.408 176.963 120.547 176.157 119.77 175.351C119.266 174.803 118.601 174.19 118.475 173.489C118.351 172.413 118.399 171.321 118.615 170.265C118.713 169.547 119.126 168.887 119.238 168.169C119.35 167.452 118.909 166.476 119.637 165.751C119.728 165.662 119.679 165.235 119.574 165.066C118.398 163.188 117.474 160.979 115.934 159.561C113.925 157.691 112.931 155.24 111.825 152.782C111.599 152.037 111.467 151.257 111.433 150.469C112.959 150.92 114.31 151.355 115.682 151.694C115.829 151.701 115.975 151.668 116.107 151.596C116.24 151.525 116.356 151.417 116.445 151.283C116.669 150.84 116.641 150.187 116.907 149.808C117.411 149.098 118.076 148.558 118.629 147.898C118.937 147.553 119.176 147.135 119.329 146.672C119.784 145.06 120.82 143.811 120.981 141.997C121.079 140.885 121.975 139.886 122.381 138.773C122.936 137.405 123.427 136.003 123.851 134.574C124.159 133.518 124.67 133.607 125.398 133.832C125.932 134.039 126.502 134.089 127.057 133.977C128.145 133.618 129.216 133.19 130.263 132.696C131.208 132.285 131.957 132.76 132.041 133.856C132.104 134.663 132.398 135.074 133.056 134.517C133.714 133.961 135.009 134.259 135.247 132.841C135.247 132.793 135.499 132.841 135.611 132.768C136.605 132.277 137.963 132.905 138.516 131.688C138.25 130.769 138.026 129.996 137.774 129.149C138.235 129.032 138.703 128.959 139.174 128.932C140.378 128.98 141.589 129.028 142.786 129.214C143.639 129.344 144.474 129.599 145.271 129.971C146.545 130.576 147.77 131.108 148.911 130.052C149.373 130.784 149.925 131.436 150.549 131.986C150.911 132.193 151.214 132.513 151.425 132.909C151.635 133.306 151.744 133.763 151.739 134.227C151.739 135.702 152.439 136.218 153.44 136.581C153.698 136.663 153.924 136.842 154.084 137.089C154.679 138.209 155.281 139.346 155.792 140.514C156.156 141.32 156.814 142.054 156.149 143.255C155.813 144.15 155.788 145.16 156.079 146.076C156.38 147.277 156.468 148.535 156.338 149.776C156.338 150.042 156.093 150.299 155.925 150.533C155.757 150.767 155.547 150.872 155.414 151.089C154.862 152.146 154.252 153.161 153.587 154.128C152.824 154.965 152.017 155.749 151.172 156.474C150.952 156.695 150.68 156.838 150.391 156.885C150.101 156.932 149.806 156.882 149.541 156.74C148.671 156.549 147.788 156.451 146.902 156.449C146.562 156.431 146.224 156.371 145.894 156.272C145.223 155.945 144.536 155.662 143.836 155.426C143.136 155.248 142.177 154.741 141.855 155.958C141.561 157.054 141.022 157.014 140.259 156.933C140.059 156.922 139.86 156.962 139.676 157.051C139.492 157.14 139.327 157.276 139.195 157.449Z" fill="#D1D3D4"/>
<path d="M183.197 87.8561C182.993 87.7828 182.798 87.6799 182.616 87.5498L180.908 88.92L183.092 88.5573L183.141 88.9361L181.041 89.8308V91.0238L183.54 92.4907L182.392 93.5386C182.449 93.8847 182.449 94.2403 182.392 94.5864C181.601 96.4564 180.796 98.3183 179.935 100.14C179.696 100.609 179.353 100.995 178.941 101.26C178.351 101.622 177.741 101.937 177.114 102.203C176.652 102.445 176.211 102.711 176.071 101.776C175.931 100.841 175.728 100.003 175.539 99.1163C175.504 98.9551 175.455 98.7294 175.35 98.673C174.489 98.1571 174.335 97.3269 174.342 96.2549C174.342 95.9164 173.838 95.2635 173.607 95.2877C171.913 95.473 170.849 94.4816 169.932 93.0227C169.68 92.6197 169.232 92.12 168.889 92.0958C166.67 91.9346 164.801 90.79 162.827 89.4842L165.48 89.1699L164.78 88.1704L162.68 89.186C162.619 88.9617 162.598 88.7255 162.617 88.4915C162.637 88.2576 162.697 88.0305 162.795 87.8238C162.892 87.6171 163.024 87.435 163.184 87.2883C163.343 87.1415 163.526 87.0331 163.723 86.9694C164.633 86.5664 164.724 86.0022 164.255 85.2768H161.819L162.519 84.366L160.958 84.108L161.658 83.302C160.44 82.3509 162.036 81.8753 161.938 81.158L160.426 81.0451C160.706 80.5615 160.86 79.9812 161.168 79.828C161.662 79.6853 162.173 79.6389 162.68 79.691C161.28 77.2729 158.893 76.4669 156.709 75.2981C157.295 74.9334 157.942 74.7193 158.607 74.6706C159.272 74.6219 159.938 74.7397 160.559 75.016C161.689 75.3777 162.84 75.6471 164.003 75.822C163.898 75.6367 163.688 75.2417 163.471 74.8387C163.919 74.8951 164.367 74.9677 164.815 75.008C165.06 75.008 165.312 75.008 165.564 75.008L165.599 74.5163L162.862 73.9843C163.793 73.6941 164.682 73.2831 165.578 73.0815C172.206 76.6866 178.183 81.6991 183.197 87.8561Z" fill="#D1D3D4"/>
<path d="M190.596 99.0601L190.925 99.7129C190.708 99.7935 190.484 99.8822 190.225 99.987L190.596 99.0601Z" fill="#D1D3D4"/>
<path d="M187.418 93.7158H187.453C187.63 93.9845 187.798 94.2532 187.957 94.5218L187.418 93.7158Z" fill="#D1D3D4"/>
<path d="M189.581 98.7055C189.499 98.2474 189.521 97.7728 189.644 97.3271C189.889 97.7543 190.12 98.1815 190.344 98.6168L189.581 98.7055Z" fill="#D1D3D4"/>
<path d="M116.417 178.954C116.788 179.872 116.683 181.63 116.046 182.258C115.902 182.408 115.728 182.513 115.539 182.566C115.351 182.619 115.154 182.618 114.966 182.562C114.778 182.506 114.606 182.398 114.463 182.246C114.32 182.095 114.213 181.905 114.149 181.694C113.54 179.389 113.008 177.067 112.448 174.746C112.406 174.569 112.448 174.343 112.343 174.206C112.103 173.779 112.007 173.265 112.073 172.762C112.139 172.259 112.362 171.801 112.7 171.474C113.869 172.481 113.995 174.698 116.095 174.585C116.095 175.391 116.053 176.1 116.095 176.826C116.097 177.551 116.206 178.27 116.417 178.954Z" fill="#D1D3D4"/>
<path d="M144.494 105.145C144.396 104.847 144.151 104.42 144.242 104.291C144.394 104.128 144.588 104.026 144.795 104.001C145.607 102.703 146.321 101.583 147.077 100.382C146.461 99.1242 146.482 98.6567 147.308 98.0361C147.812 97.6573 148.967 98.1893 149.492 99.0517C149.737 99.4467 149.387 100.188 148.477 101.18L148.603 101.929C148.428 101.929 148.295 101.929 148.225 101.994C147.903 102.276 147.42 102.518 147.322 102.896C147.224 103.275 147.525 103.702 148.022 103.469C148.152 103.577 148.246 103.734 148.288 103.912C148.31 104.393 148.31 104.874 148.288 105.355L147.413 105.653L148.96 107.015L144.76 106.25C144.655 105.661 144.571 105.379 144.494 105.145Z" fill="#D1D3D4"/>
<path d="M108.941 80.989C109.725 81.9686 110.567 82.8843 111.461 83.7295C110.348 84.9708 108.927 85.14 107.198 85.0675C107.674 84.6806 108.066 84.4952 108.248 84.1647C108.43 83.8343 108.57 83.1814 108.416 82.9557C107.65 81.8914 106.696 81.0284 105.616 80.4247C105.98 80.1023 106.316 79.7799 106.729 79.4736C107.588 79.6945 108.363 80.2254 108.941 80.989Z" fill="#D1D3D4"/>
<path d="M161.476 98.7134C161.064 98.8301 160.634 98.8301 160.223 98.7134C159.575 98.5183 158.965 98.1848 158.424 97.73C158.018 97.3431 157.094 97.0288 157.535 96.1179C157.966 95.4782 158.476 94.9136 159.047 94.4414L159.131 94.8364L162.309 95.7149L163.086 94.522L162.96 94.917L164.36 95.8439L164.213 96.0535H162.722L164.073 96.8595L162.575 97.3592L163.331 98.0041C162.694 98.2862 162.092 98.5602 161.476 98.7134Z" fill="#D1D3D4"/>
<path d="M134.197 78.4901C133.497 77.8614 132.951 77.3052 132.349 76.8296C132.241 76.7666 132.121 76.7337 131.999 76.7337C131.878 76.7337 131.758 76.7666 131.649 76.8296C131.474 76.9667 131.439 77.3294 131.313 77.6357H129.283L129.241 77.2004L134.96 74.5728L134.61 75.4674L138.012 75.1289L138.089 75.54C137.66 76.012 137.162 76.3938 136.619 76.6684C136.057 76.7092 135.494 76.6244 134.96 76.4186L134.925 76.7168L136.22 77.2568L136.171 77.4583L135.149 77.5712L135.849 77.9823L134.197 78.4901Z" fill="#D1D3D4"/>
<path d="M149.317 102.961C148.827 102.622 148.75 102.155 149.233 101.873C149.716 101.591 150.276 101.067 150.829 101.873C151.13 102.268 151.487 102.598 151.9 103.042V104.936L152.236 105.129C152.054 105.298 151.83 105.653 151.697 105.613C150.937 105.4 150.199 105.089 149.499 104.686C149.324 104.573 149.457 103.832 149.429 103.388C149.422 103.195 149.394 102.961 149.317 102.961Z" fill="#D1D3D4"/>
<path d="M198.184 141.167C198.325 141.086 198.473 141.024 198.625 140.981C198.625 141.266 198.597 141.548 198.541 141.828C198.123 141.992 197.716 142.191 197.323 142.424C196.903 142.666 196.623 143.23 196.224 143.843L194.299 143.585C195.699 142.714 196.917 141.892 198.184 141.167Z" fill="#D1D3D4"/>
<path d="M190.61 145.229C190.526 144.149 192.213 143.464 193.725 143.94L192.92 145.004L194.509 144.842C193.263 145.842 191.912 145.108 190.61 145.229Z" fill="#D1D3D4"/>
<path d="M127.554 74.6777H132.923C132.225 75.1072 131.471 75.4038 130.69 75.5563C129.643 75.5719 128.596 75.5154 127.554 75.387V74.6777Z" fill="#D1D3D4"/>
<path d="M91.7981 155.555C91.4971 155.418 91.0981 154.749 91.1611 154.507C91.455 153.739 91.8112 153.005 92.2251 152.314L92.5471 152.476C92.5471 153.217 92.5471 153.959 92.5471 154.692C92.5471 155.426 92.4001 155.813 91.7981 155.555Z" fill="#D1D3D4"/>
<path d="M139.034 116.752L139.734 117.075V119.146C138.544 119.074 139.09 117.97 138.852 117.373C138.789 117.236 138.964 116.978 139.034 116.752Z" fill="#D1D3D4"/>
<path d="M135.177 120.122H137.074L137.13 120.371L135.394 121.589C135.317 121.04 135.24 120.549 135.177 120.122Z" fill="#D1D3D4"/>
<path d="M202.194 65.7515L203.914 66.7471L211.979 48.2753L210.259 47.2797L202.194 65.7515Z" fill="#231F20"/>
<path d="M203.903 67.1575C203.85 67.1697 203.795 67.1697 203.742 67.1575L202.027 66.158C201.986 66.1348 201.949 66.1024 201.918 66.0627C201.888 66.023 201.864 65.9767 201.849 65.9265C201.834 65.8763 201.828 65.8233 201.831 65.7703C201.834 65.7174 201.846 65.6656 201.866 65.618L209.937 47.1035C209.956 47.056 209.984 47.0135 210.018 46.9787C210.052 46.9438 210.092 46.9173 210.135 46.9007C210.178 46.8841 210.224 46.8778 210.269 46.8822C210.315 46.8866 210.359 46.9015 210.399 46.9262L212.1 47.9256C212.141 47.9487 212.179 47.9812 212.209 48.0211C212.239 48.0611 212.262 48.1076 212.277 48.158C212.291 48.2084 212.296 48.2616 212.293 48.3145C212.289 48.3674 212.276 48.4188 212.254 48.4657L204.211 66.9399C204.169 67.0349 204.096 67.1071 204.008 67.1414L203.903 67.1575ZM202.65 65.5455L203.749 66.1822L211.498 48.4496L210.399 47.8128L202.65 65.5455Z" fill="#231F20"/>
<path d="M197.491 73.6861C197.694 72.9687 201.831 67.1814 201.985 65.924C202.139 64.6666 201.215 59.4758 202.139 58.7584C203.063 58.041 204.764 62.8933 204.764 62.8933C204.764 62.8933 208.383 55.3086 209.412 55.8003C210.441 56.2919 210.112 60.4913 209.538 63.0545C208.964 65.6177 202.398 78.1998 202.398 78.1998L197.491 73.6861Z" fill="white"/>
<path d="M202.398 78.5866C202.32 78.5884 202.244 78.56 202.181 78.506L197.281 74.0083C197.227 73.9552 197.187 73.8848 197.167 73.806C197.147 73.7272 197.148 73.6434 197.169 73.565C197.632 72.619 198.169 71.7234 198.772 70.889C199.885 69.156 201.572 66.5364 201.656 65.8674C201.669 65.1293 201.634 64.391 201.551 63.6589C201.327 60.9587 201.229 59.0001 201.95 58.4278C202.04 58.3542 202.145 58.3064 202.254 58.2882C202.364 58.2699 202.475 58.2819 202.58 58.323C203.406 58.6051 204.337 60.7411 204.82 61.9743C206.486 58.5567 208.537 54.9377 209.559 55.4294C211.113 56.1709 210.217 61.7003 209.895 63.1431C209.3 65.7143 203 77.8773 202.699 78.3931C202.673 78.4425 202.639 78.4852 202.598 78.5185C202.557 78.5518 202.51 78.5749 202.461 78.5866H202.398ZM197.932 73.5811L202.3 77.6113C203.413 75.4592 208.705 65.1742 209.202 62.9577C209.902 59.9754 209.902 56.5094 209.279 56.1951C208.726 56.2434 206.647 59.8061 205.079 63.1108C205.047 63.1782 204.999 63.2337 204.941 63.2708C204.883 63.3079 204.817 63.3251 204.75 63.3204C204.684 63.3129 204.622 63.285 204.569 63.2395C204.516 63.1941 204.474 63.1329 204.449 63.0625C203.658 60.8217 202.685 59.1129 202.349 59.1129C201.901 59.4676 202.125 62.1597 202.237 63.6106C202.336 64.4112 202.371 65.2206 202.342 66.0286C202.244 66.8347 201.026 68.7691 199.325 71.4129C198.8 72.2028 198.184 73.1378 197.932 73.5811Z" fill="#231F20"/>
<path d="M215.474 178.841C215.474 178.841 220.64 189.368 220.283 189.416C219.926 189.464 211.659 192.269 211.659 192.269C211.659 192.269 206.794 183.725 206.864 183.508C206.934 183.29 215.474 178.841 215.474 178.841Z" fill="white"/>
<path d="M211.659 192.672C211.601 192.672 211.545 192.655 211.495 192.623C211.444 192.59 211.402 192.544 211.372 192.487C206.402 183.774 206.472 183.621 206.535 183.371C206.598 183.121 206.654 183 215.334 178.478C215.413 178.435 215.504 178.429 215.587 178.46C215.671 178.492 215.74 178.559 215.782 178.647C220.864 189.013 220.682 189.36 220.605 189.585C220.576 189.647 220.535 189.701 220.486 189.741C220.436 189.782 220.378 189.808 220.318 189.819C219.982 189.875 215.012 191.552 211.764 192.656L211.659 192.672ZM207.312 183.669C207.858 184.797 210.217 188.997 211.813 191.794C213.724 191.149 218.463 189.545 219.863 189.118C219.373 187.764 216.965 182.71 215.327 179.365C212.506 180.832 208.341 183.04 207.312 183.669Z" fill="#231F20"/>
<path d="M220.283 189.416C220.283 189.416 234.283 188.537 234.983 191.407C235.683 194.276 215.012 201.595 215.012 201.595L211.652 192.269L220.283 189.416Z" fill="#231F20"/>
<path d="M215.019 201.99C214.951 201.99 214.884 201.967 214.827 201.924C214.769 201.881 214.724 201.82 214.697 201.748L211.337 192.43C211.316 192.378 211.306 192.322 211.306 192.265C211.306 192.208 211.316 192.152 211.337 192.1C211.358 192.049 211.388 192.004 211.425 191.967C211.463 191.931 211.507 191.905 211.554 191.89L220.171 189.037H220.248C222.635 188.892 234.57 188.295 235.305 191.318C236.04 194.341 220.031 200.257 215.11 201.998C215.079 202.001 215.049 201.998 215.019 201.99ZM212.135 192.527L215.222 201.103C224.91 197.645 235.025 193.043 234.654 191.511C234.22 189.754 226.037 189.456 220.339 189.811L212.135 192.527Z" fill="#231F20"/>
<path d="M186.137 180.783L182.574 185.329L176.106 177.495L181.3 171.224L186.137 180.783Z" fill="white"/>
<path d="M182.574 185.732C182.526 185.732 182.478 185.72 182.433 185.698C182.389 185.676 182.349 185.644 182.315 185.603L175.854 177.769C175.79 177.695 175.755 177.595 175.755 177.491C175.755 177.387 175.79 177.287 175.854 177.213L181.048 170.95C181.085 170.904 181.131 170.869 181.182 170.848C181.233 170.827 181.288 170.82 181.342 170.829C181.396 170.836 181.448 170.857 181.494 170.891C181.54 170.924 181.579 170.969 181.608 171.022L186.438 180.574C186.476 180.648 186.492 180.734 186.485 180.82C186.477 180.905 186.446 180.986 186.396 181.049L182.833 185.595C182.764 185.676 182.672 185.724 182.574 185.732ZM176.589 177.495L182.567 184.749L185.703 180.719L181.237 171.853L176.589 177.495Z" fill="#231F20"/>
<path d="M182.574 185.329C182.574 185.329 187.243 201.555 184.793 201.337C182.343 201.119 170.723 184.217 170.723 184.217L176.106 177.495L182.574 185.329Z" fill="#231F20"/>
<path d="M184.842 201.74H184.8C182.28 201.514 171.682 186.216 170.485 184.475C170.432 184.401 170.403 184.308 170.403 184.213C170.403 184.117 170.432 184.025 170.485 183.951L175.868 177.229C175.902 177.188 175.942 177.156 175.986 177.134C176.031 177.112 176.079 177.1 176.127 177.1C176.222 177.1 176.312 177.143 176.379 177.221L182.847 185.055C182.879 185.101 182.905 185.153 182.924 185.208C183.624 187.554 186.9 199.354 185.528 201.369C185.448 201.49 185.344 201.586 185.224 201.65C185.105 201.715 184.974 201.746 184.842 201.74ZM171.178 184.233C175.665 190.73 183.176 200.789 184.821 200.934C184.848 200.94 184.876 200.936 184.901 200.923C184.926 200.91 184.947 200.889 184.961 200.861C185.836 199.58 183.778 190.818 182.266 185.547L176.113 178.091L171.178 184.233Z" fill="#231F20"/>
<path d="M190.176 103.59C190.176 103.59 218.428 138.805 218.876 142.279C219.737 149.002 186.676 183.516 186.676 183.516L179.102 171.611L198.8 145.181L172.9 104.46L190.176 103.59Z" fill="#231F20"/>
<path d="M186.662 183.911H186.62C186.572 183.905 186.525 183.887 186.483 183.859C186.441 183.832 186.404 183.794 186.375 183.75L178.808 171.836C178.759 171.765 178.733 171.677 178.733 171.587C178.733 171.496 178.759 171.408 178.808 171.337L198.31 145.165L172.613 104.694C172.575 104.636 172.551 104.567 172.545 104.494C172.539 104.422 172.55 104.349 172.578 104.283C172.605 104.217 172.648 104.161 172.701 104.121C172.754 104.081 172.816 104.059 172.879 104.057L190.148 103.187C190.198 103.182 190.249 103.191 190.295 103.213C190.341 103.236 190.382 103.271 190.414 103.316C193.319 106.935 218.757 138.725 219.205 142.207C219.576 145.133 214.235 153.032 203.322 165.695C195.3 175.061 186.977 183.725 186.9 183.806C186.869 183.841 186.831 183.869 186.79 183.887C186.749 183.905 186.706 183.913 186.662 183.911ZM179.536 171.619L186.711 182.903C196.07 173.118 219.205 147.607 218.526 142.32C218.218 139.902 201.355 118.139 190.029 103.993L173.572 104.799L199.052 144.923C199.103 144.993 199.131 145.082 199.131 145.173C199.131 145.265 199.103 145.353 199.052 145.423L179.536 171.619Z" fill="#231F20"/>
<path d="M166.894 111.4L208.243 189.142L219.849 181.452L185.626 104.146L166.894 111.4Z" fill="#231F20"/>
<path d="M208.243 189.545C208.183 189.545 208.123 189.528 208.07 189.494C208.018 189.46 207.973 189.411 207.942 189.351L166.6 111.61C166.579 111.555 166.569 111.496 166.569 111.437C166.569 111.377 166.579 111.318 166.6 111.263C166.619 111.207 166.648 111.156 166.685 111.115C166.723 111.073 166.768 111.041 166.817 111.021L185.5 103.767C185.578 103.735 185.664 103.737 185.742 103.773C185.819 103.808 185.882 103.875 185.92 103.961L220.15 181.267C220.19 181.359 220.198 181.466 220.172 181.565C220.146 181.664 220.088 181.748 220.01 181.799L208.404 189.496C208.354 189.525 208.299 189.542 208.243 189.545ZM167.419 111.618L208.362 188.602L219.387 181.291L185.451 104.638L167.419 111.618Z" fill="#231F20"/>
<path d="M209.041 156.361C208.977 156.362 208.914 156.344 208.858 156.307C208.802 156.27 208.757 156.216 208.726 156.151L189.301 113.431C189.273 113.372 189.259 113.305 189.259 113.238C189.259 113.171 189.273 113.104 189.301 113.045L191.352 108.813C191.373 108.767 191.402 108.726 191.438 108.692C191.473 108.659 191.514 108.634 191.557 108.619C191.601 108.604 191.647 108.599 191.692 108.605C191.737 108.61 191.781 108.626 191.821 108.652C191.862 108.677 191.897 108.711 191.926 108.753C191.955 108.794 191.977 108.841 191.99 108.892C192.003 108.943 192.007 108.997 192.002 109.049C191.997 109.102 191.983 109.153 191.961 109.2L190.001 113.23L209.342 155.764C209.384 155.86 209.393 155.97 209.365 156.073C209.338 156.175 209.277 156.261 209.195 156.312C209.147 156.34 209.095 156.356 209.041 156.361Z" fill="white"/>
<path d="M169.4 55.0989C167.594 54.7201 165.802 54.2526 164.038 53.6884C162.75 53.2773 161.371 52.7292 160.671 51.4234C161.826 50.8108 162.323 49.2794 162.715 47.893L165.34 38.5189C165.951 35.8965 166.894 33.3923 168.14 31.0873C169.078 29.5236 173.103 24.9131 174.594 27.7826C176.288 26.2753 179.865 25.1791 181.874 26.3156C183.018 27.0089 184.017 27.981 184.802 29.1642C185.586 30.3475 186.138 31.7134 186.417 33.1668C186.756 35.5827 186.653 38.0534 186.116 40.4211C186.05 40.9069 185.918 41.3776 185.724 41.8155C185.367 42.3905 184.912 42.8759 184.387 43.2422C180.715 46.3121 177.755 50.3759 175.77 55.0747C175.683 55.4086 175.494 55.6949 175.238 55.8807C175.036 55.9638 174.819 55.9833 174.608 55.9372C172.9 55.7276 171.136 55.4536 169.4 55.0989Z" fill="white"/>
<path d="M174.867 56.3323C174.762 56.3323 174.664 56.3323 174.573 56.3323C172.83 56.1469 171.073 55.8729 169.358 55.5263C167.545 55.1555 165.725 54.6719 163.954 54.1077C162.554 53.6563 161.154 53.0518 160.391 51.6896C160.363 51.6414 160.345 51.5868 160.338 51.5297C160.331 51.4726 160.335 51.4144 160.349 51.3591C160.364 51.3049 160.389 51.2547 160.421 51.2118C160.454 51.1688 160.493 51.1339 160.538 51.1092C161.546 50.5773 162.008 49.1909 162.393 47.8207L165.025 38.4546C165.647 35.7893 166.612 33.2463 167.888 30.9102C168.672 29.6044 171.332 26.5173 173.278 26.5173H173.355C173.614 26.525 173.869 26.5967 174.102 26.7274C174.335 26.8581 174.541 27.0448 174.706 27.275C176.491 25.8966 179.928 24.8085 182.063 26.0095C183.254 26.7314 184.295 27.7435 185.112 28.9754C185.929 30.2073 186.504 31.6295 186.795 33.1429C187.149 35.6169 187.046 38.149 186.494 40.5744C186.423 41.1037 186.277 41.6158 186.06 42.0898C185.708 42.6878 185.25 43.1933 184.716 43.5729L184.625 43.6454C180.988 46.6645 178.055 50.6708 176.085 55.3087C175.96 55.7154 175.712 56.0563 175.385 56.2678C175.219 56.3353 175.042 56.3574 174.867 56.3323ZM161.196 51.5526C162.01 52.4524 163.034 53.0601 164.143 53.3017C165.893 53.8578 167.692 54.3334 169.477 54.7041C171.178 55.0588 172.914 55.3248 174.636 55.5102C174.786 55.5516 174.942 55.5516 175.091 55.5102C175.245 55.4296 175.357 55.1636 175.455 54.9298C177.475 50.1718 180.486 46.0628 184.219 42.9684L184.303 42.8958C184.758 42.5771 185.151 42.1547 185.458 41.6545C185.632 41.2564 185.75 40.8294 185.808 40.3891C186.338 38.0722 186.441 35.6532 186.109 33.2879C185.843 31.8925 185.316 30.5808 184.564 29.4447C183.812 28.3085 182.853 27.3754 181.755 26.7107C179.949 25.6951 176.498 26.6543 174.839 28.1294C174.802 28.1652 174.758 28.1911 174.71 28.205C174.663 28.219 174.614 28.2206 174.566 28.21C174.51 28.2028 174.457 28.1799 174.41 28.1434C174.364 28.1068 174.326 28.0577 174.3 28.0004C174.205 27.7868 174.063 27.6066 173.886 27.4789C173.71 27.3512 173.507 27.2808 173.299 27.275H173.25C171.605 27.275 169.113 30.1928 168.434 31.3051C167.192 33.578 166.249 36.0496 165.634 38.64L163.002 48.006C162.687 49.336 162.211 50.7868 161.196 51.5526Z" fill="#231F20"/>
<path d="M186.2 43.9116C186.2 43.9116 188.384 49.449 187.642 50.3599C186.9 51.2707 185.024 50.239 185.024 50.239" fill="white"/>
<path d="M186.732 51.1657C186.088 51.128 185.457 50.9416 184.877 50.6176C184.795 50.5691 184.732 50.4857 184.702 50.385C184.672 50.2843 184.677 50.174 184.716 50.0775C184.736 50.0298 184.764 49.9872 184.799 49.952C184.833 49.9169 184.874 49.8899 184.917 49.8727C184.961 49.8555 185.007 49.8483 185.053 49.8517C185.099 49.855 185.144 49.8688 185.185 49.8921C185.612 50.134 186.935 50.6982 187.39 50.1017C187.705 49.7148 186.998 46.8776 185.885 44.0807C185.847 43.9834 185.844 43.8728 185.877 43.7731C185.91 43.6734 185.976 43.5927 186.06 43.5487C186.102 43.526 186.147 43.5132 186.193 43.5111C186.239 43.5089 186.285 43.5175 186.328 43.5364C186.371 43.5552 186.411 43.5838 186.444 43.6205C186.477 43.6573 186.504 43.7014 186.522 43.7502C187.222 45.4832 188.72 49.6342 187.922 50.6498C187.768 50.8293 187.581 50.9682 187.376 51.0573C187.171 51.1463 186.951 51.1833 186.732 51.1657Z" fill="#231F20"/>
<path d="M186.508 37.1893C188.097 39.2447 187.068 42.7751 186.725 45.1367C186.258 48.4576 185.71 51.765 185.08 55.059C184.695 57.1466 179.949 56.3244 179.2 55.5426L178.675 62.5953C178.675 62.5953 177.03 66.2386 173.488 63.4981C169.946 60.7576 169.442 57.8236 169.442 57.8236L171.08 48.2319C171.08 48.2319 174.209 48.8284 176.68 44.8708C179.151 40.9132 179.963 34.3037 179.963 34.3037C179.963 34.3037 184.954 35.1823 186.508 37.1893Z" fill="white"/>
<path d="M175.966 64.9244C175.001 64.8765 174.069 64.4976 173.292 63.8363C169.673 61.0394 169.092 57.9926 169.092 57.8636C169.078 57.8111 169.078 57.7549 169.092 57.7024L170.737 48.151C170.757 48.0499 170.809 47.961 170.883 47.9015C170.956 47.8419 171.047 47.816 171.136 47.8285C171.255 47.8285 174.09 48.3202 176.372 44.6044C178.738 40.7758 179.578 34.2792 179.585 34.2147C179.591 34.1616 179.607 34.1106 179.631 34.0648C179.655 34.019 179.687 33.9795 179.725 33.9487C179.762 33.9163 179.803 33.8925 179.848 33.8787C179.892 33.8649 179.938 33.8613 179.984 33.8681C180.194 33.8681 185.15 34.795 186.767 36.8827C188.209 38.7446 187.691 41.606 187.285 43.9032C187.201 44.3546 187.124 44.7818 187.068 45.1686C186.592 48.4814 186.039 51.8184 185.423 55.107C185.344 55.4526 185.183 55.7661 184.958 56.0124C184.733 56.2586 184.453 56.428 184.149 56.5014C182.604 56.9108 180.989 56.7931 179.501 56.1629L179.025 62.6111C179.017 62.6642 179.003 62.7158 178.983 62.7643C178.501 63.7483 177.705 64.477 176.764 64.7955C176.504 64.8751 176.236 64.9184 175.966 64.9244ZM169.799 57.7749C169.904 58.2263 170.618 60.7976 173.684 63.1673C174.087 63.5405 174.555 63.8104 175.056 63.9591C175.557 64.1079 176.079 64.1319 176.589 64.0297C177.319 63.7768 177.941 63.2191 178.332 62.466L178.85 55.51C178.856 55.4356 178.879 55.3645 178.918 55.3047C178.957 55.2448 179.009 55.1985 179.069 55.1709C179.13 55.1433 179.195 55.1356 179.259 55.1485C179.323 55.1614 179.383 55.1945 179.431 55.244C179.844 55.6712 182.448 56.316 183.932 55.7679C184.401 55.5906 184.674 55.3246 184.737 54.9619C185.346 51.6814 185.899 48.3525 186.375 45.0558C186.438 44.6528 186.515 44.2498 186.599 43.7581C186.977 41.6382 187.453 38.9945 186.242 37.4388C185.017 35.8268 181.342 35.0207 180.222 34.7547C179.998 36.2701 179.081 41.6221 176.939 45.088C174.797 48.554 172.284 48.691 171.339 48.6426L169.799 57.7749Z" fill="#231F20"/>
<path d="M185.353 52.5682C185.353 52.5682 182.896 53.745 182.07 50.8594L185.353 52.5682Z" fill="white"/>
<path d="M184.24 53.2051C183.665 53.2243 183.103 53.0141 182.647 52.6101C182.192 52.2061 181.872 51.6333 181.741 50.9886C181.725 50.9377 181.718 50.8836 181.72 50.8295C181.722 50.7754 181.734 50.7223 181.755 50.6735C181.775 50.6248 181.804 50.5813 181.839 50.5456C181.875 50.51 181.916 50.483 181.961 50.4662C182.006 50.4494 182.053 50.4431 182.1 50.4478C182.147 50.4525 182.192 50.468 182.234 50.4935C182.275 50.5189 182.312 50.5537 182.342 50.5959C182.371 50.638 182.393 50.6866 182.406 50.7387C182.479 51.044 182.604 51.3292 182.775 51.5771C182.946 51.8251 183.158 52.0307 183.4 52.1815C183.98 52.4312 184.619 52.4312 185.199 52.1815C185.282 52.1523 185.372 52.1599 185.451 52.2027C185.529 52.2455 185.591 52.3206 185.624 52.4132C185.658 52.5058 185.66 52.6093 185.63 52.7036C185.601 52.7978 185.542 52.8761 185.465 52.923C185.075 53.1009 184.66 53.1965 184.24 53.2051Z" fill="#231F20"/>
<path d="M180.376 45.0318C180.412 44.1879 180.239 43.3497 179.879 42.6137C179.681 41.9948 179.4 41.4154 179.046 40.8968C178.865 40.6462 178.638 40.4442 178.381 40.3049C178.125 40.1657 177.845 40.0926 177.562 40.0908C177.312 40.1147 177.07 40.1989 176.85 40.3377C176.631 40.4766 176.439 40.6671 176.288 40.8968C175.987 41.3751 175.786 41.9267 175.7 42.5089C175.482 43.7507 175.55 45.0365 175.898 46.2385C176.245 47.4405 176.86 48.5168 177.681 49.3602L177.555 49.1345" fill="white"/>
<path d="M177.681 49.7631C177.599 49.7629 177.519 49.7286 177.457 49.6664C176.586 48.7747 175.934 47.6354 175.565 46.3623C175.197 45.0893 175.125 43.7272 175.357 42.4121C175.457 41.7813 175.682 41.1856 176.015 40.6711C176.195 40.3911 176.424 40.159 176.689 39.9907C176.954 39.8223 177.247 39.7218 177.548 39.6958C177.885 39.6944 178.218 39.7806 178.523 39.9481C178.827 40.1155 179.094 40.36 179.305 40.6631C179.682 41.2056 179.984 41.8119 180.201 42.4605C180.588 43.2702 180.768 44.1898 180.719 45.1123C180.705 45.2166 180.656 45.3105 180.583 45.3738C180.51 45.4371 180.418 45.4647 180.327 45.4509C180.281 45.445 180.237 45.4284 180.197 45.4023C180.156 45.3762 180.121 45.341 180.093 45.2989C180.065 45.2568 180.045 45.2085 180.033 45.1571C180.022 45.1056 180.019 45.052 180.026 44.9995C180.054 44.228 179.894 43.4629 179.564 42.791C179.372 42.2127 179.108 41.6696 178.78 41.1789C178.634 40.9735 178.451 40.8057 178.245 40.6863C178.039 40.5669 177.814 40.4986 177.583 40.4857C177.382 40.5098 177.187 40.5817 177.011 40.6968C176.835 40.812 176.682 40.9679 176.561 41.1547C176.301 41.5814 176.124 42.0682 176.043 42.5814C175.85 43.6754 175.893 44.8072 176.167 45.8779C176.442 46.9486 176.94 47.9255 177.618 48.7233C177.664 48.7314 177.707 48.7507 177.746 48.7799C177.785 48.8091 177.817 48.8475 177.842 48.8926L177.975 49.1183C178.011 49.1792 178.031 49.2503 178.035 49.3238C178.038 49.3972 178.024 49.4703 177.993 49.5351C177.963 49.5999 177.918 49.6538 177.863 49.6912C177.808 49.7286 177.745 49.7479 177.681 49.747V49.7631Z" fill="#231F20"/>
<path d="M179.2 55.5423C179.2 55.5423 176.862 54.2124 175.987 52.0684C175.987 52.0684 175.448 57.1544 179.011 59.3226L179.2 55.5423Z" fill="#231F20"/>
<path d="M179.011 59.7175C178.955 59.7168 178.899 59.7002 178.85 59.6692C175.119 57.4123 175.63 52.0683 175.637 52.0199C175.647 51.9328 175.682 51.8516 175.734 51.7879C175.787 51.7243 175.856 51.6814 175.931 51.6653C176.006 51.653 176.082 51.6682 176.148 51.7087C176.215 51.7493 176.269 51.8131 176.302 51.891C177.114 53.8899 179.333 55.1715 179.354 55.1796C179.416 55.2153 179.467 55.2709 179.502 55.3396C179.537 55.4082 179.553 55.4871 179.55 55.5665L179.361 59.3387C179.358 59.405 179.34 59.4694 179.309 59.5257C179.279 59.5821 179.236 59.6286 179.186 59.6611C179.134 59.6993 179.073 59.7189 179.011 59.7175ZM176.33 53.4385C176.358 54.4535 176.585 55.4479 176.995 56.347C177.405 57.2461 177.986 58.0265 178.696 58.6294L178.836 55.776C177.885 55.1769 177.036 54.3851 176.33 53.4385Z" fill="#231F20"/>
<path d="M185.251 41.4558C185.435 40.8273 185.409 40.2497 185.193 40.1658C184.976 40.0819 184.652 40.5235 184.468 41.152C184.284 41.7805 184.31 42.3581 184.526 42.442C184.742 42.5259 185.067 42.0844 185.251 41.4558Z" fill="#231F20"/>
<path d="M167.37 55.9053C167.37 55.9053 177.051 57.2352 180.579 63.5706C184.107 69.906 185.815 93.1519 187.6 94.901C189.385 96.6501 194.306 105.541 194.229 105.96C194.152 106.379 165.774 114.246 165.774 114.246C165.774 114.246 164.605 106.733 162.141 96.9241C159.677 87.1147 159.236 55.9133 167.37 55.9053Z" fill="#68E1FD"/>
<path d="M174.713 65.94C174.916 66.2785 184.632 87.3643 184.632 87.3643L197.463 70.4377L204.197 76.8859C204.197 76.8859 192.717 98.9872 185.395 101.123C178.073 103.259 163.366 72.4285 163.8 69.2044C164.234 65.9803 171.836 61.1844 174.713 65.94Z" fill="#68E1FD"/>
<path d="M184.632 87.7674H184.597C184.54 87.7615 184.485 87.7392 184.437 87.7026C184.39 87.666 184.351 87.6162 184.324 87.5578L175.525 68.5194C175.503 68.4724 175.489 68.4208 175.485 68.3677C175.481 68.3146 175.485 68.261 175.499 68.21C175.513 68.159 175.535 68.1116 175.565 68.0707C175.594 68.0297 175.631 67.9959 175.672 67.9713C175.754 67.9229 175.849 67.9135 175.937 67.9452C176.024 67.9769 176.098 68.0471 176.141 68.1406C176.246 68.3582 183.309 83.6325 184.702 86.6793L190.029 79.6668C190.062 79.629 190.1 79.599 190.143 79.5786C190.186 79.5581 190.231 79.5476 190.278 79.5476C190.324 79.5476 190.369 79.5581 190.412 79.5786C190.455 79.599 190.493 79.629 190.526 79.6668C190.559 79.703 190.586 79.7467 190.604 79.7952C190.623 79.8437 190.632 79.896 190.632 79.9489C190.632 80.0018 190.623 80.0541 190.604 80.1026C190.586 80.1511 190.559 80.1948 190.526 80.231L184.898 87.6465C184.863 87.6867 184.822 87.7181 184.776 87.739C184.73 87.7598 184.681 87.7694 184.632 87.7674Z" fill="#231F20"/>
<path d="M185.5 101.228C180.726 101.228 175.847 96.3356 170.982 86.6471C170.946 86.5562 170.941 86.4533 170.968 86.3583C170.994 86.2632 171.05 86.1829 171.125 86.1327C171.2 86.0826 171.288 86.0662 171.373 86.0868C171.458 86.1074 171.533 86.1634 171.584 86.2441C176.673 96.3678 181.685 101.107 186.508 100.342C191.331 99.5758 196.665 89.0571 196.721 88.9201C196.744 88.8736 196.775 88.8329 196.812 88.8002C196.849 88.7676 196.891 88.7438 196.936 88.7301C196.98 88.7164 197.027 88.7131 197.073 88.7205C197.119 88.7279 197.164 88.7457 197.204 88.773C197.244 88.8003 197.278 88.8365 197.306 88.8795C197.334 88.9224 197.354 88.9713 197.365 89.0233C197.376 89.0752 197.378 89.1292 197.371 89.1821C197.364 89.235 197.347 89.2856 197.323 89.3312C197.099 89.7745 191.723 100.325 186.606 101.14C186.24 101.201 185.87 101.231 185.5 101.228Z" fill="#231F20"/>
<path d="M178.402 124.273C178.337 124.271 178.274 124.249 178.22 124.208C178.181 124.182 178.146 124.146 178.119 124.104C178.091 124.062 178.071 124.014 178.06 123.963C178.049 123.912 178.047 123.859 178.054 123.807C178.061 123.755 178.077 123.705 178.101 123.66C181.349 117.421 179.025 114.721 178.927 114.608C178.894 114.571 178.868 114.526 178.85 114.477C178.833 114.428 178.823 114.375 178.823 114.322C178.823 114.269 178.833 114.216 178.85 114.167C178.868 114.118 178.894 114.073 178.927 114.036C178.959 113.998 178.997 113.969 179.039 113.948C179.081 113.928 179.126 113.917 179.172 113.917C179.218 113.917 179.263 113.928 179.305 113.948C179.347 113.969 179.385 113.998 179.417 114.036C179.536 114.165 182.273 117.26 178.717 124.087C178.683 124.147 178.636 124.195 178.581 124.228C178.526 124.261 178.464 124.276 178.402 124.273Z" fill="white"/>
<path d="M161.455 55.4054C158.515 55.4054 155.155 56.155 153.622 59.0164C153.121 59.9429 152.856 61.0123 152.856 62.1035C152.856 63.1947 153.121 64.2641 153.622 65.1906C154.15 66.0912 154.895 66.7936 155.766 67.2105C156.637 67.6275 157.596 67.7407 158.522 67.5361C159.922 67.1815 161.105 66.0933 162.435 65.4404C164.332 64.5055 166.46 64.4893 168.476 63.9735C169.122 63.8622 169.73 63.5501 170.233 63.0707C170.719 62.4928 170.994 61.7228 171.003 60.9186C171.29 55.1878 164.752 55.4054 161.455 55.4054Z" fill="#68E1FD"/>
<path d="M161.553 66.327C161.483 66.3282 161.414 66.304 161.356 66.2577C161.298 66.2115 161.254 66.1455 161.231 66.0691C161.214 66.0194 161.206 65.9663 161.207 65.9129C161.208 65.8596 161.219 65.807 161.237 65.7582C161.256 65.7095 161.283 65.6656 161.317 65.629C161.351 65.5924 161.391 65.5639 161.434 65.5451C161.658 65.4565 166.992 63.2077 170.674 63.5623C170.72 63.5664 170.765 63.5809 170.806 63.605C170.847 63.6291 170.884 63.6623 170.914 63.7028C170.944 63.7433 170.966 63.7901 170.98 63.8407C170.995 63.8913 171 63.9446 170.996 63.9976C170.992 64.0506 170.98 64.1022 170.959 64.1496C170.938 64.1969 170.909 64.239 170.874 64.2735C170.839 64.308 170.798 64.3341 170.754 64.3504C170.71 64.3666 170.664 64.3728 170.618 64.3683C167.118 64.0218 161.728 66.2786 161.679 66.3028C161.638 66.3186 161.596 66.3268 161.553 66.327Z" fill="#231F20"/>
<path d="M213.78 93.9417H215.642C215.642 91.2012 215.761 87.3081 215.761 87.3081L219.331 93.9417H235.081C235.811 93.9417 236.51 94.2755 237.026 94.8695C237.542 95.4636 237.832 96.2693 237.832 97.1094V107.918C237.833 108.335 237.762 108.748 237.625 109.133C237.487 109.518 237.284 109.868 237.029 110.163C236.773 110.458 236.47 110.692 236.135 110.852C235.801 111.012 235.443 111.094 235.081 111.094H213.78C213.418 111.094 213.06 111.012 212.726 110.852C212.391 110.692 212.088 110.458 211.832 110.163C211.577 109.868 211.374 109.518 211.236 109.133C211.099 108.748 211.028 108.335 211.029 107.918V97.1094C211.029 96.2693 211.319 95.4636 211.835 94.8695C212.351 94.2755 213.05 93.9417 213.78 93.9417Z" fill="white"/>
<path d="M235.081 111.497H213.78C212.957 111.495 212.168 111.117 211.587 110.446C211.006 109.775 210.679 108.866 210.679 107.918V97.1092C210.679 96.1622 211.006 95.254 211.587 94.5843C212.169 93.9147 212.958 93.5385 213.78 93.5385H215.292C215.292 90.8544 215.411 87.3321 215.411 87.2918C215.413 87.2059 215.44 87.1233 215.487 87.0564C215.533 86.9895 215.598 86.942 215.67 86.921C215.743 86.8975 215.821 86.9022 215.892 86.9342C215.963 86.9661 216.022 87.0238 216.062 87.0983L219.527 93.5465H235.081C235.904 93.5465 236.692 93.9227 237.274 94.5924C237.855 95.262 238.182 96.1702 238.182 97.1173V107.926C238.18 108.872 237.853 109.779 237.272 110.449C236.691 111.118 235.903 111.495 235.081 111.497ZM213.78 94.3445C213.144 94.3466 212.534 94.6386 212.084 95.1566C211.634 95.6746 211.381 96.3766 211.379 97.1092V107.918C211.379 108.652 211.632 109.356 212.082 109.876C212.532 110.396 213.143 110.689 213.78 110.691H235.081C235.718 110.689 236.329 110.396 236.779 109.876C237.229 109.356 237.482 108.652 237.482 107.918V97.1092C237.48 96.3766 237.227 95.6746 236.777 95.1566C236.327 94.6386 235.717 94.3466 235.081 94.3445H219.331C219.272 94.3443 219.213 94.3264 219.162 94.2925C219.11 94.2586 219.067 94.2098 219.037 94.1511L216.076 88.654C216.041 90.0403 215.999 92.2247 215.992 93.9415C215.99 94.0477 215.953 94.1491 215.888 94.2242C215.822 94.2993 215.734 94.3425 215.642 94.3445H213.78Z" fill="#D1D3D4"/>
<path d="M68.2571 88.5979H71.2321C71.2321 92.9746 71.4211 99.1972 71.4211 99.1972L77.1331 88.5979H102.333C103.501 88.5979 104.621 88.0637 105.446 87.1129C106.272 86.1621 106.736 84.8726 106.736 83.528V66.2467C106.736 64.9021 106.272 63.6125 105.446 62.6617C104.621 61.7109 103.501 61.1768 102.333 61.1768H68.2571C67.0906 61.1789 65.9724 61.714 65.1482 62.6645C64.324 63.6151 63.8611 64.9034 63.8611 66.2467V83.528C63.8602 84.1934 63.9732 84.8525 64.1937 85.4675C64.4142 86.0826 64.7379 86.6416 65.1462 87.1124C65.5545 87.5833 66.0394 87.9569 66.5732 88.2118C67.107 88.4667 67.6792 88.5979 68.2571 88.5979Z" fill="white"/>
<path d="M71.4 99.5999H71.309C71.2367 99.5762 71.1727 99.5268 71.1262 99.4588C71.0797 99.3907 71.053 99.3075 71.05 99.221C71.05 99.1566 70.882 93.3128 70.861 89.0086H68.257C66.9976 89.0065 65.7905 88.429 64.9006 87.4028C64.0108 86.3767 63.511 84.9858 63.511 83.5357V66.2464C63.511 64.7963 64.0108 63.4054 64.9006 62.3793C65.7905 61.3531 66.9976 60.7756 68.257 60.7734H102.305C103.565 60.7756 104.773 61.3529 105.664 62.3788C106.555 63.4047 107.056 64.7955 107.058 66.2464V83.5276C107.056 84.9785 106.555 86.3693 105.664 87.3952C104.773 88.4212 103.565 88.9984 102.305 89.0006H77.329L71.729 99.4145C71.6938 99.4767 71.6446 99.5268 71.5867 99.5595C71.5288 99.5921 71.4643 99.6061 71.4 99.5999ZM68.257 61.5795C67.1833 61.5816 66.1542 62.0742 65.3956 62.9492C64.637 63.8242 64.211 65.01 64.211 66.2464V83.5276C64.211 84.764 64.637 85.9498 65.3956 86.8248C66.1542 87.6998 67.1833 88.1924 68.257 88.1946H71.232C71.3243 88.1966 71.4122 88.2397 71.4775 88.3149C71.5427 88.39 71.5802 88.4913 71.582 88.5976C71.582 91.7008 71.687 95.7793 71.736 97.8508L76.832 88.388C76.8644 88.3296 76.9088 88.2814 76.9613 88.2476C77.0139 88.2139 77.0728 88.1956 77.133 88.1946H102.333C103.407 88.1924 104.437 87.7 105.197 86.8253C105.957 85.9505 106.384 84.7647 106.386 83.5276V66.2464C106.384 65.0093 105.957 63.8235 105.197 62.9487C104.437 62.074 103.407 61.5816 102.333 61.5795H68.257Z" fill="#D1D3D4"/>
<path d="M98.812 136.008C98.2325 136.206 97.6435 136.365 97.048 136.484C89.285 138.096 80.598 137.733 74.389 132.123L75.299 128.198L72.653 130.874L69.083 127.215C75.173 121.645 75.964 112.851 79.961 105.758C83.216 99.9788 90.559 99.5516 95.648 102.026C99.1969 103.774 102.039 107.005 103.6 111.07C105.322 115.632 105.266 120.807 104.916 125.764C104.517 131.333 103.04 134.509 98.812 136.008Z" fill="white"/>
<path d="M89.341 137.701C84.182 137.701 78.638 136.444 74.179 132.405C74.1247 132.357 74.0839 132.292 74.0615 132.218C74.0391 132.143 74.0361 132.063 74.053 131.986L74.669 129.343L72.884 131.172C72.8209 131.239 72.7385 131.275 72.653 131.275C72.5676 131.275 72.4852 131.239 72.422 131.172L68.852 127.521C68.813 127.482 68.782 127.434 68.7614 127.379C68.7408 127.325 68.7311 127.266 68.733 127.207C68.7328 127.147 68.7447 127.088 68.7678 127.035C68.7909 126.982 68.8245 126.936 68.866 126.9C72.625 123.459 74.298 118.84 76.076 113.955C77.0526 111.033 78.2544 108.217 79.667 105.541C82.18 101.075 88.683 98.1895 95.767 101.655C99.4046 103.448 102.313 106.768 103.901 110.941C105.672 115.632 105.595 120.871 105.245 125.828C104.811 131.994 103.033 134.961 98.903 136.395C98.3092 136.595 97.7063 136.756 97.097 136.879C94.5382 137.419 91.9425 137.695 89.341 137.701ZM74.788 131.978C81.431 137.822 90.51 137.451 96.985 136.097C97.5682 135.977 98.1454 135.821 98.714 135.63C102.515 134.308 104.153 131.543 104.559 125.772C104.902 120.936 104.986 115.801 103.278 111.263C101.759 107.279 98.9816 104.109 95.508 102.397C90.405 99.9144 83.3 100.567 80.255 105.976C78.8674 108.607 77.6845 111.374 76.72 114.246C75.04 118.88 73.297 123.668 69.622 127.215L72.653 130.318L75.068 127.9C75.1243 127.839 75.1963 127.802 75.2729 127.793C75.3495 127.784 75.4265 127.805 75.4919 127.852C75.5572 127.899 75.6074 127.969 75.6345 128.052C75.6617 128.135 75.6643 128.226 75.642 128.311L74.788 131.978Z" fill="#231F20"/>
<path d="M67.242 194.131C66.255 194.131 58.905 195.05 55.461 197.025C52.017 199 51.261 199.145 51.961 201.805C52.661 204.465 58.716 205.118 63.329 204.11C66.3021 203.411 69.1701 202.214 71.841 200.555L67.242 194.131Z" fill="white"/>
<path d="M59.059 204.924C55.615 204.924 52.234 204.077 51.667 201.909C50.967 199.169 51.779 198.685 54.544 197.138L55.321 196.694C58.821 194.687 66.185 193.728 67.221 193.768C67.2675 193.768 67.3135 193.78 67.3558 193.802C67.3981 193.824 67.4357 193.857 67.466 193.897L72.072 200.346C72.1008 200.387 72.1214 200.435 72.1323 200.487C72.1432 200.538 72.1441 200.592 72.135 200.644C72.1282 200.696 72.1108 200.746 72.084 200.79C72.0572 200.833 72.022 200.869 71.981 200.894C69.2826 202.575 66.3838 203.789 63.378 204.497C61.9528 204.791 60.507 204.934 59.059 204.924ZM67.095 194.502C65.695 194.55 58.828 195.509 55.608 197.355L54.824 197.798C52.073 199.354 51.716 199.556 52.276 201.7C52.899 204.069 58.702 204.746 63.287 203.755C66.0977 203.087 68.814 201.972 71.358 200.442L67.095 194.502Z" fill="#231F20"/>
<path d="M66.2551 194.115C65.6085 194.298 65.0455 194.754 64.6784 195.394C64.3112 196.033 64.1668 196.809 64.2741 197.565C64.5961 200.386 69.7761 200.507 70.0771 200.515C70.3781 200.523 66.2551 194.115 66.2551 194.115Z" fill="white"/>
<path d="M70.07 200.878C69.104 200.878 64.295 200.604 63.952 197.654C63.8409 196.806 64.008 195.94 64.4208 195.227C64.8337 194.513 65.4626 194.002 66.185 193.793C66.2455 193.778 66.3085 193.783 66.3667 193.807C66.4249 193.831 66.4759 193.874 66.514 193.93C70.574 200.257 70.483 200.467 70.371 200.717C70.3368 200.771 70.2912 200.814 70.2386 200.842C70.1859 200.87 70.1279 200.882 70.07 200.878ZM66.136 194.542C65.6086 194.737 65.1607 195.147 64.8761 195.694C64.5915 196.241 64.4894 196.889 64.589 197.517C64.82 199.564 68.229 200.015 69.559 200.12C69.013 199.113 67.536 196.727 66.136 194.542Z" fill="#231F20"/>
<path d="M104.664 200.571C104.818 200.66 106.225 202.772 112.364 203.618C118.503 204.464 120.764 205.98 122.164 202.264C123.564 198.548 122.591 196.154 119.567 195.09C116.543 194.026 108.199 193.148 106.561 194.921C104.923 196.694 104.664 200.571 104.664 200.571Z" fill="white"/>
<path d="M119.147 205.02C118.019 204.962 116.896 204.809 115.787 204.561C114.786 204.376 113.645 204.158 112.329 203.981C109.76 203.626 106.33 202.812 104.538 200.934L104.482 200.877C104.431 200.846 104.391 200.798 104.366 200.738C104.341 200.679 104.332 200.612 104.342 200.547C104.342 200.378 104.629 196.517 106.337 194.655C108.15 192.688 116.718 193.704 119.637 194.735C120.29 194.901 120.904 195.225 121.439 195.687C121.974 196.148 122.417 196.736 122.738 197.411C123.277 198.733 123.172 200.418 122.437 202.409C121.702 204.4 120.708 205.02 119.147 205.02ZM105 200.418C106.673 202.143 109.949 202.909 112.406 203.247C113.736 203.433 114.877 203.65 115.906 203.836C119.546 204.513 120.911 204.771 121.884 202.119C122.542 200.329 122.647 198.846 122.192 197.726C121.908 197.146 121.52 196.643 121.054 196.25C120.589 195.857 120.055 195.582 119.49 195.445C116.417 194.365 108.29 193.607 106.799 195.195C105.441 196.638 105.07 199.684 105 200.418Z" fill="#231F20"/>
<path d="M102.704 199.056C102.704 199.056 105.504 201.732 107.345 201.418C109.186 201.103 111.776 199.943 110.74 197.621C109.704 195.3 103.04 193.93 103.04 193.93L102.704 199.056Z" fill="white"/>
<path d="M107.037 201.813C105.098 201.813 102.606 199.443 102.494 199.338C102.455 199.299 102.425 199.251 102.406 199.196C102.386 199.142 102.378 199.083 102.382 199.024L102.732 193.897C102.735 193.847 102.747 193.798 102.767 193.754C102.788 193.709 102.816 193.67 102.851 193.639C102.887 193.609 102.927 193.587 102.971 193.574C103.014 193.562 103.059 193.559 103.103 193.567C103.803 193.712 109.949 195.042 111.02 197.452C111.186 197.77 111.28 198.13 111.293 198.501C111.307 198.871 111.239 199.239 111.097 199.572C110.397 201.184 108.087 201.668 107.394 201.78C107.276 201.803 107.157 201.814 107.037 201.813ZM103.033 198.879C103.586 199.378 105.833 201.297 107.303 201.047C108.507 200.837 110.103 200.241 110.53 199.225C110.624 198.997 110.666 198.745 110.653 198.493C110.639 198.24 110.57 197.996 110.453 197.782C109.711 196.122 105.357 194.816 103.341 194.357L103.033 198.879Z" fill="#231F20"/>
<path d="M69.2301 176.552C69.2301 176.552 72.1631 189.754 82.8871 192.277C93.6111 194.8 99.1551 194.123 102.956 185.789C106.757 177.454 104.237 172.36 104.237 172.36L70.3991 171.554L69.2301 176.552Z" fill="#231F20"/>
<path d="M91.7421 193.97C88.7372 193.872 85.7478 193.434 82.8171 192.664C72.0021 190.125 68.9151 176.785 68.8871 176.656C68.8731 176.587 68.8731 176.516 68.8871 176.447L70.0631 171.482C70.0822 171.394 70.1266 171.317 70.189 171.263C70.2514 171.209 70.328 171.181 70.4061 171.183L104.244 171.989C104.305 171.99 104.365 172.009 104.418 172.044C104.471 172.079 104.515 172.13 104.545 172.191C104.65 172.408 107.107 177.583 103.264 186.014C100.576 191.874 96.9781 193.97 91.7421 193.97ZM69.5871 176.551C69.8881 177.76 73.0871 189.553 82.9571 191.866C93.2541 194.284 98.8261 193.97 102.648 185.595C105.889 178.478 104.405 173.755 104.048 172.747L70.7001 171.997L69.5871 176.551Z" fill="#231F20"/>
<path d="M106.792 176.672C106.792 176.672 112.336 156.046 111.608 143.109C110.88 130.172 103.551 129.229 101.01 128.988C98.4691 128.746 85.015 126.368 79.968 133.203C74.921 140.038 66.045 172.046 66.045 172.046L106.792 176.672Z" fill="#68E1FD"/>
<path d="M86.8001 129.02L87.6751 135.928C88.2709 136.965 89.1747 137.717 90.2172 138.042C91.2596 138.367 92.3693 138.243 93.3381 137.693C97.1181 135.879 97.1881 132.551 97.1881 132.551L95.3961 119.799C92.5682 116.483 90.5955 112.328 89.6981 107.797C89.6981 107.797 86.3591 114.504 81.5221 116.011C81.6974 119.051 82.0955 122.068 82.7121 125.03C83.5521 128.391 86.7021 128.98 86.8001 129.02Z" fill="white"/>
<path d="M91.252 138.604C90.476 138.583 89.7156 138.348 89.0347 137.919C88.3538 137.49 87.7723 136.879 87.339 136.137C87.3126 136.091 87.2958 136.039 87.29 135.984L86.45 129.35C85.5102 129.128 84.6383 128.623 83.9228 127.886C83.2073 127.15 82.6737 126.209 82.376 125.159C81.7493 122.168 81.3465 119.121 81.172 116.051C81.1677 115.959 81.1911 115.867 81.2382 115.792C81.2854 115.718 81.3534 115.664 81.431 115.64C86.072 114.197 89.362 107.684 89.397 107.58C89.4318 107.509 89.484 107.453 89.5469 107.418C89.6098 107.382 89.6805 107.369 89.7499 107.38C89.8193 107.392 89.8841 107.427 89.936 107.481C89.9879 107.535 90.0245 107.606 90.041 107.684C90.9221 112.12 92.8419 116.193 95.592 119.46C95.6506 119.525 95.6898 119.61 95.704 119.702L97.496 132.454C97.496 132.679 97.384 136.145 93.436 138.031C92.7485 138.388 92.0059 138.583 91.252 138.604ZM87.969 135.783C88.5275 136.72 89.3628 137.392 90.3195 137.674C91.2762 137.956 92.2892 137.828 93.17 137.314C96.67 135.629 96.803 132.575 96.803 132.542L95.032 119.992C92.4172 116.868 90.5463 113.021 89.6 108.821C88.564 110.634 85.743 114.971 81.9 116.325C82.0742 119.229 82.4606 122.112 83.055 124.941C83.678 127.416 85.659 128.303 86.779 128.609C86.8372 128.622 86.8936 128.644 86.947 128.673C86.9921 128.704 87.0306 128.746 87.0597 128.796C87.0888 128.847 87.1077 128.904 87.115 128.963L87.969 135.783Z" fill="#231F20"/>
<path d="M93.0231 119.993C93.0713 119.345 93.3024 118.734 93.6811 118.252C94.0499 117.824 94.4781 117.47 94.9481 117.204C95.1929 117.03 95.4676 116.92 95.7531 116.881C95.9549 116.882 96.1547 116.929 96.3411 117.018C96.7982 117.178 97.1904 117.522 97.4471 117.986C97.6094 118.389 97.6862 118.831 97.6711 119.275C97.6932 119.755 97.6555 120.235 97.5591 120.702C97.4572 121.168 97.276 121.606 97.026 121.99C96.776 122.375 96.4621 122.698 96.1026 122.942C95.7432 123.185 95.3452 123.345 94.9319 123.41C94.5186 123.475 94.0982 123.445 93.6951 123.322" fill="white"/>
<path d="M94.5001 123.845C94.1976 123.844 93.8964 123.798 93.6041 123.708C93.5153 123.68 93.4397 123.612 93.3938 123.52C93.348 123.428 93.3355 123.319 93.3591 123.216C93.3695 123.165 93.3891 123.116 93.4167 123.073C93.4442 123.03 93.4791 122.995 93.5192 122.968C93.5593 122.942 93.6036 122.925 93.6496 122.919C93.6955 122.913 93.742 122.919 93.7861 122.934C94.5113 123.144 95.2787 123.023 95.9281 122.596C96.569 122.152 97.0338 121.438 97.2231 120.605C97.3067 120.171 97.342 119.727 97.3281 119.283C97.3427 118.905 97.2779 118.529 97.1391 118.187C96.9261 117.801 96.6011 117.516 96.2221 117.381C96.0782 117.31 95.9237 117.271 95.7671 117.268C95.5354 117.304 95.3132 117.397 95.1161 117.542C94.6802 117.787 94.2828 118.114 93.9401 118.509C93.6153 118.925 93.4164 119.451 93.3731 120.008C93.3625 120.114 93.3177 120.211 93.2475 120.28C93.1774 120.348 93.0872 120.384 92.9951 120.379C92.9029 120.369 92.8177 120.318 92.7576 120.237C92.6975 120.155 92.6672 120.05 92.6731 119.944C92.7293 119.209 92.9923 118.516 93.4221 117.969C93.8146 117.503 94.274 117.119 94.7801 116.833C95.0708 116.626 95.3989 116.499 95.7391 116.462C95.9793 116.463 96.217 116.518 96.4391 116.623C96.9776 116.814 97.4376 117.224 97.7341 117.776C97.9236 118.236 98.0171 118.741 98.0071 119.251C98.0214 119.765 97.9791 120.28 97.8811 120.782C97.6905 121.654 97.2521 122.428 96.6357 122.98C96.0192 123.532 95.2601 123.831 94.4791 123.829L94.5001 123.845Z" fill="#231F20"/>
<path d="M87.6121 118.018C87.6121 118.018 85.9181 121.87 86.4711 122.419C87.0241 122.967 88.3611 122.362 88.3611 122.362" fill="white"/>
<path d="M87.171 123.047C86.8395 123.069 86.5121 122.955 86.247 122.725C85.61 122.096 86.471 119.726 87.297 117.84C87.339 117.745 87.4118 117.673 87.4997 117.64C87.5876 117.607 87.6833 117.615 87.766 117.663C87.8075 117.686 87.8445 117.719 87.8748 117.758C87.9052 117.798 87.9282 117.845 87.9426 117.895C87.957 117.946 87.9624 117.999 87.9585 118.052C87.9546 118.105 87.9415 118.156 87.92 118.203C87.15 119.96 86.59 121.798 86.723 122.145C86.975 122.378 87.759 122.201 88.235 121.991C88.3213 121.952 88.4178 121.953 88.5031 121.996C88.5884 122.038 88.6557 122.118 88.69 122.217C88.7243 122.316 88.723 122.428 88.6862 122.526C88.6495 122.624 88.5803 122.701 88.494 122.741C88.0701 122.924 87.6234 123.027 87.171 123.047Z" fill="#231F20"/>
<path d="M90.2805 117.943C90.5656 117.916 90.7703 117.52 90.7376 117.059C90.7049 116.597 90.4473 116.245 90.1622 116.272C89.877 116.299 89.6724 116.694 89.705 117.156C89.7377 117.617 89.9953 117.97 90.2805 117.943Z" fill="#231F20"/>
<path d="M84.937 118.805C85.2223 118.78 85.4293 118.386 85.3995 117.925C85.3696 117.463 85.1141 117.108 84.8288 117.133C84.5435 117.157 84.3365 117.552 84.3663 118.013C84.3962 118.475 84.6517 118.829 84.937 118.805Z" fill="#231F20"/>
<path d="M88.053 126.126C87.0484 126.098 86.0576 125.849 85.1341 125.393C85.092 125.37 85.0543 125.338 85.023 125.299C84.9918 125.26 84.9677 125.213 84.952 125.163C84.9364 125.113 84.9296 125.06 84.932 125.006C84.9344 124.953 84.946 124.901 84.966 124.853C84.9849 124.805 85.0119 124.761 85.0454 124.725C85.079 124.69 85.1185 124.662 85.1616 124.644C85.2047 124.626 85.2504 124.618 85.2962 124.62C85.342 124.623 85.3868 124.636 85.4281 124.659C85.4281 124.659 87.9411 125.957 89.6911 124.901C90.1578 124.579 90.5515 124.135 90.84 123.604C91.1284 123.073 91.3032 122.47 91.35 121.846C91.3668 121.739 91.4197 121.644 91.4971 121.583C91.5746 121.521 91.6702 121.497 91.763 121.516C91.8559 121.535 91.9383 121.596 91.9921 121.685C92.0459 121.774 92.0668 121.884 92.05 121.991C91.9851 122.738 91.7672 123.456 91.4143 124.086C91.0614 124.717 90.5836 125.242 90.0201 125.618C89.4099 125.969 88.7348 126.143 88.053 126.126Z" fill="#231F20"/>
<path d="M86.8 129.02C86.8 129.02 90.657 129.391 92.673 127.577C92.673 127.577 90.972 133.776 87.395 133.759L86.8 129.02Z" fill="#231F20"/>
<path d="M87.374 134.163C87.2887 134.162 87.2062 134.127 87.1409 134.064C87.0757 134.001 87.0318 133.913 87.017 133.816L86.415 129.085C86.406 129.024 86.4093 128.962 86.4247 128.903C86.4402 128.844 86.4673 128.79 86.504 128.746C86.5407 128.701 86.586 128.667 86.6361 128.646C86.6863 128.625 86.74 128.618 86.793 128.625C86.828 128.625 90.538 128.956 92.393 127.255C92.4525 127.203 92.525 127.175 92.5995 127.175C92.6741 127.175 92.7465 127.203 92.806 127.255C92.8674 127.304 92.914 127.374 92.9391 127.455C92.9642 127.536 92.9666 127.624 92.946 127.706C92.897 127.948 91.154 134.163 87.374 134.163ZM87.171 129.455L87.661 133.34C89.88 133.107 91.308 130.173 91.938 128.504C90.4259 129.208 88.8007 129.532 87.171 129.455Z" fill="#231F20"/>
<path d="M108.136 132.309C111.209 133.01 120.68 167.887 116.34 171.587C109.571 177.358 88.9 169.475 88.9 169.475L91 159.214C91 159.214 105.917 160.02 106.19 156.506C106.463 152.992 97.853 136.452 99.057 134.042C100.261 131.632 108.136 132.309 108.136 132.309Z" fill="#68E1FD"/>
<path d="M92.5121 162.704C90.0301 162.822 87.5444 162.627 85.0991 162.124C83.2933 161.577 81.4361 161.287 79.5691 161.261C77.1059 161.342 74.6745 161.923 72.3871 162.978C72.2926 163.01 72.2077 163.071 72.1421 163.155C71.9181 163.51 72.4291 163.857 72.8421 163.881C73.8272 163.929 74.8131 163.809 75.7681 163.526C73.3902 164.48 71.1347 165.797 69.0621 167.443C68.8311 167.629 68.5651 167.927 68.6771 168.25C68.7891 168.572 69.2581 168.515 69.5661 168.362L74.9491 165.67C73.5562 166.278 72.2601 167.147 71.1131 168.241C70.9521 168.395 70.7701 168.612 70.8121 168.854C70.8821 169.265 71.4211 169.201 71.7501 169.015C73.3939 168.127 74.9658 167.073 76.4471 165.864L73.0941 168.693C73.0521 169.007 73.3321 169.273 73.6051 169.289C73.8778 169.276 74.1419 169.175 74.3681 168.999L78.0851 166.637L75.7611 168.435C75.3971 168.717 74.9771 169.176 75.1451 169.644C75.3131 170.111 76.0481 170.047 76.5451 169.813C78.452 168.909 80.4406 168.252 82.4741 167.855C83.1894 167.607 83.9267 167.453 84.6721 167.395C85.7977 167.567 86.9079 167.853 87.9901 168.25L92.9461 169.676" fill="white"/>
<path d="M75.74 170.337C75.5894 170.34 75.4397 170.31 75.299 170.248C75.1985 170.201 75.1072 170.13 75.0303 170.042C74.9535 169.953 74.8925 169.848 74.851 169.733C74.7818 169.519 74.7818 169.285 74.851 169.072L74.543 169.265C74.2644 169.478 73.9392 169.595 73.605 169.604C73.4792 169.594 73.3565 169.555 73.2445 169.488C73.1325 169.422 73.0336 169.329 72.954 169.217C72.8702 169.093 72.817 168.945 72.8 168.789C72.506 168.967 72.205 169.128 71.911 169.289C71.7503 169.39 71.5726 169.449 71.3902 169.463C71.2077 169.477 71.0248 169.445 70.854 169.37C70.7684 169.321 70.694 169.249 70.6369 169.161C70.5797 169.073 70.5414 168.97 70.525 168.862C70.5037 168.734 70.5098 168.601 70.5427 168.476C70.5756 168.352 70.6344 168.238 70.714 168.145L69.713 168.644C69.4154 168.804 69.0784 168.838 68.761 168.741C68.6801 168.707 68.6065 168.653 68.5449 168.584C68.4834 168.514 68.4354 168.431 68.404 168.338C68.25 167.927 68.404 167.476 68.901 167.105C70.2881 166.009 71.7568 165.057 73.29 164.26H72.8C72.606 164.253 72.4164 164.191 72.2479 164.08C72.0794 163.969 71.9373 163.812 71.834 163.623C71.7876 163.515 71.7683 163.395 71.7782 163.275C71.7881 163.155 71.8268 163.041 71.89 162.946C71.9917 162.807 72.1251 162.704 72.275 162.648C74.5959 161.567 77.0664 160.974 79.569 160.898C81.221 160.903 82.8663 161.139 84.469 161.6L85.169 161.769C87.5941 162.263 90.0581 162.457 92.519 162.349C92.6013 162.349 92.6804 162.386 92.7393 162.453C92.7982 162.519 92.8322 162.609 92.834 162.704C92.8349 162.753 92.8275 162.801 92.8122 162.846C92.7969 162.892 92.7739 162.933 92.7447 162.968C92.7154 163.004 92.6804 163.032 92.6417 163.051C92.603 163.071 92.5613 163.082 92.519 163.083C90.0133 163.196 87.5042 162.996 85.036 162.486L84.336 162.325C82.775 161.872 81.1719 161.639 79.562 161.632C77.1369 161.71 74.743 162.283 72.492 163.325H72.429C72.5405 163.421 72.6746 163.477 72.814 163.486C73.7572 163.533 74.7011 163.416 75.614 163.139C75.6938 163.116 75.778 163.13 75.8496 163.176C75.9212 163.223 75.9746 163.299 75.999 163.389C76.0235 163.481 76.0161 163.58 75.9782 163.666C75.9403 163.752 75.875 163.817 75.796 163.848C73.4575 164.782 71.2393 166.075 69.202 167.693C68.985 167.863 68.929 168 68.929 168.024C68.929 168.048 69.153 168.064 69.398 167.943L73.556 165.864C73.962 165.638 74.375 165.428 74.795 165.243C74.8741 165.211 74.9609 165.214 75.0376 165.253C75.1144 165.292 75.1754 165.364 75.208 165.452C75.2383 165.542 75.2369 165.642 75.2043 165.731C75.1716 165.82 75.1102 165.891 75.033 165.928L73.829 166.533C72.9162 167.054 72.0588 167.695 71.274 168.443C71.092 168.62 71.085 168.701 71.085 168.701C71.2531 168.728 71.4243 168.694 71.575 168.604C73.198 167.722 74.7509 166.678 76.216 165.485C76.2848 165.427 76.3705 165.404 76.4544 165.419C76.5383 165.434 76.6137 165.487 76.664 165.565C76.712 165.645 76.7315 165.743 76.7185 165.839C76.7055 165.935 76.6609 166.022 76.594 166.081L73.5 168.781C73.5423 168.828 73.596 168.859 73.654 168.87C73.8685 168.851 74.0744 168.765 74.249 168.62L77.966 166.259C78.0381 166.213 78.1224 166.202 78.2017 166.225C78.2811 166.249 78.3495 166.307 78.393 166.387C78.4375 166.469 78.4521 166.567 78.4337 166.661C78.4154 166.754 78.3655 166.836 78.295 166.887L75.971 168.685C75.684 168.91 75.397 169.233 75.474 169.491C75.4827 169.518 75.4968 169.542 75.515 169.561C75.5332 169.581 75.5551 169.595 75.579 169.604C75.872 169.668 76.1753 169.617 76.44 169.458C78.3679 168.538 80.3805 167.873 82.439 167.476C82.677 167.427 82.915 167.355 83.139 167.282C83.6439 167.099 84.1708 167.01 84.7 167.016C85.5115 167.103 86.3107 167.303 87.08 167.613C87.43 167.726 87.78 167.846 88.095 167.935L93.051 169.37C93.0916 169.381 93.1299 169.402 93.1635 169.43C93.1972 169.459 93.2256 169.494 93.2471 169.536C93.2686 169.577 93.2828 169.623 93.2888 169.67C93.2948 169.718 93.2925 169.767 93.282 169.813C93.2731 169.86 93.2558 169.905 93.2313 169.945C93.2068 169.984 93.1755 170.017 93.1395 170.042C93.1034 170.067 93.0633 170.083 93.0216 170.089C92.9799 170.096 92.9375 170.092 92.897 170.079L87.941 168.652C87.605 168.556 87.241 168.435 86.898 168.314C86.175 168.028 85.4257 167.838 84.665 167.75C84.1898 167.748 83.7173 167.832 83.265 168C83.013 168.072 82.768 168.145 82.509 168.201C80.4991 168.591 78.5337 169.239 76.65 170.136C76.3593 170.264 76.0513 170.332 75.74 170.337Z" fill="#231F20"/>
<path d="M81.522 136.153C80.682 137.096 78.344 152.161 77.469 159.278L81.522 136.153Z" fill="white"/>
<path d="M77.4691 159.649H77.4201C77.3785 159.643 77.3385 159.628 77.3022 159.604C77.2659 159.58 77.2341 159.548 77.2087 159.51C77.1833 159.471 77.1647 159.428 77.1542 159.381C77.1436 159.334 77.1412 159.286 77.1471 159.238C77.7981 154.007 80.2691 137.048 81.2981 135.863C81.3263 135.822 81.3618 135.788 81.4024 135.763C81.443 135.739 81.4877 135.724 81.5334 135.721C81.5792 135.718 81.6249 135.727 81.6677 135.746C81.7104 135.764 81.7492 135.794 81.7813 135.831C81.8135 135.869 81.8383 135.914 81.8541 135.964C81.8699 136.013 81.8764 136.066 81.873 136.118C81.8697 136.171 81.8566 136.222 81.8347 136.269C81.8128 136.315 81.7826 136.355 81.7461 136.387C81.0461 137.266 78.7711 151.291 77.7841 159.303C77.7788 159.395 77.7435 159.482 77.6852 159.547C77.6269 159.611 77.5497 159.647 77.4691 159.649Z" fill="#231F20"/>
<path d="M100.142 173.231H100.1L92.876 171.619C92.7962 171.604 92.7237 171.556 92.6712 171.486C92.6187 171.415 92.5896 171.325 92.589 171.232L92.526 161.229C92.5257 161.128 92.5587 161.03 92.6184 160.955C92.6781 160.88 92.7601 160.834 92.848 160.826L105.896 159.577L100.562 136.702C100.538 136.597 100.552 136.486 100.599 136.392C100.646 136.299 100.723 136.23 100.814 136.202C100.859 136.189 100.905 136.186 100.951 136.193C100.996 136.2 101.04 136.218 101.08 136.245C101.119 136.272 101.154 136.308 101.182 136.35C101.209 136.392 101.23 136.441 101.241 136.492L106.687 159.867C106.698 159.924 106.699 159.984 106.688 160.042C106.678 160.099 106.658 160.154 106.628 160.202C106.598 160.25 106.56 160.29 106.516 160.32C106.472 160.349 106.423 160.368 106.372 160.375L93.233 161.632L93.289 170.926L100.233 172.465C100.326 172.476 100.411 172.529 100.47 172.612C100.529 172.695 100.557 172.802 100.548 172.908C100.539 173.015 100.493 173.114 100.421 173.182C100.349 173.25 100.256 173.282 100.163 173.271L100.142 173.231Z" fill="#231F20"/>
<path d="M59.9551 175.826L53.6691 156.458L79.3311 157.038L85.0921 179.131L59.9551 175.826Z" fill="white"/>
<path d="M85.092 179.534H85.05L59.913 176.229C59.8487 176.222 59.7874 176.195 59.7366 176.149C59.6857 176.103 59.6473 176.041 59.626 175.971L53.326 156.627C53.3046 156.566 53.2972 156.5 53.3045 156.435C53.3119 156.37 53.3338 156.308 53.368 156.256C53.3961 156.196 53.4393 156.148 53.4919 156.118C53.5445 156.088 53.6039 156.077 53.662 156.087L79.324 156.667C79.3985 156.669 79.4706 156.698 79.5298 156.75C79.589 156.802 79.6322 156.875 79.653 156.957L85.407 179.042C85.4249 179.106 85.4284 179.175 85.4174 179.241C85.4064 179.307 85.3812 179.369 85.344 179.421C85.2753 179.494 85.1854 179.534 85.092 179.534ZM60.2 175.447L84.595 178.671L79.1 157.433L54.201 156.868L60.2 175.447Z" fill="#231F20"/>
<path d="M61.3201 176.003C61.3201 176.003 54.3551 182.516 56.8191 188.489C59.2831 194.461 103.719 201.28 103.719 201.28L105.728 193.478C105.728 193.478 70.8471 172.957 61.3201 176.003Z" fill="#231F20"/>
<path d="M103.74 201.684H103.698C101.871 201.402 59.024 194.76 56.504 188.658C53.984 182.557 60.809 175.963 61.103 175.689C61.1404 175.656 61.1833 175.631 61.229 175.617C70.777 172.554 104.475 192.277 105.903 193.116C105.977 193.157 106.036 193.228 106.069 193.315C106.103 193.402 106.108 193.5 106.085 193.591L104.076 201.394C104.056 201.478 104.012 201.552 103.951 201.605C103.89 201.657 103.816 201.685 103.74 201.684ZM61.488 176.366C60.844 176.995 54.929 182.976 57.134 188.312C59.08 193.011 91 198.879 103.488 200.837L105.329 193.688C102.123 191.826 70.448 173.658 61.488 176.366Z" fill="#231F20"/>
<path d="M108.059 173.005C108.059 173.005 73.5 189.126 64.932 193.341L69.916 202.207C69.916 202.207 101.829 201.49 110.978 192.253C120.127 183.016 119.518 167.661 108.059 173.005Z" fill="#231F20"/>
<path d="M69.916 202.619C69.8574 202.619 69.7998 202.602 69.7485 202.569C69.6971 202.537 69.6536 202.49 69.622 202.433L64.638 193.567C64.609 193.52 64.5902 193.465 64.5829 193.408C64.5756 193.35 64.5801 193.292 64.596 193.237C64.6088 193.179 64.6332 193.125 64.6672 193.081C64.7013 193.036 64.744 193.001 64.792 192.979C73.262 188.787 107.562 172.828 107.926 172.643C112 170.74 115.213 171.288 116.739 174.134C119.413 179.131 116.039 187.699 111.209 192.576C107.359 196.461 99.232 199.33 87.059 201.112C78.022 202.433 70 202.627 69.923 202.627L69.916 202.619ZM65.45 193.527L70.098 201.805C72.786 201.724 102.165 200.62 110.747 191.963C116.459 186.192 118.153 178.301 116.144 174.553C114.793 172.03 111.944 171.619 108.192 173.384C107.849 173.537 74.515 189.061 65.45 193.527Z" fill="#231F20"/>
<path d="M59.8291 168.088C59.793 168.318 59.7089 168.533 59.5841 168.717L58.8841 169.87C58.9044 169.748 58.9487 169.634 59.0136 169.535C59.0785 169.436 59.1623 169.356 59.2584 169.301C59.3545 169.246 59.4604 169.217 59.5679 169.216C59.6753 169.215 59.7815 169.243 59.8781 169.297C60.07 169.415 60.2294 169.592 60.3383 169.808C60.4472 170.025 60.5012 170.272 60.4941 170.523C60.48 171.022 60.3775 171.513 60.1931 171.965C59.7171 173.392 58.6391 175.48 57.0711 174.383C56.0141 173.65 55.7201 171.054 55.5661 169.773C55.2721 167.226 55.9441 163.969 58.7791 164.469C58.6965 165.719 58.2919 166.912 57.6171 167.895C58.1001 167.387 59.9621 166.589 59.8291 168.088Z" fill="white"/>
<path d="M57.9531 175.069C57.5929 175.06 57.2418 174.937 56.9381 174.714C55.7551 173.908 55.4471 171.288 55.2861 169.878C55.0901 168.266 55.2861 166.106 56.3081 164.921C56.6424 164.555 57.0498 164.29 57.4943 164.15C57.9388 164.009 58.4066 163.997 58.8561 164.115C58.9365 164.129 59.0093 164.177 59.06 164.25C59.1106 164.324 59.1353 164.416 59.1291 164.51C59.0705 165.352 58.8708 166.173 58.5411 166.928C58.9079 166.778 59.3083 166.778 59.6751 166.928C59.8544 167.032 59.9985 167.201 60.0847 167.41C60.1709 167.619 60.1943 167.855 60.1511 168.08C60.1175 168.373 60.0186 168.651 59.8641 168.886L60.0321 168.951C60.2812 169.095 60.4897 169.318 60.6334 169.594C60.7771 169.869 60.8501 170.185 60.8441 170.507C60.8319 171.063 60.7224 171.612 60.5221 172.119C60.2211 173.013 59.5631 174.537 58.4991 174.988C58.3223 175.05 58.1377 175.077 57.9531 175.069ZM58.2541 164.8C57.9786 164.788 57.7039 164.84 57.4464 164.954C57.189 165.068 56.9542 165.24 56.7561 165.461C55.8811 166.452 55.7481 168.322 55.9161 169.741C56.0561 170.974 56.3501 173.449 57.2671 174.085C57.4142 174.203 57.5829 174.28 57.7601 174.311C57.9374 174.342 58.1183 174.325 58.2891 174.263C58.8841 174.029 59.4931 173.118 59.9271 171.845C60.0911 171.437 60.1839 170.996 60.2001 170.547C60.2075 170.368 60.1724 170.19 60.0983 170.032C60.0243 169.874 59.9143 169.743 59.7801 169.652C59.7237 169.624 59.6629 169.61 59.6016 169.61C59.5402 169.61 59.4795 169.624 59.4231 169.652L59.1781 170.079C59.1366 170.146 59.0772 170.196 59.009 170.221C58.9408 170.245 58.8675 170.244 58.8001 170.216C58.7326 170.188 58.6753 170.135 58.6373 170.065C58.5992 169.994 58.5826 169.912 58.5901 169.829C58.6054 169.684 58.6477 169.544 58.7141 169.419C58.7805 169.293 58.8695 169.186 58.9751 169.104L59.3181 168.516C59.4097 168.379 59.4764 168.223 59.5141 168.056C59.5141 167.718 59.4371 167.661 59.4021 167.645C59.129 167.605 58.8517 167.632 58.5878 167.722C58.3239 167.812 58.0792 167.964 57.8691 168.169C57.8105 168.233 57.7329 168.269 57.6521 168.269C57.5713 168.269 57.4936 168.233 57.4351 168.169C57.3744 168.106 57.3365 168.018 57.3287 167.925C57.321 167.831 57.3439 167.737 57.3931 167.661C57.9658 166.833 58.3335 165.841 58.4571 164.792L58.2541 164.8Z" fill="#231F20"/>
<path d="M69.524 191.673C69.4514 191.672 69.3805 191.647 69.3207 191.599C69.2608 191.552 69.2146 191.485 69.188 191.407C69.1535 191.304 69.1554 191.19 69.1934 191.089C69.2314 190.988 69.3024 190.908 69.391 190.867C69.58 190.786 87.913 182.613 91.882 179.808C91.9224 179.771 91.969 179.745 92.019 179.73C92.0689 179.716 92.1209 179.713 92.1716 179.724C92.2223 179.734 92.2705 179.757 92.3131 179.79C92.3557 179.823 92.3916 179.867 92.4185 179.917C92.4455 179.968 92.4628 180.024 92.4693 180.083C92.4759 180.142 92.4715 180.202 92.4566 180.258C92.4416 180.315 92.4163 180.368 92.3824 180.412C92.3486 180.457 92.3068 180.493 92.26 180.517C88.235 183.363 70.413 191.31 69.657 191.649C69.6141 191.665 69.5692 191.673 69.524 191.673Z" fill="white"/>
<path d="M101.871 68.4389H70.8471C70.7542 68.4389 70.6652 68.3964 70.5996 68.3208C70.5339 68.2452 70.4971 68.1427 70.4971 68.0358C70.4971 67.9289 70.5339 67.8264 70.5996 67.7509C70.6652 67.6753 70.7542 67.6328 70.8471 67.6328H101.871C101.964 67.6328 102.053 67.6753 102.119 67.7509C102.184 67.8264 102.221 67.9289 102.221 68.0358C102.221 68.1427 102.184 68.2452 102.119 68.3208C102.053 68.3964 101.964 68.4389 101.871 68.4389Z" fill="#D1D3D4"/>
<path d="M101.871 75.0887H70.8471C70.7542 75.0887 70.6652 75.0463 70.5996 74.9707C70.5339 74.8951 70.4971 74.7926 70.4971 74.6857C70.4971 74.5788 70.5339 74.4763 70.5996 74.4008C70.6652 74.3252 70.7542 74.2827 70.8471 74.2827H101.871C101.964 74.2827 102.053 74.3252 102.119 74.4008C102.184 74.4763 102.221 74.5788 102.221 74.6857C102.221 74.7926 102.184 74.8951 102.119 74.9707C102.053 75.0463 101.964 75.0887 101.871 75.0887Z" fill="#D1D3D4"/>
<path d="M94.6261 81.7382H70.8261C70.7332 81.7382 70.6442 81.6957 70.5786 81.6201C70.5129 81.5445 70.4761 81.442 70.4761 81.3351C70.4761 81.2283 70.5129 81.1257 70.5786 81.0502C70.6442 80.9746 70.7332 80.9321 70.8261 80.9321H94.6261C94.7189 80.9321 94.8079 80.9746 94.8736 81.0502C94.9392 81.1257 94.9761 81.2283 94.9761 81.3351C94.9761 81.442 94.9392 81.5445 94.8736 81.6201C94.8079 81.6957 94.7189 81.7382 94.6261 81.7382Z" fill="#D1D3D4"/>
<path d="M222.852 107.943C222.799 107.941 222.747 107.927 222.698 107.902C222.64 107.868 222.591 107.816 222.556 107.753C222.521 107.689 222.503 107.615 222.502 107.54V97.8672C222.502 97.7957 222.518 97.7255 222.551 97.6643C222.583 97.6031 222.629 97.5534 222.684 97.5206C222.738 97.4829 222.8 97.4629 222.863 97.4629C222.926 97.4629 222.987 97.4829 223.041 97.5206L229.117 101.93C229.165 101.963 229.205 102.011 229.233 102.067C229.262 102.123 229.277 102.187 229.278 102.252C229.281 102.317 229.27 102.383 229.245 102.442C229.221 102.501 229.184 102.552 229.138 102.591L223.062 107.822C223.007 107.89 222.933 107.933 222.852 107.943ZM223.202 98.6329V106.733L228.312 102.341L223.202 98.6329Z" fill="#D1D3D4"/>
</svg>
