<svg xmlns="http://www.w3.org/2000/svg" data-name="Layer 1" width="865.7639" height="682.89244" style=""><rect id="backgroundrect" width="100%" height="100%" x="0" y="0" fill="none" stroke="none"/><g class="currentLayer" style=""><title>Layer 1</title><path d="M522.7924227490234,460.41663039794923 l28.857590000000002,-33.02349 l0.30100000000000005,0.263 l5.30779,-6.07371 l-0.30114,-0.263 l8.86008,-10.1394 a3.82947,3.82947 0 0 0 -0.3637,-5.40353 l-21.4593,-18.75229 a3.8295500000000002,3.8295500000000002 0 0 0 -5.4036,0.36359 l-6.17784,7.06968 l-0.48895000000000005,-0.40823 l-3.61547,4.33043 l0.39144000000000007,0.32679 l-0.81881,0.937 l-0.41655000000000003,-0.3477700000000001 L523.8495327490234,403.62622039794917 l0.31900000000000006,0.26636000000000004 l-28.60273,32.73183 a3.82256,3.82256 0 0 0 0.36365000000000003,5.40371 l21.45924,18.75218 A3.8341700000000003,3.8341700000000003 0 0 0 522.7924227490234,460.41663039794923 z" fill="#3f3d56" id="svg_1"/><path d="M496.43269274902343,440.1343603979492 a1.8388200000000001,1.8388200000000001 0 0 1 0.22341000000000005,-2.099 l43.47948,-49.7561 a1.83515,1.83515 0 0 1 2.58922,-0.17427 l4.56586,3.98989 l-0.17861000000000002,0.08958000000000002 a2.11515,2.11515 0 0 0 -0.4428200000000001,3.48293 l10.133,8.85478 a2.14218,2.14218 0 0 0 1.90916,0.31771000000000005 a2.0976,2.0976 0 0 0 1.36168,-1.3292700000000002 l0.06492000000000002,-0.18900000000000003 l4.71637,4.12127 a1.83755,1.83755 0 0 1 0.17421000000000003,2.58939 l-41.483,47.47164 a4.874890000000001,4.874890000000001 0 0 1 -6.87047,0.46225 l-19.8448,-17.34137 A1.8376400000000002,1.8376400000000002 0 0 1 496.43269274902343,440.1343603979492 z" fill="#fff" id="svg_2"/><circle cx="540.2539672851562" cy="413.2635498046875" r="7.253089904785156" fill="#6c63ff" id="svg_3"/><path d="M534.7713627490234,441.0974803979492 L514.6727427490234,423.5342203979492 a0.6344400000000001,0.6344400000000001 0 1 1 0.8349400000000001,-0.95547 l20.09862,17.56322 a0.6344400000000001,0.6344400000000001 0 1 1 -0.8349400000000001,0.95547 z" fill="#fff" id="svg_4"/><path d="M526.1430027490235,437.36097039794925 l-6.611,-5.777 a0.6344700000000001,0.6344700000000001 0 1 1 0.8350000000000001,-0.95551 l6.611,5.777 a0.6344700000000001,0.6344700000000001 0 0 1 -0.8350000000000001,0.95552 z" fill="#fff" id="svg_5"/><path d="M522.3203527490234,441.7354503979492 l-6.611,-5.777 a0.6344700000000001,0.6344700000000001 0 1 1 0.8350000000000001,-0.95551 l6.611,5.777 a0.6344700000000001,0.6344700000000001 0 0 1 -0.8350000000000001,0.95552 z" fill="#fff" id="svg_6"/><path d="M520.3624427490234,443.97601039794927 l-6.611,-5.777 a0.6344400000000001,0.6344400000000001 0 1 1 0.8349400000000001,-0.95547 l6.611,5.777 a0.6344400000000001,0.6344400000000001 0 1 1 -0.8349400000000001,0.95548 z" fill="#fff" id="svg_7"/><path d="M527.9661627490234,442.7574603979492 L513.9398427490235,430.5005403979492 a0.6344400000000001,0.6344400000000001 0 1 1 0.8349400000000001,-0.95547 l14.02632,12.25691 a0.6344400000000001,0.6344400000000001 0 1 1 -0.8349400000000001,0.95548 z" fill="#fff" id="svg_8"/><path d="M513.9845327490234,446.4931403979492 l-2.40043,-2.09762 a1.07885,1.07885 0 0 1 1.41981,-1.6247600000000002 l2.40042,2.09761 a1.07885,1.07885 0 0 1 -1.4198,1.6247700000000003 z" fill="#fff" id="svg_9"/><path d="M483.6646027490234,407.24717039794916 a11.745190000000001,11.745190000000001 0 0 1 1.54218,-17.94369 l-19.1722,-92.788 l20.6846,6.52544 l15.42513,89.7651 a11.80884,11.80884 0 0 1 -18.47971,14.44119 z" fill="#9e616a" id="svg_10"/><path d="M439.3491027490235,159.22087039794923 l12.81306,-9.672 s11.30314,-0.80044 13.305,19.5834 s14.53611,98.61661 14.53611,98.61661 l19.60653,90.81 l-27.14078,5.95727 l-21,-98 l-21.02158,-67.61024 z" fill="#2f2e41" id="svg_11" class=""/><path d="M439.3491027490235,159.22087039794923 l12.81306,-9.672 s11.30314,-0.80044 13.305,19.5834 s14.53611,98.61661 14.53611,98.61661 l19.60653,90.81 l-27.14078,5.95727 l-21,-98 l-21.02158,-67.61024 z" fill="#cccccc" class="" id="svg_74" fill-opacity="1"/><path d="M442.68638274902344,326.4480503979492 L400.8679427490234,272.6658803979492 a4.58315,4.58315 0 0 1 0.80395,-6.42411 l61.46234,-47.79013 a4.58315,4.58315 0 0 1 6.42411,0.80391 l41.81841,53.78217 a4.58316,4.58316 0 0 1 -0.8039400000000001,6.42413 l-61.46234,47.79014 A4.58315,4.58315 0 0 1 442.68638274902344,326.4480503979492 z" fill="#3f3d56" id="svg_12"/><path d="M443.74441274902347,321.59287039794924 l-37.91027,-48.756 a4.06936,4.06936 0 0 1 0.7138100000000001,-5.7039100000000005 l56.24847,-43.73609 a4.06935,4.06935 0 0 1 5.7039100000000005,0.7138100000000001 l37.91027,48.75595 a4.06935,4.06935 0 0 1 -0.7138100000000001,5.70392 l-56.24847,43.73608 A4.06934,4.06934 0 0 1 443.74441274902347,321.59287039794924 z" fill="#fff" id="svg_13"/><path d="M496.8967327490234,277.1519203979492 l-19.12463,-24.59595 a1.01611,1.01611 0 1 1 1.60431,-1.24744 l19.12463,24.596 a1.01611,1.01611 0 1 1 -1.60431,1.24743 z" fill="#e4e4e4" id="svg_14"/><path d="M493.7270127490234,279.6165403979492 l-19.12463,-24.596 a1.01616,1.01616 0 1 1 1.60439,-1.24749 l19.12463,24.596 a1.01616,1.01616 0 0 1 -1.60439,1.24749 z" fill="#e4e4e4" id="svg_15"/><path d="M479.7227327490234,268.1469603979492 L471.4326727490235,257.4852203979492 a1.01616,1.01616 0 1 1 1.60439,-1.24749 l8.29006,10.66175 a1.01616,1.01616 0 0 1 -1.60439,1.2475 z" fill="#e4e4e4" id="svg_16"/><path d="M475.44903274902344,289.0694203979492 l-30.19183,-38.82937 a1.01611,1.01611 0 1 1 1.60431,-1.24743 l30.19183,38.82937 a1.01611,1.01611 0 1 1 -1.60431,1.24743 z" fill="#e4e4e4" id="svg_17"/><path d="M472.27932274902344,291.53404039794924 l-30.19184,-38.82937 a1.01616,1.01616 0 0 1 1.60439,-1.2475 l30.19184,38.82937 a1.01616,1.01616 0 1 1 -1.60439,1.2475 z" fill="#e4e4e4" id="svg_18"/><path d="M465.0841927490235,297.1286203979492 L434.8923627490234,258.2992203979492 a1.01611,1.01611 0 1 1 1.60431,-1.24743 L466.6885027490234,295.8812203979492 a1.01611,1.01611 0 1 1 -1.60431,1.24744 z" fill="#e4e4e4" id="svg_19"/><path d="M461.9144827490235,299.5932203979492 L431.7226427490234,260.76387039794923 a1.01616,1.01616 0 0 1 1.60439,-1.2475 l30.19184,38.82937 a1.01616,1.01616 0 0 1 -1.60439,1.2475 z" fill="#e4e4e4" id="svg_20"/><path d="M454.7193527490234,305.1878203979492 l-30.19183,-38.82937 a1.01611,1.01611 0 1 1 1.60431,-1.24744 l30.19183,38.82937 a1.01611,1.01611 0 1 1 -1.60431,1.24744 z" fill="#e4e4e4" id="svg_21"/><path d="M451.5496427490234,307.6524303979492 l-30.19184,-38.82936 a1.01616,1.01616 0 1 1 1.60439,-1.2475 l30.19184,38.82937 a1.01616,1.01616 0 0 1 -1.60439,1.24749 z" fill="#e4e4e4" id="svg_22"/><circle cx="503.43609619140625" cy="352.50799560546875" r="0.41718000173568726" fill="#fff" id="svg_23"/><path d="M533.7639427490234,462.2214403979492 h-3 v-27 a36.5,36.5 0 0 0 -73,0 v27 h-3 v-27 a39.5,39.5 0 0 1 79,0 z" fill="#2f2e41" id="svg_24"/><path d="M578.4139427490235,437.7414003979492 a19.41047,19.41047 0 0 0 -18.99,-15.02 H423.4039427490235 a19.582160000000002,19.582160000000002 0 0 0 -19.29,16.57 a224.54985,224.54985 0 0 0 -2.01,42.93 q0.3450000000000001,8.28 1.23,17 q0.5700000000000001,5.70008 1.36,11.6 a19.57249,19.57249 0 0 0 19.34,16.9 h135.13 a19.38984,19.38984 0 0 0 19.03,-15.23 q1.5,-6.66009 2.48,-13.27 a170.72812,170.72812 0 0 0 1.7000000000000002,-17 A159.654,159.654 0 0 0 578.4139427490235,437.7414003979492 z" fill="#6c63ff" id="svg_25"/><path d="M533.7639427490234,453.7214403979492 h-3 v-27 a36.5,36.5 0 0 0 -73,0 v27 h-3 v-27 a39.5,39.5 0 0 1 79,0 z" fill="#2f2e41" id="svg_26"/><path d="M496.7950227490235,430.30158039794924 l-5,-8.66027 a4.88352,4.88352 0 0 0 -9.03113,1.08013 v10 a3.5,3.5 0 0 0 7,0 v-0.5980800000000001 l0.9689400000000001,1.67822 a3.5,3.5 0 0 0 6.06219,-3.5 z" fill="#2f2e41" id="svg_27"/><circle cx="457.2638854980469" cy="453.721435546875" r="6" fill="#2f2e41" id="svg_28"/><circle cx="531.763916015625" cy="454.221435546875" r="6" fill="#2f2e41" id="svg_29"/><path d="M582.3738827490234,482.2214403979492 a170.72812,170.72812 0 0 1 -1.7000000000000002,17 H403.33394274902344 q-0.8850000000000001,-8.73009 -1.23,-17 z" fill="#3f3d56" id="svg_30"/><path d="M65.77808274902344,574.1096503979492 c3.4179,-27.4838 20.45086,-54.56332 46.66209,-63.50729 a127.60381,127.60381 0 0 0 0.006320000000000002,87.60863 c4.02766,10.89467 9.641770000000001,22.59279 5.85323,33.573 c-2.35719,6.83217 -8.12373,12.05938 -14.56956,15.327820000000001 c-6.44622,3.26843 -13.60019,4.82623 -20.66462,6.35286 l-1.39032,1.14988 C70.46054274902343,629.2912203979492 62.36019274902344,601.5934403979492 65.77808274902344,574.1096503979492 z" fill="#ffffff" id="svg_31" class="" fill-opacity="1"/><path d="M112.70027274902344,511.1220303979492 a109.06693,109.06693 0 0 0 -27.11387,61.38283 a46.96807,46.96807 0 0 0 0.53426,14.70626 a26.9383,26.9383 0 0 0 6.699870000000001,12.4945 c3.01978,3.31784 6.4929,6.3619200000000005 8.65358,10.356 a16.49435,16.49435 0 0 1 0.80583,13.46535 c-1.90766,5.47149 -5.66754,9.93122 -9.496,14.16468 c-4.25072,4.70045 -8.74036,9.51541 -10.54723,15.747 c-0.21893000000000004,0.7550000000000001 -1.3777,0.37119 -1.1591,-0.38271000000000005 c3.14366,-10.84185 13.66822,-17.00022 18.68736,-26.76533 c2.342,-4.55658 3.325,-9.84656 1.12944,-14.65649 c-1.92,-4.20608 -5.49879,-7.34823 -8.58542,-10.68118 a28.74515,28.74515 0 0 1 -7.00622,-11.97285 a43.42046,43.42046 0 0 1 -1.09769,-14.63146 a105.81419,105.81419 0 0 1 7.72806,-32.15611 a111.00121,111.00121 0 0 1 19.95939,-31.986 c0.52191,-0.58442 1.32619,0.3348800000000001 0.8076900000000001,0.91548 z" fill="#fff" id="svg_32"/><path d="M85.91494274902342,565.1179603979492 a16.36351,16.36351 0 0 1 -12.45586,-17.14139 c0.062190000000000016,-0.7829 1.28171,-0.7230000000000001 1.21943,0.06091000000000001 a15.15226,15.15226 0 0 0 11.61914,15.92138 c0.7641500000000001,0.18168 0.37707000000000007,1.33973 -0.38271000000000005,1.1591 z" fill="#fff" id="svg_33"/><path d="M91.06782274902343,598.2250003979492 a31.53933,31.53933 0 0 0 14.08421,-18.16434 c0.22159000000000004,-0.7542400000000001 1.38042,-0.37062000000000006 1.15909,0.38271000000000005 A32.80566,32.80566 0 0 1 91.61681274902344,599.3152203979492 c-0.6768600000000001,0.4015 -1.22218,-0.6909000000000002 -0.549,-1.09023 z" fill="#fff" id="svg_34"/><path d="M97.84613274902341,531.6267103979492 a9.26254,9.26254 0 0 0 8.77776,-0.4455800000000001 c0.6714300000000001,-0.40989000000000003 1.21605,0.6830000000000002 0.549,1.09022 a10.37942,10.37942 0 0 1 -9.70945,0.5144599999999999 a0.6308300000000001,0.6308300000000001 0 0 1 -0.38820000000000005,-0.7709 a0.6134200000000001,0.6134200000000001 0 0 1 0.77091,-0.38820000000000005 z" fill="#fff" id="svg_35"/><path d="M190.19282567428587,558.263188935318 c-0.4120000000000001,0.2678600000000001 -0.8240000000000002,0.5357200000000002 -1.23644,0.8138900000000002 a121.98241,121.98241 0 0 0 -15.59686,12.1769 c-0.38129,0.3400000000000002 -0.76258,0.6902800000000002 -1.1333199999999999,1.0405200000000001 a128.59689,128.59689 0 0 0 -27.92856,38.23074 a124.88246,124.88246 0 0 0 -6.84066,17.69882 c-2.52419,8.37552 -4.59465,17.65757 -9.59122,24.50842 a21.42471,21.42471 0 0 1 -1.669,2.06039 H81.0430056742859 c-0.10262000000000003,-0.051490000000000015 -0.20574000000000006,-0.09274000000000006 -0.3088600000000002,-0.14424000000000006 l-1.80285,0.08244000000000003 c0.07244,-0.3193600000000002 0.15443000000000007,-0.6490000000000002 0.22687000000000004,-0.9683900000000002 c0.041250000000000016,-0.18543000000000007 0.09256000000000006,-0.3708600000000002 0.1338,-0.5562900000000002 c0.03069000000000001,-0.12362000000000004 0.06188000000000002,-0.24730000000000005 0.08250000000000003,-0.3606100000000001 c0.010060000000000003,-0.041180000000000015 0.020620000000000006,-0.08237000000000003 0.03069000000000001,-0.11330000000000003 c0.020620000000000006,-0.11331000000000002 0.05181000000000003,-0.21637 0.07243000000000002,-0.3193600000000002 q0.6798500000000004,-2.76606 1.40093,-5.53217 c0,-0.010310000000000003 0,-0.010310000000000003 0.010060000000000003,-0.020620000000000006 c3.69876,-14.04162 8.60227,-27.89782 15.453,-40.56926 c0.20624000000000006,-0.3811700000000001 0.4120000000000001,-0.7726500000000002 0.6388500000000003,-1.15382 a119.16727,119.16727 0 0 1 10.70391,-16.236 a105.34914,105.34914 0 0 1 7.01572,-8.02523 A87.605,87.605 0 0 1 136.62246567428588,564.454648935318 c16.195,-8.55064 34.94428,-11.82666 52.25193,-6.60355 C189.31708567428586,557.9850689353179 189.75016567428588,558.1189389353179 190.19282567428587,558.263188935318 z" fill="#ffffff" id="svg_36" class="" fill-opacity="1"/><path d="M192.23417274902346,560.2648503979492 A109.06692,109.06692 0 0 0 133.62856274902344,592.9512203979492 a46.968,46.968 0 0 0 -8.42761,12.06378 a26.93831,26.93831 0 0 0 -2.17308,14.01 c0.41356000000000004,4.46722 1.35391,8.98881 0.6743500000000001,13.47877 a16.49433,16.49433 0 0 1 -7.46366,11.23649 c-4.81737,3.2201400000000002 -10.50449,4.51727 -16.1101,5.59249 c-6.224,1.19382 -12.70762,2.33522 -17.90214,6.22291 c-0.6293900000000001,0.47100000000000003 -1.32349,-0.5331 -0.6950500000000002,-1.00343 c9.03757,-6.76391 21.14861,-5.34452 31.03538,-10.11954 c4.6133500000000005,-2.22811 8.58318,-5.86 9.726,-11.02238 c0.9993599999999999,-4.51427 0.03366000000000001,-9.1778 -0.42417000000000005,-13.69734 a28.74505,28.74505 0 0 1 1.61441,-13.77788 a43.42045,43.42045 0 0 1 7.9327000000000005,-12.34329 a105.81414,105.81414 0 0 1 25.53062,-21.022 a111.00085,111.00085 0 0 1 35.19423,-13.52208 c0.7685700000000001,-0.15241000000000005 0.85726,1.06583 0.09371000000000003,1.21724 z" fill="#fff" id="svg_37"/><path d="M138.33833274902344,587.2509703979492 a16.36352,16.36352 0 0 1 0.37500000000000006,-21.18573 c0.521,-0.5876600000000001 1.45869,0.19437000000000001 0.937,0.78281 a15.15226,15.15226 0 0 0 -0.30854000000000004,19.70786 c0.50075,0.6051300000000001 -0.50554,1.29672 -1.00342,0.6950600000000001 z" fill="#fff" id="svg_38"/><path d="M122.51986274902345,616.7874703979492 a31.53942,31.53942 0 0 0 22.18165,-6.02355 c0.6310000000000001,-0.46880000000000005 1.3253300000000001,0.53519 0.6950000000000002,1.00343 a32.80564,32.80564 0 0 1 -23.09475,6.22113 c-0.78217,-0.08694000000000002 -0.5598700000000001,-1.28748 0.21805000000000002,-1.201 z" fill="#fff" id="svg_39"/><path d="M168.02873274902345,567.6934703979492 a9.26256,9.26256 0 0 0 7.27683,4.929 c0.78288,0.07700000000000001 0.5597300000000001,1.27749 -0.21806000000000003,1.201 a10.37943,10.37943 0 0 1 -8.0622,-5.4350000000000005 a0.6308400000000002,0.6308400000000002 0 0 1 0.15419000000000002,-0.8492400000000001 a0.6134000000000001,0.6134000000000001 0 0 1 0.8492400000000001,0.15419000000000002 z" fill="#fff" id="svg_40"/><path d="M540.4669427490235,587.7768003979493 c-22.8359,-24.79405 -34.58622,-61.91457 -22.27385,-93.293 a155.30529,155.30529 0 0 0 81.36824,68.91044 c13.28632,4.82963 28.5668,8.81791 35.784,20.97381 c4.49087,7.5636 4.80926,17.031 2.77417,25.58838 c-2.03541,8.55777 -6.21625,16.42717 -10.3556,24.18891 l-0.025780000000000004,2.1957400000000002 C595.3981227490234,626.8360503979492 563.3028227490234,612.5708503979492 540.4669427490235,587.7768003979493 z" fill="#ffffff" id="svg_41" class="" fill-opacity="1"/><path d="M518.8803027490235,492.5082333232117 A132.7443,132.7443 0 0 0 554.5585227490234,565.9753633232117 a57.16444,57.16444 0 0 0 14.07816,11.072330000000001 a32.78626,32.78626 0 0 0 16.87418,3.60639 c5.45679,-0.19457000000000005 11.016,-1.02551 16.425,0.10977000000000003 a20.07511,20.07511 0 0 1 13.13934,9.844 c3.5808,6.07574 4.76495,13.07578 5.68505,19.96148 c1.02159,7.64526 1.96158,15.60247 6.3275500000000005,22.18253 c0.529,0.79726 -0.7390000000000002,1.5714700000000001 -1.26722,0.7754099999999998 c-7.596,-11.44816 -5.03638,-26.06688 -10.15711,-38.40982 c-2.38943,-5.75945 -6.529,-10.8337 -12.72321,-12.57829 c-5.4165600000000005,-1.52557 -11.15,-0.6736000000000004 -16.67337,-0.4288400000000001 a34.98538,34.98538 0 0 1 -16.6307,-2.91153 a52.84685,52.84685 0 0 1 -14.45191,-10.49022 a128.78566,128.78566 0 0 1 -23.78461,-32.47238 a135.09837,135.09837 0 0 1 -14.005,-43.69794 c-0.13221000000000005,-0.94443 1.35423,-0.9682200000000002 1.48557,-0.030000000000000013 z" fill="#ffffff" id="svg_42" class="" fill-opacity="1"/><path d="M547.9566627490234,562.0022203979493 a19.91585,19.91585 0 0 1 -25.71768,-1.91615 c-0.6781700000000002,-0.6736200000000002 0.33674000000000004,-1.7591100000000002 1.01582,-1.08459 a18.44165,18.44165 0 0 0 23.92645,1.73352 c0.7698300000000001,-0.56676 1.5408400000000002,0.7037100000000001 0.7754099999999999,1.26722 z" fill="#fff" id="svg_43"/><path d="M582.7570427490234,583.2599603979493 a38.3862,38.3862 0 0 0 -5.79029,-27.369 c-0.52615,-0.79911 0.7417000000000001,-1.57356 1.26722,-0.7754099999999999 a39.927459999999996,39.927459999999996 0 0 1 5.96743,28.49213 c-0.15957000000000002,0.94445 -1.6030600000000002,0.59156 -1.44436,-0.34776000000000007 z" fill="#fff" id="svg_44"/><path d="M526.2384327490234,524.5760903979492 a11.27333,11.27333 0 0 0 6.4911,-8.50253 c0.14751000000000003,-0.9460000000000001 1.59091,-0.5920900000000001 1.44435,0.34776000000000007 a12.63269,12.63269 0 0 1 -7.16,9.422 a0.7677900000000002,0.7677900000000002 0 0 1 -1.02132,-0.24590000000000004 a0.7465700000000001,0.7465700000000001 0 0 1 0.24591000000000005,-1.02132 z" fill="#fff" id="svg_45"/><path d="M626.6319427490234,458.89947039794924 c-0.07531,0.5933200000000001 -0.15062,1.1866400000000001 -0.21675000000000003,1.78854 a148.46376,148.46376 0 0 0 -0.9602400000000001,24.06381 c0.01581,0.62156 0.04119000000000001,1.25123 0.07482000000000001,1.871 A156.514,156.514 0 0 0 639.0654327490234,542.6342203979492 a151.99366,151.99366 0 0 0 11.056,20.27558 c5.79283,8.93276 12.78448,18.15723 15.21647,28.18675 a26.07521,26.07521 0 0 1 0.60058,3.17085 L630.4188327490234,636.2022203979492 c-0.12855,0.05479000000000001 -0.24800000000000003,0.11811000000000002 -0.3769200000000001,0.17337 l-1.34163,1.73917 c-0.23962,-0.31849000000000005 -0.48129,-0.6540000000000001 -0.7209000000000001,-0.9724599999999999 c-0.13976000000000002,-0.18417 -0.27161,-0.37769 -0.41137000000000007,-0.56186 c-0.09067000000000003,-0.12574000000000002 -0.18100000000000002,-0.252 -0.27,-0.36029 c-0.030330000000000006,-0.041740000000000006 -0.06027000000000001,-0.08395000000000001 -0.08109000000000002,-0.11762000000000003 c-0.08900000000000002,-0.10829000000000003 -0.16018000000000002,-0.21832000000000001 -0.23961000000000002,-0.31850000000000006 q-2.03408,-2.80725 -4.03577,-5.65287 c-0.009580000000000003,-0.008110000000000001 -0.009580000000000003,-0.008110000000000001 -0.011240000000000003,-0.025570000000000006 c-10.13105,-14.48076 -19.14219,-29.93452 -25.52127,-46.26472 c-0.19176000000000004,-0.4913800000000001 -0.39350000000000007,-0.9904 -0.5690000000000001,-1.50094 a145.03647,145.03647 0 0 1 -6.65843,-22.71268 a128.21835,128.21835 0 0 1 -1.9343,-12.82854 a106.62272,106.62272 0 0 1 1.99427,-33.27732 c4.79848,-21.76673 16.50493,-41.75651 34.97057,-53.72165 C625.6846927490234,459.49403039794925 626.1497227490235,459.19711039794925 626.6319427490234,458.89947039794924 z" fill="#ffffff" id="svg_46" class="" fill-opacity="1"/><path d="M627.0842827490235,459.4445603979492 a132.74422,132.74422 0 0 0 -15.7452,80.1401 a57.164,57.164 0 0 0 4.57431,17.31666 A32.78627,32.78627 0 0 0 627.2151827490235,569.9402203979492 c4.47409,3.13 9.41306,5.81356 13.04837,9.97664 a20.07512,20.07512 0 0 1 4.56428,15.77065 c-0.79895,7.007 -4.068,13.30912 -7.479,19.36093 c-3.78728,6.71937 -7.8275500000000005,13.6387 -8.30321,21.52112 c-0.057630000000000015,0.95506 -1.5362,0.8097900000000001 -1.47866,-0.14383 c0.82758,-13.71406 11.6728,-23.84519 15.01549,-36.78337 c1.55976,-6.0372 1.30958,-12.581 -2.58578,-17.70331 c-3.40632,-4.47922 -8.49706,-7.25088 -13.05456,-10.38093 a34.98535,34.98535 0 0 1 -11.52574,-12.33752 a52.84687,52.84687 0 0 1 -5.2232,-17.07691 a128.78532,128.78532 0 0 1 0.5599400000000001,-40.24734 a135.09809,135.09809 0 0 1 15.127,-43.32232 c0.46305,-0.8336700000000001 1.6642000000000001,0.04227000000000001 1.20418,0.8705 z" fill="#fff" id="svg_47"/><path d="M609.7501027490234,530.7266303979492 a19.91586,19.91586 0 0 1 -19.38048,-17.01376 c-0.13591000000000003,-0.94615 1.328,-1.2018 1.46407,-0.25439 a18.44166,18.44166 0 0 0 18.06024,15.7895 c0.9559000000000001,0.011000000000000003 0.8066000000000001,1.48956 -0.14383,1.47865 z" fill="#fff" id="svg_48"/><path d="M624.7376227490234,568.6519903979492 A38.38622,38.38622 0 0 0 636.5924027490234,543.3132203979492 c0.06100000000000001,-0.9548200000000001 1.5396,-0.8098400000000001 1.47866,0.14383 A39.92748,39.92748 0 0 1 625.6814927490234,569.7992203979492 c-0.6960000000000002,0.6580000000000001 -1.63612,-0.49283000000000005 -0.9438700000000001,-1.14727 z" fill="#fff" id="svg_49"/><path d="M614.9424127490234,487.7680903979492 a11.27332,11.27332 0 0 0 10.30189,-2.8807 c0.6873500000000001,-0.6665200000000001 1.6267400000000003,0.48509 0.9438700000000001,1.14727 a12.63272,12.63272 0 0 1 -11.38959,3.21209 a0.7677800000000001,0.7677800000000001 0 0 1 -0.6674100000000001,-0.8112400000000001 a0.7465900000000001,0.7465900000000001 0 0 1 0.8112400000000001,-0.6674200000000001 z" fill="#fff" id="svg_50"/><path d="M62.49438274902343,639.5223203979492 c-4.144,0 -8.29652,0.17090000000000002 -12.35177,0.51563 l-0.5901900000000001,0.04980000000000001 c-26.89858,2.37793 -46.57364,16.17286 -45.76445,32.08985 l0.15643000000000004,2.87793 c0.10315,1.81933 0.21307,3.77539 0.30355000000000004,5.94531 c0.04900000000000001,1.07031 1.5093,1.8916000000000002 3.3263800000000003,1.8916000000000002 H669.2141427490234 c46.6489,-0.2832 93.12868,-0.6396500000000002 138.1406,-1.05957 a235.0853,235.0853 0 0 0 25.27343,-1.3095700000000001 c12.50905,-1.48047 21.19113,-4.415 26.54515,-8.97168 h0.0016900000000000003 c6.65784,-5.65039 6.86754,-12.76562 6.46506,-20.80469 c-0.82018,-16.23242 -1.6336000000000002,-33.28515 -2.4453300000000002,-50.28613 c-0.7170000000000001,-14.9834 -1.43066,-29.92676 -2.14431,-44.2334 c-0.4413700000000001,-8.49023 -1.42221,-15.98437 -8.9831,-21.71191 c-8.19505,-6.19434 -23.141,-9.334 -44.42341,-9.334 c-0.25705,0 -0.5124099999999999,0 -0.7728400000000001,0.0010000000000000002 c-66.69684,0.2373 -132.7832,23.1709 -164.4456,57.06738 c-3.646,3.90332 -7.04342,8.082 -10.32922,12.124 c-4.85513,5.9707 -9.87431,12.14355 -15.86417,17.66406 a74.55881,74.55881 0 0 1 -10.47973,8.16894 c-0.257,0.17774000000000004 -0.5513,0.36817000000000005 -0.86246,0.54883 c-0.7120000000000001,0.46387000000000006 -1.456,0.9111400000000001 -2.18151,1.3095700000000001 a75.76767,75.76767 0 0 1 -13.36474,6.07617 l-0.46843,0.15723000000000004 c-0.35259,0.126 -0.7347800000000001,0.25195 -1.117,0.36719 c-2.68039,0.8603500000000001 -5.46478,1.6044900000000002 -8.25424,2.20605 c-12.06936,2.6601600000000003 -25.79345,3.29785 -40.78925,1.89356 a197.11106,197.11106 0 0 1 -40.55672,-8.26465 c-13.88644,-4.38867 -26.88421,-9.86035 -39.45413,-15.15137 c-5.52143,-2.32519 -11.23226,-4.72851 -16.93548,-7.00586 c-1.07216,-0.42871000000000004 -2.12656,-0.8476500000000001 -3.197,-1.2666 c-6.96563,-2.71484 -13.281,-4.957 -19.3064,-6.85449 a190.55334,190.55334 0 0 0 -46.008,-8.52149 c-16.588,-0.9082 -31.20581,0.8046900000000001 -43.43751,5.07911 a74.59932,74.59932 0 0 0 -9.82527,4.23339 c-14.48762,7.52344 -23.41915,18.627 -32.05558,29.36524 c-10.74353,13.35644 -21.85319,27.16894 -43.7901,34.3291 c-25.31317,8.26953 -62.26194,4.834 -88.40291,-1.14062 c-8.21873,-1.87891 -16.42731,-4.04 -24.36616,-6.13086 q-4.80948,-1.2671000000000001 -9.62572,-2.51661 c-6.30948,-1.6289000000000002 -11.47325,-2.87695 -16.2506,-3.93066 l-1.5110000000000001,-0.33594000000000007 c-0.84048,-0.18261000000000002 -1.6818000000000002,-0.36523 -2.53834,-0.53906 c-5.67447,-1.19141 -10.9583,-2.12891 -16.1618,-2.86621 L84.06094274902344,641.0682203979492 c-2.46816,-0.32519000000000003 -4.77566,-0.5957000000000001 -7.04,-0.8232400000000001 l-0.9038900000000001,-0.08984000000000002 C71.68211274902345,639.7332203979493 67.09247274902344,639.5223203979492 62.49438274902343,639.5223203979492 z" fill="#ffffff" id="svg_51" class="" fill-opacity="1"/><path d="M237.2749427490234,228.2182203979492 c-2.089,-1.47454 -4.37445,-3.01218 -6.93063,-2.95071 c-6.18682,0.14877 -9.52244,9.21835 -15.70289,8.8994 c-3.94144,-0.20341000000000004 -6.55789,-4.20736 -10.2278,-5.6591700000000005 c-4.77785,-1.8900000000000001 -10.858,1.80641 -11.37928,6.91794 l0.6136000000000001,-0.5616000000000001 a148.14611,148.14611 0 0 0 56.75648,2.622 Q243.83976274902346,232.8521203979492 237.2749427490234,228.2182203979492 z" fill="#ffffff" id="svg_52" class="" fill-opacity="1"/><path d="M220.2749427490234,365.2182203979492 c-2.089,-1.47454 -4.37445,-3.01218 -6.93063,-2.95071 c-6.18682,0.14877 -9.52244,9.21835 -15.70289,8.8994 c-3.94144,-0.20341000000000004 -6.55789,-4.20736 -10.2278,-5.6591700000000005 c-4.77785,-1.8900000000000001 -10.858,1.80641 -11.37928,6.91794 l0.6136000000000001,-0.5616000000000001 a148.14611,148.14611 0 0 0 56.75648,2.622 Q226.83976274902346,369.8521203979492 220.2749427490234,365.2182203979492 z" fill="#ffffff" id="svg_53" class="" fill-opacity="1"/><path d="M640.0739970177078,107.01171039794923 c-5.24659,-7.14464 -10.98674,-14.595 -17.40678,-14.29714 c-15.53862,0.7208300000000002 -23.91628,44.66588 -39.4389,43.12048 c-9.8992,-0.9856 -16.47062,-20.386 -25.68786,-27.42053 c-11.99991,-9.15777 -27.27072,8.75264 -28.57985,33.51964 l1.54109,-2.72111 c46.49618,21.92466 95.20209,26.26554 142.54791,12.70452 Q656.5619570177079,129.4646403979492 640.0739970177078,107.01171039794923 z" fill="#ffffff" id="svg_54" class="" fill-opacity="1"/><circle cx="143.3353292942047" cy="130.22145080566406" r="44.999996185302734" fill="#ffffff" id="svg_55" class="" fill-opacity="1"/><circle cx="371.7638854980469" cy="43.22145080566406" r="15" fill="#2f2e41" id="svg_56"/><circle cx="395.7638854980469" cy="77.22145080566406" r="38" fill="#2f2e41" id="svg_57"/><polygon points="376.201 650.637 394.082 650.637 402.592 581.669 376.201 581.669 376.201 650.637" fill="#9e616a" id="svg_58"/><path d="M370.3659427490235,638.3906603979492 l28.56664,-1.70505 v12.23919 l27.1591,18.75705 a7.64506,7.64506 0 0 1 -4.34418,13.93624 H387.7378227490234 l-5.86208,-12.10643 L379.5869427490235,681.6180903979492 H366.7639427490234 z" fill="#2f2e41" id="svg_59"/><polygon points="269.971 628.072 284.32 638.742 332.303 588.475 311.126 572.728 269.971 628.072" fill="#9e616a" id="svg_60"/><path d="M272.59641274902344,614.7622203979492 l23.94081,15.67793 l-7.30331,9.82137 l10.60128,31.25791 a7.64506,7.64506 0 0 1 -11.802,8.59094 l-27.291150000000002,-20.29408 l2.52005,-13.21284 l-9.06079,8.349 l-10.28985,-7.65167 z" fill="#2f2e41" id="svg_61"/><rect x="366.7638854980469" y="269.221435546875" width="68" height="64" fill="#9e616a" id="svg_62"/><path d="M355.38382274902347,294.08193466663363 s-33.92617,29.31063 -18.27305,112.86791 l19.11,81.87225 L293.89781274902344,592.2149346666336 L313.76952274902345,616.3899346666336 l81.02127,-111.911 l29.36,-68.8691 l15.53,-120.69995 z" fill="#455a64" id="svg_63" class="" stroke="none" fill-opacity="1"/><polygon points="407.969 455.95 410.009 487.552 403.764 622.221 374.379 617.104 368.764 521.221 407.969 455.95" fill="#2f2e41" id="svg_64"/><polygon points="417.08599853515625,124.31042695045471 384.2760009765625,125.59042572975159 371.1990051269531,147.2964346408844 341.3659973144531,153.12042450904846 359.1759948730469,243.2204306125641 341.58599853515625,308.6104300022125 404.7909851074219,336.2704336643219 418.8559875488281,294.1204397678375 437.5480041503906,345.220415353775 467.5589904785156,312.5874197483063 442.8580017089844,249.59442353248596 455.635986328125,199.90042328834534 452.7640075683594,147.79242157936096 428.7640075683594,144.79242157936096 417.08599853515625,124.31042695045471 " fill="#cccccc" id="svg_65" class="" fill-opacity="1"/><circle cx="398.9083251953125" cy="84.3327407836914" r="30.879289627075195" fill="#9e616a" id="svg_66"/><path d="M419.87852274902343,52.85558039794921 a35.37124,35.37124 0 0 0 -53.7768,30.86976 c15.73459,3.9505 32.26477,6.97367 49.04459,0.94491 l3.96265,-9.69832 l2.33621,9.70551 c5.11,2.08865 10.23327,3.85588 15.3565,-0.020170000000000004 A36.116,36.116 0 0 0 419.87852274902343,52.85558039794921 z" fill="#2f2e41" id="svg_67"/><path d="M357.7979427490235,2.5020803979492143 c-10.37244,-4.75592 -23.387,-2.52429 -32.02362,4.93323 c-8.63672,7.45752 -12.74262,19.59479 -11.07526,30.88312 c1.70087,11.51581 8.70172,21.43243 15.15491,31.120730000000002 c6.45325,9.68823 12.75775,20.30444 12.75055,31.94513 a31.66669,31.66669 0 0 1 -31.60382,31.64715 c9.84027,4.23627 20.1109,8.55561 30.81256,8.05341 c10.70172,-0.50214 21.91858,-7.3819 23.66424,-17.95215 c1.25788,-7.61627 -2.4788200000000002,-15.04309 -5.59533,-22.10547 a156.36459,156.36459 0 0 1 -10.928,-35.97308 c-1.04083,-5.912 -1.7185700000000002,-12.12726 0.20886000000000002,-17.81232 a20.9162,20.9162 0 0 1 20.77863,-13.72589 l3.536,-3.18121 C375.0506427490234,19.032790397949213 368.1704527490234,7.257940397949213 357.7979427490235,2.5020803979492143 z" fill="#2f2e41" id="svg_68"/><path d="M860.4846927490235,682.6672203979492 h-859.294 a1.19069,1.19069 0 0 1 0,-2.38137 h859.294 a1.19069,1.19069 0 0 1 0,2.38137 z" fill="#ccc" id="svg_69"/><path d="M342.6691627490234,352.2214403979492 H313.15647274902346 a4.57,4.57 0 0 0 -3.49854,1.61738 a6.999,6.999 0 1 0 1.80567,13.17309 l3.44775,28.95416 a4.6111,4.6111 0 0 0 4.40771,3.25537 h19.188 a4.611,4.611 0 0 0 4.40723,-3.25537 l4.1626,-37.77691 A4.611800000000001,4.611800000000001 0 0 0 342.6691627490234,352.2214403979492 zm-34.25635,13.5 a5,5 0 0 1 0,-10 c0.09131000000000002,0 0.17627,0.022100000000000005 0.26661,0.026920000000000006 a4.56348,4.56348 0 0 0 0.06982000000000002,2.4408000000000003 l2.11182,6.86474 A4.93673,4.93673 0 0 1 308.41281274902343,365.7214403979492 z" fill="#6c63ff" id="svg_70"/><path d="M318.14279274902344,399.2474703979492 a11.74518,11.74518 0 0 0 -1.63333,-17.93562 L335.2099427490234,288.42759039794925 l-20.65117,6.63046 L299.58994274902346,384.90037039794925 a11.80884,11.80884 0 0 0 18.55284,14.3471 z" fill="#9e616a" id="svg_71"/><path d="M352.7501212863922,162.792298935318 l-12.81306,-9.672 s-11.30315,-0.80044 -13.305,19.5834 s-14.53611,98.61661 -14.53611,98.61661 l-19.60653,90.81 l27.14078,5.95727 l21,-98 l21.02157,-67.61024 z" fill="#cccccc" id="svg_72" class="" fill-opacity="1"/><circle cx="464.7638854980469" cy="241.52066040039062" r="7.253089904785156" fill="#6c63ff" id="svg_73"/></g></svg>